/* XPM */
static char *bmp_player_icon[] = {
/* columns rows colors chars-per-pixel */
"48 48 43 1",
"  c #E36E45",
". c #E3734C",
"X c #E47650",
"o c #E57954",
"O c #E67D59",
"+ c #E6805D",
"@ c #E78462",
"# c #E88665",
"$ c #E88866",
"% c #E88B6B",
"& c #E98F70",
"* c #E99274",
"= c #EA9679",
"- c #EB997C",
"; c #EB9D82",
": c #ECA086",
"> c #EDA48B",
", c #EEA88F",
"< c #EEAA93",
"1 c #EEAE98",
"2 c #EFB09A",
"3 c #F0B29C",
"4 c #F0B5A0",
"5 c #F0B9A5",
"6 c #F1BCAA",
"7 c #F2C0AE",
"8 c #F3C4B4",
"9 c #F4C7B8",
"0 c #F4C9BA",
"q c #F5CEC1",
"w c #F5D1C4",
"e c #F6D6CA",
"r c #F7D8CD",
"t c #F7DAD0",
"y c #F8DDD4",
"u c #F9E4DD",
"i c #FAE6E0",
"p c #FAEAE5",
"a c #FBEDE8",
"s c #FCF1ED",
"d c #FCF5F2",
"f c #FDF8F6",
"g c #FEFEFE",
/* pixels */
"-::::>;:;;;;;;;;;;--;==;========******&*&%&&%&%&",
">4443332111<<<,,>>>>:>::;;;;3;==2;=*1;*&,;%%;;$%",
":4343322111<<<,,,,>>>::::;;yga;wgd=9gf=5gg;<gg;%",
">443332111<<<,,,>>>::::;;;;igs;ygg=wgg;8gg:5gg<%",
":433322111<<<,,,>>>::::;;;-,q1=;02*;92&*74%%65$%",
":4333211<1<<,,,,>>:>:::;;-;======***;=&&;*%$=&@%",
">3332111<<<<,,>>>>:::;;;;--;-===**&6gf*2gf=:gf;%",
":332111<<<,,,,>>>::::;;;--=;==*=***egg;9gg>5gg<%",
":32211<1<<,,,>>>:>::;;-;;--=====**&;w5%=q6$%88@%",
":32211<<<,,,,>>>:::;;;;;--=====&*&&&&%%%$$$$@@@$",
";3211<<<<,,,>>>>::;;;;;=-=====&=*&&&%%%%$$$@@@@$",
":21111<,,,,,>>>:::;;;;;;;=====&&*&&%%%%$$$$@@@@$",
";211<<<<,,,>>>>:::;;;;======&=&&&&&&%%%$$$@@@++$",
";211<<<,,,>,>:::::;;;=;====&=&=&&&%%%%$$$@$@@@+$",
";11<<<,<,>>>::::;;;;=;=;====&=&&&%&%$%$$@@@@@O@$",
";11<<<,,>,>:>:::;;;;;;=====&=&&&&%%%$$$$$@@@@+O$",
";<<<<<<,>>>>>::;;;-;--====*****%%%%%$$$#@@@@+OO$",
";1<<><>>>>>::::;;;;=--===****%*%%%%$$$$$@@@O+++@",
";<<<<><>>>>::;;;;;-=-===***&%*%%%%$$$$@@@@@O++O$",
";<<<><>>>>:>:;;;-;--=====****%*%%%%$$$@@O@@OOOO$",
";<<8qqqq0q0092;;99009<=***-88878*,67766654<$+OO@",
";<<agggggggggg7;dggggu****8ggggg-9gggggggggf;OO@",
";,,aggpppppdggy;dggfgg<***dggfgg-0ggfddsfgggwoo@",
"-<,agf>>:::2ggy-fgs5ggr**6ggwegg-0gg2+@++-gguOO@",
";,<agguuuuidgg6-dgs=agg;*agg-egg=0gg2@+++%gguOo@",
";>>agggggggggs5-dgs=5ggw4ggq%egg=9ggirrrraggeoo@",
"-,>agg211112sgf-fgs=*agfpgg-%rgg=9gggggggggg,oo+",
"-,>agf655545fgg;dgd**4ggggq%%rgg=9ggieeeew8;ooo@",
"->>pggggggggggf=dgd=**iggg-$%tgg=9gg1+OOOOOooo.@",
"->>aggggggggfa5=dgd***3ggq%$$rgg=8gg1++OOoooooo@",
"->:>>::;;-----===****%%*%%%%$$$#@@+++OOoOoooo.X@",
"->>>;;;;;;---===******%%%$$%$$@@@+@++OOOOoooXoX@",
"-:>;;;:;;----===****%**%%$$$##@@++++OOOOoooXXX.+",
"->>;:;;;----===****%%%%%$%$$$#@@@+++OoOooooX.XX@",
"-::;;;-;;--==*****&**%%%$$$$@@@@+++OOOOooo.oX..+",
"->;:;;;;--=====*=&&%%%%%%$$$#@+@+++OOOooooo.XX.+",
"=:;;;;----====***&&*&%%%$$#@@@++++OOOoooooX....+",
"-:;;;;---===****&&%%%%$$$$#@@@+++OOOOoooXXXX...+",
"=;;;;;--====***%&&*%%%$$$##@+@++OOOOoooXXXX....+",
"=;;;----===******%%%%$$$$#@@@++++OOoooooo... ..+",
"-:;;----==*=***%%%%%%$$###+#+++OOOOoooXo...... +",
"=;---=-====*%**%*%%%$%$$#+#+++++OOooooXX.X..   +",
"=-----===****%*%%%%%$$$##+++++OOOoooXoX.X....  +",
"=;----===******%%%$%%$@@#+++++OOOoooXXXX....   +",
"=---===*****%*%%%%$$$#@@+++++o+OoOooXX.X.. .   +",
"=----===*****%%%%%$$$#@##++++OOooooXoX.....    O",
"=---====**%**%*%%%$$#@#+#+++OOOoooXX.....      O",
"**=******%**%*%%%%%%%%%$$$$$####@@@@@@@@+@+++O+$"
};
