/* XPM */
static char * backend_dummy_icon_xpm[] = {
"48 48 801 2",
"  	c #FFFFFF",
". 	c #D4D4D4",
"+ 	c #BEBEBE",
"@ 	c #DFDFDF",
"# 	c #E7E7E7",
"$ 	c #F4F4F4",
"% 	c #7F7F7F",
"& 	c #484848",
"* 	c #AEAEAE",
"= 	c #C0C0C0",
"- 	c #EFEFEF",
"; 	c #C1C1C1",
"> 	c #FEFEFE",
", 	c #7A7A7A",
"' 	c #6E6E6E",
") 	c #E2E2E2",
"! 	c #9A9A9A",
"~ 	c #767676",
"{ 	c #D9D9D9",
"] 	c #CBCBCB",
"^ 	c #DDDDDD",
"/ 	c #9C9C9C",
"( 	c #B9B9B9",
"_ 	c #D0D0D0",
": 	c #BFBFBF",
"< 	c #E4E4E4",
"[ 	c #C2C2C2",
"} 	c #E3E3E3",
"| 	c #DCDCDC",
"1 	c #F7F6F6",
"2 	c #C8C7C7",
"3 	c #ABAAAA",
"4 	c #868585",
"5 	c #686666",
"6 	c #5C5B5B",
"7 	c #595858",
"8 	c #626161",
"9 	c #737272",
"0 	c #8D8C8C",
"a 	c #A5A4A4",
"b 	c #D5D5D5",
"c 	c #A2A2A2",
"d 	c #C6C6C6",
"e 	c #D2D2D2",
"f 	c #D8D8D8",
"g 	c #AEADAD",
"h 	c #8C8B8B",
"i 	c #8A8989",
"j 	c #828080",
"k 	c #757373",
"l 	c #787676",
"m 	c #7B7A7A",
"n 	c #727272",
"o 	c #717070",
"p 	c #676666",
"q 	c #656464",
"r 	c #9B9A9A",
"s 	c #EAEAEA",
"t 	c #C7C7C7",
"u 	c #7C7C7C",
"v 	c #E6E6E6",
"w 	c #A6A5A5",
"x 	c #9E9C9C",
"y 	c #999898",
"z 	c #908E8E",
"A 	c #858484",
"B 	c #767575",
"C 	c #6E6C6E",
"D 	c #6F6D70",
"E 	c #6B6A6E",
"F 	c #6B6A6F",
"G 	c #6E6C70",
"H 	c #767577",
"I 	c #707070",
"J 	c #5F5E5E",
"K 	c #949393",
"L 	c #F0F0F0",
"M 	c #F1F1F1",
"N 	c #ABABAB",
"O 	c #454545",
"P 	c #F6F6F6",
"Q 	c #B0AFAF",
"R 	c #969595",
"S 	c #8E8D8D",
"T 	c #807E80",
"U 	c #817F80",
"V 	c #84847B",
"W 	c #838476",
"X 	c #BEC0B1",
"Y 	c #C7C8AE",
"Z 	c #C7C8AB",
"` 	c #BABBA2",
" .	c #909182",
"..	c #858676",
"+.	c #69686A",
"@.	c #6E6D71",
"#.	c #C3C3C3",
"$.	c #989898",
"%.	c #E5E5E5",
"&.	c #FCFCFC",
"*.	c #878787",
"=.	c #7B7B7B",
"-.	c #929191",
";.	c #929090",
">.	c #8F8C8C",
",.	c #868485",
"'.	c #7E7D7B",
").	c #9E9E96",
"!.	c #C3C3B4",
"~.	c #FDFDEC",
"{.	c #FAFCE2",
"].	c #F8F9D6",
"^.	c #F4F6D1",
"/.	c #F3F6CE",
"(.	c #F3F5CA",
"_.	c #F8FACC",
":.	c #F8FACE",
"<.	c #DFE0B5",
"[.	c #BCBC9C",
"}.	c #6D6C65",
"|.	c #6B6A70",
"1.	c #757474",
"2.	c #7A7979",
"3.	c #666464",
"4.	c #A09F9F",
"5.	c #E1E0E0",
"6.	c #7A7878",
"7.	c #848383",
"8.	c #868484",
"9.	c #848182",
"0.	c #797778",
"a.	c #9E9F9A",
"b.	c #E0E1D7",
"c.	c #FCFDE9",
"d.	c #F8F9E0",
"e.	c #F7F9DE",
"f.	c #F6F8DB",
"g.	c #F6F8D8",
"h.	c #F5F7D4",
"i.	c #F4F6D0",
"j.	c #F4F6CC",
"k.	c #F2F5C8",
"l.	c #F2F4C5",
"m.	c #F0F4C0",
"n.	c #F2F6BE",
"o.	c #F9FBC5",
"p.	c #B7B793",
"q.	c #676668",
"r.	c #727072",
"s.	c #6A6969",
"t.	c #939292",
"u.	c #E7E8E8",
"v.	c #696767",
"w.	c #747272",
"x.	c #767474",
"y.	c #A8A9A0",
"z.	c #FEFEF3",
"A.	c #FAFBE7",
"B.	c #F9FAE6",
"C.	c #F9FAE5",
"D.	c #F8F9E2",
"E.	c #F6F8D7",
"F.	c #F5F7D3",
"G.	c #F4F6CE",
"H.	c #F3F6CA",
"I.	c #F2F5C7",
"J.	c #F1F4C2",
"K.	c #F0F3BE",
"L.	c #EFF2B9",
"M.	c #F1F4B6",
"N.	c #E1E3A8",
"O.	c #6D6D67",
"P.	c #A2A1A1",
"Q.	c #C4C4C4",
"R.	c #999999",
"S.	c #6C6C6C",
"T.	c #E8E8E8",
"U.	c #777676",
"V.	c #797878",
"W.	c #727171",
"X.	c #6C6B6B",
"Y.	c #C2C2BD",
"Z.	c #FEFEF6",
"`.	c #FAFCED",
" +	c #FBFBEC",
".+	c #FAFBEA",
"++	c #FAFBE8",
"@+	c #F6F8DA",
"#+	c #F6F7D6",
"$+	c #F4F7D0",
"%+	c #F2F4C4",
"&+	c #F0F3BF",
"*+	c #EFF3BA",
"=+	c #EEF2B6",
"-+	c #F0F4B2",
";+	c #DEE0A2",
">+	c #84837D",
",+	c #C5C5C5",
"'+	c #EBEBEB",
")+	c #CCCCCC",
"!+	c #898888",
"~+	c #7C7B7B",
"{+	c #6D6C6D",
"]+	c #A8A7A0",
"^+	c #FDFDF5",
"/+	c #FCFCF0",
"(+	c #FCFCF2",
"_+	c #FCFCF1",
":+	c #FBFCEF",
"<+	c #FAFBEC",
"[+	c #F6F8DC",
"}+	c #F4F7D2",
"|+	c #F2F5C9",
"1+	c #F1F4C0",
"2+	c #F0F2BB",
"3+	c #EEF2B7",
"4+	c #EEF1B2",
"5+	c #ECF0AE",
"6+	c #DEDF9D",
"7+	c #6C6C66",
"8+	c #727172",
"9+	c #787878",
"0+	c #6C6A6A",
"a+	c #EDEDED",
"b+	c #747474",
"c+	c #6C6A6C",
"d+	c #999894",
"e+	c #FBFCF2",
"f+	c #FCFDF4",
"g+	c #FCFDF6",
"h+	c #FDFDF6",
"i+	c #FCFCF3",
"j+	c #F8FAE2",
"k+	c #F7F8DE",
"l+	c #F6F8D9",
"m+	c #F4F6CF",
"n+	c #F2F5CA",
"o+	c #F2F4C6",
"p+	c #F0F4C1",
"q+	c #F0F3BC",
"r+	c #EEF2B8",
"s+	c #EEF1B3",
"t+	c #EDF0AE",
"u+	c #EEF2AB",
"v+	c #D8DA9C",
"w+	c #626069",
"x+	c #F2F2F2",
"y+	c #B5B5B5",
"z+	c #FDFDFD",
"A+	c #B7B6B6",
"B+	c #8A8888",
"C+	c #7E7D7D",
"D+	c #6A6968",
"E+	c #FEFEF8",
"F+	c #FDFEF8",
"G+	c #FEFFFC",
"H+	c #A6A6A8",
"I+	c #A7A7A7",
"J+	c #FBFCEA",
"K+	c #F8FAE3",
"L+	c #F9FAD0",
"M+	c #E5E6BE",
"N+	c #A6A598",
"O+	c #AAA998",
"P+	c #FAFCC2",
"Q+	c #F0F4B4",
"R+	c #ECF0AA",
"S+	c #EEF2A6",
"T+	c #A8A886",
"U+	c #6F6D72",
"V+	c #7E7C7C",
"W+	c #404040",
"X+	c #FAFAFA",
"Y+	c #8E8E8E",
"Z+	c #747373",
"`+	c #6A696B",
" @	c #BABAB6",
".@	c #FBFCED",
"+@	c #FCFCF4",
"@@	c #FEFEFB",
"#@	c #7F7F80",
"$@	c #AEAEAF",
"%@	c #D3D3D4",
"&@	c #82827F",
"*@	c #D2D3CD",
"=@	c #F9FAE3",
"-@	c #F5F7D5",
";@	c #FAFAD6",
">@	c #828185",
",@	c #AAA9B0",
"'@	c #D4D4D6",
")@	c #84848B",
"!@	c #D2D4A6",
"~@	c #EAEEA4",
"{@	c #F7FAAB",
"]@	c #5D5C64",
"^@	c #807F7F",
"/@	c #929292",
"(@	c #CFCFCF",
"_@	c #F8F8F8",
":@	c #CACACA",
"<@	c #9A9999",
"[@	c #6E6C6B",
"}@	c #FEFEF5",
"|@	c #FAFBE9",
"1@	c #FBFCEE",
"2@	c #D4D3D4",
"3@	c #7E7E7C",
"4@	c #FCFCEC",
"5@	c #D4D4C2",
"6@	c #ACACAF",
"7@	c #808079",
"8@	c #F4F7B2",
"9@	c #EAEEA5",
"0@	c #ECF1A1",
"a@	c #A6A486",
"b@	c #727173",
"c@	c #A7A6A6",
"d@	c #868686",
"e@	c #787777",
"f@	c #717071",
"g@	c #959590",
"h@	c #FCFCEB",
"i@	c #FAFAE8",
"j@	c #AAAAA8",
"k@	c #D2D2C9",
"l@	c #F7F9DC",
"m@	c #FAFBD9",
"n@	c #818084",
"o@	c #ABABAD",
"p@	c #D2D3A2",
"q@	c #EBF0A9",
"r@	c #E9EEA0",
"s@	c #D6D890",
"t@	c #64626E",
"u@	c #838383",
"v@	c #828181",
"w@	c #CECECE",
"x@	c #949494",
"y@	c #6C6A6D",
"z@	c #C3C3B9",
"A@	c #F8FAE1",
"B@	c #FCFDF5",
"C@	c #A4A4A6",
"D@	c #A2A29B",
"E@	c #F7F8DA",
"F@	c #FAFBDD",
"G@	c #A6A5AB",
"H@	c #A4A483",
"I@	c #EBEFA8",
"J@	c #EAEFA3",
"K@	c #E9EE9F",
"L@	c #F4F6A3",
"M@	c #5F5E62",
"N@	c #9F9E9E",
"O@	c #888787",
"P@	c #9E9E9E",
"Q@	c #68676A",
"R@	c #E2E2D2",
"S@	c #F8F9DE",
"T@	c #A2A2A4",
"U@	c #9E9F96",
"V@	c #FAFBDA",
"W@	c #A2A2A9",
"X@	c #A0A07E",
"Y@	c #EBEFA7",
"Z@	c #EAEEA2",
"`@	c #E8EE9E",
" #	c #F0F49C",
".#	c #7F7F77",
"+#	c #727070",
"@#	c #6D6C6A",
"##	c #FAFCE8",
"$#	c #A2A298",
"%#	c #F5F8D6",
"&#	c #FAFAD9",
"*#	c #A5A5AA",
"=#	c #A4A481",
"-#	c #EAEFA6",
";#	c #EAEEA1",
">#	c #E9ED9C",
",#	c #E7EC96",
"'#	c #999881",
")#	c #585757",
"!#	c #77766F",
"~#	c #FAFBE2",
"{#	c #FBFCE7",
"]#	c #7F7F81",
"^#	c #282828",
"/#	c #686868",
"(#	c #A9A9A1",
"_#	c #D2D2C3",
":#	c #F5F7D2",
"<#	c #F9FAD1",
"[#	c #80807F",
"}#	c #AAAAA5",
"|#	c #D2D29E",
"1#	c #EAEFA4",
"2#	c #E8ED9B",
"3#	c #EAEF98",
"4#	c #99987D",
"5#	c #ACABAB",
"6#	c #808075",
"7#	c #DFDFC7",
"8#	c #F6F8D6",
"9#	c #D3D3C8",
"0#	c #BBBBBB",
"a#	c #1E1E1E",
"b#	c #666667",
"c#	c #7C7C72",
"d#	c #FAFBDB",
"e#	c #F3F5CC",
"f#	c #D3D4B6",
"g#	c #7E7E6B",
"h#	c #F3F6AC",
"i#	c #E9EE9E",
"j#	c #E8ED9A",
"k#	c #F2F69C",
"l#	c #575849",
"m#	c #636262",
"n#	c #ECEBEB",
"o#	c #7F7E7E",
"p#	c #8B8A8A",
"q#	c #61605C",
"r#	c #DFE0C2",
"s#	c #FAFCDF",
"t#	c #7C7D73",
"u#	c #B0AFAE",
"v#	c #939394",
"w#	c #CCCCC9",
"x#	c #7F7F70",
"y#	c #D2D2BC",
"z#	c #F7FAC7",
"A#	c #7E7E71",
"B#	c #B0B0B0",
"C#	c #CCCCCA",
"D#	c #808179",
"E#	c #D1D29D",
"F#	c #EAEFA5",
"G#	c #EAEEA0",
"H#	c #E8ED9C",
"I#	c #E8EC98",
"J#	c #F1F597",
"K#	c #898A74",
"L#	c #888686",
"M#	c #B1B1B1",
"N#	c #88898C",
"O#	c #ACADAF",
"P#	c #A6A6A6",
"Q#	c #878686",
"R#	c #787877",
"S#	c #B7B89D",
"T#	c #F3F6CC",
"U#	c #F4F7D1",
"V#	c #F4F6D2",
"W#	c #FAFADA",
"X#	c #D2D2BF",
"Y#	c #A2A292",
"Z#	c #A5A592",
"`#	c #FCFDE2",
" $	c #F6F8CF",
".$	c #F1F4C5",
"+$	c #F6F8C0",
"@$	c #D2D3A9",
"#$	c #A3A482",
"$$	c #A6A684",
"%$	c #F8FAB7",
"&$	c #EEF2A9",
"*$	c #F2F59E",
"=$	c #414148",
"-$	c #7E7E7E",
";$	c #FBFBFB",
">$	c #666344",
",$	c #696F76",
"'$	c #E4E3E3",
")$	c #BBBABA",
"!$	c #A8A7A7",
"~$	c #A5A49C",
"{$	c #B2B29D",
"]$	c #F5F8CA",
"^$	c #F3F6CB",
"/$	c #F4F6CD",
"($	c #F1F4C1",
"_$	c #EFF2BB",
":$	c #EEF1B4",
"<$	c #EDF1B0",
"[$	c #ECF0AD",
"}$	c #EBF0A8",
"|$	c #E8EC99",
"1$	c #E7EC94",
"2$	c #F6F8AF",
"3$	c #444445",
"4$	c #A3A2A2",
"5$	c #CDCDCD",
"6$	c #B7B7B7",
"7$	c #8C8B7A",
"8$	c #61593A",
"9$	c #B4B5B7",
"0$	c #D0CFD6",
"a$	c #F2F2B2",
"b$	c #86866E",
"c$	c #F8FACF",
"d$	c #F2F4C7",
"e$	c #F3F5C9",
"f$	c #F2F5C6",
"g$	c #F0F3BD",
"h$	c #EFF2BA",
"i$	c #EDF1B1",
"j$	c #EBEFAA",
"k$	c #E9ED9E",
"l$	c #E6EB90",
"m$	c #9F9E70",
"n$	c #626263",
"o$	c #5A5B61",
"p$	c #CBB250",
"q$	c #757A83",
"r$	c #ACACAE",
"s$	c #A1A09B",
"t$	c #F8FE9A",
"u$	c #65646D",
"v$	c #DEDFB6",
"w$	c #F1F4C3",
"x$	c #F1F4C4",
"y$	c #EFF3BC",
"z$	c #EEF2B4",
"A$	c #EBEFA6",
"B$	c #E6EC94",
"C$	c #EFF48E",
"D$	c #5C5A6B",
"E$	c #72727A",
"F$	c #BCBCBC",
"G$	c #948A57",
"H$	c #5A5548",
"I$	c #C8C8BB",
"J$	c #FBFE9D",
"K$	c #9D9C95",
"L$	c #74755E",
"M$	c #F6F9C2",
"N$	c #F0F2BC",
"O$	c #EFF2B8",
"P$	c #EEF2B5",
"Q$	c #EDF1B2",
"R$	c #EAEEA3",
"S$	c #E7EC98",
"T$	c #E6EB8F",
"U$	c #C4C691",
"V$	c #88877C",
"W$	c #D8D8B9",
"X$	c #ACACAC",
"Y$	c #7A8693",
"Z$	c #887750",
"`$	c #C0C38A",
" %	c #A4A39C",
".%	c #E0DFE2",
"+%	c #91918E",
"@%	c #D8DAAE",
"#%	c #F1F5BB",
"$%	c #DADDA4",
"%%	c #EAEDAC",
"&%	c #ECF0AC",
"*%	c #ECEFA9",
"=%	c #E7EC95",
"-%	c #EAEF94",
";%	c #E4E891",
">%	c #83827E",
",%	c #FAFCA8",
"'%	c #F4F89C",
")%	c #A2A1B6",
"!%	c #6E717A",
"~%	c #C0AC50",
"{%	c #575C67",
"]%	c #D2D2D4",
"^%	c #EEEEEE",
"/%	c #737466",
"(%	c #DDE0AA",
"_%	c #67684C",
":%	c #727453",
"<%	c #DADE9D",
"[%	c #E6EB92",
"}%	c #EEF292",
"|%	c #373820",
"1%	c #E6E6EA",
"2%	c #CFD0C4",
"3%	c #F3F6B1",
"4%	c #EEF0AB",
"5%	c #CECED5",
"6%	c #C2C2C8",
"7%	c #AAA982",
"8%	c #9E925B",
"9%	c #3B3730",
"0%	c #9D9D9D",
"a%	c #BBBABB",
"b%	c #6A6C5C",
"c%	c #F0F3B2",
"d%	c #EDF0B0",
"e%	c #ECF0B0",
"f%	c #D9DC9D",
"g%	c #EEF390",
"h%	c #8C8C75",
"i%	c #818085",
"j%	c #9F9F9F",
"k%	c #A0A0AE",
"l%	c #FAFEAA",
"m%	c #B2B2C2",
"n%	c #D4D4C8",
"o%	c #838368",
"p%	c #686E76",
"q%	c #6E6140",
"r%	c #7F828C",
"s%	c #797A68",
"t%	c #DEDFA3",
"u%	c #EFF3AE",
"v%	c #ECF0AB",
"w%	c #E9EE9D",
"x%	c #E6EC92",
"y%	c #F4F896",
"z%	c #65664C",
"A%	c #85858A",
"B%	c #F1F1F3",
"C%	c #DCDE94",
"D%	c #E1E39F",
"E%	c #E1E3BD",
"F%	c #9D9C7F",
"G%	c #BFC1C2",
"H%	c #968E54",
"I%	c #727988",
"J%	c #50504E",
"K%	c #D1D39D",
"L%	c #F3F6AD",
"M%	c #EAEFA7",
"N%	c #E8ED99",
"O%	c #E9EE90",
"P%	c #F6FAA8",
"Q%	c #4A4A44",
"R%	c #909094",
"S%	c #B6B6B6",
"T%	c #BABABA",
"U%	c #B7B7C0",
"V%	c #F5F894",
"W%	c #92919F",
"X%	c #ACABB2",
"Y%	c #EDEEB2",
"Z%	c #B8B795",
"`%	c #888876",
" &	c #726949",
".&	c #9C9C9E",
"+&	c #88888C",
"@&	c #60604F",
"#&	c #D2D497",
"$&	c #F4F6AB",
"%&	c #EDF1A2",
"&&	c #F0F495",
"*&	c #F6F8AE",
"=&	c #8C8C76",
"-&	c #4C4C56",
";&	c #C1C1C2",
">&	c #CAC9D7",
",&	c #F4F898",
"'&	c #ACAAA0",
")&	c #B8B7C5",
"!&	c #F4F6A0",
"~&	c #5A5D66",
"{&	c #C79A29",
"]&	c #565961",
"^&	c #898989",
"/&	c #BDBDBD",
"(&	c #565660",
"_&	c #50504D",
":&	c #848366",
"<&	c #A1A16C",
"[&	c #F6F9B4",
"}&	c #F2F5A2",
"|&	c #F2F5A9",
"1&	c #CBCD94",
"2&	c #88885F",
"3&	c #525250",
"4&	c #6B6A76",
"5&	c #8E8E90",
"6&	c #B8B8B8",
"7&	c #9696A4",
"8&	c #F4F6A2",
"9&	c #D2D1AE",
"0&	c #BCBC99",
"a&	c #9F9F92",
"b&	c #787253",
"c&	c #AFA99C",
"d&	c #606061",
"e&	c #DDDDE4",
"f&	c #CACACC",
"g&	c #BFBFC1",
"h&	c #808087",
"i&	c #808088",
"j&	c #808086",
"k&	c #A1A0B3",
"l&	c #A3A3A3",
"m&	c #B9B9C4",
"n&	c #F5F79E",
"o&	c #EDF0B2",
"p&	c #ACACB8",
"q&	c #C2C2AE",
"r&	c #77796E",
"s&	c #968261",
"t&	c #88876C",
"u&	c #B3B293",
"v&	c #E3E2D6",
"w&	c #B4B3B6",
"x&	c #DADADA",
"y&	c #ECECEC",
"z&	c #C6C6A2",
"A&	c #ECF0A1",
"B&	c #EAECC6",
"C&	c #C2C2C4",
"D&	c #E8E9C4",
"E&	c #EDF1A0",
"F&	c #ECEFB1",
"G&	c #E6E8C2",
"H&	c #A0A09C",
"I&	c #E9EBBD",
"J&	c #FDFF9C",
"K&	c #8E8C95",
"L&	c #CFCE96",
"M&	c #9E9DA9",
"N&	c #DBDBDB",
"O&	c #C9C9CB",
"P&	c #B6B5C4",
"Q&	c #F2F698",
"R&	c #ECF0A2",
"S&	c #B8B893",
"T&	c #B4B4B4",
"U&	c #E0E0E0",
"V&	c #9796A7",
"W&	c #F4F89F",
"X&	c #ECF09F",
"Y&	c #EEF29A",
"Z&	c #A6A4CC",
"`&	c #E4E4A8",
" *	c #E8E8C1",
".*	c #A1A0A8",
"+*	c #B6B6B8",
"@*	c #E1E3B0",
"#*	c #EFF49A",
"$*	c #F6FA9D",
"%*	c #A1A0B1",
"&*	c #E1E0E3",
"**	c #BCBCB2",
"=*	c #ECF09E",
"-*	c #DFDFC4",
";*	c #D8D8A0",
">*	c #B2B28E",
",*	c #A4A4A9",
"'*	c #848490",
")*	c #D0D1AB",
"!*	c #F1F5AE",
"~*	c #EAEE9B",
"{*	c #9998A9",
"]*	c #DCDCDF",
"^*	c #B9B9BC",
"/*	c #BEBEB5",
"(*	c #F2F59F",
"_*	c #EBEFA0",
":*	c #F5FA96",
"<*	c #EEF0A6",
"[*	c #BCBBC1",
"}*	c #8D8D8F",
"|*	c #BFBEC3",
"1*	c #AFAE8C",
"2*	c #DFE0A6",
"3*	c #DADDA2",
"4*	c #EDF29C",
"5*	c #BEBD9C",
"6*	c #CECD9D",
"7*	c #B8B8BC",
"8*	c #D1D1D3",
"9*	c #ACACA0",
"0*	c #E4E6C0",
"a*	c #E3E6BF",
"b*	c #D4D4B0",
"c*	c #ACABB7",
"d*	c #F7F7F7",
"e*	c #B1B09C",
"f*	c #DEDDF2",
"g*	c #89886A",
"h*	c #FAFAB4",
"i*	c #A6A4C2",
"j*	c #F5F4B3",
"k*	c #C2C2B4",
"l*	c #B6B5BC",
"m*	c #B3B3B3",
"n*	c #A4A4A4",
"o*	c #98989D",
"p*	c #5A5A5C",
"q*	c #6A6A6A",
"r*	c #8D8D92",
"s*	c #464648",
"t*	c #9B9AA2",
"u*	c #838371",
"v*	c #86868F",
"w*	c #7E7E87",
"x*	c #868688",
"y*	c #9B9B9B",
"z*	c #D7D7D7",
"                                                                                                ",
"                                                                  . +           @ #             ",
"            $ % & *                                             = - ; >         , ' )           ",
"          ! ~ { > ]           ^ /                                     (         _ : <           ",
"        > [     } }         [ |       1 2 3 4 5 6 7 8 9 0 a b                     c             ",
"        > d     : e               f g h i j k 9 9 9 l m n o p q r s               :             ",
"          t   ^ u v           | w x y z A B C D E F G H n 9 9 9 I J K L         b ' M           ",
"        ] +   N O L       P Q y r R S T U V W X Y Z `  ...+.@.9 9 9 9 9 #.      $.I %.          ",
"      &.*.=.    { <     # z -.;.>.,.'.).!.~.{.].^./.(._.:.<.[.}.|.9 1.2.3.4.      >             ",
"        s L           5.6.7.8.9.0.a.b.c.d.e.f.g.h.i.j.k.l.m.n.o.p.q.r.n 9 s.t.        > f       ",
"                    u.v.w.x.k 9 y.z.A.B.C.D.e.f.E.F.G.H.I.J.K.L.M.N.O.r.9 9 s.P.    ) Q.        ",
"    R.S.T.          =.U.V.W.X.Y.Z.`. +.+++C.D.e.@+#+$+j.k.%+&+*+=+-+;+>+r.9 n 1.,+              ",
"    '+)+{         Q !+~+1.{+]+^+/+(+_+:+<+++C.d.[+g.}+G.|+l.1+2+3+4+5+6+7+8+n 9+0+$             ",
"      +         a+b+!+W.c+d+Z.e+f+g+h+i+:+.+B.j+k+l+h.m+n+o+p+q+r+s+t+u+v+w+9 n ~ 3             ",
"    x+y+z+      A+B+C+W.D+E+:+f+F+G+: H+I+E+J+K+e.l+h.i.L+M+N+O+P+Q+5+R+S+T+U+9 m V+P           ",
"    d W+[     X+: Y+Z+`+ @.@:++@@@#@$@  %@&@*@=@e.@+-@;@>@,@  '@)@!@5+R+~@{@]@n ^@/@(@          ",
"    _@!       :@<@B o [@}@|@1@i+2@N         3@4@k+l+h.5@6@        7@8@R+9@0@a@b@9+0 c@          ",
"            2 W.d@e@f@g@h@i@<+h+#@          j@k@l@g.m@n@          o@p@q@~@r@s@t@1.u@v@S $       ",
"          w@I <@x@m y@z@A@C.++B@C@            D@E@E.F@G@            H@I@J@K@L@M@b+4 N@j O@      ",
"          P@u@! b+b+Q@R@S@D.C.i+T@            U@g.-@V@W@            X@Y@Z@`@ #.#1.+#*.R.7       ",
"          P@2.^@Z+x.@###f.S@A@_+C@  X+L &.    $#%#}+&#*#  X+L &.    =#-#;#>#,#'#B 1.e@v@)#      ",
"          P@9 Z+1.x.!#~#g.f.l@{#]#  { ^#/#  (#_#:#m+<#[#  { ^#/#  }#|#1#r@2#3#4#l 1.Z+Z+)#      ",
"          5#n V+B 1.6#7#h.8#g.@+9#o@0#a#b#  c#d#m+e#k.f#6@0#a#b#  g#h#Z@i#j#k#l#V.Z+V.u m#      ",
"          n#o#p#C+1.q#r#i.:#h.#+s#t#u#v#w#x#y#m+e#k.l.z#A#B#v#C#D#E#F#G#H#I#J#K#m B L#C+g       ",
"        M#N#O#P#Q#W.R#S#T#G.i.U#V#W#X#Y#Z#`# $H.k..$J.K.+$@$#$$$%$&$Z@i#j#,#*$=$9 V.-$;$        ",
"        I+>$,$'$)$!$~${$]$(.^$T#/$G.G./$T#H.k.I.%+($K._$r+:$<$[$}$1#G#H#|$1$2$3$4$c@5$          ",
"        6$7$8$9$Q.0$a$b$c$l.d$k.k.k.e$k.I.f$%+J.m.g$h$3+:$i$[$j$-#Z@k$j#,#l$m$n$  (@            ",
"        ] o$p$q$r$s$t$u$v$1+J.w$x$%+%+x$J.p+m.K.y$L.=+z$i$[$j$A$Z@K@2#I#B$C$D$E$  F$            ",
"          , G$H$I$J$K$  L$M$K.K.&+&+&+K.K.q+N$h$O$P$Q$<$[$j$A$R$r@H#S$1$T$U$V$W$L . -           ",
"          X$Y$Z$`$ %.%  +%@%#%L.*+h$h$h$L.r+=+P$$%$%%%&%*%A$R$r@H#|$=%-%;%>%,%'%)%L .           ",
"          )+!%~%{%]%^%    /%(%M.P$=+=+P$z$s+4+<$_%:%<%I@F#Z@r@H#|$=%[%}%|%1%2%3%4%5%+           ",
"          6%7%8%9%0%( y+y+a%b%P+c%d%d%d%e%5+5+&%f%I@Y@~@;#i#H#|$,#[%g%h%i%6$j%k%l%m%5$          ",
"        - n%o%p%q%r%f       : s%t%u%&%v%v%R+q@I@A$1#Z@r@w%j#S$=%x%y%z%A%      B%C%D%,@          ",
"        < E%F%G%H%I%S.y+y+y+y+0#J%K%L%M%-#A$~@R$Z@r@i#H#N%,#B$O%P%Q%R%S%y+y+y+T%U%V%W%          ",
"        X%Y%Z%M#`% &.&L           +&@&#&$&%&r@i#>#H#j#I#1$&&*&=&-&;&            >&,&'&a+        ",
"        )&!&Z%L ~&{&]&^&/&( y+y+y+S%F$(&_&:&<&[&L@}&|&1&2&3&4&5&6$6$6$6$6$6$6$6&7&8&9&=         ",
"        )&!&0&5$a&b&c&d&e&f&                g&h&i&i&j&j&  ;$> z+z+z+z+z+z+z+z+> k&8&E%l&        ",
"        m&n&o&p&q&r&s&t&u&v&w&| x&x&x&x&x&x&x&x&x&x&x&x&x&x&x&x&x&x&x&x&x&x&x&y&z&A&B&6&        ",
"        C&D&E&F&G&H&I&J&K&L&M&| x&x&x&x&x&x&x&x&x&x&x&x&x&x&x&x&x&x&x&x&x&N&O&P&Q&R&S&T&        ",
"        U&V&W&Z@Z@X&Y&Z&`& *.*| x&x&x&x&x&x&x&x&x&x&x&x&x&x&x&x&x&x&x&{ f %.+*@*#*$*%*. -       ",
"      > Q.&*** #Z@Z@=*-*;*>*,*| x&x&x&x&x&x&x&x&x&x&x&x&x&x&x&x&x&x&x&( '*)*!*~*e%{*]*- .       ",
"      . -   ^*/*(*Z@_*:*<*[*}*6$6$6$6$6$6$6$6$6$6$6$6$6$6$6$6$6$6$6$T%|*1*2*3*4*5*6*7*  F$      ",
"      F$    &.8*9*0*a*b*c*f&d*z+z+z+z+z+z+z+z+z+z+z+z+z+z+z+z+z+z+z+> e*f*g*h*i*j*k*l*  Q.      ",
"      F$  m*6&S%* l&n*o*p*q*0#y+y+y+y+y+y+y+y+y+y+y+y+y+y+y+y+y+y+y+X$r*s*t*u*v*w*x*y*  F$      ",
"    z*y&                                                                                #.      ",
"    ( w@Q.Q.Q.Q.Q.Q.Q.Q.Q.Q.Q.Q.Q.Q.Q.Q.Q.Q.Q.Q.Q.Q.Q.Q.Q.Q.Q.Q.Q.Q.Q.Q.Q.Q.Q.Q.Q.Q.Q.Q./&e     ",
"                                                                                                ",
"                                                                                                "};
