/* XPM */
static char *audacious_playlist_icon[] = {
/* columns rows colors chars-per-pixel */
"48 48 43 1",
"  c #e36e45",
". c #e3734c",
"X c #e47650",
"o c #e57a54",
"O c #e57d59",
"+ c #e6815d",
"@ c #e68462",
"# c #e78867",
"$ c #e88665",
"% c #e88866",
"& c #e88b6b",
"* c #e98f70",
"= c #e99273",
"- c #ea9679",
"; c #eb997c",
": c #eb9d82",
"> c #eca086",
", c #eda48b",
"< c #eda88f",
"1 c #eeaa93",
"2 c #efae98",
"3 c #efb09a",
"4 c #f0b29c",
"5 c #f0b5a1",
"6 c #f0b8a5",
"7 c #f1bcaa",
"8 c #f2c0ae",
"9 c #f3c3b3",
"0 c #f4c7b8",
"q c #f4cabb",
"w c #f5cec1",
"e c #f5d1c4",
"r c #f6d5c9",
"t c #f7d8cd",
"y c #f8ddd4",
"u c #f8e0d7",
"i c #f9e3db",
"p c #fae6e0",
"a c #fae8e2",
"s c #fcf0eb",
"d c #fcf4f1",
"f c #fdf9f7",
"g c white",
/* pixels */
"<22111111<<<<,,,::,:::::;;;;;;----====*=&=&&&&#&",
"2555444423111<<<<<<,,>>>:>:;;;;;---====**&&&&&#&",
"25444424312111<<<,,,,>,>>:::;;;----===&==&&&%%%#",
"1554442222111<<<,,,,,>:::::;;;----=====&&&&&%%%#",
"25544422211111<<,,,,::>::;;;;;---=====**&&&%%%$#",
"19aat22uaaaapppppppppppipppiiipiiiiiu4*&4iuuue$$",
"19ggi22sggggggggggggggggggggggggggggg7*&7ggggp%$",
"10ggi24dggggggggggggggggggggggggggggg7*&7ggggp@#",
"17trq21errreeeeeewwwwwwwqwqqq0qq00000,&&,99993@$",
"1333221111<<<,,,,,>::::;;;;-;--===***&&%##$#$@@@",
"1432211111<<<,,,>>>>:::;;;;---===***&&&&####$@@@",
"<9aar11upaappppppipipiiiiiiiu5===***&&&%2uyyyw+@",
"<0ggu11dggggggggggggggggggggg9=&=&&*&&%%7ggggp@@",
"10ggu11dggggggggggggggggggggg9===&&&&&%%7ggggp+@",
"<39961<6766666665554544442222:&=**&&&#%%=,,>>;O@",
"<11111<<<<<,,>::::::;;----=====&*&&&&%%$@@@@++++",
"<1111<<1<,,>,>::::;;;-;----=*=&&&&&%%%$$@@@+++O@",
"<0ggy<<sgggggggggggggggggggggggggggs%%$$6ggggpO+",
"<9ggy<<sgggggggggggggggggggggggggggs%%$@6ggggpO+",
",9ggy<<sgggggggggggggggggggggggggggs%%$@6ggggiO+",
",2774<,,,,>:>:::;;;----====&&&&&&%%%$$$+@+++OOO+",
",111<<,,>>>>::::;;;---=-===&=&&&%#%%$@@+++++OOO+",
",<<<,,,6665555545444422112111111<#$$@@@@&:>;;-OO",
",9ggy,,fggggggggggggggggggggggggd$$$@@+@6ggggpoO",
",9ggy,:fggggggggggggggggggggggggf$$@@@++6ggggpoO",
",7ggy,,fggggggggggggggggggggggggd$$@@+@+5ggggioO",
"><<,,,:,>::::;;;---=====&&&&&%%%$$@@+@++OOOooooO",
":<,,>,>::::;;;;----====&&=&&&%%%$@@@@OOOOOOooo.O",
":1664,:65535444442121211<11<1<,,,,>>,&+O&:;;;-oO",
",7ggy><gggggggggggggggggggggggggggggg6OO5ggggp.O",
":6ggu:,gggggggggggggggggggggggggggggg3OO5ggggi.o",
":5ppe:,ippiiiiiiiiiuiiuiuuuuuuyyyyuyy1Oo<yyyy0Xo",
">,,:::::::;;----====&&&&&%%%$$@@++++OOOOoooXXX.o",
":,,::::::;;;;--=-==***&%&&&%%$@@@+++OOOooooo.X.o",
":1ww9:<qqqqqq000000000099,%%@@@@+++OOoOo-76662.o",
":6ggy:1gggggggggggggggggg7$$@@@+++OOOOoo4ggggi.o",
":6ggy:2gggggggggggggggggg6%@@@++++OOOOoo4ggggi.X",
":2ppw:1iiiiiiiiuuiuiuuuiu2@@@@+++OOOoooo,yyyy0.o",
";::::;;;;--======&=&&&%%%$$@+@+++OOOoooo.X.... X",
";,::;;;;----=====&&&&%#$$$@@@+++OOOoOoo.o... ..X",
";1wq7;1qqq0q0000900999999979979777777;oo-66661 o",
";5ggy;5gggggggggggggggggggggggggggggg3..3ggggi .",
";5ggy;6gggggggggggggggggggggggggggggg2o.3ggggi X",
"-1wq7;<q0q000000099999979779777777777-X.=66561 .",
";;;:=;-====**=&&&&#%#$@@@@+++OOOOoooo..o....   .",
";;;;;;=-====*&&&&&#%$$@@++++OOOOooooo.....     .",
";;;-;-====***&*&&###$@@@++O+OOOooo.o.... ..    .",
"----=-======&=&&&#&##$$$@@@@+++OOOOOOoooo.o....o"
};
