/* XPM */
static char *audacious_eq_icon[] = {
/* columns rows colors chars-per-pixel */
"48 48 39 1",
"  c #e36d45",
". c #e3734d",
"X c #e47650",
"o c #e57a54",
"O c #e57d59",
"+ c #e6805d",
"@ c #e68462",
"# c #e78867",
"$ c #e88665",
"% c #e88866",
"& c #e88b6b",
"* c #e98f70",
"= c #e99274",
"- c #ea9678",
"; c #ea997c",
": c #eb9d82",
"> c #eca086",
", c #eda48b",
"< c #eda88f",
"1 c #eeab93",
"2 c #efae98",
"3 c #efb09a",
"4 c #f0b29c",
"5 c #f0b5a0",
"6 c #f2bba7",
"7 c #f2bca9",
"8 c #f3c5b4",
"9 c #f4c7b8",
"0 c #f4cabb",
"q c #f5cec0",
"w c #f6d6cb",
"e c #f7d8ce",
"r c #f7dad0",
"t c #f8dcd3",
"y c #f8e0d7",
"u c #f9e3db",
"i c #fae6e0",
"p c #fae8e2",
"a c white",
/* pixels */
"<2211111<<<<,,:,,:::::::::::-=---=====&=&&&=&&&&",
"255544422211111<<<<<<::::::::::----======&&&&&##",
"25554442222111<<,<,,:<:::::::------===&=*&&&%%$&",
"1544442222111<<<<<<:<:<:::::-:----=====&*&&&&%$%",
"2554442221111<<<:<:<::<::::::----=====&=&&%&$%%#",
"154442222111<<,<,,<:<::::-:-----====&&=&&&&&%$@$",
"14422222111<<<,,,:<<:::::::-:----====&&&&&&%%$@%",
"1442222211<<<<,,:<:::::::--:=--===&==&&&&&%%$@@%",
"1442221211<<<,,,,<,:::::-:----=-====&&&&&$$$$@@@",
"124222111<<<,,,,::::::;::-:---===*=&=&&&&&%@@@@#",
"1422211111<<<,,,,:::::;;-:----===&=&&&&&$$$#@@@@",
"12222111<taaaaa4,:::::::---=======&=&&&&%$$@@@+@",
"<222111<<taaaaa4::::::-----=-====&&&&&&&$$#@+@+@",
"<2211111<taaaaa4,::::--::---==**=&&&&&$%$#@@@++@",
"<21211<<<taaaaa3:::::::----====*=&&&&%%%$@@+@+O@",
"<21211<<<taaaaa3::::-:---=====**&&&&&%%$@@@@+++@",
"<111<<<<<taaaaa3::::;;----*-*=&&&&&&#%$$@@@+++O+",
"<111<<<,,raaaaa3:::;;;---*-*==*&&&&&%%$@@@@+++++",
",1111<<,,raaaaa2::;;-----111111&&&&%%$#@@@+++OO+",
"<11<<<<,<raaaaa2;;;;;---:aaaaap&&&%%$$@@@+++OOO+",
",8ppppi8>raaaaa3:;;;--*-;aaaaap&&%&$$$@@++@OOOOO",
",qaaaaa0,raaaaa1;;;----=-aaaaap&&%#$@@@+@+O+OOO+",
",qaaaaa0,raaaaa2;;;---==;aaaaap&&%%$#@@@OO+OOooO",
",qaaaaa0>eaaaaa1;;---===-aaaaap&%%$$@++@++OOOOo+",
",0aaaaa0,eaaaaa1;;----==-aaaaap#&$$#@@+++OOOOooO",
",0aaaaa0>raaaaa1-;--====-aaaaap#:ttttt7++OOooooO",
",qaaaaa0:taaaaa1--;==***-aaaaap$,aaaaaq+OOOooooO",
":0aaaaa9:eaaaaa1-wuuuuu&-aaaaap$,aaaaaq+OOOooo.O",
",0aaaaa0:eaaaaa1-paaaaa==aaaaap$,aaaaaqOOOooo.oO",
":0aaaaa9:eaaaaa1=paaaaa&=aaaaap@,aaaaaqOOOoooo.O",
":qaaaaa9:waaaaa1-paaaaa=-aaaaap@>aaaaaqOoOoooXXO",
":0aaaaa9:waaaaa1=paaaaa&*aaaaap@,aaaaa0O;77777*o",
">0aaaaa9:eaaaaa1=paaaaa&=aaaaap@>aaaaaqO4aaaaa3o",
":0aaaaa8;eaaaaa,-paaaaa&=aaaaai@>aaaaaqo4aaaaa3o",
":0aaaaa8;eaaaaa,=paaaaa&=aaaaap+>aaaaa0O5aaaaa3o",
":9aaaaa9;eaaaaa<*paaaaa&&aaaaai@>aaaaaqo4aaaaa3o",
":0aaaaa8;eaaaaa,&paaaaa&=aaaaap+>aaaaa0o4aaaaa2o",
":9aaaaa8-eaaaaa,=paaaaa%&aaaaau+:aaaaa0o4aaaaa2X",
":9aaaaa8;waaaaa,=paaaaa%=aaaaai+>aaaaa0o4aaaaa2X",
":9aaaaa8-eaaaaa,&paaaaa#&aaaaai+:aaaaa0o4aaaaa3X",
";8aaaaa8-waaaaa,*paaaaa#*aaaaapO:aaaaa0o3aaaaa2X",
";8aaaaa8-waaaaa,*paaaaa#&aaaaaiO:aaaaa0X3aaaaa2.",
";9aaaaa8-waaaaa>&paaaaa@&aaaaaiO:aaaaa0X3aaaaa1o",
";9aaaaa8=eaaaaa,&paaaaa@&aaaaauO:aaaaa0.3aaaaa1.",
";8aaaaa8*waaaaa:&paaaaa@&aaaaauO:aaaaa0.2aaaaa1.",
";8aaaaa8=waaaaa>&paaaaa@&aaaaaiO;aaaaa0.3aaaaa2.",
";;;;;=====***&*&#&###@@+++OOOOOooXoX..... .    .",
"---=--====*****&&&&#####@@@@++++OOOOOooooXXX...o"
};
