/* XPM */
static char * audacious_player_xpm[] = {
"48 48 170 2",
"  	c None",
". 	c #EBEBEB",
"+ 	c #E4E4E4",
"@ 	c #DDDDDD",
"# 	c #D6D6D6",
"$ 	c #D0D0D0",
"% 	c #CCCCCC",
"& 	c #EAEAEA",
"* 	c #CDCDCD",
"= 	c #BBBBBB",
"- 	c #AAAAAA",
"; 	c #9D9D9D",
"> 	c #939393",
", 	c #8A8A8A",
"' 	c #858585",
") 	c #E8E8E8",
"! 	c #D3D3D3",
"~ 	c #A0A0A0",
"{ 	c #878787",
"] 	c #6E6E6E",
"^ 	c #5A5A5A",
"/ 	c #4D4D4D",
"( 	c #454545",
"_ 	c #3E3E3E",
": 	c #3B3B3B",
"< 	c #ECECEC",
"[ 	c #D7D7D7",
"} 	c #B9B9B9",
"| 	c #949494",
"1 	c #707070",
"2 	c #535353",
"3 	c #3D3D3D",
"4 	c #2B2B2B",
"5 	c #1E1E1E",
"6 	c #171717",
"7 	c #131313",
"8 	c #111111",
"9 	c #101010",
"0 	c #C4C4C4",
"a 	c #9C9C9C",
"b 	c #717171",
"c 	c #4B4B4B",
"d 	c #2E2E2E",
"e 	c #1C1C1C",
"f 	c #0A0A0A",
"g 	c #060606",
"h 	c #040404",
"i 	c #030303",
"j 	c #B7B7B7",
"k 	c #555555",
"l 	c #313131",
"m 	c #1A1A1A",
"n 	c #0C0C0C",
"o 	c #020202",
"p 	c #050505",
"q 	c #080808",
"r 	c #0B0B0B",
"s 	c #D8D8D8",
"t 	c #ADADAD",
"u 	c #777777",
"v 	c #444444",
"w 	c #212121",
"x 	c #0E0E0E",
"y 	c #070707",
"z 	c #2C2C2C",
"A 	c #363636",
"B 	c #434343",
"C 	c #D9D9D9",
"D 	c #A9A9A9",
"E 	c #6D6D6D",
"F 	c #191919",
"G 	c #090909",
"H 	c #2F2F2F",
"I 	c #696969",
"J 	c #888888",
"K 	c #A6A6A6",
"L 	c #B5B5B5",
"M 	c #BABABA",
"N 	c #DEDEDE",
"O 	c #AEAEAE",
"P 	c #161616",
"Q 	c #121212",
"R 	c #585858",
"S 	c #D1D1D1",
"T 	c #898989",
"U 	c #E5E5E5",
"V 	c #B8B8B8",
"W 	c #767676",
"X 	c #3A3A3A",
"Y 	c #151515",
"Z 	c #464646",
"` 	c #808080",
" .	c #C0C0C0",
"..	c #BFBFBF",
"+.	c #C7C7C7",
"@.	c #A1A1A1",
"#.	c #D5D5D5",
"$.	c #DADADA",
"%.	c #545454",
"&.	c #1F1F1F",
"*.	c #202020",
"=.	c #5C5C5C",
"-.	c #B1B1B1",
";.	c #0D0D0D",
">.	c #B2B2B2",
",.	c #969696",
"'.	c #494949",
").	c #A2A2A2",
"!.	c #A3A3A3",
"~.	c #818181",
"{.	c #C5C5C5",
"].	c #474747",
"^.	c #C6C6C6",
"/.	c #E1E1E1",
"(.	c #505050",
"_.	c #181818",
":.	c #141414",
"<.	c #575757",
"[.	c #C2C2C2",
"}.	c #000000",
"|.	c #515151",
"1.	c #D2D2D2",
"2.	c #383838",
"3.	c #A7A7A7",
"4.	c #262626",
"5.	c #484848",
"6.	c #BCBCBC",
"7.	c #9A9A9A",
"8.	c #393939",
"9.	c #BDBDBD",
"0.	c #E9E9E9",
"a.	c #AFAFAF",
"b.	c #1B1B1B",
"c.	c #5F5F5F",
"d.	c #E2E2E2",
"e.	c #272727",
"f.	c #8E8E8E",
"g.	c #333333",
"h.	c #8C8C8C",
"i.	c #DBDBDB",
"j.	c #959595",
"k.	c #404040",
"l.	c #010101",
"m.	c #303030",
"n.	c #ACACAC",
"o.	c #ABABAB",
"p.	c #7B7B7B",
"q.	c #373737",
"r.	c #606060",
"s.	c #919191",
"t.	c #424242",
"u.	c #7C7C7C",
"v.	c #A5A5A5",
"w.	c #353535",
"x.	c #525252",
"y.	c #343434",
"z.	c #D4D4D4",
"A.	c #666666",
"B.	c #7E7E7E",
"C.	c #C1C1C1",
"D.	c #C9C9C9",
"E.	c #8F8F8F",
"F.	c #3F3F3F",
"G.	c #CACACA",
"H.	c #757575",
"I.	c #636363",
"J.	c #C8C8C8",
"K.	c #848484",
"L.	c #A8A8A8",
"M.	c #929292",
"                                                                                                ",
"                                    . + @ # $ % % $ # @ + .                                     ",
"                              & @ * = - ; > , ' ' , > ; - = * @ &                               ",
"                          ) ! = ~ { ] ^ / ( _ : : _ ( / ^ ] { ~ = ! )                           ",
"                      < [ } | 1 2 3 4 5 6 7 8 9 9 8 7 6 5 4 3 2 1 | } [ <                       ",
"                    + 0 a b c d e 8 f g h i i i i i i h g f 8 e d c b a 0 +                     ",
"                  @ j ' k l m n g i o h p g q r r q g p h o i g n m l k ' j @                   ",
"                s t u v w x g i i y 9 5 z A 3 B B 3 A z 5 9 y i i g x w v u t s                 ",
"              C D E : F G i i q 6 H c I J K L M M L K J I c H 6 q i i G F : E D C               ",
"            N O ] A P y o h Q d R , M S C s C C C C s C S M T R d Q h o y P A ] O N             ",
"          U V W X Y g o g m Z `  .s C C C s C C C C s C C C s ..` Z m g o g Y X W V U           ",
"          +.' B F g o y w k @.#.C C $.C C C C C C C C C C $.C C #.@.k w y o g F B ' +.          ",
"        $.; %.&.q o g *.=.-.s $.$.C s C C C C C C C C C C s C $.$.s -.=.*.g o q &.%.; $.        ",
"      . = b H ;.o h m %.>.C C $.C C C C $.C s C C s C $.C C C C $.C C -.%.m h o ;.H b = .       ",
"      s ,.'.6 p o 9 ( ).s $.C C C $.C C C C C C C C C C C C $.C C C $.s !.( 9 o p 6 '.,.s       ",
"      ..1 4 f o g z ~.#.$.$.C C C C C {.!.| ] / ].^ ' ^.C C C C C C $.$.#.~.z g o f 4 1 ..      ",
"    /.!.(._.h i :.<.[.C C C C C C C u i }.}.}.}.}.}.}.i |.{.C C C C C C C [.<.:.i h _.(.!./.    ",
"    1.{ 2.x o p 4 , [ C C $.C s C 3.}.}.}.}.}.}.}.}.}.}.}.:.M C s C $.C C [ , 4 p o x 2.{ 1.    ",
"     .E 4.q o x 5.6.C s s C C C C 7.}.}.}.}.}.}.}.}.}.}.}.}.8.C C C C s s C 9.5.x o q 4.E  .    ",
"  0.a.<.F h o b.I ! C s s C C C C C b _ ^ c.c.(.h }.}.}.}.}.}.6.C C C s s C ! I b.o h F <.a.0.  ",
"  d.@.'.Q o i e.f.C C s s $.C C C C C C C C C s g.}.}.}.}.}.}.h.C C $.s s C C f.e.i o Q '.@.d.  ",
"  i.j.k.x l.h m.n.C C C C C C C C C C # o.p.q.8 }.}.}.}.}.}.}.r.C C C C C C C o.m.h l.x k.j.i.  ",
"  # h.X ;.l.g 2.= C C C C C C C C C s.Q }.}.}.}.}.}.}.}.}.}.}.t.C C C C C C C M 2.g l.;.X h.#   ",
"  1.{ A n l.q _ ..C C s $.C C C C u.}.}.}.}.}.}.}.}.}.}.}.}.}.3 C C C $.s C C  ._ q l.n A { 1.  ",
"  1.{ A n l.q _  .C C s $.C C C v.o }.}.}.}.}.}.}.}.}.}.}.}.}.E C C C $.s C C  ._ q l.n A { 1.  ",
"  # h.X ;.l.g 2.= C C C C C C C w.}.}.}.}.}.z M M &.}.}.}.}.}.{ C C C C C C C = 2.g l.;.X h.#   ",
"  i.j.k.x l.h m.t C C C C C C C 4 }.}.}.}.}.x.C [ e.}.}.}.}.}.).C C C C C C C t m.h l.x k.j.i.  ",
"  d.@.'.Q o i e.s.C C s s $.C C m.}.}.}.}.}.i 8.y.}.}.}.}.}.}.D C C $.s s C C s.e.i o Q '.@.d.  ",
"  0.a.<.F h o b.I z.C s s C C C A.}.}.}.}.}.}.}.}.}.}.}.}.}.}.` C C C s s C #.I b.o h F <.a.0.  ",
"     .E 4.q o x 5. .C s s C C C = g }.}.}.}.}.}.}.}.}.}.}.}.}.B.C C C s s C C.5.x o q 4.E  .    ",
"    1.{ 2.x o p 4 f.s C C $.C s C ,.r }.}.}.}.}.i w G }.}.}.b.D.s C $.C C s E.4 p o x 2.{ 1.    ",
"    /.!.(._.h i :.<.^.C C C C C C C M Z y }.F.j.$ C G.H.v I.J.C C C C C C {.<.:.i h _.(.!./.    ",
"      ..1 4 f o g z K.# $.$.C C C C C C $ 0 C C C C C C C C C C C C $.$.# K.z g o f 4 1 ..      ",
"      s ,.'.6 p o 9 ( L.C $.C C C $.C C C C C C C C C C C C $.C C C $.C L.( 9 o p 6 '.,.s       ",
"      . = b H ;.o h m %.V C C $.C C C C $.C s C C s C $.C C C C $.C C j %.m h o ;.H b = .       ",
"        $.; %.&.q o g *.=.} s $.$.C s C C C C C C C C C C s C $.$.s V =.*.g o q &.%.; $.        ",
"          +.' B F g o y w k L.[ C C $.C C C C C C C C C C $.C C [ L.k w y o g F B ' +.          ",
"          U V W X Y g o g m Z ' ^.C C C C s C C C C s C C C C ^.K.Z m g o g Y X W V U           ",
"            N O ] A P y o h Q d R s.C.#.C s C C C C s C #. .E.R d Q h o y P A ] O N             ",
"              C D E : F G i i q 6 H c I M.t =  . .= t s.I c H 6 q i i G F : E D C               ",
"                s t u v w x g i i y 9 5 z A 3 B B 3 A z 5 9 y i i g x w v u t s                 ",
"                  @ j ' k l m n g i o h p g q r r q g p h o i g n m l k ' j @                   ",
"                    + 0 a b c d e 8 f g h i i i i i i h g f 8 e d c b a 0 +                     ",
"                      < [ } | 1 2 3 4 5 6 7 8 9 9 8 7 6 5 4 3 2 1 | } [ <                       ",
"                          ) ! = ~ { ] ^ / ( _ : : _ ( / ^ ] { ~ = ! )                           ",
"                              & @ * = - ; > , ' ' , > ; - = * @ &                               ",
"                                    . + @ # $ % % $ # @ + .                                     ",
"                                                                                                "};
