<?xml version="1.0" encoding="UTF-8" standalone="no"?>
<!-- Created with Inkscape (http://www.inkscape.org/) -->

<svg
   xmlns:dc="http://purl.org/dc/elements/1.1/"
   xmlns:cc="http://creativecommons.org/ns#"
   xmlns:rdf="http://www.w3.org/1999/02/22-rdf-syntax-ns#"
   xmlns:svg="http://www.w3.org/2000/svg"
   xmlns="http://www.w3.org/2000/svg"
   xmlns:sodipodi="http://sodipodi.sourceforge.net/DTD/sodipodi-0.dtd"
   xmlns:inkscape="http://www.inkscape.org/namespaces/inkscape"
   width="96"
   height="96"
   id="svg1306"
   sodipodi:version="0.32"
   inkscape:version="0.47pre4 r22446"
   sodipodi:docname="Audacious-icon-2.svg"
   inkscape:output_extension="org.inkscape.output.svg.inkscape"
   version="1.1">
  <defs
     id="defs1308">
    <inkscape:perspective
       sodipodi:type="inkscape:persp3d"
       inkscape:vp_x="0 : 32 : 1"
       inkscape:vp_y="0 : 1000 : 0"
       inkscape:vp_z="64 : 32 : 1"
       inkscape:persp3d-origin="32 : 21.333333 : 1"
       id="perspective2880" />
  </defs>
  <sodipodi:namedview
     id="base"
     pagecolor="#ffffff"
     bordercolor="#666666"
     borderopacity="1.0"
     inkscape:pageopacity="0.0"
     inkscape:pageshadow="2"
     inkscape:zoom="4"
     inkscape:cx="42"
     inkscape:cy="47.647849"
     inkscape:current-layer="layer1"
     showgrid="true"
     inkscape:document-units="px"
     inkscape:grid-bbox="true"
     inkscape:window-width="1024"
     inkscape:window-height="713"
     inkscape:window-x="0"
     inkscape:window-y="0"
     inkscape:window-maximized="1" />
  <metadata
     id="metadata1311">
    <rdf:RDF>
      <cc:Work
         rdf:about="">
        <dc:format>image/svg+xml</dc:format>
        <dc:type
           rdf:resource="http://purl.org/dc/dcmitype/StillImage" />
        <dc:title></dc:title>
        <dc:creator>
          <cc:Agent>
            <dc:title>nhjm449</dc:title>
          </cc:Agent>
        </dc:creator>
        <dc:description>Font: Circulate BRK</dc:description>
      </cc:Work>
    </rdf:RDF>
  </metadata>
  <g
     inkscape:groupmode="layer"
     id="layer2"
     inkscape:label="bg"
     transform="translate(2.5e-7,31.999998)">
    <path
       sodipodi:type="arc"
       style="fill:#000000;fill-opacity:1;stroke:none"
       id="path3654"
       sodipodi:cx="32.375"
       sodipodi:cy="32.75"
       sodipodi:rx="26.125"
       sodipodi:ry="28.5"
       d="m 58.5,32.75 c 0,15.740115 -11.696561,28.5 -26.125,28.5 C 17.946561,61.25 6.25,48.490115 6.25,32.75 6.25,17.009885 17.946561,4.25 32.375,4.25 46.803439,4.25 58.5,17.009885 58.5,32.75 z"
       transform="matrix(1.8373206,0,0,1.6842105,-11.483254,-39.157893)" />
  </g>
  <g
     id="layer1"
     inkscape:label="Layer 1"
     inkscape:groupmode="layer"
     transform="translate(2.5e-7,31.999998)">
    <path
       style="font-size:56px;font-style:normal;font-variant:normal;font-weight:normal;font-stretch:normal;text-align:start;line-height:125%;writing-mode:lr-tb;text-anchor:start;fill:#d9d9d9;fill-opacity:1;fill-rule:nonzero;stroke:none;font-family:Circulate BRK"
       d="m 12,16.000002 c 3e-6,5.008143 0.94309,9.691064 2.829268,14.04878 1.886178,4.357723 4.455281,8.162598 7.707317,11.414635 3.252021,3.252021 7.056896,5.821125 11.414635,7.707317 4.3577,1.886162 9.040621,2.829251 14.04878,2.829268 4.943051,-1.7e-5 9.593453,-0.943106 13.95122,-2.829268 4.422712,-1.886192 8.260108,-4.455296 11.512195,-7.707317 3.25197,-3.252037 5.821073,-7.056912 7.707317,-11.414635 C 83.056843,25.691066 83.99993,21.008145 84,16.000002 83.99993,11.056936 83.056843,6.406533 81.170732,2.048782 79.284488,-2.373946 76.715385,-6.21134 73.463415,-9.463413 70.211328,-12.715399 66.373932,-15.284501 61.95122,-17.17073 57.593453,-19.056855 52.943051,-19.999944 48,-19.999998 c -5.008159,5.4e-5 -9.69108,0.943143 -14.04878,2.829268 -4.357739,1.886229 -8.162614,4.455331 -11.414635,7.707317 C 19.284549,-6.21134 16.715446,-2.373946 14.829268,2.048782 12.94309,6.406533 12.000003,11.056936 12,16.000002"
       id="path2167" />
    <path
       style="font-size:56px;font-style:normal;font-variant:normal;font-weight:normal;font-stretch:normal;text-align:start;line-height:125%;writing-mode:lr-tb;text-anchor:start;fill:#000000;fill-opacity:1;fill-rule:nonzero;stroke:none;font-family:Circulate BRK"
       d="M 48.878049,7.414636 C 48.878014,6.829296 48.617852,6.374012 48.097561,6.048782 47.577204,5.723607 47.024359,5.561005 46.439024,5.560978 l -6.731707,0 c -0.390268,0.130104 -0.813031,0.22767 -1.268293,0.292683 -0.455308,0.06507 -0.878071,0.09759 -1.268292,0.09756 C 36.130059,5.951248 35.186972,5.593525 34.341463,4.87805 33.560956,4.097592 33.170713,3.187024 33.170732,2.146342 33.170713,1.69109 33.235752,1.268327 33.365854,0.87805 33.560956,0.487839 33.756078,0.130116 33.95122,-0.195121 L 36,-2.2439 c 0.520303,-0.455248 1.073148,-0.715412 1.658537,-0.780488 0.650383,-0.130035 1.268268,-0.227605 1.853658,-0.292683 0.260138,-0.065 0.812983,-0.09753 1.658537,-0.09756 0.910542,-0.065 1.528427,-0.09753 1.853658,-0.09756 0.8455,-0.455248 1.788587,-0.682889 2.829269,-0.682927 1.105658,-0.065 2.113787,-0.09753 3.02439,-0.09756 1.756061,3.8e-5 3.577198,0.2602 5.463414,0.780488 1.951178,0.585402 3.577194,1.268329 4.878049,2.04878 1.365809,0.715481 2.471498,1.59353 3.317073,2.634147 0.845479,1.040681 1.495885,2.308974 1.95122,3.804878 0.455235,1.430921 0.812958,3.154496 1.073171,5.170731 0.130034,0.715471 0.22759,1.430917 0.292683,2.146342 0.130034,0.715469 0.195071,1.430915 0.195121,2.146341 -5e-5,0.520344 -0.09761,1.008148 -0.292682,1.463415 -0.195173,0.390261 -0.357774,0.813024 -0.487805,1.268293 -5.1e-5,0.06505 -5.1e-5,0.227658 0,0.487805 -5.1e-5,0.260177 -0.03258,0.55286 -0.09756,0.878048 -5.1e-5,0.260178 -5.1e-5,0.52034 0,0.780488 -5.1e-5,0.195136 -5.1e-5,0.325218 0,0.390244 -0.130122,0.71546 -0.260213,1.430908 -0.390244,2.146342 -0.06509,0.715458 -0.09761,1.430904 -0.09756,2.146341 l 0,0.292683 c 0.06498,0.260172 0.195071,0.747976 0.390244,1.463415 0.195071,0.715454 0.325153,1.203259 0.390244,1.463414 l 0,0.585366 c -5.1e-5,0.780493 -0.195173,1.52846 -0.585366,2.243902 -0.390293,0.71545 -0.910619,1.365856 -1.560976,1.95122 -0.650455,0.585368 -1.365901,1.040652 -2.146341,1.365854 -0.715493,0.325203 -1.46346,0.487805 -2.243903,0.487805 -1.040693,0 -2.048822,-0.227643 -3.02439,-0.682927 -0.97565,-0.520324 -1.918739,-0.975608 -2.829268,-1.365854 -0.130122,-0.06504 -0.390282,-0.09756 -0.780488,-0.09756 -0.32524,2e-6 -0.552882,2e-6 -0.682927,0 -1.235808,2e-6 -2.439059,0.227645 -3.609756,0.682927 -1.105723,0.390246 -2.211413,0.813009 -3.317073,1.268293 -0.130105,0.06503 -0.455314,0.227642 -0.97561,0.487804 -0.455314,0.260162 -0.747995,0.422764 -0.878049,0.487805 -0.26019,0.130087 -0.455312,0.162596 -0.585366,0.09756 -0.130104,-1e-6 -0.35775,-1e-6 -0.682926,0 l -0.780488,0 c -0.325228,-0.06504 -0.975634,-0.260163 -1.95122,-0.585366 -0.910592,-0.325203 -1.528477,-0.552844 -1.853658,-0.682926 -0.06507,0 -0.195145,-0.03253 -0.390244,-0.09756 -0.130105,-0.06504 -0.195143,-0.130087 -0.195122,-0.195122 -1.040671,-0.715446 -2.146361,-1.528453 -3.317073,-2.439025 -1.105708,-0.975606 -1.853674,-2.113815 -2.243903,-3.414634 -0.130104,-0.455277 -0.325219,-1.073164 -0.585366,-1.853658 -0.260177,-0.84552 -0.390259,-1.268283 -0.390243,-1.268293 l 0,-4.878049 c -1.6e-5,-0.06504 0.06502,-0.260148 0.195121,-0.585366 0.195107,-0.325188 0.357708,-0.552829 0.487805,-0.682927 0.715431,-1.300796 1.625999,-2.504047 2.731708,-3.609756 1.170712,-1.17071 2.406482,-2.14632 3.707317,-2.926829 0.910545,-0.520303 1.853634,-0.780465 2.829268,-0.780488 0.975584,-0.06502 1.918673,-0.260139 2.829268,-0.585366 0.130053,-0.06502 0.390216,-0.162578 0.780488,-0.292682 0.455256,-0.195098 0.747939,-0.32518 0.878049,-0.390244 0.260132,-0.130053 0.650376,-0.195098 1.170732,-0.195122 0.520294,-0.06502 1.040618,-0.130053 1.560975,-0.195122 0.520293,-0.130053 0.943056,-0.292659 1.268293,-0.487805 0.390211,-0.260138 0.585331,-0.65038 0.585366,-1.170732"
       id="path2165" />
    <path
       style="font-size:56px;font-style:normal;font-variant:normal;font-weight:normal;font-stretch:normal;text-align:start;line-height:125%;writing-mode:lr-tb;text-anchor:start;fill:#d9d9d9;fill-opacity:1;fill-rule:nonzero;stroke:none;font-family:Circulate BRK"
       d="m 44.585366,20.878051 c -3e-5,1.040662 0.325172,1.788629 0.97561,2.243902 0.650374,0.390255 1.430862,0.585377 2.341463,0.585366 l 1.073171,0 c 0.195087,1.1e-5 0.292648,-0.06504 0.292683,-0.195122 0.130052,-0.13007 0.357688,-0.357712 0.682927,-0.682927 0.390209,-0.325191 0.650371,-0.552834 0.780487,-0.682927 0.130053,-0.195109 0.195086,-0.455271 0.195122,-0.780487 -3.6e-5,-0.32519 -3.6e-5,-0.585354 0,-0.780488 l 0,-0.97561 c -0.06508,-0.195108 -0.227677,-0.422749 -0.487805,-0.682927 -0.195156,-0.325188 -0.422799,-0.487789 -0.682926,-0.487805 l -3.609757,0 c -0.520355,1.6e-5 -0.910599,0.325218 -1.170731,0.97561 -0.260192,0.58538 -0.390274,1.073185 -0.390244,1.463415"
       id="text1314" />
  </g>
</svg>
