/* XPM */
static char * backend_alsa_icon_xpm[] = {
"48 48 393 2",
"  	c None",
". 	c #FFFFFF",
"+ 	c #F5F8F4",
"@ 	c #E2EBE1",
"# 	c #D6E3D5",
"$ 	c #C5D5C3",
"% 	c #ABBCAA",
"& 	c #9BAB9A",
"* 	c #92A190",
"= 	c #8E9D8D",
"- 	c #FAFBF9",
"; 	c #EAF1E9",
"> 	c #CAD9C8",
", 	c #A7B7A6",
"' 	c #747E73",
") 	c #4B504B",
"! 	c #383B39",
"~ 	c #4A4C4A",
"{ 	c #646764",
"] 	c #787878",
"^ 	c #818181",
"/ 	c #FCFDFC",
"( 	c #DDE7DC",
"_ 	c #C0D1BE",
": 	c #828E81",
"< 	c #3B3F3B",
"[ 	c #434544",
"} 	c #8B8C8B",
"| 	c #CBCCCA",
"1 	c #F1F1EF",
"2 	c #FEFEFC",
"3 	c #EFF4EF",
"4 	c #C8D8C6",
"5 	c #303231",
"6 	c #6A6B69",
"7 	c #D2D3D0",
"8 	c #FEFEFE",
"9 	c #DCE7DB",
"0 	c #A8B7A7",
"a 	c #454945",
"b 	c #5E5F5E",
"c 	c #DADBD9",
"d 	c #FDFDFB",
"e 	c #F9FBF9",
"f 	c #D8E4D7",
"g 	c #8A9689",
"h 	c #343635",
"i 	c #AFB0AE",
"j 	c #FBFBF9",
"k 	c #737D72",
"l 	c #454745",
"m 	c #E5E6E3",
"n 	c #666E66",
"o 	c #5F605F",
"p 	c #F3F3F1",
"q 	c #F1F2F0",
"r 	c #C5C8C4",
"s 	c #A1A3A1",
"t 	c #8A8D8A",
"u 	c #9B9D9A",
"v 	c #CFD1CF",
"w 	c #FAFAF8",
"x 	c #FCFCFB",
"y 	c #D8D9D7",
"z 	c #838683",
"A 	c #535653",
"B 	c #717371",
"C 	c #949794",
"D 	c #AAACA9",
"E 	c #9A9E9A",
"F 	c #676A67",
"G 	c #979A97",
"H 	c #FCFCFA",
"I 	c #DADCD9",
"J 	c #808380",
"K 	c #676B67",
"L 	c #B5B7B5",
"M 	c #F7F8F6",
"N 	c #AFB1AE",
"O 	c #DEE0DD",
"P 	c #F5F5F3",
"Q 	c #A5A8A5",
"R 	c #6D706C",
"S 	c #BABBB9",
"T 	c #F6F7F4",
"U 	c #F0F1EF",
"V 	c #E4E5E3",
"W 	c #777A77",
"X 	c #939693",
"Y 	c #EFEFEE",
"Z 	c #FBFBFA",
"` 	c #E7EAE5",
" .	c #B8B9B7",
"..	c #515451",
"+.	c #D0D1CF",
"@.	c #DBDCD9",
"#.	c #E4E6E2",
"$.	c #ECECEA",
"%.	c #C0C1BF",
"&.	c #8E928E",
"*.	c #737873",
"=.	c #798079",
"-.	c #838B84",
";.	c #828C82",
">.	c #929F92",
",.	c #9DAB9D",
"'.	c #A2B0A2",
").	c #A0AEA0",
"!.	c #9EAD9E",
"~.	c #9CA99C",
"{.	c #9EA99E",
"].	c #9FA79E",
"^.	c #A0A6A0",
"/.	c #C8CBC7",
"(.	c #EAEBE8",
"_.	c #F9F9F7",
":.	c #DDDEDC",
"<.	c #767876",
"[.	c #5F645F",
"}.	c #8E9B8F",
"|.	c #BBCDBB",
"1.	c #D4E9D3",
"2.	c #D9F0D8",
"3.	c #D6ECD5",
"4.	c #D4EAD3",
"5.	c #D3EAD4",
"6.	c #D0E7D1",
"7.	c #D2E9D3",
"8.	c #D2E9D4",
"9.	c #D0E7D2",
"0.	c #CAE0CB",
"a.	c #CDE4CE",
"b.	c #CFE6CF",
"c.	c #CCE3CD",
"d.	c #C6DAC7",
"e.	c #B7CAB8",
"f.	c #BECBBE",
"g.	c #D7DBD6",
"h.	c #F6F6F5",
"i.	c #F5F6F3",
"j.	c #828482",
"k.	c #555B56",
"l.	c #B0C1B0",
"m.	c #D7EED8",
"n.	c #D4EBD5",
"o.	c #D4EBD4",
"p.	c #D6ECD4",
"q.	c #A6B6A4",
"r.	c #4A504B",
"s.	c #D4E9D2",
"t.	c #515751",
"u.	c #A4B4A5",
"v.	c #D1E8D3",
"w.	c #7B857B",
"x.	c #1A1B1B",
"y.	c #919E91",
"z.	c #3F4340",
"A.	c #ABBCAC",
"B.	c #CBE2CC",
"C.	c #CAE1CB",
"D.	c #CCDDCB",
"E.	c #E1E9E1",
"F.	c #676967",
"G.	c #8F9C8F",
"H.	c #D2E8D3",
"I.	c #93A192",
"J.	c #323533",
"K.	c #D2E6D0",
"L.	c #444A44",
"M.	c #9FAFA0",
"N.	c #C8DCC9",
"O.	c #3A3D3A",
"P.	c #B5C6B5",
"Q.	c #C8DDC8",
"R.	c #2B2E2C",
"S.	c #92A192",
"T.	c #CBE1CC",
"U.	c #C8DEC9",
"V.	c #C8DCC7",
"W.	c #D2E4D3",
"X.	c #EDEFEB",
"Y.	c #A1A3A0",
"Z.	c #899489",
"`.	c #808A80",
" +	c #1F201F",
".+	c #CCE0CA",
"++	c #CAE0CC",
"@+	c #B5C8B6",
"#+	c #C2D7C3",
"$+	c #1B1C1B",
"%+	c #7C867C",
"&+	c #C7D9C5",
"*+	c #C2DAC4",
"=+	c #C6DBC7",
"-+	c #E4EBE3",
";+	c #787C78",
">+	c #D1E6D1",
",+	c #CFE6D1",
"'+	c #656C65",
")+	c #0A0A0B",
"!+	c #C5D9C3",
"~+	c #666F67",
"{+	c #757F75",
"]+	c #BDD2BE",
"^+	c #606861",
"/+	c #C4DAC4",
"(+	c #C5D8C3",
"_+	c #ECEEEB",
":+	c #A0A7A0",
"<+	c #CEE5D0",
"[+	c #D5EBD4",
"}+	c #D4EBD3",
"|+	c #515851",
"1+	c #1C1E1D",
"2+	c #B3C4B2",
"3+	c #B5C7B6",
"4+	c #323432",
"5+	c #C2D8C3",
"6+	c #B0C2B1",
"7+	c #1B1C1C",
"8+	c #4C514C",
"9+	c #C9DFC9",
"0+	c #C3DAC4",
"a+	c #C3D6C1",
"b+	c #CBD6CA",
"c+	c #DEE2DD",
"d+	c #D0E6D0",
"e+	c #D2E7D0",
"f+	c #424742",
"g+	c #474A47",
"h+	c #96A496",
"i+	c #434944",
"j+	c #D0E6D1",
"k+	c #4F554F",
"l+	c #909C90",
"m+	c #9AA99B",
"n+	c #424542",
"o+	c #373B38",
"p+	c #C6DAC6",
"q+	c #C8DCC8",
"r+	c #9EAA9D",
"s+	c #E9EAE8",
"t+	c #D8E8D9",
"u+	c #CFE6D0",
"v+	c #CDE2CE",
"w+	c #313431",
"x+	c #6D766D",
"y+	c #7E897E",
"z+	c #CEE5CF",
"A+	c #859286",
"B+	c #5D655E",
"C+	c #869387",
"D+	c #697269",
"E+	c #252726",
"F+	c #BED2BF",
"G+	c #C7DBC7",
"H+	c #C2D5C0",
"I+	c #7A8179",
"J+	c #D6D9D5",
"K+	c #F0F3EF",
"L+	c #D0E5D1",
"M+	c #C4D8C5",
"N+	c #2E312F",
"O+	c #6F7870",
"P+	c #636A64",
"Q+	c #9AAB9B",
"R+	c #4A514B",
"S+	c #727C73",
"T+	c #6C756D",
"U+	c #222422",
"V+	c #B5C8B5",
"W+	c #C7DAC6",
"X+	c #C5D9C5",
"Y+	c #C3D8C2",
"Z+	c #545854",
"`+	c #ECEDEB",
" @	c #EEF1ED",
".@	c #D4E3D4",
"+@	c #CCE2CD",
"@@	c #BBD0BD",
"#@	c #161717",
"$@	c #262927",
"%@	c #424843",
"&@	c #9CAC9D",
"*@	c #7F8B7F",
"=@	c #616962",
"-@	c #5D635D",
";@	c #212322",
">@	c #101111",
",@	c #AABCAB",
"'@	c #C2D8C2",
")@	c #B1C1B0",
"!@	c #595E59",
"~@	c #A1A4A1",
"{@	c #FBFCFA",
"]@	c #E3EAE2",
"^@	c #CBDACB",
"/@	c #CBE1CB",
"(@	c #AFC2B1",
"_@	c #383C39",
":@	c #ACBEAD",
"<@	c #3C413D",
"[@	c #3D423D",
"}@	c #8E9B8E",
"|@	c #3E413E",
"1@	c #242625",
"2@	c #A7B8A8",
"3@	c #4A504A",
"4@	c #97A698",
"5@	c #4B504C",
"6@	c #94A295",
"7@	c #C7DBC6",
"8@	c #C4D8C3",
"9@	c #BFD2BE",
"0@	c #8C978D",
"a@	c #404341",
"b@	c #A0A2A0",
"c@	c #F5F5F4",
"d@	c #D5D7D4",
"e@	c #BBC6BB",
"f@	c #BECDBE",
"g@	c #BED1BE",
"h@	c #B0C1AF",
"i@	c #C7DCC8",
"j@	c #AFC1B0",
"k@	c #AFC0AF",
"l@	c #A3B4A3",
"m@	c #B4C6B4",
"n@	c #BBCEBC",
"o@	c #AEBFAF",
"p@	c #C0D3C0",
"q@	c #B8CBB8",
"r@	c #B1BBB0",
"s@	c #808780",
"t@	c #555955",
"u@	c #747674",
"v@	c #E2E4E1",
"w@	c #F5F6F4",
"x@	c #DDDFDC",
"y@	c #B8BDB7",
"z@	c #A1AAA1",
"A@	c #919991",
"B@	c #9DAA9C",
"C@	c #A3AFA2",
"D@	c #A8B5A7",
"E@	c #ACBCAC",
"F@	c #AFBFAF",
"G@	c #AFBEAF",
"H@	c #ABBAAB",
"I@	c #98A497",
"J@	c #899688",
"K@	c #7E877E",
"L@	c #707770",
"M@	c #676B66",
"N@	c #AEB0AD",
"O@	c #E7E8E5",
"P@	c #F3F3F2",
"Q@	c #E2E4E0",
"R@	c #C8C9C7",
"S@	c #B7BAB7",
"T@	c #A4A8A3",
"U@	c #636763",
"V@	c #4D4F4D",
"W@	c #999C98",
"X@	c #A7ABA6",
"Y@	c #B6B6B6",
"Z@	c #CACBC9",
"`@	c #E0E2DF",
" #	c #F4F5F3",
".#	c #7E827D",
"+#	c #868886",
"@#	c #ECEDEA",
"##	c #E3E5E2",
"$#	c #969B97",
"%#	c #696C69",
"&#	c #BFC1BE",
"*#	c #F8F8F7",
"=#	c #B5B9B4",
"-#	c #909190",
";#	c #E8E8E6",
">#	c #C4C6C3",
",#	c #7A7C7A",
"'#	c #5A5D5A",
")#	c #A6A7A5",
"!#	c #EEEFED",
"~#	c #A7ABA7",
"{#	c #535753",
"]#	c #515551",
"^#	c #707370",
"/#	c #C0C2BF",
"(#	c #E8E9E7",
"_#	c #EBECEA",
":#	c #F4F5F2",
". . . . . . . . . . . . . . . . + @ # $ % & * = = * & % $ # @ + . . . . . . . . . . . . . . . . ",
". . . . . . . . . . . . . - ; > , ' ) ! ~ { ] ^ ^ ] { ~ ! ) ' , > ; - . . . . . . . . . . . . . ",
". . . . . . . . . . . / ( _ : < [ } | 1 2 2 2 2 2 2 2 2 1 | } [ < : _ ( / . . . . . . . . . . . ",
". . . . . . . . . . 3 4 : 5 6 7 2 2 2 2 2 2 2 2 2 2 2 2 2 2 2 2 7 6 5 : 4 3 . . . . . . . . . . ",
". . . . . . . . 8 9 0 a b c d 2 2 2 2 2 2 2 2 2 2 2 2 2 2 2 2 2 2 d c b a 0 9 8 . . . . . . . . ",
". . . . . . . e f g h i j 2 2 2 2 2 2 2 2 2 2 2 2 2 2 2 2 2 2 2 2 2 2 j i h g f e . . . . . . . ",
". . . . . . e 4 k l m 2 2 2 2 2 2 2 2 2 2 2 2 2 2 2 2 2 2 2 2 2 2 2 2 2 2 m l k 4 e . . . . . . ",
". . . . . e 4 n o 1 2 2 2 2 2 2 2 2 2 2 2 2 2 2 2 2 2 2 2 2 2 2 2 2 2 2 2 2 1 o n 4 e . . . . . ",
". . . . 8 f k o p 2 2 2 2 2 2 2 2 2 2 2 2 2 2 2 2 2 2 2 2 2 2 2 2 2 2 2 2 2 2 p o k f 8 . . . . ",
". . . . 9 g l 1 2 2 2 2 2 2 2 2 2 2 2 2 2 2 2 2 2 2 2 2 2 2 2 2 2 2 2 2 2 2 2 2 1 l g 9 . . . . ",
". . . 3 0 h m 2 2 2 2 2 2 2 2 2 2 2 2 2 2 2 2 2 2 2 2 2 2 2 2 2 2 2 2 2 2 2 2 2 2 m h 0 3 . . . ",
". . / 4 a i 2 2 2 2 2 2 2 2 2 2 2 2 2 2 2 2 2 2 2 2 2 2 q r s t u v w 2 2 2 2 2 2 2 i a 4 / . . ",
". . ( : b j 2 2 2 2 2 2 2 2 2 2 2 2 2 2 2 2 2 2 2 x y z A B C D E F G H 2 2 2 2 2 2 j b : ( . . ",
". - _ 5 c 2 2 2 2 2 2 2 2 2 2 2 2 2 2 2 2 2 2 d I J K L q d 2 2 2 M N O 2 2 2 2 2 2 2 c 5 _ - . ",
". ; : 6 d 2 2 2 2 2 2 2 2 2 2 2 2 2 2 2 2 2 P Q R S T 2 2 2 2 2 2 2 w U 2 2 2 2 2 2 2 d 6 : ; . ",
". > < 7 2 2 2 2 2 2 2 2 2 2 2 2 2 2 2 2 2 V W X Y 2 2 2 2 2 2 2 2 2 2 2 2 2 2 2 2 2 2 2 7 < > . ",
"+ , [ 2 2 2 2 2 2 2 2 2 2 2 2 2 Z p ` O  ...G +.@.#.p H 2 2 2 2 2 2 2 2 2 2 2 2 2 2 2 2 2 [ , + ",
"@ ' } 2 2 2 2 2 2 2 2 2 d $.%.&.*.=.-.;.>.,.'.).!.~.{.].^./.(._.2 2 2 2 2 2 2 2 2 2 2 2 2 } ' @ ",
"# ) | 2 2 2 2 2 2 2 d :.<.[.}.|.1.2.3.4.5.6.7.8.9.0.a.b.c.d.e.f.g.h.2 2 2 2 2 2 2 2 2 2 2 | ) # ",
"$ ! 1 2 2 2 2 2 2 i.j.k.l.m.n.o.p.p.q.r.s.t.u.v.w.x.y.0.z.A.B.0.C.D.E.d 2 2 2 2 2 2 2 2 2 1 ! $ ",
"% ~ 2 2 2 2 2 2 P F.G.H.5.8.8.p.p.p.I.J.K.L.M.N.O.P.0.Q.R.S.T.U.U.U.V.W.X.2 2 2 2 2 2 2 2 2 ~ % ",
"& { 2 2 2 2 2 2 Y.Z.5.6.8.8.8.p.p.p.`. +.+L.M.++< @+a.#+$+%+T.U.U.Q.&+*+=+-+2 2 2 2 2 2 2 2 { & ",
"* ] 2 2 2 2 2 - ;+>+a.,+8.8.8.p.p.p.'+)+!+L.M.8.~+{+a.]+)+^+T.U.U.Q.&+*+/+(+_+2 2 2 2 2 2 2 ] * ",
"= ^ 2 2 2 2 2 Z :+7.a.<+8.8.8.[+p.}+|+1+2+L.M.8.3+4+5+6+7+8+9+U.U.Q.&+*+0+a+b+H 2 2 2 2 2 2 ^ = ",
"= ^ 2 2 2 2 2 2 c+d+a.a.v.8.8.8.[+e+f+g+h+i+M.8.j+k+l+m+n+o+p+U.U.q+&+*+0+a+r+s+2 2 2 2 2 2 ^ = ",
"* ] 2 2 2 2 2 2 j t+a.a.u+8.8.8.8.v+w+x+y+i+M.8.z+A+B+C+D+E+F+U.U.G+&+*+0+H+I+J+2 2 2 2 2 2 ] * ",
"& { 2 2 2 2 2 2 2 K+L+a.a.u+8.8.8.M+N+O+P+i+M.6.a.Q+R+S+T+U+V+U.U.W+X+*+Y+2+Z+`+2 2 2 2 2 2 { & ",
"% ~ 2 2 2 2 2 2 2 2  @.@+@a.u+8.8.@@#@$@r.%@&@c.U.*@=@-@;@>@,@U.Q.&+/+'@)@!@~@d 2 2 2 2 2 2 ~ % ",
"$ ! 1 2 2 2 2 2 2 2 2 {@]@^@/@z+6.(@_@:@<@[@<@}@|@1@2@3@4@5@6@U.7@8@9@0@a@b@d 2 2 2 2 2 2 1 ! $ ",
"# ) | 2 2 2 2 2 2 2 2 2 2 c@d@e@f@g@h@i@j@k@l@F+m@n@T.o@p@k@q@9@r@s@t@u@v@2 2 2 2 2 2 2 2 | ) # ",
"@ ' } 2 2 2 2 2 2 2 2 2 2 2 2 w@x@y@z@A@B@C@D@E@F@G@H@I@J@K@L@M@;+N@O@x 2 2 2 2 2 2 2 2 2 } ' @ ",
"+ , [ 2 2 2 2 2 2 2 2 2 2 2 2 2 2 2 x P@Q@R@S@T@U@V@W@X@Y@Z@`@ #d 2 2 2 2 2 2 2 2 2 2 2 2 [ , + ",
". > < 7 2 2 2 2 2 2 2 2 H 2 2 2 2 2 2 2 2 2 :..#+#@#2 2 2 2 2 2 2 2 2 2 2 2 2 2 2 2 2 2 7 < > . ",
". ; : 6 d 2 2 2 2 2 2 H v j 2 2 2 2 2 d ##$#%#&#*#2 2 2 2 2 2 2 2 2 2 2 2 2 2 2 2 2 2 d 6 : ; . ",
". - _ 5 c 2 2 2 2 2 2 2 =#-#`@c@c@;#>#,#'#)#!#2 2 2 2 2 2 2 2 2 2 2 2 2 2 2 2 2 2 2 2 c 5 _ - . ",
". . ( : b j 2 2 2 2 2 2 H ~#'#{#]#t@^#/#c@2 2 2 2 2 2 2 2 2 2 2 2 2 2 2 2 2 2 2 2 2 j b : ( . . ",
". . / 4 a i 2 2 2 2 2 2 2 2 P (#_#:#d 2 2 2 2 2 2 2 2 2 2 2 2 2 2 2 2 2 2 2 2 2 2 2 i a 4 / . . ",
". . . 3 0 h m 2 2 2 2 2 2 2 2 2 2 2 2 2 2 2 2 2 2 2 2 2 2 2 2 2 2 2 2 2 2 2 2 2 2 m h 0 3 . . . ",
". . . . 9 g l 1 2 2 2 2 2 2 2 2 2 2 2 2 2 2 2 2 2 2 2 2 2 2 2 2 2 2 2 2 2 2 2 2 1 l g 9 . . . . ",
". . . . 8 f k o p 2 2 2 2 2 2 2 2 2 2 2 2 2 2 2 2 2 2 2 2 2 2 2 2 2 2 2 2 2 2 p o k f 8 . . . . ",
". . . . . e 4 n o 1 2 2 2 2 2 2 2 2 2 2 2 2 2 2 2 2 2 2 2 2 2 2 2 2 2 2 2 2 1 o n 4 e . . . . . ",
". . . . . . e 4 k l m 2 2 2 2 2 2 2 2 2 2 2 2 2 2 2 2 2 2 2 2 2 2 2 2 2 2 m l k 4 e . . . . . . ",
". . . . . . . e f g h i j 2 2 2 2 2 2 2 2 2 2 2 2 2 2 2 2 2 2 2 2 2 2 j i h g f e . . . . . . . ",
". . . . . . . . 8 9 0 a b c d 2 2 2 2 2 2 2 2 2 2 2 2 2 2 2 2 2 2 d c b a 0 9 8 . . . . . . . . ",
". . . . . . . . . . 3 4 : 5 6 7 2 2 2 2 2 2 2 2 2 2 2 2 2 2 2 2 7 6 5 : 4 3 . . . . . . . . . . ",
". . . . . . . . . . . / ( _ : < [ } | 1 2 2 2 2 2 2 2 2 1 | } [ < : _ ( / . . . . . . . . . . . ",
". . . . . . . . . . . . . - ; > , ' ) ! ~ { ] ^ ^ ] { ~ ! ) ' , > ; - . . . . . . . . . . . . . ",
". . . . . . . . . . . . . . . . + @ # $ % & * = = * & % $ # @ + . . . . . . . . . . . . . . . . "};
