<?xml version="1.0" encoding="UTF-8" standalone="no"?>
<!-- Created with Inkscape (http://www.inkscape.org/) -->

<svg
   xmlns:dc="http://purl.org/dc/elements/1.1/"
   xmlns:cc="http://creativecommons.org/ns#"
   xmlns:rdf="http://www.w3.org/1999/02/22-rdf-syntax-ns#"
   xmlns:svg="http://www.w3.org/2000/svg"
   xmlns="http://www.w3.org/2000/svg"
   xmlns:xlink="http://www.w3.org/1999/xlink"
   xmlns:sodipodi="http://sodipodi.sourceforge.net/DTD/sodipodi-0.dtd"
   xmlns:inkscape="http://www.inkscape.org/namespaces/inkscape"
   version="1.1"
   width="431"
   height="94"
   id="svg2989"
   inkscape:version="0.48.5 r10040"
   sodipodi:docname="about-logo.svg">
  <sodipodi:namedview
     pagecolor="#ffffff"
     bordercolor="#666666"
     borderopacity="1"
     objecttolerance="10"
     gridtolerance="10"
     guidetolerance="10"
     inkscape:pageopacity="0"
     inkscape:pageshadow="2"
     inkscape:window-width="1920"
     inkscape:window-height="1124"
     id="namedview49"
     showgrid="false"
     inkscape:zoom="2.8809269"
     inkscape:cx="192.78384"
     inkscape:cy="94.431006"
     inkscape:window-x="0"
     inkscape:window-y="25"
     inkscape:window-maximized="1"
     inkscape:current-layer="layer3" />
  <defs
     id="defs2991">
    <linearGradient
       id="linearGradient5221">
      <stop
         id="stop5223"
         style="stop-color:#000000;stop-opacity:1"
         offset="0" />
      <stop
         id="stop5225"
         style="stop-color:#000000;stop-opacity:0"
         offset="1" />
    </linearGradient>
    <linearGradient
       x1="42.111431"
       y1="48.365711"
       x2="282.20581"
       y2="48.365711"
       id="linearGradient5229"
       xlink:href="#linearGradient5221"
       gradientUnits="userSpaceOnUse" />
    <filter
       color-interpolation-filters="sRGB"
       id="filter6500">
      <feGaussianBlur
         id="feGaussianBlur6502"
         stdDeviation="1.3643904" />
    </filter>
    <filter
       color-interpolation-filters="sRGB"
       id="filter6500-3">
      <feGaussianBlur
         id="feGaussianBlur6502-78"
         stdDeviation="1.3643904" />
    </filter>
    <filter
       color-interpolation-filters="sRGB"
       id="filter6500-37">
      <feGaussianBlur
         id="feGaussianBlur6502-4"
         stdDeviation="1.3643904" />
    </filter>
    <filter
       color-interpolation-filters="sRGB"
       id="filter6500-9">
      <feGaussianBlur
         id="feGaussianBlur6502-6"
         stdDeviation="1.3643904" />
    </filter>
    <filter
       color-interpolation-filters="sRGB"
       id="filter6500-9-9">
      <feGaussianBlur
         id="feGaussianBlur6502-6-8"
         stdDeviation="1.3643904" />
    </filter>
    <filter
       color-interpolation-filters="sRGB"
       id="filter6500-33">
      <feGaussianBlur
         id="feGaussianBlur6502-9"
         stdDeviation="1.3643904" />
    </filter>
    <filter
       color-interpolation-filters="sRGB"
       id="filter6500-3-8">
      <feGaussianBlur
         id="feGaussianBlur6502-78-6"
         stdDeviation="1.3643904" />
    </filter>
    <filter
       color-interpolation-filters="sRGB"
       id="filter6500-3-6">
      <feGaussianBlur
         id="feGaussianBlur6502-78-64"
         stdDeviation="1.3643904" />
    </filter>
    <filter
       color-interpolation-filters="sRGB"
       id="filter6500-3-9">
      <feGaussianBlur
         id="feGaussianBlur6502-78-0"
         stdDeviation="1.3643904" />
    </filter>
    <filter
       color-interpolation-filters="sRGB"
       id="filter6500-8">
      <feGaussianBlur
         id="feGaussianBlur6502-8"
         stdDeviation="1.3643904" />
    </filter>
    <filter
       color-interpolation-filters="sRGB"
       inkscape:collect="always"
       id="filter3832-9">
      <feGaussianBlur
         inkscape:collect="always"
         stdDeviation="2.8349653"
         id="feGaussianBlur3834-0" />
    </filter>
  </defs>
  <metadata
     id="metadata2994">
    <rdf:RDF>
      <cc:Work
         rdf:about="">
        <dc:format>image/svg+xml</dc:format>
        <dc:type
           rdf:resource="http://purl.org/dc/dcmitype/StillImage" />
        <dc:title></dc:title>
      </cc:Work>
    </rdf:RDF>
  </metadata>
  <g
     inkscape:groupmode="layer"
     id="layer3"
     inkscape:label="Background"
     style="display:inline">
    <g
       transform="translate(-0.08398773,-958.26173)"
       id="layer1"
       style="display:inline">
      <path
         style="font-size:64px;font-style:normal;font-variant:normal;font-weight:normal;font-stretch:normal;line-height:125%;letter-spacing:0px;word-spacing:0px;fill:#000000;fill-opacity:1;stroke:none;filter:url(#filter3832-9);font-family:'Circulate (BRK)';-inkscape-font-specification:'Circulate (BRK)'"
         d="m 135.4375,968.8125 c -11.80719,-0.0545 -22.39252,7.21116 -29.125,16.5625 -10.977223,-6.19182 -24.714668,-4.59205 -35.4375,1.5 -16.401569,-18.36157 -52.390945,-7.34318 -54.625,17.5 -3.893356,22.1565 21.917818,44.8223 42.875,33.9375 5.49208,-3.0162 12.863962,-4.0797 17.6875,0.6563 12.253004,5.6344 27.85778,2.6018 37.125,-7.2813 13.32757,10.8555 33.46556,9.4445 47.0625,-0.2187 12.37928,12.1409 34.46831,12.2526 46.53125,-0.4376 11.45883,7.8807 28.07961,6.2457 37.9375,-3.4687 10.33894,7.3694 24.3333,5.8621 35.28125,0.6875 10.84075,11.1626 29.05763,11.8477 42.1875,4.5 11.95253,12.1739 33.40803,11.7132 45.4375,-0.125 18.32717,14.5983 50.05907,-3.1061 46.6875,-26.375 -1.22521,-19.0425 -25.5438,-34.11895 -42.34375,-23.4375 -4.31196,4.04748 -11.56744,4.7665 -16.03125,0.59375 -9.63775,-3.77965 -20.19307,-1.46433 -29.65625,1.90625 -11.12397,-12.09767 -31.02704,-12.29454 -44.09375,-3.40625 -11.82075,-10.52209 -31.50599,-9.09763 -42.46875,1.9375 -10.61404,-6.64174 -24.57576,-4.67652 -35,1.53125 -11.0288,-9.44559 -28.00934,-9.99648 -40.1875,-2.53125 C 158.07176,974.04692 146.9542,968.014 135.4375,968.8125 z"
         id="path3964"
         inkscape:connector-curvature="0" />
      <rect
         style="fill:none;stroke:none"
         id="rect5304"
         width="28.810171"
         height="39.223488"
         x="66.298103"
         y="12.081921"
         transform="translate(0,958.36218)" />
    </g>
  </g>
  <g
     inkscape:groupmode="layer"
     id="layer2"
     inkscape:label="Logo"
     style="display:inline">
    <g
       id="text5538"
       style="font-size:64px;font-style:normal;font-variant:normal;font-weight:normal;font-stretch:normal;line-height:125%;letter-spacing:0px;word-spacing:0px;fill:#cccccc;fill-opacity:1;stroke:none;display:inline;font-family:'Circulate (BRK)';-inkscape-font-specification:'Circulate (BRK)'"
       transform="translate(-0.310309,-958.35829)">
      <path
         d="m 24.534808,1009.1343 c 2e-6,3.2853 0.618668,6.3573 1.856,9.216 1.237332,2.8587 2.922664,5.3546 5.056,7.488 2.133326,2.1333 4.629324,3.8186 7.488,5.056 2.858651,1.2373 5.930648,1.856 9.216,1.856 3.242642,0 6.293305,-0.6187 9.152,-1.856 2.9013,-1.2374 5.41863,-2.9227 7.552,-5.056 2.133293,-2.1334 3.818624,-4.6293 5.056,-7.488 1.237289,-2.8587 1.855955,-5.9307 1.856,-9.216 -4.5e-5,-3.2427 -0.618711,-6.2933 -1.856,-9.15201 -1.237376,-2.90131 -2.922707,-5.41864 -5.056,-7.552 -2.13337,-2.13331 -4.6507,-3.81864 -7.552,-5.056 -2.858695,-1.2373 -5.909358,-1.85597 -9.152,-1.856 -3.285352,3e-5 -6.357349,0.6187 -9.216,1.856 -2.858676,1.23736 -5.354674,2.92269 -7.488,5.056 -2.133336,2.13336 -3.818668,4.65069 -5.056,7.552 -1.237332,2.85871 -1.855998,5.90931 -1.856,9.15201 m 24.192,-5.632 c -2.2e-5,-0.384 -0.170689,-0.6827 -0.512,-0.896 -0.341355,-0.2133 -0.704021,-0.32 -1.088,-0.32 l -4.416,0 c -0.256016,0.085 -0.533349,0.1493 -0.832,0.192 -0.298682,0.043 -0.576015,0.064 -0.832,0.064 -0.682681,0 -1.301347,-0.2347 -1.856,-0.704 -0.512012,-0.512 -0.768012,-1.1093 -0.768,-1.792 -1.2e-5,-0.29866 0.04265,-0.57599 0.128,-0.83201 0.127988,-0.25598 0.255988,-0.49065 0.384,-0.704 l 1.344,-1.344 c 0.341319,-0.29865 0.703985,-0.46931 1.088,-0.512 0.426651,-0.0853 0.831984,-0.14931 1.216,-0.192 0.17065,-0.0427 0.533317,-0.064 1.088,-0.064 0.597316,-0.0426 1.002648,-0.064 1.216,-0.064 0.554648,-0.29865 1.173314,-0.44798 1.856,-0.448 0.725312,-0.0426 1.386645,-0.064 1.984,-0.064 1.151977,2e-5 2.346642,0.17069 3.584,0.512 1.279973,0.38402 2.346638,0.83202 3.2,1.344 0.89597,0.46935 1.621303,1.04535 2.176,1.728 0.554635,0.68271 0.981301,1.51471 1.28,2.49601 0.298634,0.9387 0.5333,2.0693 0.704,3.392 0.0853,0.4693 0.1493,0.9387 0.192,1.408 0.0853,0.4693 0.127966,0.9387 0.128,1.408 -3.4e-5,0.3413 -0.06403,0.6613 -0.192,0.96 -0.128033,0.256 -0.2347,0.5333 -0.32,0.832 -3.3e-5,0.043 -3.3e-5,0.1493 0,0.32 -3.3e-5,0.1707 -0.02137,0.3627 -0.064,0.576 -3.3e-5,0.1707 -3.3e-5,0.3413 0,0.512 -3.3e-5,0.128 -3.3e-5,0.2133 0,0.256 -0.08537,0.4693 -0.170699,0.9387 -0.256,1.408 -0.0427,0.4693 -0.06403,0.9387 -0.064,1.408 l 0,0.192 c 0.04263,0.1707 0.127967,0.4907 0.256,0.96 0.127967,0.4693 0.2133,0.7893 0.256,0.96 l 0,0.384 c -3.3e-5,0.512 -0.128033,1.0027 -0.384,1.472 -0.256032,0.4693 -0.597365,0.896 -1.024,1.28 -0.426698,0.384 -0.896031,0.6827 -1.408,0.896 -0.469363,0.2133 -0.960029,0.32 -1.472,0.32 -0.682695,0 -1.344027,-0.1493 -1.984,-0.448 -0.640026,-0.3413 -1.258692,-0.64 -1.856,-0.896 -0.08536,-0.043 -0.256025,-0.064 -0.512,-0.064 -0.213358,0 -0.362691,0 -0.448,0 -0.81069,0 -1.600022,0.1493 -2.368,0.448 -0.725354,0.256 -1.450687,0.5333 -2.176,0.832 -0.08535,0.043 -0.298686,0.1493 -0.64,0.32 -0.298685,0.1707 -0.490685,0.2773 -0.576,0.32 -0.170685,0.085 -0.298685,0.1067 -0.384,0.064 -0.08535,0 -0.234684,0 -0.448,0 l -0.512,0 c -0.21335,-0.043 -0.640016,-0.1707 -1.28,-0.384 -0.597348,-0.2133 -1.002681,-0.3627 -1.216,-0.448 -0.04268,0 -0.128014,-0.021 -0.256,-0.064 -0.08535,-0.043 -0.128014,-0.085 -0.128,-0.128 -0.68268,-0.4693 -1.408013,-1.0027 -2.176,-1.6 -0.725344,-0.64 -1.216011,-1.3867 -1.472,-2.24 -0.08534,-0.2987 -0.213344,-0.704 -0.384,-1.216 -0.170677,-0.5547 -0.25601,-0.832 -0.256,-0.832 l 0,-3.2 c -1e-5,-0.043 0.04266,-0.1707 0.128,-0.384 0.12799,-0.2133 0.234657,-0.3627 0.32,-0.448 0.469323,-0.8533 1.066655,-1.6427 1.792,-2.368 0.767987,-0.768 1.578653,-1.408 2.432,-1.92 0.597318,-0.3413 1.215984,-0.512 1.856,-0.512 0.639983,-0.043 1.258649,-0.1707 1.856,-0.384 0.08532,-0.043 0.255982,-0.1067 0.512,-0.192 0.298648,-0.128 0.490648,-0.2133 0.576,-0.256 0.170647,-0.085 0.426647,-0.128 0.768,-0.128 0.341313,-0.043 0.682646,-0.085 1.024,-0.128 0.341312,-0.085 0.618645,-0.192 0.832,-0.32 0.255978,-0.1707 0.383978,-0.4267 0.384,-0.768 m -2.816,8.832 c -1.9e-5,0.6827 0.213314,1.1733 0.64,1.472 0.426646,0.256 0.938646,0.384 1.536,0.384 l 0.704,0 c 0.127978,0 0.191977,-0.043 0.192,-0.128 0.08531,-0.085 0.234644,-0.2347 0.448,-0.448 0.255977,-0.2133 0.426643,-0.3627 0.512,-0.448 0.08531,-0.128 0.127976,-0.2987 0.128,-0.512 -2.4e-5,-0.2133 -2.4e-5,-0.384 0,-0.512 l 0,-0.64 c -0.04269,-0.128 -0.149357,-0.2773 -0.32,-0.448 -0.128023,-0.2133 -0.277356,-0.32 -0.448,-0.32 l -2.368,0 c -0.341353,0 -0.597353,0.2133 -0.768,0.64 -0.170686,0.384 -0.256019,0.704 -0.256,0.96"
         id="path6729"
         inkscape:connector-curvature="0"
         style="stroke:none" />
      <path
         d="m 68.147808,1011.6303 c 2e-6,3.072 0.597335,5.9733 1.792,8.704 1.152,2.7307 2.730665,5.0986 4.736,7.104 2.005327,2.0053 4.373325,3.584 7.104,4.736 2.730653,1.1946 5.631983,1.792 8.704,1.792 3.114644,0 6.015974,-0.5974 8.704,-1.792 2.730632,-1.152 5.098632,-2.7307 7.104002,-4.736 2.04796,-2.0054 3.64796,-4.3733 4.8,-7.104 1.19462,-2.7307 1.79196,-5.632 1.792,-8.704 -4e-5,-3.1147 -0.59738,-6.016 -1.792,-8.704 -1.15204,-2.7307 -2.75204,-5.09866 -4.8,-7.10401 -2.00537,-2.04798 -4.37337,-3.64798 -7.104002,-4.8 -2.730693,-1.19464 -5.632023,-1.79197 -8.704,-1.792 -3.072017,3e-5 -5.973347,0.59736 -8.704,1.792 -2.730675,1.15202 -5.098673,2.75202 -7.104,4.8 -2.005335,2.00535 -3.584,4.37331 -4.736,7.10401 -1.194665,2.7307 -1.791998,5.632 -1.792,8.704 m 10.176,-1.536 c -0.213341,-0.64 -0.320007,-1.28 -0.32,-1.92 -7e-6,-0.2133 0.02133,-0.4053 0.064,-0.576 0.04266,-0.2133 0.06399,-0.4267 0.064,-0.64 l 0,-0.384 c -0.08534,-0.64 -0.192007,-1.3227 -0.32,-2.048 -0.08534,-0.768 -0.128007,-1.472 -0.128,-2.112 -7e-6,-0.64 0.106659,-1.2587 0.32,-1.856 0.213326,-0.63999 0.511992,-1.19466 0.896,-1.66401 0.383991,-0.51198 0.853324,-0.91731 1.408,-1.216 0.554656,-0.34131 1.173322,-0.51198 1.856,-0.512 0.725321,2e-5 1.407987,0.12802 2.048,0.384 0.639986,0.25602 1.087985,0.74669 1.344,1.472 0.127985,0.29868 0.213318,0.59735 0.256,0.896 0.08532,0.29871 0.170651,0.61871 0.256,0.96001 0.170651,0.384 0.341318,0.768 0.512,1.152 0.170651,0.3413 0.255984,0.7253 0.256,1.152 -1.6e-5,0.5973 -0.06402,1.1733 -0.192,1.728 -0.08535,0.5547 -0.128016,1.1307 -0.128,1.728 -1.6e-5,0.4267 0.02132,0.8533 0.064,1.28 0.08532,0.4267 0.170651,0.8533 0.256,1.28 0.08532,0.7253 0.17065,1.4933 0.256,2.304 0.127983,0.8107 0.55465,1.4507 1.28,1.92 0.127982,0.085 0.319982,0.192 0.576,0.32 0.255981,0.128 0.405315,0.192 0.448,0.192 l 1.536,0 c 0.04265,0 0.12798,-0.021 0.256,-0.064 0.170646,-0.085 0.298646,-0.1707 0.384,-0.256 0.213312,-0.128 0.426645,-0.2773 0.64,-0.448 0.255978,-0.1707 0.469311,-0.3627 0.64,-0.576 -2.2e-5,0 0.02131,-0.064 0.064,-0.192 0.04264,-0.128 0.08531,-0.2347 0.128,-0.32 0.04264,-0.085 0.08531,-0.2347 0.128,-0.448 0.04264,-0.2133 0.06398,-0.3413 0.064,-0.384 -2.3e-5,-0.043 -2.3e-5,-0.1707 0,-0.384 -2.3e-5,-0.256 -2.3e-5,-0.512 0,-0.768 0.04264,-0.2987 0.06398,-0.5547 0.064,-0.768 0.04264,-0.2133 0.06398,-0.3627 0.064,-0.448 -2.3e-5,-0.085 0.04264,-0.32 0.128,-0.704 0.08531,-0.4267 0.14931,-0.6827 0.192,-0.768 0.08531,-0.384 0.127977,-0.768 0.128,-1.152 -2.3e-5,-0.4267 0.04264,-0.832 0.128,-1.216 0.08531,-0.3413 0.170643,-0.6827 0.256,-1.024 0.127976,-0.3413 0.191976,-0.6827 0.192,-1.024 -2.4e-5,-0.2987 -0.04269,-0.5547 -0.128,-0.768 -0.08536,-0.256 -0.128024,-0.5547 -0.128,-0.896 -2.4e-5,-0.4267 0.08531,-0.8747 0.256,-1.34401 0.170643,-0.51198 0.405309,-0.95998 0.704,-1.344 0.298642,-0.42665 0.639975,-0.76798 1.024,-1.024 0.426641,-0.25598 0.895974,-0.38398 1.408,-0.384 0.511973,2e-5 1.045305,0.10669 1.6,0.32 0.554638,0.21335 1.066642,0.51202 1.536002,0.896 0.51197,0.38402 0.9173,0.83202 1.216,1.344 0.3413,0.46931 0.51197,0.98131 0.512,1.53601 l 0,3.904 -0.32,1.152 0,3.328 c 0.0853,0.384 0.19197,0.8107 0.32,1.28 0.12797,0.4693 0.19197,0.896 0.192,1.28 -3e-5,0.1707 -0.0214,0.32 -0.064,0.448 -0.0427,0.128 -0.064,0.2773 -0.064,0.448 -3e-5,0.128 -3e-5,0.2347 0,0.32 0.0426,0.085 0.0853,0.2133 0.128,0.384 l 0,3.072 c -0.0854,0.3413 -0.1707,0.6827 -0.256,1.024 -0.0427,0.2987 -0.12803,0.6187 -0.256,0.96 -0.2987,0.768 -0.78937,1.408 -1.472,1.92 -0.640031,0.4693 -1.386697,0.704 -2.240002,0.704 l -0.256,0 -2.176,-0.64 -4.352,0 c -0.76802,0.3413 -1.557353,0.64 -2.368,0.896 -0.810684,0.256 -1.642684,0.4693 -2.496,0.64 l -0.256,0 c -0.597349,0 -1.194681,-0.1493 -1.792,-0.448 -0.55468,-0.256 -1.088013,-0.512 -1.6,-0.768 -0.469345,-0.256 -0.960011,-0.64 -1.472,-1.152 -0.51201,-0.512 -1.002677,-1.088 -1.472,-1.728 -0.426676,-0.64 -0.810675,-1.28 -1.152,-1.92 -0.341341,-0.64 -0.533341,-1.216 -0.576,-1.728 l 0,-1.6 c -8e-6,-0.128 -8e-6,-0.32 0,-0.576 -8e-6,-0.2987 -0.02134,-0.5973 -0.064,-0.896 -8e-6,-0.3413 -8e-6,-0.64 0,-0.896 -8e-6,-0.2987 -8e-6,-0.512 0,-0.64"
         id="path6731"
         inkscape:connector-curvature="0" />
      <path
         d="m 109.65681,1004.0143 c 0,3.7547 0.704,7.296 2.112,10.624 1.408,3.328 3.32799,6.2293 5.76,8.704 2.47466,2.5173 5.35465,4.5013 8.64,5.952 3.32798,1.4506 6.89064,2.176 10.688,2.176 3.75464,0 7.29597,-0.704 10.624,-2.112 3.37063,-1.408 6.29329,-3.3494 8.768,-5.824 2.51728,-2.432 4.50128,-5.2907 5.952,-8.576 1.45061,-3.328 2.17595,-6.8907 2.176,-10.688 -5e-5,-3.7547 -0.70405,-7.29599 -2.112,-10.62401 -1.40805,-3.37064 -3.34938,-6.2933 -5.824,-8.768 -2.47471,-2.5173 -5.37604,-4.5013 -8.704,-5.952 -3.28537,-1.45063 -6.8267,-2.17596 -10.624,-2.176 -3.75469,4e-5 -7.29602,0.70404 -10.624,2.112 -3.32801,1.40804 -6.25068,3.34937 -8.768,5.824 -2.47467,2.4747 -4.43734,5.37603 -5.888,8.704 -1.45067,3.28535 -2.176,6.82671 -2.176,10.62401 m 12.864,6.08 0,-0.384 c -1e-5,-0.128 -1e-5,-0.3413 0,-0.64 -1e-5,-0.3413 -1e-5,-0.704 0,-1.088 0.0427,-0.384 0.064,-0.7253 0.064,-1.024 0.0426,-0.3413 0.064,-0.576 0.064,-0.704 -1e-5,-0.043 -1e-5,-0.128 0,-0.256 0.0427,-0.128 0.064,-0.2133 0.064,-0.256 0.0853,-0.8533 0.21332,-1.6853 0.384,-2.496 0.21332,-0.8107 0.53332,-1.6 0.96,-2.368 0.42665,-0.7253 0.93865,-1.30133 1.536,-1.72801 0.63998,-0.46932 1.30132,-0.93865 1.984,-1.408 0.68265,-0.46931 1.34398,-0.81065 1.984,-1.024 0.68265,-0.21331 1.40798,-0.42665 2.176,-0.64 0.0853,2e-5 0.25598,-0.0427 0.512,-0.128 0.29864,-0.0853 0.49064,-0.14931 0.576,-0.192 l 0.448,0 c 0.34131,2e-5 0.66131,0.0213 0.96,0.064 0.34131,0.0427 0.68264,0.064 1.024,0.064 0.42664,2e-5 0.85331,-0.0213 1.28,-0.064 0.46931,-0.0853 0.85331,-0.29865 1.152,-0.64 0.0853,-0.12798 0.21331,-0.31998 0.384,-0.576 0.17064,-0.25598 0.25597,-0.38398 0.256,-0.384 l 0,-2.688 c -3e-5,-0.0426 0.064,-0.21331 0.192,-0.512 0.12797,-0.29864 0.23464,-0.55464 0.32,-0.768 0.29864,-0.72531 0.68264,-1.25864 1.152,-1.6 0.51197,-0.38397 1.13064,-0.76797 1.856,-1.152 0.29863,-0.2133 0.7253,-0.31997 1.28,-0.32 0.51197,3e-5 1.0453,0.1067 1.6,0.32 0.55463,0.21336 1.06663,0.51203 1.536,0.896 0.4693,0.38403 0.8533,0.83203 1.152,1.344 0.29863,0.46936 0.44796,0.98136 0.448,1.536 -4e-5,0.68269 -0.0427,1.45069 -0.128,2.304 -0.0427,0.81069 -0.1707,1.53602 -0.384,2.176 l 0,3.456 0,0.384 c 0.0426,0.17068 0.064,0.53331 0.064,1.08801 -4e-5,0.5547 -4e-5,0.9173 0,1.088 -4e-5,0.085 -0.0214,0.192 -0.064,0.32 -4e-5,0.085 -4e-5,0.1493 0,0.192 l 0,4.8 c 0.0853,0.1707 0.10663,0.3413 0.064,0.512 -4e-5,0.128 -4e-5,0.2773 0,0.448 -4e-5,0.2133 -4e-5,0.4053 0,0.576 0.0426,0.128 0.0213,0.2773 -0.064,0.448 l 0,3.328 c -4e-5,0.043 -4e-5,0.1067 0,0.192 0.0426,0.085 0.064,0.1493 0.064,0.192 -4e-5,0.085 -4e-5,0.2347 0,0.448 -4e-5,0.2133 -4e-5,0.448 0,0.704 0.0426,0.2133 0.064,0.4267 0.064,0.64 0.0426,0.2133 0.064,0.3413 0.064,0.384 -4e-5,0.085 0.0426,0.2987 0.128,0.64 0.0853,0.3413 0.1493,0.5547 0.192,0.64 l 0,0.256 c -4e-5,0.7253 -0.2987,1.408 -0.896,2.048 -0.5547,0.5973 -1.0667,1.1307 -1.536,1.6 -0.34137,0.2987 -0.8107,0.448 -1.408,0.448 -1.02403,0 -2.0267,-0.192 -3.008,-0.576 -0.9387,-0.384 -1.92003,-0.576 -2.944,-0.576 -0.76803,0 -1.42936,0.1707 -1.984,0.512 -0.55469,0.3413 -1.19469,0.6827 -1.92,1.024 -0.38402,0.2133 -0.78936,0.32 -1.216,0.32 -0.42669,0 -0.85336,0 -1.28,0 -0.89602,0 -1.70669,-0.1707 -2.432,-0.512 -0.68269,-0.3413 -1.40802,-0.7467 -2.176,-1.216 -0.76802,-0.512 -1.42935,-1.1307 -1.984,-1.856 -0.55468,-0.7253 -1.02401,-1.4933 -1.408,-2.304 -0.38401,-0.8533 -0.68268,-1.728 -0.896,-2.624 -0.17068,-0.9387 -0.25601,-1.8347 -0.256,-2.688 m 8.512,-2.368 c -2e-5,0.2133 -2e-5,0.5333 0,0.96 -2e-5,0.4267 0.0426,0.7893 0.128,1.088 0.21331,0.7253 0.53331,1.472 0.96,2.24 0.46931,0.7253 1.04531,1.2587 1.728,1.6 0.21331,0.128 0.49064,0.2773 0.832,0.448 0.38397,0.1707 0.57597,0.256 0.576,0.256 l 0.768,0 c 0.0426,0 0.23464,-0.085 0.576,-0.256 0.38397,-0.1707 0.66131,-0.32 0.832,-0.448 0.29864,-0.1707 0.55464,-0.4267 0.768,-0.768 0.2133,-0.384 0.31997,-0.7467 0.32,-1.088 l 0,-2.496 c -0.21336,-0.4693 -0.2987,-0.9387 -0.256,-1.408 0.0426,-0.512 0.0213,-1.0027 -0.064,-1.472 -0.0427,-0.1707 -0.0854,-0.5333 -0.128,-1.088 -0.0427,-0.5547 -0.064,-0.9173 -0.064,-1.088 l -0.128,-0.256 -1.152,-1.088 -0.512,-0.256 -1.664,0 -0.832,0.448 -2.176,2.176 c -0.12802,0.128 -0.23469,0.2987 -0.32,0.512 -0.0853,0.2133 -0.14935,0.4267 -0.192,0.64 l 0,1.344"
         id="path6733"
         inkscape:connector-curvature="0" />
      <path
         d="m 160.78481,1009.1343 c 0,3.2853 0.61867,6.3573 1.856,9.216 1.23733,2.8587 2.92266,5.3546 5.056,7.488 2.13332,2.1333 4.62932,3.8186 7.488,5.056 2.85865,1.2373 5.93065,1.856 9.216,1.856 3.24264,0 6.2933,-0.6187 9.152,-1.856 2.9013,-1.2374 5.41863,-2.9227 7.552,-5.056 2.13329,-2.1334 3.81862,-4.6293 5.056,-7.488 1.23729,-2.8587 1.85595,-5.9307 1.856,-9.216 -5e-5,-3.2427 -0.61871,-6.2933 -1.856,-9.15201 -1.23738,-2.90131 -2.92271,-5.41864 -5.056,-7.552 -2.13337,-2.13331 -4.6507,-3.81864 -7.552,-5.056 -2.8587,-1.2373 -5.90936,-1.85597 -9.152,-1.856 -3.28535,3e-5 -6.35735,0.6187 -9.216,1.856 -2.85868,1.23736 -5.35468,2.92269 -7.488,5.056 -2.13334,2.13336 -3.81867,4.65069 -5.056,7.552 -1.23733,2.85871 -1.856,5.90931 -1.856,9.15201 m 24.192,-5.632 c -2e-5,-0.384 -0.17069,-0.6827 -0.512,-0.896 -0.34136,-0.2133 -0.70402,-0.32 -1.088,-0.32 l -4.416,0 c -0.25602,0.085 -0.53335,0.1493 -0.832,0.192 -0.29868,0.043 -0.57602,0.064 -0.832,0.064 -0.68268,0 -1.30135,-0.2347 -1.856,-0.704 -0.51201,-0.512 -0.76801,-1.1093 -0.768,-1.792 -1e-5,-0.29866 0.0427,-0.57599 0.128,-0.83201 0.12799,-0.25598 0.25599,-0.49065 0.384,-0.704 l 1.344,-1.344 c 0.34132,-0.29865 0.70398,-0.46931 1.088,-0.512 0.42665,-0.0853 0.83198,-0.14931 1.216,-0.192 0.17065,-0.0427 0.53331,-0.064 1.088,-0.064 0.59731,-0.0426 1.00265,-0.064 1.216,-0.064 0.55465,-0.29865 1.17331,-0.44798 1.856,-0.448 0.72531,-0.0426 1.38664,-0.064 1.984,-0.064 1.15197,2e-5 2.34664,0.17069 3.584,0.512 1.27997,0.38402 2.34664,0.83202 3.2,1.344 0.89597,0.46935 1.6213,1.04535 2.176,1.728 0.55463,0.68271 0.9813,1.51471 1.28,2.49601 0.29863,0.9387 0.5333,2.0693 0.704,3.392 0.0853,0.4693 0.1493,0.9387 0.192,1.408 0.0853,0.4693 0.12796,0.9387 0.128,1.408 -4e-5,0.3413 -0.064,0.6613 -0.192,0.96 -0.12804,0.256 -0.2347,0.5333 -0.32,0.832 -3e-5,0.043 -3e-5,0.1493 0,0.32 -3e-5,0.1707 -0.0214,0.3627 -0.064,0.576 -3e-5,0.1707 -3e-5,0.3413 0,0.512 -3e-5,0.128 -3e-5,0.2133 0,0.256 -0.0854,0.4693 -0.1707,0.9387 -0.256,1.408 -0.0427,0.4693 -0.064,0.9387 -0.064,1.408 l 0,0.192 c 0.0426,0.1707 0.12797,0.4907 0.256,0.96 0.12797,0.4693 0.2133,0.7893 0.256,0.96 l 0,0.384 c -4e-5,0.512 -0.12803,1.0027 -0.384,1.472 -0.25603,0.4693 -0.59737,0.896 -1.024,1.28 -0.4267,0.384 -0.89603,0.6827 -1.408,0.896 -0.46937,0.2133 -0.96003,0.32 -1.472,0.32 -0.6827,0 -1.34403,-0.1493 -1.984,-0.448 -0.64003,-0.3413 -1.25869,-0.64 -1.856,-0.896 -0.0854,-0.043 -0.25603,-0.064 -0.512,-0.064 -0.21336,0 -0.36269,0 -0.448,0 -0.81069,0 -1.60002,0.1493 -2.368,0.448 -0.72536,0.256 -1.45069,0.5333 -2.176,0.832 -0.0853,0.043 -0.29869,0.1493 -0.64,0.32 -0.29869,0.1707 -0.49069,0.2773 -0.576,0.32 -0.17069,0.085 -0.29869,0.1067 -0.384,0.064 -0.0854,0 -0.23469,0 -0.448,0 l -0.512,0 c -0.21335,-0.043 -0.64002,-0.1707 -1.28,-0.384 -0.59735,-0.2133 -1.00268,-0.3627 -1.216,-0.448 -0.0427,0 -0.12802,-0.021 -0.256,-0.064 -0.0854,-0.043 -0.12802,-0.085 -0.128,-0.128 -0.68268,-0.4693 -1.40801,-1.0027 -2.176,-1.6 -0.72535,-0.64 -1.21601,-1.3867 -1.472,-2.24 -0.0854,-0.2987 -0.21335,-0.704 -0.384,-1.216 -0.17068,-0.5547 -0.25601,-0.832 -0.256,-0.832 l 0,-3.2 c -1e-5,-0.043 0.0426,-0.1707 0.128,-0.384 0.12799,-0.2133 0.23465,-0.3627 0.32,-0.448 0.46932,-0.8533 1.06665,-1.6427 1.792,-2.368 0.76799,-0.768 1.57865,-1.408 2.432,-1.92 0.59732,-0.3413 1.21598,-0.512 1.856,-0.512 0.63998,-0.043 1.25865,-0.1707 1.856,-0.384 0.0853,-0.043 0.25598,-0.1067 0.512,-0.192 0.29865,-0.128 0.49065,-0.2133 0.576,-0.256 0.17065,-0.085 0.42665,-0.128 0.768,-0.128 0.34131,-0.043 0.68264,-0.085 1.024,-0.128 0.34131,-0.085 0.61864,-0.192 0.832,-0.32 0.25598,-0.1707 0.38398,-0.4267 0.384,-0.768 m -2.816,8.832 c -2e-5,0.6827 0.21331,1.1733 0.64,1.472 0.42664,0.256 0.93864,0.384 1.536,0.384 l 0.704,0 c 0.12798,0 0.19198,-0.043 0.192,-0.128 0.0853,-0.085 0.23464,-0.2347 0.448,-0.448 0.25597,-0.2133 0.42664,-0.3627 0.512,-0.448 0.0853,-0.128 0.12797,-0.2987 0.128,-0.512 -3e-5,-0.2133 -3e-5,-0.384 0,-0.512 l 0,-0.64 c -0.0427,-0.128 -0.14936,-0.2773 -0.32,-0.448 -0.12803,-0.2133 -0.27736,-0.32 -0.448,-0.32 l -2.368,0 c -0.34136,0 -0.59736,0.2133 -0.768,0.64 -0.17069,0.384 -0.25602,0.704 -0.256,0.96"
         id="path6735"
         inkscape:connector-curvature="0" />
      <path
         d="m 204.58981,1007.7263 c 0,2.816 0.53333,5.4613 1.6,7.936 1.024,2.4747 2.432,4.6293 4.224,6.464 1.83466,1.8773 3.96799,3.3493 6.4,4.416 2.47465,1.0666 5.11998,1.6 7.936,1.6 2.81598,0 5.46131,-0.5334 7.936,-1.6 2.47464,-1.024 4.6293,-2.4534 6.464,-4.288 1.8773,-1.792 3.3493,-3.904 4.416,-6.336 1.10929,-2.4747 1.66396,-5.12 1.664,-7.936 -4e-5,-2.816 -0.53337,-5.4613 -1.6,-7.936 -1.02404,-2.47466 -2.45337,-4.62932 -4.288,-6.46401 -1.79203,-1.87731 -3.92536,-3.34931 -6.4,-4.416 -2.47469,-1.1093 -5.12002,-1.66397 -7.936,-1.664 -2.81602,3e-5 -5.46135,0.53336 -7.936,1.6 -2.47468,1.02403 -4.65067,2.45336 -6.528,4.288 -1.83467,1.79202 -3.28534,3.92535 -4.352,6.4 -1.06667,2.47471 -1.6,5.12001 -1.6,7.93601 m 22.4,12.288 -3.264,0 c -0.0854,0 -0.32002,-0.064 -0.704,-0.192 -0.34135,-0.128 -0.59735,-0.2347 -0.768,-0.32 -0.72535,-0.2987 -1.40802,-0.6613 -2.048,-1.088 -0.64001,-0.4267 -1.17335,-0.9813 -1.6,-1.664 -0.0853,-0.128 -0.21335,-0.32 -0.384,-0.576 -0.12801,-0.2987 -0.29868,-0.5973 -0.512,-0.896 -0.17068,-0.3413 -0.34135,-0.64 -0.512,-0.896 -0.12801,-0.2987 -0.21335,-0.4907 -0.256,-0.576 -0.29868,-0.5547 -0.53334,-1.0667 -0.704,-1.536 -0.12801,-0.512 -0.29868,-1.0667 -0.512,-1.664 -0.0427,-0.768 -0.10668,-1.4933 -0.192,-2.176 -0.0427,-0.7253 -0.064,-1.4507 -0.064,-2.176 -1e-5,-1.4933 0.42666,-2.88 1.28,-4.16 0.85332,-1.3227 1.87732,-2.41066 3.072,-3.26401 0.12798,-0.0853 0.44798,-0.27732 0.96,-0.576 0.55465,-0.34131 0.93865,-0.59731 1.152,-0.768 l 0.192,-0.064 c 0.72532,-0.25598 1.42931,-0.53331 2.112,-0.832 0.72531,-0.34131 1.45065,-0.55465 2.176,-0.64 0.0426,2e-5 0.17064,2e-5 0.384,0 0.21331,2e-5 0.42664,2e-5 0.64,0 0.21331,-0.0426 0.42664,-0.064 0.64,-0.064 0.21331,-0.0426 0.34131,-0.064 0.384,-0.064 0.0853,2e-5 0.29864,-0.0426 0.64,-0.128 0.34131,-0.0853 0.55464,-0.12798 0.64,-0.128 -2e-5,-0.0426 0.10664,-0.064 0.32,-0.064 0.21331,2e-5 0.36264,2e-5 0.448,0 1.36531,2e-5 2.68797,0.34135 3.968,1.024 1.32264,0.68269 2.2613,1.66402 2.816,2.944 0.0853,0.12802 0.17063,0.34135 0.256,0.64001 0.0853,0.256 0.1493,0.384 0.192,0.384 l 0,0.32 c -3e-5,0.2987 -0.12803,0.6187 -0.384,0.96 -0.21337,0.3413 -0.4907,0.6613 -0.832,0.96 -0.34136,0.2987 -0.70403,0.5547 -1.088,0.768 -0.34136,0.1707 -0.66136,0.256 -0.96,0.256 -0.34136,0 -0.6827,-0.064 -1.024,-0.192 -0.29869,-0.1707 -0.59736,-0.32 -0.896,-0.448 -0.25603,-0.1707 -0.53336,-0.32 -0.832,-0.448 -0.29869,-0.1707 -0.61869,-0.256 -0.96,-0.256 l -3.52,0 c -0.0427,0 -0.14936,0.021 -0.32,0.064 -0.12802,0.043 -0.23469,0.085 -0.32,0.128 -0.55469,0.2133 -1.02402,0.5547 -1.408,1.024 -0.34135,0.4693 -0.61869,1.0027 -0.832,1.6 -0.21335,0.5547 -0.36269,1.152 -0.448,1.792 -0.0854,0.5973 -0.12802,1.152 -0.128,1.664 l 0,0.768 c 0.34131,0.8107 0.78931,1.5573 1.344,2.24 0.55465,0.6827 1.15198,1.3227 1.792,1.92 l 0.192,0.064 c 0.21331,0.085 0.51198,0.2133 0.896,0.384 0.38398,0.1707 0.57598,0.256 0.576,0.256 l 3.392,0 c 0.46931,-0.2133 0.93864,-0.4053 1.408,-0.576 0.4693,-0.1707 0.95997,-0.256 1.472,-0.256 0.4693,0 0.95997,0.2987 1.472,0.896 0.55463,0.5547 0.83197,1.0667 0.832,1.536 l 0,0.064 c -0.2987,1.4933 -1.04536,2.6453 -2.24,3.456 -1.1947,0.8107 -2.53869,1.216 -4.032,1.216 -0.59736,0 -1.25869,-0.043 -1.984,-0.128 -0.68269,-0.085 -1.32269,-0.256 -1.92,-0.512"
         id="path6737"
         inkscape:connector-curvature="0" />
      <path
         d="m 242.03481,1003.6303 c 0,2.9013 0.53333,5.6533 1.6,8.256 1.10933,2.56 2.60266,4.8 4.48,6.72 1.91999,1.92 4.15999,3.4347 6.72,4.544 2.55998,1.1093 5.31198,1.664 8.256,1.664 2.90131,0 5.63197,-0.5547 8.192,-1.664 2.60263,-1.0667 4.86397,-2.5387 6.784,-4.416 1.91996,-1.92 3.43463,-4.16 4.544,-6.72 1.15196,-2.56 1.72796,-5.312 1.728,-8.256 -4e-5,-2.9013 -0.55471,-5.63199 -1.664,-8.19201 -1.06671,-2.60264 -2.56004,-4.86397 -4.48,-6.784 -1.92003,-1.91997 -4.16003,-3.43464 -6.72,-4.544 -2.56003,-1.15197 -5.31202,-1.72797 -8.256,-1.728 -2.90135,3e-5 -5.65335,0.5547 -8.256,1.664 -2.56001,1.0667 -4.80001,2.56003 -6.72,4.48 -1.92,1.92003 -3.43467,4.16002 -4.544,6.72 -1.10933,2.56002 -1.664,5.31201 -1.664,8.25601 m 16.704,11.84 c -2e-5,-0.3413 -2e-5,-0.5973 0,-0.768 0.0426,-0.1707 0.14932,-0.4267 0.32,-0.768 l 0,-7.296 c -0.0427,-0.2133 -0.0854,-0.384 -0.128,-0.512 -2e-5,-0.1707 -2e-5,-0.3627 0,-0.576 -2e-5,-0.3413 0.0426,-0.5973 0.128,-0.768 l 0,-4.352 c -2e-5,-0.4267 0.12798,-0.89599 0.384,-1.40801 0.25598,-0.51198 0.57598,-0.98131 0.96,-1.408 0.42665,-0.46931 0.87465,-0.85331 1.344,-1.152 0.46931,-0.29865 0.93865,-0.44798 1.408,-0.448 0.34131,2e-5 0.63998,0.0854 0.896,0.256 0.29864,0.12802 0.57598,0.29869 0.832,0.512 0.59731,0.42669 1.04531,0.83202 1.344,1.216 0.29864,0.34135 0.46931,0.87468 0.512,1.6 0.0426,0.51201 0.0853,1.08801 0.128,1.72801 0.0853,0.5973 0.12797,1.1733 0.128,1.728 -3e-5,0.3413 -0.0214,0.64 -0.064,0.896 -0.0427,0.256 -0.064,0.5547 -0.064,0.896 -2e-5,0.2133 -0.0214,0.448 -0.064,0.704 -2e-5,0.256 0.0426,0.4907 0.128,0.704 l 0,2.688 c -0.0427,0.1707 -0.064,0.384 -0.064,0.64 -2e-5,0.3413 0.0213,0.6827 0.064,1.024 0.0853,0.3413 0.17064,0.6827 0.256,1.024 0.0426,0.4267 0.0853,0.8533 0.128,1.28 0.0426,0.384 0.10664,0.7893 0.192,1.216 -3e-5,0.085 0.0426,0.32 0.128,0.704 0.0853,0.3413 0.12797,0.5547 0.128,0.64 -3e-5,0 -3e-5,0.085 0,0.256 0.0426,0.128 0.064,0.2347 0.064,0.32 -3e-5,1.0667 -0.44803,2.0267 -1.344,2.88 -0.89602,0.8107 -1.87736,1.216 -2.944,1.216 l -0.32,0 c -0.59735,-0.128 -1.08802,-0.2773 -1.472,-0.448 -0.38402,-0.1707 -0.72535,-0.384 -1.024,-0.64 -0.29869,-0.256 -0.57602,-0.5547 -0.832,-0.896 -0.25602,-0.384 -0.53335,-0.832 -0.832,-1.344 -0.21335,-0.384 -0.32002,-0.832 -0.32,-1.344 m 0.448,-24.83201 c -2e-5,-0.34131 0.12798,-0.68264 0.384,-1.024 0.25598,-0.38397 0.55465,-0.70397 0.896,-0.96 0.38398,-0.29864 0.76798,-0.5333 1.152,-0.704 0.42665,-0.2133 0.81065,-0.31997 1.152,-0.32 0.38398,3e-5 0.78931,0.0854 1.216,0.256 0.46931,0.12803 0.89598,0.34136 1.28,0.64 0.42664,0.25603 0.76798,0.57603 1.024,0.96 0.29864,0.38403 0.44798,0.78936 0.448,1.216 -2e-5,0.17069 -0.0854,0.40536 -0.256,0.704 -0.12802,0.29869 -0.29869,0.61869 -0.512,0.96 -0.17069,0.29869 -0.36269,0.59736 -0.576,0.896 -0.21336,0.25602 -0.38402,0.42669 -0.512,0.512 -0.64002,0.42669 -1.30135,0.64002 -1.984,0.64 -0.59735,2e-5 -1.06669,-0.21331 -1.408,-0.64 -0.34135,-0.42664 -0.70402,-0.81064 -1.088,-1.152 -0.34135,-0.34131 -0.64002,-0.63998 -0.896,-0.896 -0.21335,-0.25597 -0.32002,-0.61864 -0.32,-1.088"
         id="path6739"
         inkscape:connector-curvature="0" />
      <path
         d="m 280.90681,1006.5103 c 0,3.2 0.59733,6.2293 1.792,9.088 1.19466,2.816 2.83733,5.2693 4.928,7.36 2.09066,2.1333 4.54399,3.7973 7.36,4.992 2.81598,1.2373 5.82398,1.856 9.024,1.856 3.19997,0 6.20797,-0.5974 9.024,-1.792 2.81597,-1.1947 5.2693,-2.8374 7.36,-4.928 2.13329,-2.0907 3.81862,-4.544 5.056,-7.36 1.23729,-2.816 1.85595,-5.824 1.856,-9.024 -5e-5,-3.2 -0.61871,-6.208 -1.856,-9.02401 -1.19471,-2.81598 -2.83737,-5.26931 -4.928,-7.36 -2.04804,-2.1333 -4.48004,-3.81864 -7.296,-5.056 -2.81603,-1.2373 -5.82403,-1.85597 -9.024,-1.856 -3.20002,3e-5 -6.22935,0.6187 -9.088,1.856 -2.81601,1.1947 -5.29068,2.83736 -7.424,4.928 -2.09067,2.04802 -3.75467,4.48002 -4.992,7.296 -1.19467,2.81601 -1.792,5.82401 -1.792,9.02401 m 9.664,1.216 c -10e-6,-0.384 0.0427,-0.768 0.128,-1.152 0.0853,-0.384 0.17066,-0.768 0.256,-1.152 0.68266,-2.2187 1.55732,-4.0107 2.624,-5.376 1.10932,-1.40799 2.83732,-2.45332 5.184,-3.13601 0.51198,-0.12798 1.02398,-0.23465 1.536,-0.32 0.55465,-0.0853 1.06665,-0.21331 1.536,-0.384 l 3.136,0 c -2e-5,2e-5 0.14931,0.0427 0.448,0.128 0.34131,0.0853 0.72531,0.19202 1.152,0.32 0.42664,0.0854 0.85331,0.19202 1.28,0.32 0.46931,0.0853 0.85331,0.17069 1.152,0.256 0.4693,0.12802 0.89597,0.32002 1.28,0.576 0.38397,0.21335 0.74664,0.44802 1.088,0.704 1.15197,0.76802 2.15463,1.70671 3.008,2.81601 0.8533,1.1093 1.45063,2.3467 1.792,3.712 0.12796,0.4693 0.19196,0.96 0.192,1.472 -4e-5,0.4693 0.0426,0.9387 0.128,1.408 -4e-5,0.043 0.0213,0.192 0.064,0.448 0.0853,0.2133 0.12796,0.3413 0.128,0.384 l 0,0.256 0,0.384 c -4e-5,0.2133 -4e-5,0.4693 0,0.768 -4e-5,0.256 -0.0214,0.5333 -0.064,0.832 -4e-5,0.2987 -0.0214,0.5547 -0.064,0.768 -4e-5,0.2133 -4e-5,0.32 0,0.32 -0.12804,0.768 -0.46937,1.6213 -1.024,2.56 -0.51203,0.9387 -1.15203,1.856 -1.92,2.752 -0.72537,0.896 -1.5147,1.7067 -2.368,2.432 -0.8107,0.6827 -1.5787,1.1733 -2.304,1.472 -0.21336,0.085 -0.51203,0.1707 -0.896,0.256 -0.38403,0.128 -0.68269,0.2133 -0.896,0.256 -0.21336,0.043 -0.49069,0.064 -0.832,0.064 -0.29869,0 -0.57602,0.043 -0.832,0.128 l -3.648,0 c -0.38402,-0.1707 -0.78935,-0.2133 -1.216,-0.128 -0.42669,0.085 -0.85335,0.043 -1.28,-0.128 -1.57868,-0.7253 -3.07202,-1.6 -4.48,-2.624 -1.36535,-1.024 -2.34668,-2.368 -2.944,-4.032 -0.12801,-0.3413 -0.21334,-0.6613 -0.256,-0.96 -0.0427,-0.2987 -0.10668,-0.5973 -0.192,-0.896 -1e-5,-0.043 -0.0213,-0.1493 -0.064,-0.32 -0.0427,-0.2133 -0.10668,-0.4267 -0.192,-0.64 -0.0427,-0.2133 -0.10668,-0.4053 -0.192,-0.576 -0.0427,-0.1707 -0.064,-0.2773 -0.064,-0.32 -1e-5,-0.085 -0.0213,-0.192 -0.064,-0.32 -10e-6,-0.128 -10e-6,-0.2133 0,-0.256 -0.0853,-0.384 -0.17068,-0.8747 -0.256,-1.472 -0.0427,-0.64 -0.064,-1.1733 -0.064,-1.6 m 8.832,0.832 0,2.688 c -2e-5,0.043 0.064,0.256 0.192,0.64 0.12798,0.3413 0.23465,0.6187 0.32,0.832 0.0853,0.256 0.25598,0.5333 0.512,0.832 0.25598,0.2987 0.53331,0.576 0.832,0.832 0.34131,0.256 0.68265,0.4693 1.024,0.64 0.38398,0.1707 0.72531,0.256 1.024,0.256 0.81064,0 1.51464,-0.2987 2.112,-0.896 0.59731,-0.64 1.08797,-1.3867 1.472,-2.24 0.38397,-0.8533 0.66131,-1.7493 0.832,-2.688 0.17064,-0.9387 0.25597,-1.7067 0.256,-2.304 -3e-5,-0.3413 -0.0214,-0.6827 -0.064,-1.024 -0.0427,-0.384 -0.17069,-0.7253 -0.384,-1.024 -0.0854,-0.085 -0.29869,-0.2987 -0.64,-0.64 -0.34136,-0.384 -0.57603,-0.6187 -0.704,-0.704 -0.0427,-0.043 -0.12803,-0.1067 -0.256,-0.192 -0.12802,-0.085 -0.23469,-0.128 -0.32,-0.128 l -3.648,0 c -0.0427,0 -0.14935,0.043 -0.32,0.128 -0.12802,0.085 -0.23469,0.1493 -0.32,0.192 -0.46935,0.3413 -0.83202,0.6613 -1.088,0.96 -0.25602,0.2987 -0.46935,0.704 -0.64,1.216 -0.12802,0.384 -0.23469,0.6827 -0.32,0.896 -0.0854,0.1707 -0.12802,0.4053 -0.128,0.704 -2e-5,0.2987 0.0853,0.64 0.256,1.024"
         id="path6741"
         inkscape:connector-curvature="0" />
      <path
         d="m 323.27281,1011.6303 c 0,3.072 0.59733,5.9733 1.792,8.704 1.152,2.7307 2.73066,5.0986 4.736,7.104 2.00533,2.0053 4.37332,3.584 7.104,4.736 2.73065,1.1946 5.63198,1.792 8.704,1.792 3.11464,0 6.01597,-0.5974 8.704,-1.792 2.73063,-1.152 5.09863,-2.7307 7.104,-4.736 2.04796,-2.0054 3.64796,-4.3733 4.8,-7.104 1.19462,-2.7307 1.79196,-5.632 1.792,-8.704 -4e-5,-3.1147 -0.59738,-6.016 -1.792,-8.704 -1.15204,-2.7307 -2.75204,-5.09866 -4.8,-7.10401 -2.00537,-2.04798 -4.37337,-3.64798 -7.104,-4.8 -2.73069,-1.19464 -5.63202,-1.79197 -8.704,-1.792 -3.07202,3e-5 -5.97335,0.59736 -8.704,1.792 -2.73068,1.15202 -5.09867,2.75202 -7.104,4.8 -2.00534,2.00535 -3.584,4.37331 -4.736,7.10401 -1.19467,2.7307 -1.792,5.632 -1.792,8.704 m 10.176,-1.536 c -0.21334,-0.64 -0.32001,-1.28 -0.32,-1.92 -10e-6,-0.2133 0.0213,-0.4053 0.064,-0.576 0.0427,-0.2133 0.064,-0.4267 0.064,-0.64 l 0,-0.384 c -0.0853,-0.64 -0.19201,-1.3227 -0.32,-2.048 -0.0853,-0.768 -0.12801,-1.472 -0.128,-2.112 -10e-6,-0.64 0.10666,-1.2587 0.32,-1.856 0.21332,-0.63999 0.51199,-1.19466 0.896,-1.66401 0.38399,-0.51198 0.85332,-0.91731 1.408,-1.216 0.55465,-0.34131 1.17332,-0.51198 1.856,-0.512 0.72532,2e-5 1.40799,0.12802 2.048,0.384 0.63998,0.25602 1.08798,0.74669 1.344,1.472 0.12798,0.29868 0.21332,0.59735 0.256,0.896 0.0853,0.29871 0.17065,0.61871 0.256,0.96001 0.17065,0.384 0.34132,0.768 0.512,1.152 0.17065,0.3413 0.25598,0.7253 0.256,1.152 -2e-5,0.5973 -0.064,1.1733 -0.192,1.728 -0.0853,0.5547 -0.12802,1.1307 -0.128,1.728 -2e-5,0.4267 0.0213,0.8533 0.064,1.28 0.0853,0.4267 0.17065,0.8533 0.256,1.28 0.0853,0.7253 0.17065,1.4933 0.256,2.304 0.12798,0.8107 0.55465,1.4507 1.28,1.92 0.12798,0.085 0.31998,0.192 0.576,0.32 0.25598,0.128 0.40531,0.192 0.448,0.192 l 1.536,0 c 0.0426,0 0.12798,-0.021 0.256,-0.064 0.17064,-0.085 0.29864,-0.1707 0.384,-0.256 0.21331,-0.128 0.42664,-0.2773 0.64,-0.448 0.25598,-0.1707 0.46931,-0.3627 0.64,-0.576 -2e-5,0 0.0213,-0.064 0.064,-0.192 0.0426,-0.128 0.0853,-0.2347 0.128,-0.32 0.0426,-0.085 0.0853,-0.2347 0.128,-0.448 0.0426,-0.2133 0.064,-0.3413 0.064,-0.384 -2e-5,-0.043 -2e-5,-0.1707 0,-0.384 -2e-5,-0.256 -2e-5,-0.512 0,-0.768 0.0426,-0.2987 0.064,-0.5547 0.064,-0.768 0.0426,-0.2133 0.064,-0.3627 0.064,-0.448 -2e-5,-0.085 0.0426,-0.32 0.128,-0.704 0.0853,-0.4267 0.14931,-0.6827 0.192,-0.768 0.0853,-0.384 0.12797,-0.768 0.128,-1.152 -3e-5,-0.4267 0.0426,-0.832 0.128,-1.216 0.0853,-0.3413 0.17064,-0.6827 0.256,-1.024 0.12797,-0.3413 0.19197,-0.6827 0.192,-1.024 -3e-5,-0.2987 -0.0427,-0.5547 -0.128,-0.768 -0.0854,-0.256 -0.12803,-0.5547 -0.128,-0.896 -3e-5,-0.4267 0.0853,-0.8747 0.256,-1.34401 0.17064,-0.51198 0.40531,-0.95998 0.704,-1.344 0.29864,-0.42665 0.63997,-0.76798 1.024,-1.024 0.42664,-0.25598 0.89597,-0.38398 1.408,-0.384 0.51197,2e-5 1.0453,0.10669 1.6,0.32 0.55464,0.21335 1.06664,0.51202 1.536,0.896 0.51197,0.38402 0.9173,0.83202 1.216,1.344 0.3413,0.46931 0.51197,0.98131 0.512,1.53601 l 0,3.904 -0.32,1.152 0,3.328 c 0.0853,0.384 0.19197,0.8107 0.32,1.28 0.12797,0.4693 0.19197,0.896 0.192,1.28 -3e-5,0.1707 -0.0214,0.32 -0.064,0.448 -0.0427,0.128 -0.064,0.2773 -0.064,0.448 -3e-5,0.128 -3e-5,0.2347 0,0.32 0.0426,0.085 0.0853,0.2133 0.128,0.384 l 0,3.072 c -0.0854,0.3413 -0.1707,0.6827 -0.256,1.024 -0.0427,0.2987 -0.12803,0.6187 -0.256,0.96 -0.2987,0.768 -0.78937,1.408 -1.472,1.92 -0.64003,0.4693 -1.3867,0.704 -2.24,0.704 l -0.256,0 -2.176,-0.64 -4.352,0 c -0.76802,0.3413 -1.55735,0.64 -2.368,0.896 -0.81069,0.256 -1.64269,0.4693 -2.496,0.64 l -0.256,0 c -0.59735,0 -1.19468,-0.1493 -1.792,-0.448 -0.55468,-0.256 -1.08801,-0.512 -1.6,-0.768 -0.46935,-0.256 -0.96001,-0.64 -1.472,-1.152 -0.51201,-0.512 -1.00268,-1.088 -1.472,-1.728 -0.42668,-0.64 -0.81068,-1.28 -1.152,-1.92 -0.34134,-0.64 -0.53334,-1.216 -0.576,-1.728 l 0,-1.6 c -10e-6,-0.128 -10e-6,-0.32 0,-0.576 -10e-6,-0.2987 -0.0213,-0.5973 -0.064,-0.896 -10e-6,-0.3413 -10e-6,-0.64 0,-0.896 -10e-6,-0.2987 -10e-6,-0.512 0,-0.64"
         id="path6743"
         inkscape:connector-curvature="0" />
      <path
         d="m 364.78181,1008.6223 c 0,2.9013 0.55467,5.6533 1.664,8.256 1.06666,2.56 2.53866,4.8 4.416,6.72 1.91999,1.92 4.15999,3.4346 6.72,4.544 2.55998,1.1093 5.31198,1.664 8.256,1.664 2.90131,0 5.63197,-0.5547 8.192,-1.664 2.60263,-1.0667 4.86397,-2.56 6.784,-4.48 1.91996,-1.8773 3.43463,-4.096 4.544,-6.656 1.15196,-2.56 1.72796,-5.312 1.728,-8.256 -4e-5,-2.9013 -0.55471,-5.632 -1.664,-8.192 -1.06671,-2.60266 -2.56004,-4.86399 -4.48,-6.78401 -1.92003,-1.91997 -4.16003,-3.43464 -6.72,-4.544 -2.56003,-1.15197 -5.31202,-1.72797 -8.256,-1.728 -2.90135,3e-5 -5.65335,0.5547 -8.256,1.664 -2.56001,1.06669 -4.80001,2.56003 -6.72,4.48 -1.92,1.92002 -3.43467,4.16002 -4.544,6.72001 -1.10933,2.56 -1.664,5.312 -1.664,8.256 m 9.664,8.32 c -10e-6,-0.5973 0.19199,-1.1093 0.576,-1.536 0.42666,-0.4267 0.89599,-0.7467 1.408,-0.96 l 0.64,0 c 0.59732,0 1.17332,0.064 1.728,0.192 0.59732,0.128 1.19465,0.2987 1.792,0.512 l 3.2,0 c 0.17065,0 0.29865,-0.085 0.384,-0.256 0.0853,-0.1707 0.12798,-0.32 0.128,-0.448 -2e-5,-0.384 -0.17069,-0.6187 -0.512,-0.704 -0.21335,-0.085 -0.51202,-0.192 -0.896,-0.32 -0.38402,-0.128 -0.59735,-0.2133 -0.64,-0.256 -0.29868,-0.043 -0.59735,-0.043 -0.896,0 -0.25602,0 -0.51202,-0.064 -0.768,-0.192 -0.17068,-0.085 -0.49068,-0.2347 -0.96,-0.448 -0.46935,-0.2133 -0.78935,-0.3627 -0.96,-0.448 -0.42668,-0.256 -0.89601,-0.64 -1.408,-1.152 -0.51201,-0.5547 -1.00268,-1.152 -1.472,-1.792 -0.42668,-0.6827 -0.78934,-1.3653 -1.088,-2.048 -0.29868,-0.6827 -0.44801,-1.28 -0.448,-1.792 -10e-6,-0.5547 0.0427,-1.088 0.128,-1.6 0.12799,-0.5547 0.27732,-1.088 0.448,-1.6 0.34132,-0.9813 0.76799,-1.7707 1.28,-2.36801 0.51199,-0.63998 1.08799,-1.15198 1.728,-1.536 0.63999,-0.38398 1.36532,-0.68265 2.176,-0.896 0.81065,-0.25598 1.68532,-0.46931 2.624,-0.64 0.0853,2e-5 0.29865,-0.0426 0.64,-0.128 0.34131,-0.0853 0.55465,-0.12798 0.64,-0.128 -2e-5,-0.0426 0.0853,-0.064 0.256,-0.064 0.21331,2e-5 0.40531,0.0427 0.576,0.128 0.21331,0.0853 0.42665,0.12802 0.64,0.128 0.21331,2e-5 0.36265,2e-5 0.448,0 0.12798,-0.0426 0.29865,-0.10665 0.512,-0.192 l 4.096,0 c 0.25597,0.0854 0.51197,0.12802 0.768,0.128 0.29864,2e-5 0.59731,0.0427 0.896,0.128 0.29864,0.12802 0.63997,0.34135 1.024,0.64 0.42664,0.25602 0.81064,0.57602 1.152,0.96 0.38397,0.38402 0.70397,0.78935 0.96,1.216 0.25597,0.42668 0.38397,0.83201 0.384,1.21601 -3e-5,0.3413 -0.14936,0.7467 -0.448,1.216 -0.25603,0.4267 -0.57603,0.832 -0.96,1.216 -0.38403,0.384 -0.8107,0.704 -1.28,0.96 -0.42669,0.256 -0.83203,0.384 -1.216,0.384 -0.29869,0 -0.59736,0 -0.896,0 -0.25603,-0.043 -0.53336,-0.1067 -0.832,-0.192 -0.42669,-0.1707 -0.87469,-0.3627 -1.344,-0.576 -0.46936,-0.256 -0.93869,-0.384 -1.408,-0.384 -0.59736,0 -0.89602,0.256 -0.896,0.768 -2e-5,0.512 0.27731,0.8107 0.832,0.896 0.81064,0 1.66398,0.064 2.56,0.192 0.93864,0.085 1.72797,0.448 2.368,1.088 -3e-5,0 0.064,0.085 0.192,0.256 0.12797,0.128 0.19197,0.2133 0.192,0.256 0.29864,0.3413 0.59731,0.6187 0.896,0.832 0.29864,0.2133 0.61864,0.448 0.96,0.704 0.29864,0.2133 0.51197,0.4907 0.64,0.832 0.0426,0.128 0.10664,0.32 0.192,0.576 0.0853,0.256 0.17064,0.5333 0.256,0.832 0.12797,0.2987 0.23464,0.576 0.32,0.832 0.0853,0.256 0.1493,0.448 0.192,0.576 l 0,0.832 c -3e-5,1.3227 -0.38403,2.496 -1.152,3.52 -0.72536,0.9813 -1.49336,1.9413 -2.304,2.88 -3e-5,0.043 -0.0214,0.085 -0.064,0.128 -3e-5,0 -3e-5,0 0,0 -0.55469,0.4693 -1.08803,0.832 -1.6,1.088 -0.46936,0.256 -0.93869,0.4693 -1.408,0.64 -0.46936,0.1707 -0.98136,0.32 -1.536,0.448 -0.51202,0.128 -1.08802,0.2987 -1.728,0.512 l -2.496,0 c -0.46935,-0.1707 -0.98135,-0.2987 -1.536,-0.384 -0.51202,-0.043 -1.02402,-0.1067 -1.536,-0.192 -0.0854,-0.043 -0.38402,-0.128 -0.896,-0.256 -0.51201,-0.1707 -0.81068,-0.2773 -0.896,-0.32 -0.0854,0 -0.27735,0 -0.576,0 -0.29868,-0.043 -0.49068,-0.064 -0.576,-0.064 -0.38401,-0.043 -0.76801,-0.192 -1.152,-0.448 -0.38401,-0.2987 -0.72534,-0.64 -1.024,-1.024 -0.29868,-0.384 -0.55468,-0.768 -0.768,-1.152 -0.17068,-0.4267 -0.25601,-0.832 -0.256,-1.216"
         id="path6745"
         inkscape:connector-curvature="0" />
    </g>
  </g>
</svg>
