<svg xmlns="http://www.w3.org/2000/svg" width="761.316" height="139.33" viewBox="0 0 201.432 36.865"><g word-spacing="0" letter-spacing="0" font-family="Circulate (BRK)" font-size="13.333" font-weight="400"><path d="M60.93 0c-2.442 0-4.746.458-6.911 1.374a18.135 18.135 0 0 0-5.705 3.79 17.894 17.894 0 0 0-2.764 3.578 14.717 14.717 0 0 0-2.282-1.208 14.67 14.67 0 0 0-5.945-1.224c-2.098 0-4.08.408-5.945 1.224a14.717 14.717 0 0 0-3.632 2.177c-.19-.212-.383-.42-.585-.622-1.437-1.437-3.133-2.572-5.087-3.406-1.926-.833-3.981-1.25-6.166-1.25-2.213 0-4.282.417-6.208 1.25A16.104 16.104 0 0 0 4.656 9.09c-1.437 1.437-2.572 3.133-3.406 5.087C.417 16.102 0 18.157 0 20.341c0 2.213.417 4.283 1.25 6.208a16.105 16.105 0 0 0 3.406 5.045A16.105 16.105 0 0 0 9.7 34.999c1.926.834 3.995 1.25 6.208 1.25 2.185 0 4.24-.416 6.166-1.25a16.124 16.124 0 0 0 4.34-2.711c.037.039.074.08.112.118 1.37 1.37 2.987 2.448 4.852 3.235a14.67 14.67 0 0 0 5.945 1.224c2.127 0 4.109-.408 5.945-1.224 1.865-.787 3.482-1.865 4.852-3.235a14.717 14.717 0 0 0 1.066-1.174 18.002 18.002 0 0 0 4.624 2.955c2.166.944 4.484 1.416 6.954 1.416 2.443 0 4.747-.458 6.913-1.375a17.602 17.602 0 0 0 5.241-3.349 16.105 16.105 0 0 0 .658.715 16.105 16.105 0 0 0 5.044 3.405c1.926.834 3.995 1.25 6.209 1.25 2.184 0 4.239-.416 6.165-1.25 1.954-.833 3.65-1.968 5.087-3.405a16.105 16.105 0 0 0 .548-.607 14.167 14.167 0 0 0 3.023 1.812c1.735.747 3.589 1.12 5.562 1.12 1.974 0 3.828-.373 5.563-1.12a13.791 13.791 0 0 0 4.53-3.006 13.65 13.65 0 0 0 .505-.533 14.896 14.896 0 0 0 3.107 1.824c1.774.769 3.682 1.153 5.723 1.153 2.01 0 3.904-.384 5.678-1.153a14.939 14.939 0 0 0 3.173-1.767 15.558 15.558 0 0 0 .74.81 15.217 15.217 0 0 0 4.98 3.378c1.906.838 3.94 1.256 6.107 1.256 2.165 0 4.2-.404 6.106-1.212a15.557 15.557 0 0 0 3.38-1.968c.244.283.494.56.759.825 1.37 1.37 2.987 2.448 4.852 3.235a14.672 14.672 0 0 0 5.945 1.224c2.127 0 4.11-.408 5.945-1.224 1.865-.787 3.482-1.865 4.852-3.235a14.717 14.717 0 0 0 .63-.683 14.896 14.896 0 0 0 3.19 1.885c1.775.769 3.683 1.153 5.723 1.153 2.012 0 3.905-.384 5.68-1.153a14.174 14.174 0 0 0 4.702-3.106c1.33-1.301 2.38-2.84 3.15-4.614.798-1.774 1.198-3.682 1.198-5.723 0-2.011-.385-3.904-1.154-5.679a14.174 14.174 0 0 0-3.105-4.702 14.895 14.895 0 0 0-4.659-3.15c-1.774-.8-3.682-1.198-5.723-1.198-2.011 0-3.919.384-5.723 1.153a14.29 14.29 0 0 0-4.658 3.106 14.895 14.895 0 0 0-.21.233 14.717 14.717 0 0 0-3.893-2.394 14.67 14.67 0 0 0-5.945-1.224c-2.098 0-4.08.408-5.945 1.224a14.717 14.717 0 0 0-2.913 1.638 15.557 15.557 0 0 0-1.012-1.13c-1.386-1.443-3.03-2.584-4.937-3.421-1.905-.837-3.94-1.256-6.106-1.256-2.165 0-4.215.419-6.15 1.256a16.075 16.075 0 0 0-4.221 2.608 14.895 14.895 0 0 0-4.625-3.12c-1.774-.798-3.682-1.197-5.723-1.197-2.01 0-3.919.385-5.723 1.154a14.29 14.29 0 0 0-4.658 3.105 14.895 14.895 0 0 0-.803.889 13.963 13.963 0 0 0-2.59-1.458c-1.734-.777-3.588-1.166-5.562-1.166-1.974 0-3.828.374-5.562 1.12a14.305 14.305 0 0 0-3.895 2.396C94.53 7.58 92.884 6.49 90.994 5.683c-1.926-.833-3.981-1.25-6.165-1.25-2.214 0-4.283.417-6.21 1.25a16.104 16.104 0 0 0-3.22 1.863 17.077 17.077 0 0 0-1.893-2.258 17.868 17.868 0 0 0-5.663-3.872C65.706.472 63.402 0 60.931 0z" aria-label="audacious"/><path fill="#d9d9d9" aria-label="audacious" d="M60.95 4.04c-1.899 0-3.689.355-5.372 1.067a14.091 14.091 0 0 0-4.432 2.945 14.156 14.156 0 0 0-2.977 4.4 12.81 12.81 0 0 0-.988 3.61 10.73 10.73 0 0 0-1.828-2.38 10.894 10.894 0 0 0-3.591-2.427 10.858 10.858 0 0 0-4.4-.906c-1.554 0-3.02.302-4.401.906a10.894 10.894 0 0 0-3.592 2.427 11.017 11.017 0 0 0-2.101 2.956 11.29 11.29 0 0 0-.325-.853 11.99 11.99 0 0 0-2.557-3.818 11.986 11.986 0 0 0-3.818-2.556 11.523 11.523 0 0 0-4.627-.939c-1.66 0-3.214.313-4.66.939a12.086 12.086 0 0 0-3.785 2.556 11.988 11.988 0 0 0-2.556 3.818A11.52 11.52 0 0 0 4 20.412c0 1.66.313 3.214.939 4.66a12.087 12.087 0 0 0 2.556 3.785 12.087 12.087 0 0 0 3.785 2.556c1.446.626 3 .939 4.66.939 1.64 0 3.182-.313 4.627-.939a11.987 11.987 0 0 0 3.818-2.556c.97-.97 1.755-2.089 2.359-3.355.071.192.147.383.23.573a11.148 11.148 0 0 0 2.394 3.591 11.148 11.148 0 0 0 3.592 2.395 10.86 10.86 0 0 0 4.4.906c1.575 0 3.042-.302 4.4-.906a11.148 11.148 0 0 0 3.592-2.395 10.894 10.894 0 0 0 2.427-3.591c.306-.699.533-1.42.684-2.162a13.84 13.84 0 0 0 6.953 6.691c1.682.734 3.483 1.1 5.403 1.1 1.898 0 3.689-.356 5.371-1.067 1.704-.712 3.182-1.693 4.433-2.944a13.539 13.539 0 0 0 2.786-3.862 12.087 12.087 0 0 0 3.006 5.026 12.087 12.087 0 0 0 3.786 2.556c1.445.626 2.998.939 4.659.939 1.64 0 3.182-.313 4.627-.939a11.989 11.989 0 0 0 3.818-2.556 12.087 12.087 0 0 0 2.854-4.559 10.093 10.093 0 0 0 1.87 2.682 10.22 10.22 0 0 0 3.236 2.233c1.251.54 2.589.81 4.012.81 1.424 0 2.761-.27 4.012-.81a9.948 9.948 0 0 0 3.268-2.168 9.846 9.846 0 0 0 2.233-3.203c.18-.402.33-.815.452-1.235a10.97 10.97 0 0 0 1.878 2.594 10.87 10.87 0 0 0 3.397 2.297c1.294.561 2.686.841 4.174.841 1.467 0 2.848-.28 4.142-.84a10.596 10.596 0 0 0 3.43-2.233 10.765 10.765 0 0 0 1.942-2.66 11.625 11.625 0 0 0 2.879 4.795 11.37 11.37 0 0 0 3.721 2.524c1.424.625 2.945.938 4.562.938 1.618 0 3.14-.302 4.563-.906a11.626 11.626 0 0 0 3.721-2.491 11.647 11.647 0 0 0 1.944-2.517c.118.381.256.757.418 1.126a11.148 11.148 0 0 0 2.394 3.591A11.148 11.148 0 0 0 162 32.061c1.38.604 2.847.906 4.4.906 1.575 0 3.042-.302 4.4-.906a11.148 11.148 0 0 0 3.592-2.395 10.894 10.894 0 0 0 2.427-3.591c.16-.368.298-.741.416-1.12a10.588 10.588 0 0 0 1.946 2.77c.971.97 2.104 1.736 3.398 2.297 1.294.56 2.685.841 4.174.841 1.467 0 2.847-.28 4.142-.84a10.337 10.337 0 0 0 3.43-2.266c.97-.949 1.736-2.07 2.297-3.365.582-1.294.873-2.686.873-4.174 0-1.467-.28-2.848-.84-4.142a10.337 10.337 0 0 0-2.266-3.43 10.863 10.863 0 0 0-3.397-2.297c-1.294-.583-2.686-.873-4.174-.873-1.467 0-2.859.28-4.174.84a10.421 10.421 0 0 0-3.398 2.266 10.863 10.863 0 0 0-2.622 4.258 10.822 10.822 0 0 0-2.232-3.158 10.894 10.894 0 0 0-3.591-2.427 10.86 10.86 0 0 0-4.4-.906c-1.554 0-3.02.302-4.401.906a10.894 10.894 0 0 0-3.592 2.427c-.67.67-1.243 1.42-1.724 2.25a10.986 10.986 0 0 0-.476-1.312 11.622 11.622 0 0 0-2.491-3.72 11.423 11.423 0 0 0-3.689-2.557 11.216 11.216 0 0 0-4.562-.938c-1.618 0-3.15.312-4.595.938a12.011 12.011 0 0 0-3.753 2.492 11.573 11.573 0 0 0-2.316 3.24 10.17 10.17 0 0 0-.209-.523 10.337 10.337 0 0 0-2.265-3.43 10.863 10.863 0 0 0-3.397-2.297c-1.294-.582-2.686-.873-4.174-.873-1.467 0-2.858.28-4.174.84a10.421 10.421 0 0 0-3.397 2.266 10.856 10.856 0 0 0-2.298 3.397c-.203.468-.368.95-.497 1.443a9.822 9.822 0 0 0-1.735-2.349 9.756 9.756 0 0 0-3.236-2.232 9.695 9.695 0 0 0-4.012-.841c-1.424 0-2.762.269-4.013.808a10.317 10.317 0 0 0-3.3 2.168 10.004 10.004 0 0 0-2.2 3.236l-.036.09a11.987 11.987 0 0 0-2.553-3.811 11.989 11.989 0 0 0-3.818-2.556 11.523 11.523 0 0 0-4.627-.939c-1.661 0-3.214.313-4.66.939a12.086 12.086 0 0 0-3.785 2.556 11.78 11.78 0 0 0-2.051 2.768 13.342 13.342 0 0 0-.7-2.153c-.711-1.704-1.693-3.182-2.944-4.433a13.885 13.885 0 0 0-4.4-3.01c-1.661-.733-3.451-1.1-5.371-1.1zm3.04 5.274c.26 0 .53.054.81.162.28.107.539.258.776.452a2.5 2.5 0 0 1 .583.68c.15.237.227.496.227.776 0 .346-.022.734-.065 1.165a4.17 4.17 0 0 1-.194 1.1v1.942c.021.086.032.27.032.55v.55a.53.53 0 0 1-.032.162v2.524a.365.365 0 0 1 .032.259v.517c.021.065.01.14-.032.227v1.779a.247.247 0 0 1 .032.097v.583c.021.107.032.215.032.323.022.108.033.173.033.194 0 .044.021.151.064.324.044.172.076.28.098.323v.13c0 .367-.152.712-.454 1.035a30.6 30.6 0 0 1-.776.81c-.173.15-.41.226-.712.226a4.14 4.14 0 0 1-1.52-.292 3.893 3.893 0 0 0-1.489-.29c-.388 0-.723.086-1.003.258a9.92 9.92 0 0 1-.971.518 1.246 1.246 0 0 1-.615.162H58.2a2.85 2.85 0 0 1-1.23-.26 14.917 14.917 0 0 1-1.1-.614 4.154 4.154 0 0 1-1.003-.939 6.478 6.478 0 0 1-.711-1.164 7.407 7.407 0 0 1-.453-1.327 7.606 7.606 0 0 1-.13-1.359V19.83c.022-.195.032-.367.032-.518a3.36 3.36 0 0 0 .033-.356v-.13a.524.524 0 0 0 .032-.129c.043-.431.108-.852.194-1.262.108-.41.27-.808.486-1.197.215-.366.474-.658.776-.873.324-.238.658-.475 1.003-.713.345-.237.68-.409 1.003-.517.346-.108.712-.216 1.1-.324.044 0 .13-.021.26-.064.15-.044.247-.076.29-.098h.227c.173 0 .335.011.485.033.173.022.346.032.518.032.216 0 .432-.01.647-.032a.984.984 0 0 0 .583-.323l.194-.292.13-.194v-1.359c0-.021.032-.108.096-.259.065-.15.119-.28.162-.388.151-.367.345-.636.582-.81.26-.193.572-.387.939-.581.15-.108.366-.162.647-.162zm60.54.226c.194 0 .4.043.615.13.238.064.453.172.647.323a1.6 1.6 0 0 1 .518.485c.151.194.226.4.226.615 0 .086-.042.205-.129.356-.064.151-.15.313-.259.485a5.222 5.222 0 0 1-.291.453 1.42 1.42 0 0 1-.259.26 1.785 1.785 0 0 1-1.003.323c-.302 0-.54-.108-.712-.324a4.73 4.73 0 0 0-.55-.582l-.453-.453c-.108-.13-.161-.313-.161-.55a.86.86 0 0 1 .193-.518c.13-.194.281-.356.454-.485.194-.151.388-.27.582-.356.216-.108.41-.162.582-.162zm-16.566 3.98h.226c.69 0 1.36.172 2.006.518.669.345 1.144.841 1.425 1.488.043.065.086.173.129.324.043.13.075.194.097.194v.162c0 .15-.065.312-.194.485a2.191 2.191 0 0 1-.421.485 3.211 3.211 0 0 1-.55.389c-.172.086-.335.13-.486.13a1.46 1.46 0 0 1-.517-.098 4.445 4.445 0 0 0-.453-.226 2.612 2.612 0 0 0-.42-.227.963.963 0 0 0-.486-.13h-1.78a.988.988 0 0 0-.323.098c-.28.108-.518.28-.712.518a3.189 3.189 0 0 0-.421.808c-.108.28-.183.583-.226.907a5.972 5.972 0 0 0-.065.841v.388c.173.41.4.788.68 1.133s.582.668.905.97l.098.032c.107.044.258.108.452.195l.292.129h1.714a9.87 9.87 0 0 1 .712-.291c.238-.086.486-.13.745-.13.237 0 .485.151.744.453.28.28.42.54.42.777v.032c-.15.755-.528 1.338-1.132 1.748a3.547 3.547 0 0 1-2.038.614c-.302 0-.637-.021-1.003-.064a3.58 3.58 0 0 1-.971-.26h-1.65c-.044 0-.162-.032-.356-.096a4.337 4.337 0 0 1-.389-.162 5.93 5.93 0 0 1-1.035-.55 2.742 2.742 0 0 1-.809-.842l-.194-.29a2.428 2.428 0 0 0-.259-.454 4.222 4.222 0 0 0-.259-.453 7.152 7.152 0 0 0-.13-.291c-.15-.28-.269-.54-.355-.777a9.034 9.034 0 0 0-.26-.841 16.079 16.079 0 0 0-.096-1.1 18.722 18.722 0 0 1-.032-1.1c0-.755.215-1.456.647-2.103a5.958 5.958 0 0 1 1.553-1.65c.065-.044.226-.14.485-.292.28-.172.475-.302.583-.388l.097-.032c.366-.13.722-.27 1.067-.42a3.544 3.544 0 0 1 1.1-.324h.518a1.65 1.65 0 0 1 .324-.033c.108-.021.173-.032.194-.032.043 0 .151-.021.324-.065.172-.043.28-.065.323-.065 0-.021.054-.032.162-.032zm-91.732.162c.582 0 1.187.086 1.812.259.647.194 1.186.42 1.618.68.453.237.82.528 1.1.873.28.345.497.766.648 1.262.15.474.269 1.046.355 1.715.043.237.076.474.097.711.043.238.065.475.065.713 0 .172-.032.334-.097.485-.065.13-.118.27-.162.42v.162c0 .086-.01.184-.032.292v.388l-.13.712a7.855 7.855 0 0 0-.032.711v.098c.022.086.065.247.13.485l.129.485v.194c0 .26-.065.507-.194.744a2.44 2.44 0 0 1-.518.648 2.489 2.489 0 0 1-.712.453 1.777 1.777 0 0 1-.744.161c-.345 0-.68-.075-1.003-.226a12.273 12.273 0 0 0-.938-.453.673.673 0 0 0-.26-.032h-.226c-.41 0-.809.075-1.197.226-.367.13-.733.27-1.1.42l-.324.163c-.15.086-.248.14-.291.162-.086.043-.15.054-.194.032h-.486a6.808 6.808 0 0 1-.647-.194 21.39 21.39 0 0 1-.615-.227.526.526 0 0 1-.129-.032c-.043-.021-.064-.043-.064-.064a23.36 23.36 0 0 1-1.1-.81 2.423 2.423 0 0 1-.745-1.132 16.56 16.56 0 0 0-.194-.615l-.13-.42v-1.618a.9.9 0 0 1 .065-.194c.065-.108.12-.184.162-.227.237-.431.54-.83.906-1.197a6.397 6.397 0 0 1 1.23-.97c.301-.174.614-.26.938-.26.323-.021.636-.086.938-.194.044-.021.13-.054.26-.097a7.44 7.44 0 0 0 .29-.129.907.907 0 0 1 .389-.065l.518-.065a1.56 1.56 0 0 0 .42-.161.436.436 0 0 0 .194-.389.507.507 0 0 0-.259-.453 1.02 1.02 0 0 0-.55-.162h-2.232c-.13.043-.27.075-.42.097a2.998 2.998 0 0 1-.421.032 1.42 1.42 0 0 1-.939-.356 1.242 1.242 0 0 1-.388-.906c0-.15.022-.29.065-.42.064-.13.129-.249.193-.356l.68-.68a.999.999 0 0 1 .55-.259c.216-.043.42-.075.615-.097.086-.021.27-.032.55-.032.302-.022.507-.032.615-.032.28-.151.593-.227.938-.227.367-.021.701-.032 1.003-.032zm68.92 0c.583 0 1.187.086 1.812.259.647.194 1.187.42 1.618.68.453.237.82.528 1.1.873.28.345.496.766.647 1.262a9.91 9.91 0 0 1 .356 1.715c.044.237.076.474.098.711.043.238.064.475.064.713 0 .172-.032.334-.097.485a2.44 2.44 0 0 0-.162.42v.162c0 .086-.01.184-.032.292v.388l-.13.712a7.856 7.856 0 0 0-.032.711v.098c.021.086.065.247.13.485l.129.485v.194c0 .26-.065.507-.194.744a2.44 2.44 0 0 1-.518.648 2.491 2.491 0 0 1-.712.453 1.777 1.777 0 0 1-.744.161c-.345 0-.68-.075-1.003-.226a12.273 12.273 0 0 0-.938-.453.673.673 0 0 0-.26-.032h-.226c-.41 0-.809.075-1.197.226-.367.13-.733.27-1.1.42l-.324.163c-.15.086-.248.14-.29.162-.087.043-.152.054-.195.032h-.486a6.808 6.808 0 0 1-.646-.194 21.396 21.396 0 0 1-.615-.227.526.526 0 0 1-.13-.032c-.043-.021-.064-.043-.064-.064a23.363 23.363 0 0 1-1.1-.81 2.423 2.423 0 0 1-.745-1.132c-.043-.15-.107-.356-.194-.615l-.13-.42v-1.618a.9.9 0 0 1 .065-.194 1.24 1.24 0 0 1 .163-.227 5.33 5.33 0 0 1 .905-1.197 6.397 6.397 0 0 1 1.23-.97c.302-.174.615-.26.938-.26.324-.021.637-.086.939-.194.043-.021.13-.054.259-.097.15-.064.247-.107.29-.129a.912.912 0 0 1 .39-.065l.516-.065a1.56 1.56 0 0 0 .421-.161.436.436 0 0 0 .194-.389.507.507 0 0 0-.259-.453 1.02 1.02 0 0 0-.55-.162h-2.232c-.13.043-.27.075-.42.097a2.998 2.998 0 0 1-.422.032c-.345 0-.658-.119-.938-.356a1.241 1.241 0 0 1-.388-.906c0-.15.021-.29.064-.42.065-.13.13-.249.195-.356l.68-.68a.997.997 0 0 1 .55-.259c.215-.043.42-.075.614-.097.086-.021.27-.032.55-.032.302-.022.507-.032.615-.032.28-.151.593-.227.938-.227.367-.021.701-.032 1.003-.032zm39.573.097a.79.79 0 0 1 .452.13c.151.064.292.15.421.258.302.216.529.421.68.615.15.173.237.442.258.809.022.259.044.55.066.873.043.302.064.594.064.874 0 .173-.01.324-.032.453-.022.13-.032.28-.032.453 0 .108-.011.227-.033.356 0 .13.021.248.065.356v1.36a1.362 1.362 0 0 0-.032.323c0 .172.01.345.032.517l.13.518c.02.215.042.432.064.647.021.194.054.399.097.615 0 .043.021.162.065.356.043.172.064.28.064.323v.13a.533.533 0 0 1 .033.162c0 .539-.227 1.024-.68 1.455-.453.41-.949.615-1.488.615h-.162a3.862 3.862 0 0 1-.744-.226 2.094 2.094 0 0 1-.518-.323 2.83 2.83 0 0 1-.42-.454c-.13-.194-.27-.42-.421-.68a1.377 1.377 0 0 1-.162-.679v-.388c.021-.086.076-.216.162-.388v-3.69a2.207 2.207 0 0 0-.065-.258V18.6c0-.173.022-.302.065-.388v-2.2c0-.216.064-.454.194-.713a3.367 3.367 0 0 1 1.165-1.294c.237-.15.474-.226.712-.226zm19.543.097h1.586l.226.065c.173.043.367.097.583.162.216.043.431.097.647.161.237.044.431.087.582.13.238.064.453.162.647.291.194.108.378.227.55.356a6.33 6.33 0 0 1 1.521 1.424c.432.56.734 1.186.906 1.876a2.8 2.8 0 0 1 .097.744c0 .238.022.475.065.712 0 .022.011.097.033.227a.899.899 0 0 1 .064.194v.712c0 .129-.01.27-.032.42 0 .151-.01.28-.032.388v.163c-.065.388-.238.819-.518 1.294a8.118 8.118 0 0 1-.971 1.391 9.228 9.228 0 0 1-1.197 1.23c-.41.345-.798.593-1.165.744a3.06 3.06 0 0 1-.453.129 4.074 4.074 0 0 1-.453.13 2.227 2.227 0 0 1-.42.032 1.32 1.32 0 0 0-.422.065h-1.844a.997.997 0 0 0-.614-.065 1.119 1.119 0 0 1-.648-.065 13.238 13.238 0 0 1-2.265-1.326 4.305 4.305 0 0 1-1.488-2.04 2.327 2.327 0 0 1-.13-.484 3.4 3.4 0 0 0-.096-.454.985.985 0 0 0-.033-.161 1.84 1.84 0 0 0-.097-.324 1.155 1.155 0 0 0-.097-.291.98.98 0 0 1-.032-.162.533.533 0 0 0-.033-.162v-.13a10.188 10.188 0 0 1-.129-.744 12.573 12.573 0 0 1-.033-.808c0-.194.022-.388.066-.582l.129-.583c.345-1.121.787-2.027 1.326-2.718.561-.712 1.435-1.24 2.621-1.585.26-.065.518-.119.777-.162.28-.043.539-.108.776-.194zm41.644.065c.107 0 .205.021.291.064a.865.865 0 0 0 .324.066h.226a4.87 4.87 0 0 0 .259-.098h2.07c.13.044.26.065.39.065.15 0 .3.022.452.065.15.065.323.173.518.324.215.13.41.29.582.485.194.194.356.4.485.615.13.216.195.42.195.614 0 .173-.076.378-.227.615-.13.216-.29.421-.485.615a2.8 2.8 0 0 1-.648.485 1.2 1.2 0 0 1-.614.195h-.453a3.813 3.813 0 0 1-.42-.097 15.945 15.945 0 0 1-.68-.292 1.474 1.474 0 0 0-.712-.194c-.302 0-.453.13-.453.388 0 .26.14.41.42.454.41 0 .842.032 1.295.096a1.88 1.88 0 0 1 1.197.55l.097.13c.065.065.097.108.097.13.151.172.302.312.453.42.151.108.313.226.486.356a.891.891 0 0 1 .323.42l.097.292c.043.13.086.27.13.42.064.151.118.292.161.421l.097.291v.42c0 .67-.194 1.263-.582 1.78a24.58 24.58 0 0 1-1.165 1.457c0 .021-.01.043-.032.064-.28.238-.55.42-.81.55a5.13 5.13 0 0 1-.71.324 6.665 6.665 0 0 1-.778.226c-.258.065-.55.151-.873.26h-1.262a4.093 4.093 0 0 0-.776-.195 9.495 9.495 0 0 1-.777-.097 3.7 3.7 0 0 0-.453-.13 5.733 5.733 0 0 1-.453-.161h-.292a2.807 2.807 0 0 0-.29-.033 1.312 1.312 0 0 1-.583-.226 2.935 2.935 0 0 1-.518-.518 4.558 4.558 0 0 1-.388-.582 1.657 1.657 0 0 1-.13-.615c0-.303.097-.561.292-.777.215-.216.453-.378.712-.486h.323c.302 0 .594.033.874.098.302.064.604.15.906.258h1.617c.087 0 .151-.042.195-.129a.52.52 0 0 0 .064-.226c0-.194-.086-.313-.258-.356a8.667 8.667 0 0 0-.453-.162c-.195-.065-.302-.108-.324-.13a1.6 1.6 0 0 0-.453 0 .86.86 0 0 1-.388-.096 16.53 16.53 0 0 0-.485-.227 18.25 18.25 0 0 1-.486-.226 3.85 3.85 0 0 1-.712-.583c-.259-.28-.507-.582-.744-.906-.216-.345-.4-.69-.55-1.035-.151-.345-.227-.647-.227-.906 0-.28.022-.55.065-.809.065-.28.14-.55.227-.81.172-.495.388-.894.647-1.196.259-.324.55-.583.873-.777a4.22 4.22 0 0 1 1.1-.453c.41-.13.852-.237 1.327-.323.043 0 .151-.022.324-.065.172-.043.28-.065.323-.065 0-.021.043-.032.13-.032zm-152.757.42c.367 0 .712.065 1.035.194.324.13.55.378.68.744.064.151.108.303.13.454.043.15.085.312.129.485l.258.582c.087.173.13.367.13.583 0 .302-.032.593-.097.874-.043.28-.065.57-.065.873 0 .216.01.432.032.647l.13.647c.043.367.086.755.13 1.165.064.41.28.734.646.971.065.043.162.097.292.162.13.065.205.097.226.097h.777a.535.535 0 0 0 .129-.032.759.759 0 0 0 .194-.13c.108-.064.216-.14.324-.226.13-.086.237-.184.323-.291l.033-.098c.021-.064.043-.118.064-.161.022-.044.043-.119.065-.227a1.64 1.64 0 0 0 .033-.194v-.582c.021-.151.032-.28.032-.389.021-.107.032-.183.032-.226 0-.043.022-.162.065-.356.043-.216.075-.345.097-.388.043-.194.065-.388.065-.582 0-.216.022-.421.065-.615l.129-.518a1.46 1.46 0 0 0 .097-.518c0-.15-.021-.28-.065-.388a1.435 1.435 0 0 1-.065-.453 2 2 0 0 1 .13-.68 2.26 2.26 0 0 1 .356-.68c.151-.215.323-.387.517-.517.216-.129.454-.194.712-.194.26 0 .529.054.81.162.28.108.539.259.776.453.259.194.464.42.615.68.172.237.259.495.259.776v1.974l-.163.582v1.683c.044.194.098.41.163.647.064.237.096.453.096.647a.72.72 0 0 1-.032.227.716.716 0 0 0-.032.226v.162c.021.043.043.108.064.194v1.553l-.129.518a2.187 2.187 0 0 1-.874 1.456 1.86 1.86 0 0 1-1.132.355h-.13l-1.1-.323h-2.2c-.388.173-.787.324-1.197.453-.41.13-.83.237-1.262.324h-.13c-.301 0-.604-.076-.906-.227-.28-.13-.55-.259-.808-.388a3.355 3.355 0 0 1-.744-.583 7.522 7.522 0 0 1-.745-.873c-.215-.324-.41-.647-.582-.971-.173-.324-.27-.614-.291-.873v-1.1c0-.151-.01-.303-.032-.454v-.776a3.055 3.055 0 0 1-.162-.971c0-.108.01-.205.032-.291.021-.108.032-.216.032-.324v-.194a24.974 24.974 0 0 0-.161-1.036 9.723 9.723 0 0 1-.065-1.067c0-.324.054-.637.162-.939.108-.323.258-.604.452-.841.195-.259.432-.464.713-.615.28-.173.593-.258.938-.258zm129.04 0c.366 0 .71.065 1.034.194.324.13.55.378.68.744.065.151.108.303.13.454.043.15.086.312.129.485l.259.582c.086.173.129.367.129.583 0 .302-.033.593-.097.874-.043.28-.065.57-.065.873 0 .216.011.432.033.647l.129.647c.043.367.086.755.13 1.165.064.41.28.734.647.971.064.043.162.097.291.162.13.065.205.097.226.097h.777a.535.535 0 0 0 .13-.032.759.759 0 0 0 .193-.13c.108-.064.216-.14.324-.226.13-.086.237-.184.323-.291l.033-.098a1.27 1.27 0 0 1 .065-.161 1.03 1.03 0 0 0 .064-.227 1.64 1.64 0 0 0 .033-.194v-.582c.021-.151.032-.28.032-.389.021-.107.032-.183.032-.226 0-.043.022-.162.065-.356.043-.216.076-.345.097-.388.043-.194.065-.388.065-.582 0-.216.021-.421.064-.615l.13-.518a1.46 1.46 0 0 0 .097-.518c0-.15-.022-.28-.065-.388a1.435 1.435 0 0 1-.065-.453 2 2 0 0 1 .13-.68 2.26 2.26 0 0 1 .356-.68c.15-.215.323-.387.518-.517a1.36 1.36 0 0 1 .712-.194c.258 0 .528.054.808.162.28.108.54.259.777.453.259.194.464.42.615.68.173.237.258.495.258.776v1.974l-.161.582v1.683c.043.194.097.41.161.647.065.237.098.453.098.647a.72.72 0 0 1-.033.227.716.716 0 0 0-.032.226v.162c.021.043.043.108.065.194v1.553l-.13.518a2.3 2.3 0 0 1-.13.485 2.186 2.186 0 0 1-.744.97c-.323.238-.7.356-1.132.356h-.13l-1.1-.323h-2.2c-.388.173-.787.324-1.197.453-.41.13-.83.237-1.262.324h-.129a2.01 2.01 0 0 1-.906-.227c-.28-.13-.55-.259-.81-.388a3.355 3.355 0 0 1-.743-.583 7.523 7.523 0 0 1-.744-.873c-.216-.324-.41-.647-.583-.971-.172-.324-.27-.614-.291-.873v-1.1c0-.151-.01-.303-.032-.454v-.776a3.055 3.055 0 0 1-.162-.971c0-.108.01-.205.032-.291a1.62 1.62 0 0 0 .033-.324v-.194a24.97 24.97 0 0 0-.162-1.036 9.723 9.723 0 0 1-.065-1.067c0-.324.054-.637.162-.939a2.63 2.63 0 0 1 .453-.841c.194-.259.431-.464.712-.615.28-.173.593-.258.938-.258zm-102.54 2.75l-.42.227-1.1 1.1a.76.76 0 0 0-.162.26 1.846 1.846 0 0 0-.098.323v1.164c0 .216.022.4.066.55.107.368.27.745.485 1.133.237.367.528.636.873.809.108.065.248.14.42.227l.292.129h.388c.022 0 .12-.043.292-.13.194-.086.334-.161.42-.226a1.138 1.138 0 0 0 .55-.938v-1.262a1.394 1.394 0 0 1-.129-.712 2.86 2.86 0 0 0-.032-.744 4.208 4.208 0 0 1-.065-.55 9.364 9.364 0 0 1-.033-.55l-.064-.13-.583-.55-.258-.13zm84.678.42a.572.572 0 0 0-.161.066c-.065.043-.12.076-.163.097-.237.173-.42.334-.55.485a1.827 1.827 0 0 0-.323.615 8.662 8.662 0 0 1-.162.453.807.807 0 0 0-.064.356c0 .151.042.324.129.518v1.359c0 .021.032.13.097.323.065.173.119.313.162.421.043.13.13.27.259.42.129.152.27.292.42.421a3.4 3.4 0 0 0 .518.324 1.3 1.3 0 0 0 .518.13c.41 0 .765-.152 1.067-.454.302-.323.55-.7.745-1.132a5.85 5.85 0 0 0 .42-1.36 6.71 6.71 0 0 0 .13-1.164c0-.173-.011-.345-.033-.518a1.078 1.078 0 0 0-.194-.517c-.043-.043-.15-.152-.323-.324-.173-.194-.292-.313-.356-.356a.965.965 0 0 0-.13-.097.315.315 0 0 0-.161-.065zm-129.007 3.69c-.172 0-.302.108-.388.324-.086.194-.13.355-.13.485 0 .345.108.593.324.744.216.13.475.194.777.194h.356c.064 0 .097-.021.097-.064.043-.044.118-.12.226-.227.13-.108.216-.184.259-.227a.46.46 0 0 0 .065-.258v-.583a.636.636 0 0 0-.162-.226c-.065-.108-.14-.162-.227-.162zm68.92 0c-.172 0-.302.108-.388.324-.086.194-.13.355-.13.485 0 .345.108.593.324.744.216.13.475.194.777.194h.356c.065 0 .097-.021.097-.064l.226-.227c.13-.108.216-.184.26-.227a.46.46 0 0 0 .064-.258v-.583a.636.636 0 0 0-.162-.226c-.065-.108-.14-.162-.227-.162z"/></g></svg>