<svg xmlns="http://www.w3.org/2000/svg" width="761.316" height="139.33" viewBox="0 0 201.432 36.865"><g word-spacing="0" letter-spacing="0" font-family="Circulate (BRK)" font-size="13.333" font-weight="400"><path d="M60.93 0c-2.442 0-4.746 0.458-6.911 1.374a18.135 18.135 0 0 0-5.705 3.79 17.894 17.894 0 0 0-2.764 3.578 14.717 14.717 0 0 0-2.282-1.208 14.67 14.67 0 0 0-5.945-1.224c-2.098 0-4.08 0.408-5.945 1.224a14.717 14.717 0 0 0-3.632 2.177c-0.19-0.212-0.383-0.42-0.585-0.622-1.437-1.437-3.133-2.572-5.087-3.406-1.926-0.833-3.981-1.25-6.166-1.25-2.213 0-4.282 0.417-6.208 1.25A16.104 16.104 0 0 0 4.656 9.09c-1.437 1.437-2.572 3.133-3.406 5.087C0.417 16.102 0 18.157 0 20.341c0 2.213 0.417 4.283 1.25 6.208a16.105 16.105 0 0 0 3.406 5.045A16.105 16.105 0 0 0 9.7 34.999c1.926 0.834 3.995 1.25 6.208 1.25 2.185 0 4.24-0.416 6.166-1.25a16.124 16.124 0 0 0 4.34-2.711c0.037 0.039 0.074 0.08 0.112 0.118 1.37 1.37 2.987 2.448 4.852 3.235a14.67 14.67 0 0 0 5.945 1.224c2.127 0 4.109-0.408 5.945-1.224 1.865-0.787 3.482-1.865 4.852-3.235a14.717 14.717 0 0 0 1.066-1.174 18.002 18.002 0 0 0 4.624 2.955c2.166 0.944 4.484 1.416 6.954 1.416 2.443 0 4.747-0.458 6.913-1.375a17.602 17.602 0 0 0 5.241-3.349 16.105 16.105 0 0 0 0.658 0.715 16.105 16.105 0 0 0 5.044 3.405c1.926 0.834 3.995 1.25 6.209 1.25 2.184 0 4.239-0.416 6.165-1.25 1.954-0.833 3.65-1.968 5.087-3.405a16.105 16.105 0 0 0 0.548-0.607 14.167 14.167 0 0 0 3.023 1.812c1.735 0.747 3.589 1.12 5.562 1.12 1.974 0 3.828-0.373 5.563-1.12a13.791 13.791 0 0 0 4.53-3.006 13.65 13.65 0 0 0 0.505-0.533 14.896 14.896 0 0 0 3.107 1.824c1.774 0.769 3.682 1.153 5.723 1.153 2.01 0 3.904-0.384 5.678-1.153a14.939 14.939 0 0 0 3.173-1.767 15.558 15.558 0 0 0 0.74 0.81 15.217 15.217 0 0 0 4.98 3.378c1.906 0.838 3.94 1.256 6.107 1.256 2.165 0 4.2-0.404 6.106-1.212a15.557 15.557 0 0 0 3.38-1.968c0.244 0.283 0.494 0.56 0.759 0.825 1.37 1.37 2.987 2.448 4.852 3.235a14.672 14.672 0 0 0 5.945 1.224c2.127 0 4.11-0.408 5.945-1.224 1.865-0.787 3.482-1.865 4.852-3.235a14.717 14.717 0 0 0 0.63-0.683 14.896 14.896 0 0 0 3.19 1.885c1.775 0.769 3.683 1.153 5.723 1.153 2.012 0 3.905-0.384 5.68-1.153a14.174 14.174 0 0 0 4.702-3.106c1.33-1.301 2.38-2.84 3.15-4.614 0.798-1.774 1.198-3.682 1.198-5.723 0-2.011-0.385-3.904-1.154-5.679a14.174 14.174 0 0 0-3.105-4.702 14.895 14.895 0 0 0-4.659-3.15c-1.774-0.8-3.682-1.198-5.723-1.198-2.011 0-3.919 0.384-5.723 1.153a14.29 14.29 0 0 0-4.658 3.106 14.895 14.895 0 0 0-0.21 0.233 14.717 14.717 0 0 0-3.893-2.394 14.67 14.67 0 0 0-5.945-1.224c-2.098 0-4.08 0.408-5.945 1.224a14.717 14.717 0 0 0-2.913 1.638 15.557 15.557 0 0 0-1.012-1.13c-1.386-1.443-3.03-2.584-4.937-3.421-1.905-0.837-3.94-1.256-6.106-1.256-2.165 0-4.215 0.419-6.15 1.256a16.075 16.075 0 0 0-4.221 2.608 14.895 14.895 0 0 0-4.625-3.12c-1.774-0.798-3.682-1.197-5.723-1.197-2.01 0-3.919 0.385-5.723 1.154a14.29 14.29 0 0 0-4.658 3.105 14.895 14.895 0 0 0-0.803 0.889 13.963 13.963 0 0 0-2.59-1.458c-1.734-0.777-3.588-1.166-5.562-1.166-1.974 0-3.828 0.374-5.562 1.12a14.305 14.305 0 0 0-3.895 2.396C94.53 7.58 92.884 6.49 90.994 5.683c-1.926-0.833-3.981-1.25-6.165-1.25-2.214 0-4.283 0.417-6.21 1.25a16.104 16.104 0 0 0-3.22 1.863 17.077 17.077 0 0 0-1.893-2.258 17.868 17.868 0 0 0-5.663-3.872C65.706 0.472 63.402 0 60.931 0z" aria-label="audacious"/><path fill="#d9d9d9" aria-label="audacious" d="M60.95 4.04c-1.899 0-3.689 0.355-5.372 1.067a14.091 14.091 0 0 0-4.432 2.945 14.156 14.156 0 0 0-2.977 4.4 12.81 12.81 0 0 0-0.988 3.61 10.73 10.73 0 0 0-1.828-2.38 10.894 10.894 0 0 0-3.591-2.427 10.858 10.858 0 0 0-4.4-0.906c-1.554 0-3.02 0.302-4.401 0.906a10.894 10.894 0 0 0-3.592 2.427 11.017 11.017 0 0 0-2.101 2.956 11.29 11.29 0 0 0-0.325-0.853 11.99 11.99 0 0 0-2.557-3.818 11.986 11.986 0 0 0-3.818-2.556 11.523 11.523 0 0 0-4.627-0.939c-1.66 0-3.214 0.313-4.66 0.939a12.086 12.086 0 0 0-3.785 2.556 11.988 11.988 0 0 0-2.556 3.818A11.52 11.52 0 0 0 4 20.412c0 1.66 0.313 3.214 0.939 4.66a12.087 12.087 0 0 0 2.556 3.785 12.087 12.087 0 0 0 3.785 2.556c1.446 0.626 3 0.939 4.66 0.939 1.64 0 3.182-0.313 4.627-0.939a11.987 11.987 0 0 0 3.818-2.556c0.97-0.97 1.755-2.089 2.359-3.355 0.071 0.192 0.147 0.383 0.23 0.573a11.148 11.148 0 0 0 2.394 3.591 11.148 11.148 0 0 0 3.592 2.395 10.86 10.86 0 0 0 4.4 0.906c1.575 0 3.042-0.302 4.4-0.906a11.148 11.148 0 0 0 3.592-2.395 10.894 10.894 0 0 0 2.427-3.591c0.306-0.699 0.533-1.42 0.684-2.162a13.84 13.84 0 0 0 6.953 6.691c1.682 0.734 3.483 1.1 5.403 1.1 1.898 0 3.689-0.356 5.371-1.067 1.704-0.712 3.182-1.693 4.433-2.944a13.539 13.539 0 0 0 2.786-3.862 12.087 12.087 0 0 0 3.006 5.026 12.087 12.087 0 0 0 3.786 2.556c1.445 0.626 2.998 0.939 4.659 0.939 1.64 0 3.182-0.313 4.627-0.939a11.989 11.989 0 0 0 3.818-2.556 12.087 12.087 0 0 0 2.854-4.559 10.093 10.093 0 0 0 1.87 2.682 10.22 10.22 0 0 0 3.236 2.233c1.251 0.54 2.589 0.81 4.012 0.81 1.424 0 2.761-0.27 4.012-0.81a9.948 9.948 0 0 0 3.268-2.168 9.846 9.846 0 0 0 2.233-3.203c0.18-0.402 0.33-0.815 0.452-1.235a10.97 10.97 0 0 0 1.878 2.594 10.87 10.87 0 0 0 3.397 2.297c1.294 0.561 2.686 0.841 4.174 0.841 1.467 0 2.848-0.28 4.142-0.84a10.596 10.596 0 0 0 3.43-2.233 10.765 10.765 0 0 0 1.942-2.66 11.625 11.625 0 0 0 2.879 4.795 11.37 11.37 0 0 0 3.721 2.524c1.424 0.625 2.945 0.938 4.562 0.938 1.618 0 3.14-0.302 4.563-0.906a11.626 11.626 0 0 0 3.721-2.491 11.647 11.647 0 0 0 1.944-2.517c0.118 0.381 0.256 0.757 0.418 1.126a11.148 11.148 0 0 0 2.394 3.591A11.148 11.148 0 0 0 162 32.061c1.38 0.604 2.847 0.906 4.4 0.906 1.575 0 3.042-0.302 4.4-0.906a11.148 11.148 0 0 0 3.592-2.395 10.894 10.894 0 0 0 2.427-3.591c0.16-0.368 0.298-0.741 0.416-1.12a10.588 10.588 0 0 0 1.946 2.77c0.971 0.97 2.104 1.736 3.398 2.297 1.294 0.56 2.685 0.841 4.174 0.841 1.467 0 2.847-0.28 4.142-0.84a10.337 10.337 0 0 0 3.43-2.266c0.97-0.949 1.736-2.07 2.297-3.365 0.582-1.294 0.873-2.686 0.873-4.174 0-1.467-0.28-2.848-0.84-4.142a10.337 10.337 0 0 0-2.266-3.43 10.863 10.863 0 0 0-3.397-2.297c-1.294-0.583-2.686-0.873-4.174-0.873-1.467 0-2.859 0.28-4.174 0.84a10.421 10.421 0 0 0-3.398 2.266 10.863 10.863 0 0 0-2.622 4.258 10.822 10.822 0 0 0-2.232-3.158 10.894 10.894 0 0 0-3.591-2.427 10.86 10.86 0 0 0-4.4-0.906c-1.554 0-3.02 0.302-4.401 0.906a10.894 10.894 0 0 0-3.592 2.427c-0.67 0.67-1.243 1.42-1.724 2.25a10.986 10.986 0 0 0-0.476-1.312 11.622 11.622 0 0 0-2.491-3.72 11.423 11.423 0 0 0-3.689-2.557 11.216 11.216 0 0 0-4.562-0.938c-1.618 0-3.15 0.312-4.595 0.938a12.011 12.011 0 0 0-3.753 2.492 11.573 11.573 0 0 0-2.316 3.24 10.17 10.17 0 0 0-0.209-0.523 10.337 10.337 0 0 0-2.265-3.43 10.863 10.863 0 0 0-3.397-2.297c-1.294-0.582-2.686-0.873-4.174-0.873-1.467 0-2.858 0.28-4.174 0.84a10.421 10.421 0 0 0-3.397 2.266 10.856 10.856 0 0 0-2.298 3.397c-0.203 0.468-0.368 0.95-0.497 1.443a9.822 9.822 0 0 0-1.735-2.349 9.756 9.756 0 0 0-3.236-2.232 9.695 9.695 0 0 0-4.012-0.841c-1.424 0-2.762 0.269-4.013 0.808a10.317 10.317 0 0 0-3.3 2.168 10.004 10.004 0 0 0-2.2 3.236l-0.036 0.09a11.987 11.987 0 0 0-2.553-3.811 11.989 11.989 0 0 0-3.818-2.556 11.523 11.523 0 0 0-4.627-0.939c-1.661 0-3.214 0.313-4.66 0.939a12.086 12.086 0 0 0-3.785 2.556 11.78 11.78 0 0 0-2.051 2.768 13.342 13.342 0 0 0-0.7-2.153c-0.711-1.704-1.693-3.182-2.944-4.433a13.885 13.885 0 0 0-4.4-3.01c-1.661-0.733-3.451-1.1-5.371-1.1zm3.04 5.274c0.26 0 0.53 0.054 0.81 0.162 0.28 0.107 0.539 0.258 0.776 0.452a2.5 2.5 0 0 1 0.583 0.68c0.15 0.237 0.227 0.496 0.227 0.776 0 0.346-0.022 0.734-0.065 1.165a4.17 4.17 0 0 1-0.194 1.1v1.942c0.021 0.086 0.032 0.27 0.032 0.55v0.55a0.53 0.53 0 0 1-0.032 0.162v2.524a0.365 0.365 0 0 1 0.032 0.259v0.517c0.021 0.065 0.01 0.14-0.032 0.227v1.779a0.247 0.247 0 0 1 0.032 0.097v0.583c0.021 0.107 0.032 0.215 0.032 0.323 0.022 0.108 0.033 0.173 0.033 0.194 0 0.044 0.021 0.151 0.064 0.324 0.044 0.172 0.076 0.28 0.098 0.323v0.13c0 0.367-0.152 0.712-0.454 1.035a30.6 30.6 0 0 1-0.776 0.81c-0.173 0.15-0.41 0.226-0.712 0.226a4.14 4.14 0 0 1-1.52-0.292 3.893 3.893 0 0 0-1.489-0.29c-0.388 0-0.723 0.086-1.003 0.258a9.92 9.92 0 0 1-0.971 0.518 1.246 1.246 0 0 1-0.615 0.162H58.2a2.85 2.85 0 0 1-1.23-0.26 14.917 14.917 0 0 1-1.1-0.614 4.154 4.154 0 0 1-1.003-0.939 6.478 6.478 0 0 1-0.711-1.164 7.407 7.407 0 0 1-0.453-1.327 7.606 7.606 0 0 1-0.13-1.359V19.83c0.022-0.195 0.032-0.367 0.032-0.518a3.36 3.36 0 0 0 0.033-0.356v-0.13a0.524 0.524 0 0 0 0.032-0.129c0.043-0.431 0.108-0.852 0.194-1.262 0.108-0.41 0.27-0.808 0.486-1.197 0.215-0.366 0.474-0.658 0.776-0.873 0.324-0.238 0.658-0.475 1.003-0.713 0.345-0.237 0.68-0.409 1.003-0.517 0.346-0.108 0.712-0.216 1.1-0.324 0.044 0 0.13-0.021 0.26-0.064 0.15-0.044 0.247-0.076 0.29-0.098h0.227c0.173 0 0.335 0.011 0.485 0.033 0.173 0.022 0.346 0.032 0.518 0.032 0.216 0 0.432-0.01 0.647-0.032a0.984 0.984 0 0 0 0.583-0.323l0.194-0.292 0.13-0.194v-1.359c0-0.021 0.032-0.108 0.096-0.259 0.065-0.15 0.119-0.28 0.162-0.388 0.151-0.367 0.345-0.636 0.582-0.81 0.26-0.193 0.572-0.387 0.939-0.581 0.15-0.108 0.366-0.162 0.647-0.162zm60.54 0.226c0.194 0 0.4 0.043 0.615 0.13 0.238 0.064 0.453 0.172 0.647 0.323a1.6 1.6 0 0 1 0.518 0.485c0.151 0.194 0.226 0.4 0.226 0.615 0 0.086-0.042 0.205-0.129 0.356-0.064 0.151-0.15 0.313-0.259 0.485a5.222 5.222 0 0 1-0.291 0.453 1.42 1.42 0 0 1-0.259 0.26 1.785 1.785 0 0 1-1.003 0.323c-0.302 0-0.54-0.108-0.712-0.324a4.73 4.73 0 0 0-0.55-0.582l-0.453-0.453c-0.108-0.13-0.161-0.313-0.161-0.55a0.86 0.86 0 0 1 0.193-0.518c0.13-0.194 0.281-0.356 0.454-0.485 0.194-0.151 0.388-0.27 0.582-0.356 0.216-0.108 0.41-0.162 0.582-0.162zm-16.566 3.98h0.226c0.69 0 1.36 0.172 2.006 0.518 0.669 0.345 1.144 0.841 1.425 1.488 0.043 0.065 0.086 0.173 0.129 0.324 0.043 0.13 0.075 0.194 0.097 0.194v0.162c0 0.15-0.065 0.312-0.194 0.485a2.191 2.191 0 0 1-0.421 0.485 3.211 3.211 0 0 1-0.55 0.389c-0.172 0.086-0.335 0.13-0.486 0.13a1.46 1.46 0 0 1-0.517-0.098 4.445 4.445 0 0 0-0.453-0.226 2.612 2.612 0 0 0-0.42-0.227 0.963 0.963 0 0 0-0.486-0.13h-1.78a0.988 0.988 0 0 0-0.323 0.098c-0.28 0.108-0.518 0.28-0.712 0.518a3.189 3.189 0 0 0-0.421 0.808c-0.108 0.28-0.183 0.583-0.226 0.907a5.972 5.972 0 0 0-0.065 0.841v0.388c0.173 0.41 0.4 0.788 0.68 1.133s0.582 0.668 0.905 0.97l0.098 0.032c0.107 0.044 0.258 0.108 0.452 0.195l0.292 0.129h1.714a9.87 9.87 0 0 1 0.712-0.291c0.238-0.086 0.486-0.13 0.745-0.13 0.237 0 0.485 0.151 0.744 0.453 0.28 0.28 0.42 0.54 0.42 0.777v0.032c-0.15 0.755-0.528 1.338-1.132 1.748a3.547 3.547 0 0 1-2.038 0.614c-0.302 0-0.637-0.021-1.003-0.064a3.58 3.58 0 0 1-0.971-0.26h-1.65c-0.044 0-0.162-0.032-0.356-0.096a4.337 4.337 0 0 1-0.389-0.162 5.93 5.93 0 0 1-1.035-0.55 2.742 2.742 0 0 1-0.809-0.842l-0.194-0.29a2.428 2.428 0 0 0-0.259-0.454 4.222 4.222 0 0 0-0.259-0.453 7.152 7.152 0 0 0-0.13-0.291c-0.15-0.28-0.269-0.54-0.355-0.777a9.034 9.034 0 0 0-0.26-0.841 16.079 16.079 0 0 0-0.096-1.1 18.722 18.722 0 0 1-0.032-1.1c0-0.755 0.215-1.456 0.647-2.103a5.958 5.958 0 0 1 1.553-1.65c0.065-0.044 0.226-0.14 0.485-0.292 0.28-0.172 0.475-0.302 0.583-0.388l0.097-0.032c0.366-0.13 0.722-0.27 1.067-0.42a3.544 3.544 0 0 1 1.1-0.324h0.518a1.65 1.65 0 0 1 0.324-0.033c0.108-0.021 0.173-0.032 0.194-0.032 0.043 0 0.151-0.021 0.324-0.065 0.172-0.043 0.28-0.065 0.323-0.065 0-0.021 0.054-0.032 0.162-0.032zm-91.732 0.162c0.582 0 1.187 0.086 1.812 0.259 0.647 0.194 1.186 0.42 1.618 0.68 0.453 0.237 0.82 0.528 1.1 0.873 0.28 0.345 0.497 0.766 0.648 1.262 0.15 0.474 0.269 1.046 0.355 1.715 0.043 0.237 0.076 0.474 0.097 0.711 0.043 0.238 0.065 0.475 0.065 0.713 0 0.172-0.032 0.334-0.097 0.485-0.065 0.13-0.118 0.27-0.162 0.42v0.162c0 0.086-0.01 0.184-0.032 0.292v0.388l-0.13 0.712a7.855 7.855 0 0 0-0.032 0.711v0.098c0.022 0.086 0.065 0.247 0.13 0.485l0.129 0.485v0.194c0 0.26-0.065 0.507-0.194 0.744a2.44 2.44 0 0 1-0.518 0.648 2.489 2.489 0 0 1-0.712 0.453 1.777 1.777 0 0 1-0.744 0.161c-0.345 0-0.68-0.075-1.003-0.226a12.273 12.273 0 0 0-0.938-0.453 0.673 0.673 0 0 0-0.26-0.032h-0.226c-0.41 0-0.809 0.075-1.197 0.226-0.367 0.13-0.733 0.27-1.1 0.42l-0.324 0.163c-0.15 0.086-0.248 0.14-0.291 0.162-0.086 0.043-0.15 0.054-0.194 0.032h-0.486a6.808 6.808 0 0 1-0.647-0.194 21.39 21.39 0 0 1-0.615-0.227 0.526 0.526 0 0 1-0.129-0.032c-0.043-0.021-0.064-0.043-0.064-0.064a23.36 23.36 0 0 1-1.1-0.81 2.423 2.423 0 0 1-0.745-1.132 16.56 16.56 0 0 0-0.194-0.615l-0.13-0.42v-1.618a0.9 0.9 0 0 1 0.065-0.194c0.065-0.108 0.12-0.184 0.162-0.227 0.237-0.431 0.54-0.83 0.906-1.197a6.397 6.397 0 0 1 1.23-0.97c0.301-0.174 0.614-0.26 0.938-0.26 0.323-0.021 0.636-0.086 0.938-0.194 0.044-0.021 0.13-0.054 0.26-0.097a7.44 7.44 0 0 0 0.29-0.129 0.907 0.907 0 0 1 0.389-0.065l0.518-0.065a1.56 1.56 0 0 0 0.42-0.161 0.436 0.436 0 0 0 0.194-0.389 0.507 0.507 0 0 0-0.259-0.453 1.02 1.02 0 0 0-0.55-0.162h-2.232c-0.13 0.043-0.27 0.075-0.42 0.097a2.998 2.998 0 0 1-0.421 0.032 1.42 1.42 0 0 1-0.939-0.356 1.242 1.242 0 0 1-0.388-0.906c0-0.15 0.022-0.29 0.065-0.42 0.064-0.13 0.129-0.249 0.193-0.356l0.68-0.68a0.999 0.999 0 0 1 0.55-0.259c0.216-0.043 0.42-0.075 0.615-0.097 0.086-0.021 0.27-0.032 0.55-0.032 0.302-0.022 0.507-0.032 0.615-0.032 0.28-0.151 0.593-0.227 0.938-0.227 0.367-0.021 0.701-0.032 1.003-0.032zm68.92 0c0.583 0 1.187 0.086 1.812 0.259 0.647 0.194 1.187 0.42 1.618 0.68 0.453 0.237 0.82 0.528 1.1 0.873 0.28 0.345 0.496 0.766 0.647 1.262a9.91 9.91 0 0 1 0.356 1.715c0.044 0.237 0.076 0.474 0.098 0.711 0.043 0.238 0.064 0.475 0.064 0.713 0 0.172-0.032 0.334-0.097 0.485a2.44 2.44 0 0 0-0.162 0.42v0.162c0 0.086-0.01 0.184-0.032 0.292v0.388l-0.13 0.712a7.856 7.856 0 0 0-0.032 0.711v0.098c0.021 0.086 0.065 0.247 0.13 0.485l0.129 0.485v0.194c0 0.26-0.065 0.507-0.194 0.744a2.44 2.44 0 0 1-0.518 0.648 2.491 2.491 0 0 1-0.712 0.453 1.777 1.777 0 0 1-0.744 0.161c-0.345 0-0.68-0.075-1.003-0.226a12.273 12.273 0 0 0-0.938-0.453 0.673 0.673 0 0 0-0.26-0.032h-0.226c-0.41 0-0.809 0.075-1.197 0.226-0.367 0.13-0.733 0.27-1.1 0.42l-0.324 0.163c-0.15 0.086-0.248 0.14-0.29 0.162-0.087 0.043-0.152 0.054-0.195 0.032h-0.486a6.808 6.808 0 0 1-0.646-0.194 21.396 21.396 0 0 1-0.615-0.227 0.526 0.526 0 0 1-0.13-0.032c-0.043-0.021-0.064-0.043-0.064-0.064a23.363 23.363 0 0 1-1.1-0.81 2.423 2.423 0 0 1-0.745-1.132c-0.043-0.15-0.107-0.356-0.194-0.615l-0.13-0.42v-1.618a0.9 0.9 0 0 1 0.065-0.194 1.24 1.24 0 0 1 0.163-0.227 5.33 5.33 0 0 1 0.905-1.197 6.397 6.397 0 0 1 1.23-0.97c0.302-0.174 0.615-0.26 0.938-0.26 0.324-0.021 0.637-0.086 0.939-0.194 0.043-0.021 0.13-0.054 0.259-0.097 0.15-0.064 0.247-0.107 0.29-0.129a0.912 0.912 0 0 1 0.39-0.065l0.516-0.065a1.56 1.56 0 0 0 0.421-0.161 0.436 0.436 0 0 0 0.194-0.389 0.507 0.507 0 0 0-0.259-0.453 1.02 1.02 0 0 0-0.55-0.162h-2.232c-0.13 0.043-0.27 0.075-0.42 0.097a2.998 2.998 0 0 1-0.422 0.032c-0.345 0-0.658-0.119-0.938-0.356a1.241 1.241 0 0 1-0.388-0.906c0-0.15 0.021-0.29 0.064-0.42 0.065-0.13 0.13-0.249 0.195-0.356l0.68-0.68a0.997 0.997 0 0 1 0.55-0.259c0.215-0.043 0.42-0.075 0.614-0.097 0.086-0.021 0.27-0.032 0.55-0.032 0.302-0.022 0.507-0.032 0.615-0.032 0.28-0.151 0.593-0.227 0.938-0.227 0.367-0.021 0.701-0.032 1.003-0.032zm39.573 0.097a0.79 0.79 0 0 1 0.452 0.13c0.151 0.064 0.292 0.15 0.421 0.258 0.302 0.216 0.529 0.421 0.68 0.615 0.15 0.173 0.237 0.442 0.258 0.809 0.022 0.259 0.044 0.55 0.066 0.873 0.043 0.302 0.064 0.594 0.064 0.874 0 0.173-0.01 0.324-0.032 0.453-0.022 0.13-0.032 0.28-0.032 0.453 0 0.108-0.011 0.227-0.033 0.356 0 0.13 0.021 0.248 0.065 0.356v1.36a1.362 1.362 0 0 0-0.032 0.323c0 0.172 0.01 0.345 0.032 0.517l0.13 0.518c0.02 0.215 0.042 0.432 0.064 0.647 0.021 0.194 0.054 0.399 0.097 0.615 0 0.043 0.021 0.162 0.065 0.356 0.043 0.172 0.064 0.28 0.064 0.323v0.13a0.533 0.533 0 0 1 0.033 0.162c0 0.539-0.227 1.024-0.68 1.455-0.453 0.41-0.949 0.615-1.488 0.615h-0.162a3.862 3.862 0 0 1-0.744-0.226 2.094 2.094 0 0 1-0.518-0.323 2.83 2.83 0 0 1-0.42-0.454c-0.13-0.194-0.27-0.42-0.421-0.68a1.377 1.377 0 0 1-0.162-0.679v-0.388c0.021-0.086 0.076-0.216 0.162-0.388v-3.69a2.207 2.207 0 0 0-0.065-0.258V18.6c0-0.173 0.022-0.302 0.065-0.388v-2.2c0-0.216 0.064-0.454 0.194-0.713a3.367 3.367 0 0 1 1.165-1.294c0.237-0.15 0.474-0.226 0.712-0.226zm19.543 0.097h1.586l0.226 0.065c0.173 0.043 0.367 0.097 0.583 0.162 0.216 0.043 0.431 0.097 0.647 0.161 0.237 0.044 0.431 0.087 0.582 0.13 0.238 0.064 0.453 0.162 0.647 0.291 0.194 0.108 0.378 0.227 0.55 0.356a6.33 6.33 0 0 1 1.521 1.424c0.432 0.56 0.734 1.186 0.906 1.876a2.8 2.8 0 0 1 0.097 0.744c0 0.238 0.022 0.475 0.065 0.712 0 0.022 0.011 0.097 0.033 0.227a0.899 0.899 0 0 1 0.064 0.194v0.712c0 0.129-0.01 0.27-0.032 0.42 0 0.151-0.01 0.28-0.032 0.388v0.163c-0.065 0.388-0.238 0.819-0.518 1.294a8.118 8.118 0 0 1-0.971 1.391 9.228 9.228 0 0 1-1.197 1.23c-0.41 0.345-0.798 0.593-1.165 0.744a3.06 3.06 0 0 1-0.453 0.129 4.074 4.074 0 0 1-0.453 0.13 2.227 2.227 0 0 1-0.42 0.032 1.32 1.32 0 0 0-0.422 0.065h-1.844a0.997 0.997 0 0 0-0.614-0.065 1.119 1.119 0 0 1-0.648-0.065 13.238 13.238 0 0 1-2.265-1.326 4.305 4.305 0 0 1-1.488-2.04 2.327 2.327 0 0 1-0.13-0.484 3.4 3.4 0 0 0-0.096-0.454 0.985 0.985 0 0 0-0.033-0.161 1.84 1.84 0 0 0-0.097-0.324 1.155 1.155 0 0 0-0.097-0.291 0.98 0.98 0 0 1-0.032-0.162 0.533 0.533 0 0 0-0.033-0.162v-0.13a10.188 10.188 0 0 1-0.129-0.744 12.573 12.573 0 0 1-0.033-0.808c0-0.194 0.022-0.388 0.066-0.582l0.129-0.583c0.345-1.121 0.787-2.027 1.326-2.718 0.561-0.712 1.435-1.24 2.621-1.585 0.26-0.065 0.518-0.119 0.777-0.162 0.28-0.043 0.539-0.108 0.776-0.194zm41.644 0.065c0.107 0 0.205 0.021 0.291 0.064a0.865 0.865 0 0 0 0.324 0.066h0.226a4.87 4.87 0 0 0 0.259-0.098h2.07c0.13 0.044 0.26 0.065 0.39 0.065 0.15 0 0.3 0.022 0.452 0.065 0.15 0.065 0.323 0.173 0.518 0.324 0.215 0.13 0.41 0.29 0.582 0.485 0.194 0.194 0.356 0.4 0.485 0.615 0.13 0.216 0.195 0.42 0.195 0.614 0 0.173-0.076 0.378-0.227 0.615-0.13 0.216-0.29 0.421-0.485 0.615a2.8 2.8 0 0 1-0.648 0.485 1.2 1.2 0 0 1-0.614 0.195h-0.453a3.813 3.813 0 0 1-0.42-0.097 15.945 15.945 0 0 1-0.68-0.292 1.474 1.474 0 0 0-0.712-0.194c-0.302 0-0.453 0.13-0.453 0.388 0 0.26 0.14 0.41 0.42 0.454 0.41 0 0.842 0.032 1.295 0.096a1.88 1.88 0 0 1 1.197 0.55l0.097 0.13c0.065 0.065 0.097 0.108 0.097 0.13 0.151 0.172 0.302 0.312 0.453 0.42 0.151 0.108 0.313 0.226 0.486 0.356a0.891 0.891 0 0 1 0.323 0.42l0.097 0.292c0.043 0.13 0.086 0.27 0.13 0.42 0.064 0.151 0.118 0.292 0.161 0.421l0.097 0.291v0.42c0 0.67-0.194 1.263-0.582 1.78a24.58 24.58 0 0 1-1.165 1.457c0 0.021-0.01 0.043-0.032 0.064-0.28 0.238-0.55 0.42-0.81 0.55a5.13 5.13 0 0 1-0.71 0.324 6.665 6.665 0 0 1-0.778 0.226c-0.258 0.065-0.55 0.151-0.873 0.26h-1.262a4.093 4.093 0 0 0-0.776-0.195 9.495 9.495 0 0 1-0.777-0.097 3.7 3.7 0 0 0-0.453-0.13 5.733 5.733 0 0 1-0.453-0.161h-0.292a2.807 2.807 0 0 0-0.29-0.033 1.312 1.312 0 0 1-0.583-0.226 2.935 2.935 0 0 1-0.518-0.518 4.558 4.558 0 0 1-0.388-0.582 1.657 1.657 0 0 1-0.13-0.615c0-0.303 0.097-0.561 0.292-0.777 0.215-0.216 0.453-0.378 0.712-0.486h0.323c0.302 0 0.594 0.033 0.874 0.098 0.302 0.064 0.604 0.15 0.906 0.258h1.617c0.087 0 0.151-0.042 0.195-0.129a0.52 0.52 0 0 0 0.064-0.226c0-0.194-0.086-0.313-0.258-0.356a8.667 8.667 0 0 0-0.453-0.162c-0.195-0.065-0.302-0.108-0.324-0.13a1.6 1.6 0 0 0-0.453 0 0.86 0.86 0 0 1-0.388-0.096 16.53 16.53 0 0 0-0.485-0.227 18.25 18.25 0 0 1-0.486-0.226 3.85 3.85 0 0 1-0.712-0.583c-0.259-0.28-0.507-0.582-0.744-0.906-0.216-0.345-0.4-0.69-0.55-1.035-0.151-0.345-0.227-0.647-0.227-0.906 0-0.28 0.022-0.55 0.065-0.809 0.065-0.28 0.14-0.55 0.227-0.81 0.172-0.495 0.388-0.894 0.647-1.196 0.259-0.324 0.55-0.583 0.873-0.777a4.22 4.22 0 0 1 1.1-0.453c0.41-0.13 0.852-0.237 1.327-0.323 0.043 0 0.151-0.022 0.324-0.065 0.172-0.043 0.28-0.065 0.323-0.065 0-0.021 0.043-0.032 0.13-0.032zm-152.757 0.42c0.367 0 0.712 0.065 1.035 0.194 0.324 0.13 0.55 0.378 0.68 0.744 0.064 0.151 0.108 0.303 0.13 0.454 0.043 0.15 0.085 0.312 0.129 0.485l0.258 0.582c0.087 0.173 0.13 0.367 0.13 0.583 0 0.302-0.032 0.593-0.097 0.874-0.043 0.28-0.065 0.57-0.065 0.873 0 0.216 0.01 0.432 0.032 0.647l0.13 0.647c0.043 0.367 0.086 0.755 0.13 1.165 0.064 0.41 0.28 0.734 0.646 0.971 0.065 0.043 0.162 0.097 0.292 0.162 0.13 0.065 0.205 0.097 0.226 0.097h0.777a0.535 0.535 0 0 0 0.129-0.032 0.759 0.759 0 0 0 0.194-0.13c0.108-0.064 0.216-0.14 0.324-0.226 0.13-0.086 0.237-0.184 0.323-0.291l0.033-0.098c0.021-0.064 0.043-0.118 0.064-0.161 0.022-0.044 0.043-0.119 0.065-0.227a1.64 1.64 0 0 0 0.033-0.194v-0.582c0.021-0.151 0.032-0.28 0.032-0.389 0.021-0.107 0.032-0.183 0.032-0.226 0-0.043 0.022-0.162 0.065-0.356 0.043-0.216 0.075-0.345 0.097-0.388 0.043-0.194 0.065-0.388 0.065-0.582 0-0.216 0.022-0.421 0.065-0.615l0.129-0.518a1.46 1.46 0 0 0 0.097-0.518c0-0.15-0.021-0.28-0.065-0.388a1.435 1.435 0 0 1-0.065-0.453 2 2 0 0 1 0.13-0.68 2.26 2.26 0 0 1 0.356-0.68c0.151-0.215 0.323-0.387 0.517-0.517 0.216-0.129 0.454-0.194 0.712-0.194 0.26 0 0.529 0.054 0.81 0.162 0.28 0.108 0.539 0.259 0.776 0.453 0.259 0.194 0.464 0.42 0.615 0.68 0.172 0.237 0.259 0.495 0.259 0.776v1.974l-0.163 0.582v1.683c0.044 0.194 0.098 0.41 0.163 0.647 0.064 0.237 0.096 0.453 0.096 0.647a0.72 0.72 0 0 1-0.032 0.227 0.716 0.716 0 0 0-0.032 0.226v0.162c0.021 0.043 0.043 0.108 0.064 0.194v1.553l-0.129 0.518a2.187 2.187 0 0 1-0.874 1.456 1.86 1.86 0 0 1-1.132 0.355h-0.13l-1.1-0.323h-2.2c-0.388 0.173-0.787 0.324-1.197 0.453-0.41 0.13-0.83 0.237-1.262 0.324h-0.13c-0.301 0-0.604-0.076-0.906-0.227-0.28-0.13-0.55-0.259-0.808-0.388a3.355 3.355 0 0 1-0.744-0.583 7.522 7.522 0 0 1-0.745-0.873c-0.215-0.324-0.41-0.647-0.582-0.971-0.173-0.324-0.27-0.614-0.291-0.873v-1.1c0-0.151-0.01-0.303-0.032-0.454v-0.776a3.055 3.055 0 0 1-0.162-0.971c0-0.108 0.01-0.205 0.032-0.291 0.021-0.108 0.032-0.216 0.032-0.324v-0.194a24.974 24.974 0 0 0-0.161-1.036 9.723 9.723 0 0 1-0.065-1.067c0-0.324 0.054-0.637 0.162-0.939 0.108-0.323 0.258-0.604 0.452-0.841 0.195-0.259 0.432-0.464 0.713-0.615 0.28-0.173 0.593-0.258 0.938-0.258zm129.04 0c0.366 0 0.71 0.065 1.034 0.194 0.324 0.13 0.55 0.378 0.68 0.744 0.065 0.151 0.108 0.303 0.13 0.454 0.043 0.15 0.086 0.312 0.129 0.485l0.259 0.582c0.086 0.173 0.129 0.367 0.129 0.583 0 0.302-0.033 0.593-0.097 0.874-0.043 0.28-0.065 0.57-0.065 0.873 0 0.216 0.011 0.432 0.033 0.647l0.129 0.647c0.043 0.367 0.086 0.755 0.13 1.165 0.064 0.41 0.28 0.734 0.647 0.971 0.064 0.043 0.162 0.097 0.291 0.162 0.13 0.065 0.205 0.097 0.226 0.097h0.777a0.535 0.535 0 0 0 0.13-0.032 0.759 0.759 0 0 0 0.193-0.13c0.108-0.064 0.216-0.14 0.324-0.226 0.13-0.086 0.237-0.184 0.323-0.291l0.033-0.098a1.27 1.27 0 0 1 0.065-0.161 1.03 1.03 0 0 0 0.064-0.227 1.64 1.64 0 0 0 0.033-0.194v-0.582c0.021-0.151 0.032-0.28 0.032-0.389 0.021-0.107 0.032-0.183 0.032-0.226 0-0.043 0.022-0.162 0.065-0.356 0.043-0.216 0.076-0.345 0.097-0.388 0.043-0.194 0.065-0.388 0.065-0.582 0-0.216 0.021-0.421 0.064-0.615l0.13-0.518a1.46 1.46 0 0 0 0.097-0.518c0-0.15-0.022-0.28-0.065-0.388a1.435 1.435 0 0 1-0.065-0.453 2 2 0 0 1 0.13-0.68 2.26 2.26 0 0 1 0.356-0.68c0.15-0.215 0.323-0.387 0.518-0.517a1.36 1.36 0 0 1 0.712-0.194c0.258 0 0.528 0.054 0.808 0.162 0.28 0.108 0.54 0.259 0.777 0.453 0.259 0.194 0.464 0.42 0.615 0.68 0.173 0.237 0.258 0.495 0.258 0.776v1.974l-0.161 0.582v1.683c0.043 0.194 0.097 0.41 0.161 0.647 0.065 0.237 0.098 0.453 0.098 0.647a0.72 0.72 0 0 1-0.033 0.227 0.716 0.716 0 0 0-0.032 0.226v0.162c0.021 0.043 0.043 0.108 0.065 0.194v1.553l-0.13 0.518a2.3 2.3 0 0 1-0.13 0.485 2.186 2.186 0 0 1-0.744 0.97c-0.323 0.238-0.7 0.356-1.132 0.356h-0.13l-1.1-0.323h-2.2c-0.388 0.173-0.787 0.324-1.197 0.453-0.41 0.13-0.83 0.237-1.262 0.324h-0.129a2.01 2.01 0 0 1-0.906-0.227c-0.28-0.13-0.55-0.259-0.81-0.388a3.355 3.355 0 0 1-0.743-0.583 7.523 7.523 0 0 1-0.744-0.873c-0.216-0.324-0.41-0.647-0.583-0.971-0.172-0.324-0.27-0.614-0.291-0.873v-1.1c0-0.151-0.01-0.303-0.032-0.454v-0.776a3.055 3.055 0 0 1-0.162-0.971c0-0.108 0.01-0.205 0.032-0.291a1.62 1.62 0 0 0 0.033-0.324v-0.194a24.97 24.97 0 0 0-0.162-1.036 9.723 9.723 0 0 1-0.065-1.067c0-0.324 0.054-0.637 0.162-0.939a2.63 2.63 0 0 1 0.453-0.841c0.194-0.259 0.431-0.464 0.712-0.615 0.28-0.173 0.593-0.258 0.938-0.258zm-102.54 2.75l-0.42 0.227-1.1 1.1a0.76 0.76 0 0 0-0.162 0.26 1.846 1.846 0 0 0-0.098 0.323v1.164c0 0.216 0.022 0.4 0.066 0.55 0.107 0.368 0.27 0.745 0.485 1.133 0.237 0.367 0.528 0.636 0.873 0.809 0.108 0.065 0.248 0.14 0.42 0.227l0.292 0.129h0.388c0.022 0 0.12-0.043 0.292-0.13 0.194-0.086 0.334-0.161 0.42-0.226a1.138 1.138 0 0 0 0.55-0.938v-1.262a1.394 1.394 0 0 1-0.129-0.712 2.86 2.86 0 0 0-0.032-0.744 4.208 4.208 0 0 1-0.065-0.55 9.364 9.364 0 0 1-0.033-0.55l-0.064-0.13-0.583-0.55-0.258-0.13zm84.678 0.42a0.572 0.572 0 0 0-0.161 0.066c-0.065 0.043-0.12 0.076-0.163 0.097-0.237 0.173-0.42 0.334-0.55 0.485a1.827 1.827 0 0 0-0.323 0.615 8.662 8.662 0 0 1-0.162 0.453 0.807 0.807 0 0 0-0.064 0.356c0 0.151 0.042 0.324 0.129 0.518v1.359c0 0.021 0.032 0.13 0.097 0.323 0.065 0.173 0.119 0.313 0.162 0.421 0.043 0.13 0.13 0.27 0.259 0.42 0.129 0.152 0.27 0.292 0.42 0.421a3.4 3.4 0 0 0 0.518 0.324 1.3 1.3 0 0 0 0.518 0.13c0.41 0 0.765-0.152 1.067-0.454 0.302-0.323 0.55-0.7 0.745-1.132a5.85 5.85 0 0 0 0.42-1.36 6.71 6.71 0 0 0 0.13-1.164c0-0.173-0.011-0.345-0.033-0.518a1.078 1.078 0 0 0-0.194-0.517c-0.043-0.043-0.15-0.152-0.323-0.324-0.173-0.194-0.292-0.313-0.356-0.356a0.965 0.965 0 0 0-0.13-0.097 0.315 0.315 0 0 0-0.161-0.065zm-129.007 3.69c-0.172 0-0.302 0.108-0.388 0.324-0.086 0.194-0.13 0.355-0.13 0.485 0 0.345 0.108 0.593 0.324 0.744 0.216 0.13 0.475 0.194 0.777 0.194h0.356c0.064 0 0.097-0.021 0.097-0.064 0.043-0.044 0.118-0.12 0.226-0.227 0.13-0.108 0.216-0.184 0.259-0.227a0.46 0.46 0 0 0 0.065-0.258v-0.583a0.636 0.636 0 0 0-0.162-0.226c-0.065-0.108-0.14-0.162-0.227-0.162zm68.92 0c-0.172 0-0.302 0.108-0.388 0.324-0.086 0.194-0.13 0.355-0.13 0.485 0 0.345 0.108 0.593 0.324 0.744 0.216 0.13 0.475 0.194 0.777 0.194h0.356c0.065 0 0.097-0.021 0.097-0.064l0.226-0.227c0.13-0.108 0.216-0.184 0.26-0.227a0.46 0.46 0 0 0 0.064-0.258v-0.583a0.636 0.636 0 0 0-0.162-0.226c-0.065-0.108-0.14-0.162-0.227-0.162z"/></g></svg>