<svg xmlns="http://www.w3.org/2000/svg" width="16" height="16"><g fill="#555"><path d="M7.892 0.003c-2.11 0.03-4.945 0.802-4.897 3.28 0.05 2.587 2.917 1.662 3.15 2.719 0.035-0.045 0.088-0.082 0.125-0.125 0.197-0.214 0.395-0.388 0.593-0.594 0.312-0.352 0.636-0.679 0.967-1.031 1.106-1.178 1.154-1.25 3.796-3.25-1.035-0.62-2.258-0.965-3.297-1-0.134-0.004-0.296-0.001-0.437 0zm-1.903 1.53c0.827 0 1.497 0.672 1.497 1.5a1.499 1.499 0 1 1-1.497-1.5zm7.269 0.662C11.84 4.43 10.89 5.751 9.888 6.783c-0.639 0.657-1.163 1.311-1.622 1.78-0.839 0.891-1.938 1.942-3.15 3.094 0.063 1.469 0.81 2.746 3.244 3.218 3.898 0.756 8.027-1.824 7.611-7.061-0.178-2.248-1.405-4.281-2.713-5.619zm0.342 3.807a1 1 0 0 1 0 2 1 1 0 0 1 0-2zm-0.624 3a1 1 0 0 1 0 1.999 1 1 0 0 1 0-2zM7.986 11a1 1 0 0 1 0 2 1 1 0 0 1 0-2zm2.994 0a1 1 0 0 1 0 2 1 1 0 0 1 0-2zM0 13.5c1.552 0 1.394-1.788 2.147-2.286 0.874-0.577 1.639 0.138 1.792 0.726 0.192 0.742-0.117 1.631-1.13 1.885-1.074 0.268-2.662 0.276-2.809-0.326z"/><path d="M14.037 0.003c-1.8 1.299-4.206 3.302-6.115 5.333-0.173 0.185-0.34 0.363-0.504 0.547-0.104 0.108-0.212 0.196-0.315 0.308-0.066 0.077-0.126 0.163-0.19 0.24-1.873 2.07-3.72 4.68-4.917 6.632 2.978-2.297 4.916-4.165 6.147-5.47 0.24-0.246 0.53-0.567 0.85-0.923 1.204-1.335 2.926-3.438 5.044-6.667z"/></g></svg>