<svg xmlns="http://www.w3.org/2000/svg" width="16" height="16" enable-background="new"><defs><filter id="a" color-interpolation-filters="sRGB"><feBlend mode="darken" in2="BackgroundImage"/></filter></defs><path d="M8 1a7 7 0 1 0 0 14A7 7 0 0 0 8 1zm-0.5 1.938c0.067-0.008 0.151 0.003 0.219 0 0.008 0.031-0.049 0.145-0.125 0.312-0.486 1.061-0.514 2.304-0.063 2.969 0.082 0.12 0.157 0.235 0.157 0.25 0 0.015-0.088 0.03-0.188 0.03-0.234 0.001-0.455-0.141-0.906-0.499-0.2-0.159-0.462-0.292-0.563-0.313-0.158-0.031-0.2-0.017-0.406 0.188-0.191 0.19-0.25 0.294-0.25 0.469 0 0.663 0.787 1.19 2.25 1.5 1.987 0.42 2.476 0.799 2.531 1.843 0.069 1.31-0.628 2.298-2.156 3.063-0.182 0.091-0.298 0.127-0.375 0.156-0.034-0.003-0.06 0.003-0.094 0a1.113 1.113 0 0 1-0.03-0.312c0-0.696-0.275-1.412-0.688-1.813a5.258 5.258 0 0 0-0.688-0.5c-0.266-0.164-0.534-0.356-0.594-0.437-0.099-0.136-0.107-0.219-0.03-0.469 0.138-0.457 0.303-0.711 0.624-1 0.168-0.151 0.338-0.278 0.375-0.281 0.037-0.003-0.215-0.08-0.594-0.157-0.378-0.077-0.932-0.24-1.218-0.343-0.524-0.19-1.23-0.587-1.5-0.875-0.012-0.013-0.022-0.02-0.032-0.032a5.026 5.026 0 0 1 2.907-3.406c0.3-0.127 0.61-0.214 0.937-0.281 0.163-0.033 0.332-0.045 0.5-0.063zm4.688 2.343c0.117 0.073 0.56 1.032 0.687 1.5 0.163 0.604 0.152 1.65 0 2.25-0.058 0.229-0.132 0.442-0.156 0.469-0.025 0.027-0.114-0.127-0.219-0.313-0.105-0.185-0.44-0.58-0.719-0.874-0.804-0.849-0.93-1.292-0.594-1.97 0.17-0.34 0.91-1.118 1-1.062z" fill="#555" enable-background="new"/></svg>