<svg xmlns="http://www.w3.org/2000/svg" height="96" width="96"><path d="M96 48a48 48 0 0 1-48 48A48 48 0 0 1 0 48 48 48 0 0 1 48 0a48 48 0 0 1 48 48z"/><g font-size="56" font-weight="400" fill="#d9d9d9" font-family="Circulate BRK"><path d="M48 12c-5.008 0-9.691 0.944-14.049 2.83-4.358 1.886-8.162 4.455-11.414 7.707-3.252 3.252-5.82 7.09-7.707 11.512C12.944 38.407 12 43.057 12 48c0 5.008 0.944 9.691 2.83 14.049 1.886 4.358 4.455 8.162 7.707 11.414 3.252 3.252 7.056 5.82 11.414 7.707C38.31 83.056 42.991 84 48 84c4.943 0 9.593-0.944 13.951-2.83 4.423-1.886 8.26-4.455 11.512-7.707 3.252-3.252 5.82-7.056 7.707-11.414C83.056 57.69 84 53.009 84 48c0-4.943-0.944-9.593-2.83-13.951-1.886-4.423-4.455-8.26-7.707-11.512-3.252-3.252-7.09-5.82-11.512-7.707C57.593 12.944 52.943 12 48 12zm0.879 15.707c1.756 0 3.577 0.261 5.463 0.781 1.951 0.586 3.576 1.269 4.877 2.05 1.366 0.715 2.473 1.591 3.318 2.632 0.846 1.04 1.496 2.31 1.951 3.807 0.456 1.43 0.812 3.153 1.073 5.17 0.13 0.715 0.227 1.43 0.293 2.146 0.13 0.715 0.195 1.431 0.195 2.146 0 0.52-0.098 1.008-0.293 1.463-0.195 0.39-0.358 0.813-0.488 1.268v0.488c0 0.26-0.033 0.554-0.098 0.88a1984.653 1984.653 0 0 0 0 1.169l-0.389 2.147A23.663 23.663 0 0 0 64.684 56v0.293c0.065 0.26 0.193 0.747 0.388 1.463 0.195 0.715 0.326 1.203 0.39 1.463v0.586c0 0.78-0.193 1.528-0.583 2.244A7.377 7.377 0 0 1 63.316 64a7.51 7.51 0 0 1-2.146 1.365 5.356 5.356 0 0 1-2.242 0.489 7.08 7.08 0 0 1-3.026-0.684c-0.975-0.52-1.92-0.975-2.83-1.365-0.13-0.065-0.389-0.098-0.779-0.098h-0.684a9.877 9.877 0 0 0-3.609 0.684c-1.106 0.39-2.21 0.812-3.316 1.267l-0.977 0.488c-0.455 0.26-0.747 0.424-0.877 0.489-0.26 0.13-0.456 0.162-0.586 0.097h-1.463c-0.325-0.065-0.975-0.26-1.95-0.586a63.062 63.062 0 0 1-1.854-0.683c-0.066 0-0.196-0.033-0.391-0.098-0.13-0.065-0.195-0.13-0.195-0.195a70.297 70.297 0 0 1-3.319-2.438c-1.105-0.975-1.852-2.115-2.242-3.416a47.63 47.63 0 0 0-0.586-1.853l-0.39-1.268v-4.879c0-0.065 0.065-0.258 0.195-0.584 0.195-0.325 0.358-0.553 0.488-0.683a15.995 15.995 0 0 1 2.73-3.61 19.3 19.3 0 0 1 3.71-2.927c0.91-0.52 1.852-0.78 2.828-0.78a10.44 10.44 0 0 0 2.83-0.586 7.11 7.11 0 0 1 0.78-0.292c0.454-0.196 0.748-0.326 0.878-0.391 0.26-0.13 0.65-0.195 1.17-0.195l1.56-0.196c0.52-0.13 0.945-0.29 1.27-0.486 0.39-0.26 0.586-0.652 0.586-1.172 0-0.585-0.261-1.04-0.781-1.365a3.077 3.077 0 0 0-1.659-0.488h-6.732c-0.39 0.13-0.812 0.228-1.268 0.293-0.455 0.065-0.879 0.097-1.27 0.097-1.04 0-1.982-0.357-2.827-1.072-0.78-0.78-1.172-1.692-1.172-2.733 0-0.455 0.065-0.877 0.195-1.267 0.195-0.39 0.391-0.75 0.586-1.074L36 29.755c0.52-0.454 1.073-0.713 1.658-0.778 0.65-0.13 1.268-0.228 1.854-0.293 0.26-0.065 0.812-0.098 1.658-0.098 0.91-0.065 1.528-0.098 1.853-0.098 0.846-0.455 1.79-0.683 2.83-0.683a51.967 51.967 0 0 1 3.026-0.098z" style="text-align:start;line-height:125%"/><path d="M44.585 52.878c0 1.04 0.326 1.789 0.976 2.244 0.65 0.39 1.43 0.585 2.341 0.585h1.074c0.195 0 0.292-0.065 0.292-0.195l0.683-0.683c0.39-0.325 0.65-0.553 0.78-0.683 0.13-0.195 0.196-0.455 0.196-0.78V51.61c-0.065-0.195-0.228-0.423-0.488-0.683-0.195-0.325-0.423-0.488-0.683-0.488h-3.61c-0.52 0-0.91 0.325-1.17 0.976-0.26 0.585-0.39 1.073-0.39 1.463" style="text-align:start;line-height:125%"/></g></svg>