<svg xmlns="http://www.w3.org/2000/svg" height="96" width="96"><path d="M96 48a48 48 0 0 1-48 48A48 48 0 0 1 0 48 48 48 0 0 1 48 0a48 48 0 0 1 48 48z"/><g font-size="56" font-weight="400" fill="#d9d9d9" font-family="Circulate BRK"><path d="M48 12c-5.008 0-9.691.944-14.049 2.83-4.358 1.886-8.162 4.455-11.414 7.707-3.252 3.252-5.82 7.09-7.707 11.512C12.944 38.407 12 43.057 12 48c0 5.008.944 9.691 2.83 14.049 1.886 4.358 4.455 8.162 7.707 11.414 3.252 3.252 7.056 5.82 11.414 7.707C38.31 83.056 42.991 84 48 84c4.943 0 9.593-.944 13.951-2.83 4.423-1.886 8.26-4.455 11.512-7.707 3.252-3.252 5.82-7.056 7.707-11.414C83.056 57.69 84 53.009 84 48c0-4.943-.944-9.593-2.83-13.951-1.886-4.423-4.455-8.26-7.707-11.512-3.252-3.252-7.09-5.82-11.512-7.707C57.593 12.944 52.943 12 48 12zm.879 15.707c1.756 0 3.577.261 5.463.781 1.951.586 3.576 1.269 4.877 2.05 1.366.715 2.473 1.591 3.318 2.632.846 1.04 1.496 2.31 1.951 3.807.456 1.43.812 3.153 1.073 5.17.13.715.227 1.43.293 2.146.13.715.195 1.431.195 2.146 0 .52-.098 1.008-.293 1.463-.195.39-.358.813-.488 1.268v.488c0 .26-.033.554-.098.88a1984.653 1984.653 0 0 0 0 1.169l-.389 2.147A23.663 23.663 0 0 0 64.684 56v.293c.065.26.193.747.388 1.463.195.715.326 1.203.39 1.463v.586c0 .78-.193 1.528-.583 2.244A7.377 7.377 0 0 1 63.316 64a7.51 7.51 0 0 1-2.146 1.365 5.356 5.356 0 0 1-2.242.489 7.08 7.08 0 0 1-3.026-.684c-.975-.52-1.92-.975-2.83-1.365-.13-.065-.389-.098-.779-.098h-.684a9.877 9.877 0 0 0-3.609.684c-1.106.39-2.21.812-3.316 1.267l-.977.488c-.455.26-.747.424-.877.489-.26.13-.456.162-.586.097h-1.463c-.325-.065-.975-.26-1.95-.586a63.062 63.062 0 0 1-1.854-.683c-.066 0-.196-.033-.391-.098-.13-.065-.195-.13-.195-.195a70.297 70.297 0 0 1-3.319-2.438c-1.105-.975-1.852-2.115-2.242-3.416a47.63 47.63 0 0 0-.586-1.853l-.39-1.268v-4.879c0-.065.065-.258.195-.584.195-.325.358-.553.488-.683a15.995 15.995 0 0 1 2.73-3.61 19.3 19.3 0 0 1 3.71-2.927c.91-.52 1.852-.78 2.828-.78a10.44 10.44 0 0 0 2.83-.586 7.11 7.11 0 0 1 .78-.292c.454-.196.748-.326.878-.391.26-.13.65-.195 1.17-.195l1.56-.196c.52-.13.945-.29 1.27-.486.39-.26.586-.652.586-1.172 0-.585-.261-1.04-.781-1.365a3.077 3.077 0 0 0-1.659-.488h-6.732c-.39.13-.812.228-1.268.293-.455.065-.879.097-1.27.097-1.04 0-1.982-.357-2.827-1.072-.78-.78-1.172-1.692-1.172-2.733 0-.455.065-.877.195-1.267.195-.39.391-.75.586-1.074L36 29.755c.52-.454 1.073-.713 1.658-.778.65-.13 1.268-.228 1.854-.293.26-.065.812-.098 1.658-.098.91-.065 1.528-.098 1.853-.098.846-.455 1.79-.683 2.83-.683a51.967 51.967 0 0 1 3.026-.098z" style="text-align:start;line-height:125%"/><path d="M44.585 52.878c0 1.04.326 1.789.976 2.244.65.39 1.43.585 2.341.585h1.074c.195 0 .292-.065.292-.195l.683-.683c.39-.325.65-.553.78-.683.13-.195.196-.455.196-.78V51.61c-.065-.195-.228-.423-.488-.683-.195-.325-.423-.488-.683-.488h-3.61c-.52 0-.91.325-1.17.976-.26.585-.39 1.073-.39 1.463" style="text-align:start;line-height:125%"/></g></svg>