<svg xmlns="http://www.w3.org/2000/svg" width="16" height="16" enable-background="new"><defs><filter id="a" color-interpolation-filters="sRGB"><feBlend mode="darken" in2="BackgroundImage"/></filter></defs><g fill="#4d4d4d"><path d="M8 1.003a7 7 0 0 0-7 7 7 7 0 0 0 7 7 7 7 0 0 0 7-7 7 7 0 0 0-7-7zm0 2a5 5 0 0 1 5 5 5 5 0 0 1-5 5 5 5 0 0 1-5-5 5 5 0 0 1 5-5z"/><path style="marker:none" d="M10.406 5.187a.504.504 0 0 0-.25.157L8 7.5 6.344 5.844c-.157-.257-.568-.307-.782-.094-.213.213-.163.624.094.781l2 2a.519.519 0 0 0 .688 0l2.5-2.5c.293-.298-.025-.91-.438-.843z" color="#bebebe" overflow="visible" enable-background="accumulate"/></g></svg>