<svg height="16" width="16" xmlns="http://www.w3.org/2000/svg" enable-background="new"><defs><filter color-interpolation-filters="sRGB" id="a"><feBlend in2="BackgroundImage" mode="darken"/></filter></defs><path d="M8.031 1.062a6.963 6.963 0 00-6.969 6.97A6.963 6.963 0 008.032 15 6.963 6.963 0 0015 8.031a6.963 6.963 0 00-6.969-6.969zM5 5.003h1c0.276 0 0.538 0.1 0.719 0.282L8 6.562l1.281-1.277c0.181-0.181 0.443-0.282 0.719-0.282h1v1c0 0.277-0.1 0.538-0.281 0.72L9.437 8l1.282 1.285c0.18 0.18 0.282 0.442 0.28 0.718v1h-1c-0.275 0-0.537-0.1-0.718-0.28L8 9.436l-1.281 1.285a1.015 1.015 0 01-0.72 0.281H5v-1c0-0.276 0.101-0.537 0.282-0.718L6.562 8 5.281 6.722A1.015 1.015 0 015 6.003z" style="text-indent:0;text-transform:none;block-progression:tb" color="#555" fill="#555" enable-background="new"/></svg>
