<svg xmlns="http://www.w3.org/2000/svg" width="16" height="16" enable-background="new"><defs><filter id="a" color-interpolation-filters="sRGB"><feBlend mode="darken" in2="BackgroundImage"/></filter></defs><path d="M5 2.003l-5 6 5 6h11v-12zm2 3h1c.277 0 .526.113.707.293L10 6.59l1.293-1.293c.18-.18.43-.293.707-.293h1v1a.996.996 0 0 1-.293.707l-1.293 1.293 1.293 1.293c.18.181.293.43.293.707v1h-1a.996.996 0 0 1-.707-.293L10 9.417 8.707 10.71a.996.996 0 0 1-.707.293H7v-1c0-.277.112-.526.293-.707l1.293-1.293L7.293 6.71A.996.996 0 0 1 7 6.003z" fill="#555"/></svg>