<svg xmlns="http://www.w3.org/2000/svg" width="16" height="16" enable-background="new"><defs><filter id="a" color-interpolation-filters="sRGB"><feBlend mode="darken" in2="BackgroundImage"/></filter></defs><path d="M4.5 2.007a2.5 2.5 0 0 0 0 5c0.446 0 0.856-0.14 1.218-0.344l1.97 1.844-1.97 1.843a2.473 2.473 0 0 0-1.218-0.343 2.5 2.5 0 1 0 2.5 2.5c0-0.23-0.036-0.446-0.094-0.657L9.03 9.788l4.469 4.219H15v-1L6.906 5.163A2.46 2.46 0 0 0 7 4.507a2.5 2.5 0 0 0-2.5-2.5zm0 1.5a1 1 0 1 1 0 2 1 1 0 0 1 0-2zm9-0.5L9.562 6.725l1.313 1.282 4.125-4v-1zm-9 8.5a1 1 0 1 1 0 2 1 1 0 0 1 0-2z" fill="#555"/></svg>