<svg xmlns="http://www.w3.org/2000/svg" width="16" height="16" enable-background="new"><defs><filter id="a" color-interpolation-filters="sRGB"><feBlend mode="darken" in2="BackgroundImage"/></filter></defs><path style="marker:none" d="M8 1a7 7 0 1 0 0 14A7 7 0 0 0 8 1zM5 5.002a1 1 0 1 1 0 2 1 1 0 0 1 0-2zm6 0a1 1 0 1 1 0 2 1 1 0 0 1 0-2zM5.174 9.83A4 4 0 0 0 8 11.003a4 4 0 0 0 2.826-1.173l.707.707A4.999 4.999 0 0 1 8 12.003a4.999 4.999 0 0 1-3.533-1.466l.707-.707z" color="#bebebe" overflow="visible" fill="#555" enable-background="accumulate"/></svg>