<svg xmlns="http://www.w3.org/2000/svg" width="16" height="16" enable-background="new"><defs><filter id="a" color-interpolation-filters="sRGB"><feBlend mode="darken" in2="BackgroundImage"/></filter></defs><path d="M6.25 1l-0.154 1.844a5.5 5.5 0 0 0-1.608 0.93l-1.676-0.79-1.75 3.032 1.522 1.056A5.5 5.5 0 0 0 2.5 8a5.5 5.5 0 0 0 0.08 0.932L1.062 9.984l1.75 3.032 1.672-0.787a5.5 5.5 0 0 0 1.612 0.923L6.25 15h3.5l0.154-1.844a5.5 5.5 0 0 0 1.608-0.93l1.675 0.79 1.75-3.032-1.521-1.056A5.5 5.5 0 0 0 13.5 8a5.5 5.5 0 0 0-0.08-0.932l1.517-1.052-1.75-3.032-1.671 0.787a5.5 5.5 0 0 0-1.612-0.923L9.75 1h-3.5zM8 6a2 2 0 0 1 2 2 2 2 0 0 1-2 2 2 2 0 0 1-2-2 2 2 0 0 1 2-2z" fill="#555" enable-background="new"/></svg>