<svg xmlns="http://www.w3.org/2000/svg" width="16" height="16"><g fill="#4c5263"><path d="M563.998 264c0.004-0.224 0.113-0.53 0.304-0.704l2.162-2.117c0.233-0.243 0.787-0.292 1.011-0.157 0.08 0.002 1.135 0.632 1.288 0.866 0.617 0.946-0.344 1.827-1.174 1.547l-0.35-0.212-1.602 1.572c-0.637 0.526-1.691 0.092-1.639-0.795m11.618-11.882c0.39-0.101 0.79-0.11 1.17-0.08l-1.36 2.305a0.975 0.975 0 0 0 0.354 1.348l0.875 0.508a0.99 0.99 0 0 0 1.357-0.353l1.36-2.306c0.211 0.314 0.4 0.666 0.501 1.053 0.486 1.853-0.631 3.748-2.496 4.234-0.39 0.101-0.791 0.11-1.171 0.08l-0.802 1.116-3.41-0.023s1.519-2.577 1.627-2.595a3.5 3.5 0 0 1-0.502-1.053c-0.486-1.852 0.632-3.748 2.497-4.234" color="#000" font-family="Sans" font-weight="400" overflow="visible" style="line-height:normal;-inkscape-font-specification:Sans;text-indent:0;text-align:start;text-decoration-line:none;text-transform:none;marker:none" transform="translate(-563.997 -252)"/><path d="M567.595 252.719c-0.23 0.047-0.443 0.13-0.655 0.219-0.017 0.624 0.087 1.441-0.156 1.656-0.239 0.21-1.037 0.034-1.654-0.032a3.6 3.6 0 0 0-0.312 0.75c0.478 0.396 1.139 0.84 1.155 1.157 0.016 0.32-0.626 0.805-1.061 1.25 0.103 0.258 0.25 0.493 0.405 0.719 0.608-0.127 1.365-0.374 1.623-0.188 0.263 0.19 0.265 1.005 0.343 1.625 0.25 0.075 0.512 0.105 0.78 0.125 0.281-0.555 0.567-1.32 0.874-1.406 0.315-0.089 0.962 0.458 1.498 0.781 0.218-0.152 0.412-0.337 0.593-0.531-0.254-0.573-0.72-1.292-0.593-1.594s0.974-0.47 1.56-0.687c0.004-0.074 0.031-0.145 0.031-0.22 0-0.19-0.034-0.378-0.062-0.562-0.605-0.16-1.465-0.241-1.623-0.531-0.156-0.288 0.242-1.061 0.437-1.656a3.7 3.7 0 0 0-0.655-0.469c-0.5 0.375-1.083 0.994-1.404 0.938-0.317-0.056-0.662-0.82-0.999-1.344-0.04 0.007-0.085-0.008-0.125 0m0.624 1.875c0.931 0 1.685 0.755 1.685 1.687a1.686 1.686 0 1 1-1.685-1.687" color="#000" overflow="visible" style="marker:none" transform="translate(-563.997 -252)"/><path d="M566.994 261h9.985l0.008 6.063c0 0.492-0.472 0.937-0.995 0.937H568a0.996 0.996 0 0 1-0.999-1z" color="#bebebe" overflow="visible" style="marker:none" transform="translate(-563.997 -252)"/><path d="M579.957 263.977c-0.004-0.224-0.112-0.53-0.303-0.704l-2.162-2.117c-0.233-0.243-0.787-0.292-1.011-0.156-0.08 0.002-1.136 0.63-1.288 0.865-0.617 0.946 0.344 1.827 1.174 1.547l0.35-0.212 1.601 1.572c0.638 0.526 1.692 0.092 1.64-0.795" color="#000" font-family="Sans" font-weight="400" overflow="visible" style="line-height:normal;-inkscape-font-specification:Sans;text-indent:0;text-align:start;text-decoration-line:none;text-transform:none;marker:none" transform="translate(-563.997 -252)"/></g></svg>