<svg xmlns="http://www.w3.org/2000/svg" width="16" height="16" enable-background="new"><defs><filter id="a" color-interpolation-filters="sRGB"><feBlend mode="darken" in2="BackgroundImage"/></filter></defs><g fill="#555"><path d="M7.759 5.994l-.11 1.317a3.929 3.929 0 0 0-1.149.664L5.303 7.41l-1.25 2.165 1.087.755a3.929 3.929 0 0 0-.06.663 3.929 3.929 0 0 0 .057.665l-1.084.752 1.25 2.165 1.194-.562a3.929 3.929 0 0 0 1.151.66l.11 1.32h2.5l.11-1.317a3.929 3.929 0 0 0 1.149-.664l1.197.563 1.25-2.165-1.087-.755a3.929 3.929 0 0 0 .06-.662 3.929 3.929 0 0 0-.057-.666l1.084-.752-1.25-2.165-1.194.562a3.929 3.929 0 0 0-1.151-.66l-.11-1.32h-2.5zm1.25 3.571a1.429 1.429 0 0 1 1.428 1.429 1.429 1.429 0 0 1-1.428 1.428 1.429 1.429 0 0 1-1.429-1.428A1.429 1.429 0 0 1 9.01 9.565zM7.188 6.263l-.338-.717a2.357 2.357 0 0 0 .398-.69l.79-.066v-1.5l-.79-.066a2.357 2.357 0 0 0-.168-.363 2.357 2.357 0 0 0-.23-.328l.338-.716-1.299-.75-.452.65a2.357 2.357 0 0 0-.796.002l-.453-.653-1.299.75.338.718a2.357 2.357 0 0 0-.398.69l-.79.066v1.5l.79.066a2.357 2.357 0 0 0 .168.362 2.357 2.357 0 0 0 .23.329l-.338.716 1.299.75.452-.65a2.357 2.357 0 0 0 .796-.003l.453.653 1.299-.75zm-1.721-1.48a.857.857 0 0 1-1.17-.315.857.857 0 0 1 .313-1.17.857.857 0 0 1 1.17.313.857.857 0 0 1-.313 1.171z" enable-background="new"/></g></svg>