<svg xmlns="http://www.w3.org/2000/svg" width="16" height="16" enable-background="new"><defs><filter id="a" color-interpolation-filters="sRGB"><feBlend mode="darken" in2="BackgroundImage"/></filter></defs><g fill="#555"><path d="M7.759 5.994l-0.11 1.317a3.929 3.929 0 0 0-1.149 0.664L5.303 7.41l-1.25 2.165 1.087 0.755a3.929 3.929 0 0 0-0.06 0.663 3.929 3.929 0 0 0 0.057 0.665l-1.084 0.752 1.25 2.165 1.194-0.562a3.929 3.929 0 0 0 1.151 0.66l0.11 1.32h2.5l0.11-1.317a3.929 3.929 0 0 0 1.149-0.664l1.197 0.563 1.25-2.165-1.087-0.755a3.929 3.929 0 0 0 0.06-0.662 3.929 3.929 0 0 0-0.057-0.666l1.084-0.752-1.25-2.165-1.194 0.562a3.929 3.929 0 0 0-1.151-0.66l-0.11-1.32h-2.5zm1.25 3.571a1.429 1.429 0 0 1 1.428 1.429 1.429 1.429 0 0 1-1.428 1.428 1.429 1.429 0 0 1-1.429-1.428A1.429 1.429 0 0 1 9.01 9.565zM7.188 6.263l-0.338-0.717a2.357 2.357 0 0 0 0.398-0.69l0.79-0.066v-1.5l-0.79-0.066a2.357 2.357 0 0 0-0.168-0.363 2.357 2.357 0 0 0-0.23-0.328l0.338-0.716-1.299-0.75-0.452 0.65a2.357 2.357 0 0 0-0.796 0.002l-0.453-0.653-1.299 0.75 0.338 0.718a2.357 2.357 0 0 0-0.398 0.69l-0.79 0.066v1.5l0.79 0.066a2.357 2.357 0 0 0 0.168 0.362 2.357 2.357 0 0 0 0.23 0.329l-0.338 0.716 1.299 0.75 0.452-0.65a2.357 2.357 0 0 0 0.796-0.003l0.453 0.653 1.299-0.75zm-1.721-1.48a0.857 0.857 0 0 1-1.17-0.315 0.857 0.857 0 0 1 0.313-1.17 0.857 0.857 0 0 1 1.17 0.313 0.857 0.857 0 0 1-0.313 1.171z" enable-background="new"/></g></svg>