<svg xmlns="http://www.w3.org/2000/svg" width="16" height="16" enable-background="new"><defs><filter id="a" color-interpolation-filters="sRGB"><feBlend mode="darken" in2="BackgroundImage"/></filter></defs><path style="text-indent:0;text-align:start;line-height:normal;text-transform:none;block-progression:tb;marker:none;-inkscape-font-specification:Sans" d="M2.813 1A1 1 0 0 0 2 2v13a1 1 0 0 0 1 1h10a1 1 0 0 0 1-1V5.562a1 1 0 0 0-0.281-0.718L10.156 1.28A1 1 0 0 0 9.438 1H3a1 1 0 0 0-0.094 0 1 1 0 0 0-0.093 0zM4 3h5v3h3v8H4V3z" font-weight="400" color="#000" fill="#555" overflow="visible" enable-background="accumulate" font-family="Sans"/></svg>