<svg xmlns="http://www.w3.org/2000/svg" width="16" height="16" enable-background="new"><defs><filter id="a" color-interpolation-filters="sRGB"><feBlend mode="darken" in2="BackgroundImage"/></filter></defs><g color="#000" fill="#555"><path style="marker:none" d="M2.5 2C1.678 2 1 2.678 1 3.5S1.678 5 2.5 5 4 4.322 4 3.5 3.322 2 2.5 2zm0 4C1.678 6 1 6.678 1 7.5S1.678 9 2.5 9 4 8.322 4 7.5 3.322 6 2.5 6zm0 4c-0.822 0-1.5 0.678-1.5 1.5S1.678 13 2.5 13 4 12.322 4 11.5 3.322 10 2.5 10zM8 13V9H4.937L10 2l5.188 7H12v4z" overflow="visible" enable-background="new"/></g></svg>