/* XPM */
static char * m4a_xpm[] = {
"48 52 903 2",
"  	c None",
". 	c #000000",
"+ 	c #010100",
"@ 	c #020201",
"# 	c #030201",
"$ 	c #232323",
"% 	c #1F1F1F",
"& 	c #DADADA",
"* 	c #FFFFFF",
"= 	c #F6F6F6",
"- 	c #CFCFCF",
"; 	c #707070",
"> 	c #FFFFFE",
", 	c #FEFEFE",
"' 	c #FBFBFB",
") 	c #EDEDED",
"! 	c #C0C0C0",
"~ 	c #FFFEFE",
"{ 	c #F8F5F2",
"] 	c #EBE7E1",
"^ 	c #ECEDE8",
"/ 	c #ECEFEA",
"( 	c #E6E9E4",
"_ 	c #CED0CE",
": 	c #BCBFBC",
"< 	c #F0F0EF",
"[ 	c #FEFEFD",
"} 	c #F7F7F7",
"| 	c #D7D7D7",
"1 	c #F1F1F1",
"2 	c #B7B7B7",
"3 	c #EAEDEA",
"4 	c #8EA299",
"5 	c #697D70",
"6 	c #546459",
"7 	c #404D44",
"8 	c #2C352F",
"9 	c #4E5649",
"0 	c #D6D8D3",
"a 	c #D2D2D2",
"b 	c #AEAEAE",
"c 	c #070707",
"d 	c #FCFCFB",
"e 	c #6D7C75",
"f 	c #5A5D4C",
"g 	c #6B735F",
"h 	c #6E7B63",
"i 	c #5B6052",
"j 	c #4A5042",
"k 	c #CED0CB",
"l 	c #FEFDFD",
"m 	c #FDFDFD",
"n 	c #B8B8B8",
"o 	c #DCDCDC",
"p 	c #A4A4A3",
"q 	c #0E0E0E",
"r 	c #8A928F",
"s 	c #6A7F68",
"t 	c #4D564E",
"u 	c #4E5950",
"v 	c #585E57",
"w 	c #333530",
"x 	c #9D9C9B",
"y 	c #FCFDFE",
"z 	c #FDFEFE",
"A 	c #FDFDFE",
"B 	c #F5F5F4",
"C 	c #B5B5B5",
"D 	c #F9F9F9",
"E 	c #FCFCFC",
"F 	c #CBCBCB",
"G 	c #A5A5A5",
"H 	c #CECDCB",
"I 	c #788976",
"J 	c #C6BDBB",
"K 	c #E2E2E2",
"L 	c #E2E0DF",
"M 	c #656A65",
"N 	c #4A4B49",
"O 	c #EAEDF1",
"P 	c #CED5DD",
"Q 	c #DBE0E9",
"R 	c #DDE1E9",
"S 	c #D3D7DD",
"T 	c #D9DCE1",
"U 	c #F4F4F4",
"V 	c #ACACAC",
"W 	c #ECECEC",
"X 	c #C3C3C3",
"Y 	c #C2C2C2",
"Z 	c #C9C9C8",
"` 	c #A8A8A8",
" .	c #F6F8F6",
"..	c #A7ADA5",
"+.	c #6D7F71",
"@.	c #ECECE9",
"#.	c #FDFDFC",
"$.	c #939C9A",
"%.	c #1B2321",
"&.	c #FCFBFA",
"*.	c #F2F6F9",
"=.	c #B4BFCC",
"-.	c #7E8A9B",
";.	c #515B6F",
">.	c #50596A",
",.	c #737D8D",
"'.	c #BEC6CE",
").	c #C4CBD5",
"!.	c #BFC5D1",
"~.	c #F1F2F4",
"{.	c #F4F4F3",
"].	c #ABABAB",
"^.	c #515151",
"/.	c #474747",
"(.	c #464645",
"_.	c #464646",
":.	c #5D5D5C",
"<.	c #A9A9A9",
"[.	c #FAFAF9",
"}.	c #EDEFF0",
"|.	c #F1F5F5",
"1.	c #636E62",
"2.	c #636E5F",
"3.	c #D4D5D3",
"4.	c #FBF7F4",
"5.	c #9BA595",
"6.	c #657366",
"7.	c #001514",
"8.	c #FCFAF8",
"9.	c #FDFCFC",
"0.	c #FBF9F7",
"a.	c #E3E6EA",
"b.	c #9DACBF",
"c.	c #515A6D",
"d.	c #111828",
"e.	c #131B29",
"f.	c #0F1A2B",
"g.	c #081125",
"h.	c #0D1328",
"i.	c #C2C9D1",
"j.	c #C5CBD4",
"k.	c #A6AEBB",
"l.	c #F6F6F7",
"m.	c #FAFAFA",
"n.	c #F2F2F2",
"o.	c #F3F3F3",
"p.	c #AAAAAA",
"q.	c #A0A09F",
"r.	c #8A8A8A",
"s.	c #7A7A7A",
"t.	c #6C6C6C",
"u.	c #454545",
"v.	c #ABB3AF",
"w.	c #A8B6A3",
"x.	c #D0DBD0",
"y.	c #F2F3F0",
"z.	c #DEE1E0",
"A.	c #66736A",
"B.	c #354336",
"C.	c #556254",
"D.	c #C5C7C6",
"E.	c #F2EDEA",
"F.	c #CADAD9",
"G.	c #9BA893",
"H.	c #1B3128",
"I.	c #FCF4EF",
"J.	c #FDFBF9",
"K.	c #DDDFE4",
"L.	c #97A3B4",
"M.	c #374152",
"N.	c #0D131C",
"O.	c #1C2026",
"P.	c #262C3A",
"Q.	c #242E43",
"R.	c #202D41",
"S.	c #172538",
"T.	c #121523",
"U.	c #BABCC3",
"V.	c #9DA6B5",
"W.	c #BABEC4",
"X.	c #F8F8F7",
"Y.	c #E7E7E7",
"Z.	c #C6C6C5",
"`.	c #BABAB9",
" +	c #E7E9E9",
".+	c #63736C",
"++	c #464945",
"@+	c #5F7361",
"#+	c #CED4C3",
"$+	c #DBDEDA",
"%+	c #979999",
"&+	c #404342",
"*+	c #606E6B",
"=+	c #E5E5E3",
"-+	c #4B5F52",
";+	c #455845",
">+	c #2D362F",
",+	c #FCFAF9",
"'+	c #E4E4E7",
")+	c #97A8B9",
"!+	c #343C4A",
"~+	c #13181E",
"{+	c #1B2027",
"]+	c #1D232B",
"^+	c #1F2632",
"/+	c #212A3C",
"(+	c #242F45",
"_+	c #2A374D",
":+	c #121C2F",
"<+	c #525A67",
"[+	c #D9DDE5",
"}+	c #737C8C",
"|+	c #EAEBEB",
"1+	c #F7F7F6",
"2+	c #F6F6F5",
"3+	c #F5F5F5",
"4+	c #EDEDEB",
"5+	c #FBFBFA",
"6+	c #6C8175",
"7+	c #778673",
"8+	c #121613",
"9+	c #4C504A",
"0+	c #8FA695",
"a+	c #E2DCD8",
"b+	c #E5E6E7",
"c+	c #FBFAF9",
"d+	c #CAC6C1",
"e+	c #847F79",
"f+	c #FCFAFA",
"g+	c #ECE9E9",
"h+	c #A6B1C4",
"i+	c #232B37",
"j+	c #12171E",
"k+	c #191F27",
"l+	c #1D222B",
"m+	c #1E242B",
"n+	c #1E252F",
"o+	c #202937",
"p+	c #232F44",
"q+	c #283853",
"r+	c #253046",
"s+	c #0A1526",
"t+	c #D5D7DB",
"u+	c #727D90",
"v+	c #CFD0D2",
"w+	c #B1B1B1",
"x+	c #99A597",
"y+	c #7B9173",
"z+	c #65705D",
"A+	c #1F201B",
"B+	c #58655E",
"C+	c #F3F2F1",
"D+	c #AAB3C1",
"E+	c #525C6D",
"F+	c #0A0F17",
"G+	c #1C2129",
"H+	c #1E242A",
"I+	c #1E242C",
"J+	c #1F232D",
"K+	c #232E41",
"L+	c #2B3855",
"M+	c #2C3B57",
"N+	c #070D1F",
"O+	c #A3ABB6",
"P+	c #828EA0",
"Q+	c #B9BCC2",
"R+	c #F3F3F2",
"S+	c #F1EFEC",
"T+	c #72886D",
"U+	c #4E5849",
"V+	c #748268",
"W+	c #808080",
"X+	c #D6D9DE",
"Y+	c #5E6A7A",
"Z+	c #121621",
"`+	c #161D26",
" @	c #1D242C",
".@	c #1F242B",
"+@	c #1E2427",
"@@	c #212C3F",
"#@	c #283552",
"$@	c #2F405D",
"%@	c #0E162B",
"&@	c #59657B",
"*@	c #8A98AA",
"=@	c #AFB4BC",
"-@	c #F2F2F1",
";@	c #7D9074",
">@	c #494949",
",@	c #676D65",
"'@	c #C8CBC7",
")@	c #818B9B",
"!@	c #1B232F",
"~@	c #0F151F",
"{@	c #1B212B",
"]@	c #1E232D",
"^@	c #20252C",
"/@	c #24272C",
"(@	c #1F2429",
"_@	c #1C2228",
":@	c #1F2A3C",
"<@	c #1F2A40",
"[@	c #25344E",
"}@	c #314464",
"|@	c #15223A",
"1@	c #34445E",
"2@	c #939FB3",
"3@	c #ACB2BC",
"4@	c #F1F1F0",
"5@	c #ECEEEB",
"6@	c #B8BCB7",
"7@	c #647C65",
"8@	c #797E78",
"9@	c #C4C3C2",
"0@	c #919191",
"a@	c #DCE3EA",
"b@	c #242C3D",
"c@	c #0B101C",
"d@	c #1A212A",
"e@	c #1F242C",
"f@	c #21252C",
"g@	c #222629",
"h@	c #1C232A",
"i@	c #212B3D",
"j@	c #33415B",
"k@	c #27344B",
"l@	c #212F47",
"m@	c #374A68",
"n@	c #1A2840",
"o@	c #34445F",
"p@	c #96A3B5",
"q@	c #B3B7C0",
"r@	c #F2F2F0",
"s@	c #F0F0F0",
"t@	c #E2E7E2",
"u@	c #939E92",
"v@	c #50644E",
"w@	c #3D443E",
"x@	c #D4D2CF",
"y@	c #7F8898",
"z@	c #020A14",
"A@	c #171E28",
"B@	c #1C222A",
"C@	c #1E232B",
"D@	c #1F242D",
"E@	c #1F2228",
"F@	c #1D2328",
"G@	c #283449",
"H@	c #4A5C7B",
"I@	c #697D98",
"J@	c #4D5D79",
"K@	c #1F2D45",
"L@	c #394A6B",
"M@	c #1B2943",
"N@	c #425371",
"O@	c #95A3B5",
"P@	c #B8BDC2",
"Q@	c #EFEFEE",
"R@	c #EFEFED",
"S@	c #EDEEED",
"T@	c #EFF0F0",
"U@	c #F7FCF3",
"V@	c #313F30",
"W@	c #1C2120",
"X@	c #C9CBC9",
"Y@	c #F9F9F8",
"Z@	c #E9EEF2",
"`@	c #3C4352",
" #	c #0C111D",
".#	c #1E232E",
"+#	c #1D212A",
"@#	c #20242C",
"##	c #1B1D20",
"$#	c #263043",
"%#	c #576886",
"&#	c #8396B1",
"*#	c #7A8FAD",
"=#	c #677B99",
"-#	c #28374F",
";#	c #384A69",
">#	c #182642",
",#	c #5D708F",
"'#	c #828FA3",
")#	c #C5C7CB",
"!#	c #F1F1EF",
"~#	c #EEEEED",
"{#	c #EEEEEC",
"]#	c #9DA7A4",
"^#	c #2A3B34",
"/#	c #222725",
"(#	c #80807E",
"_#	c #EFEEEC",
":#	c #F1F0EF",
"<#	c #F4F3F2",
"[#	c #F8F8F8",
"}#	c #A8AFBB",
"|#	c #0D1522",
"1#	c #1A212E",
"2#	c #1D232C",
"3#	c #21252D",
"4#	c #1E2327",
"5#	c #171B20",
"6#	c #637593",
"7#	c #95A6BE",
"8#	c #6D7F9C",
"9#	c #617395",
"0#	c #5A6E8B",
"a#	c #2A354A",
"b#	c #3D4E6D",
"c#	c #1C2A46",
"d#	c #748DAB",
"e#	c #6D798A",
"f#	c #DEDFE0",
"g#	c #EEEEEE",
"h#	c #EDEDEC",
"i#	c #ECEAE7",
"j#	c #ADB1B0",
"k#	c #B5B9BA",
"l#	c #F1F0F0",
"m#	c #F9F8F8",
"n#	c #F7F5F4",
"o#	c #A7AAA4",
"p#	c #B7BAB4",
"q#	c #F7F6F6",
"r#	c #ECEFF1",
"s#	c #747F8E",
"t#	c #0A121E",
"u#	c #232C3A",
"v#	c #1D232E",
"w#	c #222932",
"x#	c #1B1D21",
"y#	c #1C273E",
"z#	c #C1CFE1",
"A#	c #8FA1B7",
"B#	c #6D81A0",
"C#	c #596D93",
"D#	c #455674",
"E#	c #293343",
"F#	c #4A5C7D",
"G#	c #304060",
"H#	c #7690B8",
"I#	c #5D6878",
"J#	c #BBC0CC",
"K#	c #ECECEB",
"L#	c #F6F4F3",
"M#	c #F4F1EF",
"N#	c #F7F5F3",
"O#	c #F9F8F7",
"P#	c #BBBDB9",
"Q#	c #4D5852",
"R#	c #71746D",
"S#	c #F0EAE7",
"T#	c #DBDEE3",
"U#	c #3E495B",
"V#	c #1C2435",
"W#	c #273041",
"X#	c #283040",
"Y#	c #293141",
"Z#	c #262B38",
"`#	c #1D212D",
" $	c #4A5B77",
".$	c #CFDBEB",
"+$	c #7A8FAC",
"@$	c #6C83A5",
"#$	c #4D6389",
"$$	c #35445E",
"%$	c #404D60",
"&$	c #506586",
"*$	c #4F6687",
"=$	c #6983AB",
"-$	c #343E50",
";$	c #4D5F7A",
">$	c #B8C0CC",
",$	c #F7F6F5",
"'$	c #D2D6D3",
")$	c #6C866F",
"!$	c #5A715E",
"~$	c #566758",
"{$	c #B5C1B4",
"]$	c #B2BAC8",
"^$	c #273245",
"/$	c #29354A",
"($	c #323D53",
"_$	c #364258",
":$	c #333F52",
"<$	c #343F52",
"[$	c #28354A",
"}$	c #6D7B92",
"|$	c #ACBDD2",
"1$	c #5B7297",
"2$	c #495F87",
"3$	c #3A4D6B",
"4$	c #252F44",
"5$	c #8292AC",
"6$	c #586E94",
"7$	c #6782A9",
"8$	c #37404D",
"9$	c #394860",
"0$	c #475977",
"a$	c #6E7E99",
"b$	c #EBEBEA",
"c$	c #BEC3BE",
"d$	c #CFD1CE",
"e$	c #F4F2F0",
"f$	c #7D8F84",
"g$	c #6A8667",
"h$	c #D5D8D4",
"i$	c #6B6B6B",
"j$	c #9E9E9F",
"k$	c #7A8EA8",
"l$	c #2B374D",
"m$	c #313E56",
"n$	c #34425B",
"o$	c #36425A",
"p$	c #354257",
"q$	c #39465D",
"r$	c #3B4963",
"s$	c #64738B",
"t$	c #768CAD",
"u$	c #354C72",
"v$	c #2E3D5B",
"w$	c #1D273A",
"x$	c #3D4655",
"y$	c #A7BACE",
"z$	c #607799",
"A$	c #617494",
"B$	c #191B1B",
"C$	c #445675",
"D$	c #3A4A65",
"E$	c #6C7A91",
"F$	c #ECECEA",
"G$	c #EAEAE9",
"H$	c #EAEAE8",
"I$	c #F7F6F4",
"J$	c #B5B9B6",
"K$	c #D7DCD9",
"L$	c #7B8982",
"M$	c #A9AEAD",
"N$	c #517257",
"O$	c #839284",
"P$	c #DEDEDD",
"Q$	c #D8D9D9",
"R$	c #F3F2EE",
"S$	c #51698C",
"T$	c #313F55",
"U$	c #35435B",
"V$	c #36445A",
"W$	c #35425C",
"X$	c #37465D",
"Y$	c #3D4A62",
"Z$	c #516079",
"`$	c #47536A",
" %	c #354561",
".%	c #212F46",
"+%	c #0F1624",
"@%	c #1A2231",
"#%	c #99A5B7",
"$%	c #97A8C3",
"%%	c #6A7DA0",
"&%	c #394559",
"*%	c #1C1D26",
"=%	c #35435C",
"-%	c #344159",
";%	c #8E96A2",
">%	c #E9E9E8",
",%	c #E9E9E7",
"'%	c #F6F5F5",
")%	c #70827F",
"!%	c #C6D0C3",
"~%	c #445344",
"{%	c #637161",
"]%	c #4B6C4C",
"^%	c #CAC8C8",
"/%	c #3D5271",
"(%	c #3A4863",
"_%	c #384862",
":%	c #3E4C65",
"<%	c #424D67",
"[%	c #45536C",
"}%	c #4D5A74",
"|%	c #66768F",
"1%	c #76869D",
"2%	c #2A3243",
"3%	c #151A27",
"4%	c #252C3A",
"5%	c #B2BBCE",
"6%	c #C3D0E3",
"7%	c #7B8CA9",
"8%	c #51627E",
"9%	c #171C22",
"0%	c #141920",
"a%	c #242C3A",
"b%	c #3F4B60",
"c%	c #BDC0C6",
"d%	c #EBEBE9",
"e%	c #D1D7D3",
"f%	c #4F5753",
"g%	c #27322D",
"h%	c #57655B",
"i%	c #7E8B86",
"j%	c #F0EFED",
"k%	c #3E516C",
"l%	c #3F4E68",
"m%	c #3C4A64",
"n%	c #4C5A74",
"o%	c #55637C",
"p%	c #5A6881",
"q%	c #707D95",
"r%	c #8493A6",
"s%	c #BFC8D8",
"t%	c #D8E4F0",
"u%	c #CCD5E4",
"v%	c #E2E8F1",
"w%	c #D2DAE9",
"x%	c #8D9DB7",
"y%	c #526380",
"z%	c #323E53",
"A%	c #080B11",
"B%	c #0E1217",
"C%	c #272E3A",
"D%	c #747D8A",
"E%	c #D6D7D8",
"F%	c #E8E8E7",
"G%	c #E8E8E6",
"H%	c #D2D2D0",
"I%	c #B3B7B4",
"J%	c #BFC1BF",
"K%	c #EBE8E7",
"L%	c #5A718E",
"M%	c #3F4C65",
"N%	c #38475F",
"O%	c #68768E",
"P%	c #6E7C92",
"Q%	c #78879B",
"R%	c #959FB1",
"S%	c #AAB4C1",
"T%	c #C4CBD8",
"U%	c #D7DCE6",
"V%	c #D3D9E1",
"W%	c #CCD3DC",
"X%	c #8C9CB4",
"Y%	c #52627B",
"Z%	c #38475E",
"`%	c #080E1A",
" &	c #060910",
".&	c #0E0F14",
"+&	c #4F5869",
"@&	c #B6B8BC",
"#&	c #DDDDDC",
"$&	c #E2E2E1",
"%&	c #E5E5E4",
"&&	c #E6E6E5",
"*&	c #F2F1F1",
"=&	c #F2F1F0",
"-&	c #93A8C2",
";&	c #2F3E56",
">&	c #6C7A93",
",&	c #939EAE",
"'&	c #A9B3C0",
")&	c #BDC3CB",
"!&	c #C8CCD2",
"~&	c #CDCFD5",
"{&	c #CBD2DB",
"]&	c #C7CFDC",
"^&	c #A4B2C7",
"/&	c #4C576D",
"(&	c #262C3C",
"_&	c #252D3B",
":&	c #232C3D",
"<&	c #323B4B",
"[&	c #464B5A",
"}&	c #959697",
"|&	c #BDBDBC",
"1&	c #C9C9C9",
"2&	c #D6D6D5",
"3&	c #E2E2E0",
"4&	c #E7E7E6",
"5&	c #E6E6E4",
"6&	c #C8D6E7",
"7&	c #515D76",
"8&	c #33415A",
"9&	c #66728A",
"0&	c #C0C7D2",
"a&	c #CACED7",
"b&	c #CCCDD2",
"c&	c #CBCED1",
"d&	c #C8CED3",
"e&	c #C2CDDB",
"f&	c #A2B1C5",
"g&	c #586377",
"h&	c #181F27",
"i&	c #363B40",
"j&	c #575857",
"k&	c #626261",
"l&	c #656463",
"m&	c #787877",
"n&	c #929291",
"o&	c #9F9F9D",
"p&	c #B0B0AE",
"q&	c #C3C3C2",
"r&	c #D1D1D0",
"s&	c #DCDCDB",
"t&	c #DFE4EB",
"u&	c #5F708B",
"v&	c #717E92",
"w&	c #4F5E78",
"x&	c #8391A4",
"y&	c #A9B4C2",
"z&	c #B1BBC5",
"A&	c #BAC3CE",
"B&	c #D5DDE8",
"C&	c #9EA7B9",
"D&	c #444D63",
"E&	c #1F242F",
"F&	c #2D2F33",
"G&	c #424242",
"H&	c #4D4D4D",
"I&	c #515150",
"J&	c #575756",
"K&	c #60605F",
"L&	c #747473",
"M&	c #838381",
"N&	c #989897",
"O&	c #B3B3B2",
"P&	c #C6C6C4",
"Q&	c #D3D3D2",
"R&	c #F0EFEE",
"S&	c #D0D1D3",
"T&	c #959FB4",
"U&	c #5B697E",
"V&	c #9DA7B7",
"W&	c #D8DEE4",
"X&	c #D4DAE1",
"Y&	c #DBE1E5",
"Z&	c #DBDDE3",
"`&	c #818894",
" *	c #1E293A",
".*	c #1B222B",
"+*	c #222425",
"@*	c #313131",
"#*	c #343434",
"$*	c #363635",
"%*	c #3A3A3A",
"&*	c #40403F",
"**	c #484847",
"=*	c #585858",
"-*	c #6B6B6A",
";*	c #838382",
">*	c #A5A5A3",
",*	c #BCBCBA",
"'*	c #CFCFCE",
")*	c #EFEFEF",
"!*	c #E3E3E2",
"~*	c #D9D9D8",
"{*	c #BCBCBB",
"]*	c #9DA0A4",
"^*	c #616678",
"/*	c #2F3A4F",
"(*	c #2C3649",
"_*	c #394250",
":*	c #111923",
"<*	c #010613",
"[*	c #0A0F16",
"}*	c #1F2225",
"|*	c #262628",
"1*	c #282828",
"2*	c #292828",
"3*	c #292929",
"4*	c #2D2D2C",
"5*	c #2F2F2F",
"6*	c #343433",
"7*	c #3D3D3C",
"8*	c #5C5C5C",
"9*	c #A1A1A0",
"0*	c #B9B9B8",
"a*	c #CECECC",
"b*	c #E4E4E2",
"c*	c #D7D7D5",
"d*	c #989896",
"e*	c #717174",
"f*	c #464B51",
"g*	c #2F353C",
"h*	c #23272C",
"i*	c #222529",
"j*	c #25272A",
"k*	c #2E2F31",
"l*	c #313030",
"m*	c #313130",
"n*	c #333332",
"o*	c #363636",
"p*	c #3C3C3C",
"q*	c #545454",
"r*	c #686867",
"s*	c #848483",
"t*	c #A8A8A7",
"u*	c #C0C0BE",
"v*	c #D3D3D1",
"w*	c #D9D9D7",
"x*	c #C0C0BF",
"y*	c #A3A3A2",
"z*	c #888886",
"A*	c #6E6D6C",
"B*	c #5F6061",
"C*	c #585859",
"D*	c #A3A3A1",
"E*	c #A2A2A0",
"F*	c #A2A1A0",
"G*	c #A2A2A1",
"H*	c #A3A2A1",
"I*	c #A4A3A2",
"J*	c #A4A4A2",
"K*	c #A6A6A4",
"L*	c #A9A8A6",
"M*	c #ABAAA8",
"N*	c #AFAEAB",
"O*	c #B3B1AE",
"P*	c #B5B4B1",
"Q*	c #B8B6B2",
"R*	c #BAB8B4",
"S*	c #6E6B62",
"T*	c #DEDEDC",
"U*	c #D1D1CF",
"V*	c #BFBFBE",
"W*	c #AFAFAF",
"X*	c #9F9F9F",
"Y*	c #919190",
"Z*	c #302E28",
"`*	c #2E2C27",
" =	c #2D2B26",
".=	c #312F29",
"+=	c #33312B",
"@=	c #36332D",
"#=	c #38362F",
"$=	c #3C3932",
"%=	c #403D35",
"&=	c #46423A",
"*=	c #4D4940",
"==	c #514D44",
"-=	c #535046",
";=	c #565248",
">=	c #23211D",
",=	c #EBEAE9",
"'=	c #DADAD9",
")=	c #C9C9C7",
"!=	c #B2B0AD",
"~=	c #423F37",
"{=	c #E3E2E1",
"]=	c #4E4B44",
"^=	c #403D36",
"/=	c #413E37",
"(=	c #908E8A",
"_=	c #424039",
":=	c #48443C",
"<=	c #A09F9A",
"[=	c #95938C",
"}=	c #94928C",
"|=	c #D5D5D4",
"1=	c #B6B5B1",
"2=	c #4E4A41",
"3=	c #D5D4D2",
"4=	c #514E46",
"5=	c #5E5B52",
"6=	c #504C43",
"7=	c #4C493F",
"8=	c #827F78",
"9=	c #EDECEB",
"0=	c #D9D9D6",
"a=	c #D9D8D6",
"b=	c #E7E7E5",
"c=	c #CCCBC8",
"d=	c #C4C2BF",
"e=	c #C4C3BF",
"f=	c #555147",
"g=	c #6C6860",
"h=	c #F0EFEF",
"i=	c #7C7971",
"j=	c #747169",
"k=	c #DEDDDB",
"l=	c #E1E1DF",
"m=	c #67635A",
"n=	c #F5F4F4",
"o=	c #67645B",
"p=	c #E2E1E0",
"q=	c #9B9993",
"r=	c #B9B7B3",
"s=	c #69665D",
"t=	c #716D65",
"u=	c #B8B7B2",
"v=	c #8B8881",
"w=	c #C0BEBA",
"x=	c #8C8982",
"y=	c #5D5A50",
"z=	c #5D594F",
"A=	c #E4E4E3",
"B=	c #989690",
"C=	c #98958F",
"D=	c #DDDCDA",
"E=	c #928F89",
"F=	c #E3E3E1",
"G=	c #A9A9A7",
"H=	c #8D8D8D",
"I=	c #9A9A9A",
"J=	c #8C8C8C",
"  . . . . . . . . . . . . . + @ # + . . . . . . . . . . . . . . . . . $ %                       ",
". & * * * * * * * * * * * * * * * * * * * * * * * * * * * * * * * * * = - ; .                   ",
". * * * * * * * * * * * * * * * * * * * > * * , , , , , , , , , , , , ' = ) ! .                 ",
". * * * * * * ~ * * { ] ^ / ( _ : < * * * , [ [ , , , , , , , , , , , } | * 1 2 .               ",
". * * * * * * ~ * * 3 4 5 6 7 8 9 0 * , , , , , , , , , , , , , , , , } a * * ) b c             ",
". * * * * * * * * * d e f g h i j k , , , , , l , , , , , , , , , m m = n * m * o p q           ",
". * * * * * * * * * * r s t u v w x , , , , , l , , y z A m m m m m m B C * D E * F G .         ",
". * * * * * * * * * * H I J K L M N , , , , l m z O P Q R S T ' E E E U V W X F n Y Z ` .       ",
". * * * * * * * * m  ...+.@., #.$.%., , , , &.*.=.-.;.>.,.'.).!.~.E d {.].^./.(._._.:.<..       ",
". * * * * [. .m * }.|.1.2.3.4.5.6.7.8.m 9.0.a.b.c.d.e.f.g.h.i.j.k.l.m.n.o.! p.q.r.s.t.u..       ",
". * * , n.v.w.x.y.z.A.B.C.D.E.F.G.H.I.m J.K.L.M.N.O.P.Q.R.S.T.U.V.W.X.D ' } } Y.Z.Z `.s..       ",
". * * ,  +.+++@+#+$+%+&+*+=+E -+;+>+,+,+'+)+!+~+{+]+^+/+(+_+:+<+[+}+|+} X.1+2+3+3+3+4+<..       ",
". * * , 5+6+7+8+9+0+1 a+b+c+E d+e+` f+g+h+i+j+k+l+m+n+o+p+q+r+s+t+u+v+= } 3+3+B B o.o.w+.       ",
". * , , 9.x+y+z+A+B+c+E E E E E E d C+D+E+F+G+l+m+H+I+J+K+L+M+N+O+P+Q+B B B U {.o.R+R+C .       ",
". * m m m S+T+U+V+W+X.E E d ' ' ' ' X+Y+Z+`+ @I+.@.@+@^+@@#@$@%@&@*@=@o.U {.R+R+R+-@-@C .       ",
". * m #.E ' ;@>@,@'@5+' ' ' ' 5+5+m.)@!@~@{@]@^@/@(@_@:@<@[@}@|@1@2@3@{.R+R+n.n.-@4@4@C .       ",
". * E ' 5@6@7@8@9@0@} ' 5+5+m.m.m.a@b@c@d@l+e@f@g@h@i@j@k@l@m@n@o@p@q@n.n.-@r@4@4@s@s@C .       ",
". * d [.t@u@v@w@x@{.m.m.m.m.m.[.m.y@z@A@B@C@D@E@F@G@H@I@J@K@L@M@N@O@P@-@-@r@s@s@< Q@R@C .       ",
". * ' S@T@U@V@W@X@m.m.[.[.[.D Y@Z@`@ #.#+#@#D@##$#%#&#*#=#-#;#>#,#'#)#4@!#< < Q@~#~#{#C .       ",
". * 5+3+]#^#/#(#_#[.D :#<#D X.[#}#|#1#2#3#f@4#5#6#7#8#9#0#a#b#c#d#e#f#< < g#g#~#{#h#h#C .       ",
". * m.X.i#j#k#l#m#D n#o#p#q#} r#s#t#u#v#w#^@x#y#z#A#B#C#D#E#F#G#H#I#J#|+~#~#{#h#h#W K#C .       ",
". * [.L#M#N#[#O#O#1+P#Q#R#S#1+T#U#V#W#X#Y#Z#`# $.$+$@$#$$$%$&$*$=$-$;$>${#h#4+4+K#K#K#C .       ",
". * D ,$X.Y@[#[#} '$)$!$~${$3+]$^$/$($_$:$<$[$}$|$1$2$3$4$5$6$7$8$9$0$a$4+4+K#K#b$b$b$C .       ",
". * [#[#[#n#c$d$e$f$g$h$i$j${.k$l$m$n$o$p$q$r$s$t$u$v$w$x$y$z$A$B$C$D$E$K#F$b$b$b$G$H$C .       ",
". * X.1+I$J$K$L$M$N$O$< P$Q$R$S$T$U$V$W$X$Y$Z$`$ %.%+%@%#%$%%%&%*%=%-%;%b$b$b$G$>%>%,%C .       ",
". * = = '%)%!%~%{%]%^%o.R+R+{./%(%_%:%<%[%}%|%1%2%3%4%5%6%7%8%9%0%a%b%c%d%>%>%>%,%,%,%C .       ",
". * 2+2+2+e%f%g%h%i%j%R+-@1 -@k%l%m%n%o%p%q%r%s%t%u%v%w%x%y%z%A%B%C%D%E%F%F%>%,%F%F%G%C .       ",
". * 3+U {.{.H%I%J%K%-@4@4@4@4@L%M%N%O%P%Q%R%S%T%U%V%W%X%Y%Z%`% &.&+&@&#&$&%&&&F%G%G%G%C .       ",
". * {.{.R+n.*&=&=&4@4@4@s@< Q@-&M%;&>&,&'&)&!&~&{&]&^&/&(&_&:&<&[&}&|&1&2&#&3&4&4&4&5&C .       ",
". * n.-@-@-@-@4@4@s@< < < ~#b$6&7&8&9&0&a&b&c&d&e&f&g&h&i&j&k&l&m&n&o&p&q&r&s&4&5&5&%&C .       ",
". * -@-@-@4@< < < < < Q@R@G$%&t&u&v&w&x&y&z&A&B&C&D&E&F&G&H&I&J&K&L&M&N&O&P&Q&%&%&%&%&C .       ",
". * 1 4@< < j%R&Q@Q@R@~#h#&&P$S&T&U&V&W&X&Y&Z&`& *.*+*@*#*$*%*&***=*-*;*>*,*'*%&=+=+=+C .       ",
". * < < )*Q@Q@Q@R@~#~#K#G$!*~*{*]*^*/*(*_*:*<*[*}*|*1*2*3*4*5*6*7*>@8*m&9*0*a*=+=+=+b*C .       ",
". * Q@Q@Q@Q@R@~#{#K#K#K#>%!*c*,*d*e*f*g*h*i*j*k*l*m*5*@*@*n*o*p*u.q*r*s*t*u*v*=+=+b*b*C .       ",
". * Q@Q@~#~#{#K#K#K#K#b$>%!*w*x*y*z*A*B*C*D*E*E*E*E*F*E*G*H*I*J*K*L*M*N*O*P*Q*R*R*R*R*R*R*R*R*S*",
". * ~#~#4+K#K#F$b$b$b$b$H$5&T*U*V*W*X*N&Y*M*Z*Z*`* = =`*Z*.=+=@=#=$=%=&=*===-=;=;=;=;=;=;=;=;=>=",
". * 4+K#F$,=,=,=b$d%d%G$H$G%b*'=H%)=x*{*0*!=~=* {=]=^=/=(=* * *=_=:=<=* * ;=;=;=[=* * }=;=;=;=>=",
". * F$b$b$b$d%G$G$G$G$H$H$G%5&3&#&~*|=Q&Q&1=2=* * 3=4=5={.* * 6=7=8=9=* * ;=;=;=0=* * a=;=;=;=>=",
". * d%d%G$G$G$G$G$H$H$G%G%G%G%b=b=b=b=b=&&R*;=* c=* d=e=c=* * f=g=h=i=* * ;=;=j=* k=l=* j=;=;=>=",
". * G$G$G$H$H$>%>%F%G%G%G%b=b=b=b=b=5&5&=+R*;=* m={.* n=o=* * ;=p=q=;=* * ;=;=r=< s=t=X.u=;=;=>=",
". * H$>%>%>%>%F%G%G%4&4&b=b=b=b=5&5&=+=+=+R*;=* ;=v=w=x=;=* * ;=* * * * * * y=B * * * * B z=;=>=",
". * >%>%>%G%4&4&4&4&b=b=b=&&&&5&=+=+=+=+A=R*;=* ;=;=;=;=;=* * ;=;=;=;=* * ;=B=* 3=;=;=3=* C=;=>=",
". * ,%4&4&4&4&b=b=b=&&&&&&5&=+=+=+A=A=b*b*R*;=* ;=;=;=;=;=* * ;=;=;=;=* * ;=D=* E=;=;=E=* D=;=>=",
". * 4&b=b=b=&&&&&&&&5&5&=+A=A=A=b*b*b*b*b*R*;=;=;=;=;=;=;=;=;=;=;=;=;=;=;=;=;=;=;=;=;=;=;=;=;=>=",
". * b=&&&&&&5&5&5&5&A=A=b*b*b*b*b*b*b*b*b*S*>=>=>=>=>=>=>=>=>=>=>=>=>=>=>=>=>=>=>=>=>=>=>=>=>=>=",
". * &&5&5&5&5&%&A=b*b*b*b*b*b*b*b*b*b*F=F=F=G=G=p p p y*y*y*y*D*D*D*D*D*D*D*D*D*D*D*D*H=.       ",
". & 5&5&5&=+b*b*b*b*b*b*b*b*b*b*!*F=F=F=F=F=F=F=F=3&3&3&3&l=l=l=l=l=l=l=l=l=l=l=l=l=l=I=.       ",
". Y C C C C C C C C C C C C C C C C C C C C C C C C C C C C C C C C C C C C C C C C I=J=.       ",
"  . . . . . . . . . . . . . . . . . . . . . . . . . . . . . . . . . . . . . . . . . . . .       ",
"                                                                                                ",
"                                                                                                ",
"                                                                                                "};
