/* XPM */
static char * amidi_plug_icon_xpm[] = {
"48 48 347 2",
"  	c #FFFFFF",
". 	c #FAFAFA",
"+ 	c #7E7E7E",
"@ 	c #414141",
"# 	c #646464",
"$ 	c #858585",
"% 	c #848484",
"& 	c #828282",
"* 	c #838383",
"= 	c #868686",
"- 	c #878787",
"; 	c #888888",
"> 	c #898989",
", 	c #8A8A8A",
"' 	c #595959",
") 	c #4C4C4C",
"! 	c #ADADAD",
"~ 	c #F8F8F8",
"{ 	c #575757",
"] 	c #090909",
"^ 	c #040404",
"/ 	c #000000",
"( 	c #010101",
"_ 	c #030303",
": 	c #050505",
"< 	c #080808",
"[ 	c #0C0C0C",
"} 	c #2B2B28",
"| 	c #494944",
"1 	c #4B4B46",
"2 	c #3C3C37",
"3 	c #49493F",
"4 	c #4C4C41",
"5 	c #4F4F44",
"6 	c #4B4D46",
"7 	c #444A4A",
"8 	c #4A4D47",
"9 	c #4E4E42",
"0 	c #4D4D41",
"a 	c #43433D",
"b 	c #4F4F49",
"c 	c #4D4D47",
"d 	c #181816",
"e 	c #060606",
"f 	c #020202",
"g 	c #0E0E0E",
"h 	c #929292",
"i 	c #515151",
"j 	c #0A0A0A",
"k 	c #0D0D0D",
"l 	c #40403C",
"m 	c #6E6E66",
"n 	c #717169",
"o 	c #7C7C6A",
"p 	c #CFCFA9",
"q 	c #D1D1AA",
"r 	c #D3D3AC",
"s 	c #C8CAA9",
"t 	c #AFB8A3",
"u 	c #B0B9A4",
"v 	c #C4C8A9",
"w 	c #D7D7AE",
"x 	c #D8D8AE",
"y 	c #D7D7AD",
"z 	c #727265",
"A 	c #6C6C63",
"B 	c #21211F",
"C 	c #070707",
"D 	c #8D8D8D",
"E 	c #3F3F3B",
"F 	c #63635C",
"G 	c #65655E",
"H 	c #7A7A68",
"I 	c #D4D4AD",
"J 	c #D6D6AF",
"K 	c #D8D8B0",
"L 	c #D9D9B1",
"M 	c #DADAB2",
"N 	c #DBDBB2",
"O 	c #DCDCB2",
"P 	c #DCDCB3",
"Q 	c #DDDDB2",
"R 	c #DCDCB1",
"S 	c #727263",
"T 	c #6A6A62",
"U 	c #696960",
"V 	c #2F2F2C",
"W 	c #0B0B0B",
"X 	c #3D3D39",
"Y 	c #5B5B55",
"Z 	c #5E5E57",
"` 	c #747463",
" .	c #C5C5A1",
"..	c #C7C7A2",
"+.	c #C8C8A4",
"@.	c #CACAA5",
"#.	c #CBCBA6",
"$.	c #CCCCA6",
"%.	c #CBCBA5",
"&.	c #CACAA3",
"*.	c #6F6F5F",
"=.	c #5A5A53",
"-.	c #585851",
";.	c #121212",
">.	c #181818",
",.	c #252523",
"'.	c #363631",
").	c #383833",
"!.	c #373732",
"~.	c #3C3C36",
"{.	c #3A3A34",
"].	c #383832",
"^.	c #35352F",
"/.	c #31312C",
"(.	c #1B1B19",
"_.	c #111111",
":.	c #101010",
"<.	c #525252",
"[.	c #131313",
"}.	c #151515",
"|.	c #191919",
"1.	c #1A1A1A",
"2.	c #171717",
"3.	c #0F0F0F",
"4.	c #1C1C1C",
"5.	c #1D1D1D",
"6.	c #1E1E1E",
"7.	c #8F8F8F",
"8.	c #5F5F5F",
"9.	c #323232",
"0.	c #272727",
"a.	c #313131",
"b.	c #1F1F1F",
"c.	c #333333",
"d.	c #3D3D3D",
"e.	c #2C2C2C",
"f.	c #383838",
"g.	c #474747",
"h.	c #404040",
"i.	c #141414",
"j.	c #444444",
"k.	c #242424",
"l.	c #5B5B5B",
"m.	c #464646",
"n.	c #5C5C5C",
"o.	c #3E3E3E",
"p.	c #717171",
"q.	c #212121",
"r.	c #353535",
"s.	c #5A5A5A",
"t.	c #6C6C6C",
"u.	c #4A4A4A",
"v.	c #202020",
"w.	c #737373",
"x.	c #5D5D5D",
"y.	c #777777",
"z.	c #161616",
"A.	c #909090",
"B.	c #7D7D7D",
"C.	c #797979",
"D.	c #818181",
"E.	c #222222",
"F.	c #7F7F7F",
"G.	c #2A2A2A",
"H.	c #979797",
"I.	c #6B6B6B",
"J.	c #6D6D6D",
"K.	c #F9F9F9",
"L.	c #7B7B7B",
"M.	c #454545",
"N.	c #727272",
"O.	c #626262",
"P.	c #1B1B1B",
"Q.	c #7C7C7C",
"R.	c #919191",
"S.	c #808080",
"T.	c #555555",
"U.	c #686868",
"V.	c #676767",
"W.	c #7A7A7A",
"X.	c #959595",
"Y.	c #8E8E8E",
"Z.	c #2E2E2E",
"`.	c #FBFBFB",
" +	c #656565",
".+	c #585858",
"++	c #616161",
"@+	c #5E5E5E",
"#+	c #6A6A6A",
"$+	c #696969",
"%+	c #6F6F6F",
"&+	c #989898",
"*+	c #2F2F2F",
"=+	c #363636",
"-+	c #757575",
";+	c #8B8B8B",
">+	c #282828",
",+	c #6E6E6E",
"'+	c #9A9A9A",
")+	c #232323",
"!+	c #787878",
"~+	c #9B9B9B",
"{+	c #707070",
"]+	c #9C9C9C",
"^+	c #303030",
"/+	c #9D9D9D",
"(+	c #A6A6A6",
"_+	c #939393",
":+	c #4F4F4F",
"<+	c #8C8C8C",
"[+	c #949494",
"}+	c #999999",
"|+	c #9E9E9E",
"1+	c #747474",
"2+	c #C9C9C9",
"3+	c #666666",
"4+	c #969696",
"5+	c #9F9F9F",
"6+	c #A0A0A0",
"7+	c #D4D4D4",
"8+	c #A3A3A3",
"9+	c #767676",
"0+	c #A1A1A1",
"a+	c #A5A5A5",
"b+	c #A8A8A8",
"c+	c #A9A9A9",
"d+	c #A7A7A7",
"e+	c #B1B1B1",
"f+	c #DBDBDB",
"g+	c #FCFCFC",
"h+	c #BBBBBB",
"i+	c #B9B9B9",
"j+	c #BEBEBE",
"k+	c #C1C1C1",
"l+	c #C4C4C4",
"m+	c #CACACA",
"n+	c #AAAAAA",
"o+	c #BFBFBF",
"p+	c #D6D6D6",
"q+	c #B2B2B2",
"r+	c #E5E5E5",
"s+	c #E7E7E7",
"t+	c #ACACAC",
"u+	c #EDEDED",
"v+	c #F0F0F0",
"w+	c #F2F2F2",
"x+	c #F3F3F3",
"y+	c #B7B7B7",
"z+	c #F4F4F4",
"A+	c #F5F5F5",
"B+	c #E6E6E6",
"C+	c #D9D9D9",
"D+	c #CECECE",
"E+	c #EBEBEB",
"F+	c #D3D3D3",
"G+	c #636363",
"H+	c #CBCBCB",
"I+	c #565656",
"J+	c #C3C3C3",
"K+	c #AEAEAE",
"L+	c #A2A2A2",
"M+	c #B4B4B4",
"N+	c #C6C6C6",
"O+	c #C7C7C7",
"P+	c #CCCCCC",
"Q+	c #C2C2C2",
"R+	c #E3E3E3",
"S+	c #ABABAB",
"T+	c #B5B5B5",
"U+	c #BCBCBC",
"V+	c #C5C5C5",
"W+	c #CDCDCD",
"X+	c #AFAFAF",
"Y+	c #B3B3B3",
"Z+	c #BABABA",
"`+	c #CFCFCF",
" @	c #D1D1D1",
".@	c #D5D5D5",
"+@	c #D2D2D2",
"@@	c #D7D7D7",
"#@	c #FDFDFD",
"$@	c #BDBDBD",
"%@	c #C0C0C0",
"&@	c #C8C8C8",
"*@	c #D8D8D8",
"=@	c #DFDFDF",
"-@	c #E2E2E2",
";@	c #E9E9E9",
">@	c #ECECEC",
",@	c #EEEEEE",
"'@	c #F6F6F6",
")@	c #F7F7F7",
"!@	c #DADADA",
"~@	c #D0D0D0",
"{@	c #DCDCDC",
"]@	c #FEFEFE",
"^@	c #DDDDDD",
"/@	c #E0E0E0",
"(@	c #E4E4E4",
"_@	c #EAEAEA",
":@	c #E8E8E8",
"<@	c #F1F1F1",
"[@	c #373737",
"}@	c #393939",
"|@	c #3A3A3A",
"1@	c #3B3B3B",
"2@	c #3C3C3C",
"3@	c #3F3F3F",
"4@	c #434343",
"5@	c #494949",
"6@	c #4D4D4D",
"7@	c #545454",
"8@	c #4B4B4B",
"9@	c #FEFCFC",
"0@	c #E3DCDC",
"a@	c #D08585",
"b@	c #CF8484",
"c@	c #D38D8D",
"d@	c #F7EAEA",
"e@	c #EFEFEF",
"f@	c #AD7575",
"g@	c #AC2929",
"h@	c #AD2929",
"i@	c #BA5454",
"j@	c #F1E4E4",
"k@	c #F9F8F8",
"l@	c #B0B0B0",
"m@	c #B6B6B6",
"n@	c #B54242",
"o@	c #AB2424",
"p@	c #AB2525",
"q@	c #AE2D2D",
"r@	c #B8B8B8",
"s@	c #FFFEFE",
"t@	c #D59292",
"u@	c #AB2828",
"v@	c #AB2727",
"w@	c #C16060",
"x@	c #E9DEDE",
"y@	c #E5E1E1",
"z@	c #E5E2E2",
"A@	c #E6E2E2",
"B@	c #CCB0B0",
"C@	c #BF9090",
"D@	c #C09191",
"E@	c #D0BBBB",
"F@	c #E1E1E1",
"    . + @ # $ $ $ $ $ % & * * % $ = = - $ = = $ * % % % $ $ $ = - - ; - - ; > > > , ' ) !       ",
"    ~ { ] ^ / / / / ( ( _ : < [ } | 1 2 3 4 5 6 7 7 8 5 9 0 0 a b c d e ^ f ( ( / / ] g h       ",
"    ~ i / / / / / / ( f _ e j k l m n o p q r s t u v w x x y z m A B C ^ f ( / / / / _ D       ",
"    ~ i / / / / / / ( f ^ C j g E F G H I J K L M N O P Q O R S T U V < : f ( / / / / _ D       ",
"    ~ i / / / / / / ( f ^ C W g X Y Z `  ...+.@.#.$.$.$.$.%.&.*.=.-.} < : _ f ( / / / _ D       ",
"    ~ i / / / / / ( f f : < j g ;.;.>.,.'.).!.'.~.).'.{.].^./.(._.:.j < e _ f ( / / ( _ D       ",
"    ~ <.( / / / / / ( / f ^ ( e ] ( k _.[.}.k C |.[ j 1.|.|.>.: ] 2.f [ }./ 3.4.5.6.[.^ 7.      ",
"    ~ 8._.f [.9.0.a.[./ b._./ 0.:.( c.d.e.f.[ g f.j _.g.d.h.@ e i.j.^ 4.j.f k.l.m.n.o.C 7.      ",
"    ~ p.q._ r.p.s.t.k./ u.q./ n.v._ w.= x.y.|.|.y.z.6.A.B.C.$ :.1.D.j E.F.C G.H.I.H.J.g D       ",
"    K.L.6.f M.N.' I.6./ <.5./ O.6.e y.- 8.L.P.|.Q.|.4.A.- N.7.}.3., :.;.D g i.H.w.R.& 1.D       ",
"    . S.2.( T.N.' U.>./ s.|._ V.P.< W.; U.+ 4.|.& P.>.A.7.p.X.v.j , 5.< D b.e Y.& & A.Z.D       ",
"    `.L._.(  +N..+++i._ @+z.e #+|.W B., $+D.6.|.= b.>.7.X.%+&+Z.C D.*+_ F.=+f L.h -+H.M.Y.      ",
"    . w.k < J.N.' l._.< @+i.[ #+|.:.D.;+#+$ E.v., >+E.Y.&+,+'+h.)+L.j.2.!+) [ t.~+J.~+8.h       ",
"    . C.6.b.p.{+n.s.|.i.++4.i.%+q.;.% D t., G.2.Y.9.i.R.~+,+]+T.^+L.@+}.C.$+k {+/+I./++ (+      ",
"    `._+:+.+N.t.++y.%+n.B.y.s.% & n.<+Y.,+[+h O.}+H. +]+/+{+|+]+1+]+]+U.~+]+V.]+|+J./+}+2+      ",
"    `.]+8.V.w.3+I.!+%+I.+ C.#+= $ #+Y.A.%+4+&+{+~+/+N.|+5+1+5+5+p.|+|+p.]+|+w.}+5+C.R.6+7+      ",
"    `.]+@+I.w.8.w.!+U.w.F.-+p.- % %+7.R.p.H.'+-+/+5+-+6+6+1+6+6+1+|+5+C.4+5+* <+5+7.L.6+7+      ",
"    `.8+U.9+y.8.W.Q.3+B.* w.L.<+- y.X.H.y.|+0+C.a+(+L.b+c+L.b+b+S.5+d+<+A.d+'+* (+8+% e+f+      ",
"    g+h+% c+i+7.j+k+H.l+m+n+o+p+m+q+r+s+t+u+v+e+w+x+y+z+z+i+z+A+l+B+z+C+D+z+E+i+x+v+a+F+E+      ",
"    `.5+G+1+-+n.!+W.O.Q.S.,+W.$ F.1+D D p._+4+9+'+'+C.~+~+C.}+H.L.7.[+; D.R.X.{+;+~+I.7.H+      ",
"    . 7.' T.<.i <.T.I+' n.@+8.++ + +V.t.J.%+w.N.N.9+1+w.-+1+p.p.-+p.{+Q.,+J.D.t.t.$ -+Q.J+      ",
"    `.K+> A.4+&+'+/+5+L+a+d+n+K+e+M+y+h+j+k+J+N+O+2+m+H+P+P+P+H+H+H+m+m+m+m+m+m+m+m+Q+k+R+      ",
"    g+M+h [+4+&+~+/+5+L+a+b+S+K+q+T+i+U+o+Q+V+O+2+m+P+P+W+W+W+P+P+P+H+H+m+m+m+m+m+m+m+H+s+      ",
"    g+M+h [+H.}+~+/+6+8+(+c+t+X+Y+y+Z+j+k+l+O+2+H+P+W+D+`+`+D+D+W+W+P+H+H+H+H+m+H+H+H+P+s+      ",
"    g+y+H.H.H.}+]+5+0+a+b+S+X+Y+y+h+o+J+N+m+P+`+ @F+7+.@.@.@.@7+F+F++@+@+@ @ @ @ @+@@@C+u+      ",
"    #@m+Y+y+Z+$@%@Q+V+&@H+D+ @.@*@f+=@-@B+;@>@,@v+w+x+z+A+'@'@)@~ ~ K.K.. . . `.`.g+'@A+.       ",
"    #@!@H+~@p+C+{@=@-@B+;@>@v+z+)@`.#@]@                                                        ",
"    #@m+Y+%@P+`++@7+@@!@^@/@(@s+_@,@w+A+)@K.K.. . . . . `.`.`.`.`.`.`.`.`.`.`.`.`.`.:@-@<@      ",
"    . S.m.d.=+[@f.}@f.f.}@|@1@2@d.o.3@3@3@@ 4@m.5@6@<.T..+l.x.x.x.x.n.s..+I+7@<.6@8@{ n.T+      ",
"    ~ 7@^ f / / / / / / / / / / / / / / ( f ^ < [ 3.[.z.|.P.5.6.6.5.P.>.}._.g j e _ ^ < 7.      ",
"    ~ i / / / / / / / / / / / / / / / / / ( _ : < [ g _.[.}.2.2.2.z.i.;.:.k ] e _ f / _ D       ",
"    ~ i / / / / / / / / / / / / / / / / / ( ( f ^ C j k g :._._._._.3.g W < : _ f ( / _ D       ",
"    ~ i / / / / / / / / / / / / / / / / / / / ( f ^ : < j W [ [ [ [ W ] C ^ _ f ( / / _ D       ",
"    ~ .+] ^ / / / / / / / / / / / / / / / / / / / / ( f f f _ _ _ _ f f ( ( / / / / j :.h       ",
"    `.(+B.y.p.8.i p.p.9+9+9+9+9+9+9+9+9+9+9+9+9+9+L.L.L.L.L.L.L.L.L.Q.F.F.D.* * * * = ; 2+      ",
"            ]@e+=@                                                                              ",
"            '@|+#@            .             '@                9@                                ",
"            B+t+    ]@!@'@  N+<+{@A+*@]@  F+D R+    s+_+4+t+0@a@b@a@a@a@a@a@a@a@c@d@            ",
"            !@y+    >@D.T+e@D n+U+j+C.. `.S+a+k+  K.L+}+o+, f@g@g@g@g@g@g@g@g@h@i@j@k@k@]@      ",
"            -@b+)@  W+h+[+{@l@~+~@6+D `.;@S+(+p+  !@m@]@  , n@o@p@p@p@p@p@p@p@q@, , , , ,       ",
"            . D L+p+q+W.r@p+t.}+v+I.r@  (@# d+#@g+b+(@  s@t@u@v@v@v@v@v@v@v@u@w@x@y@z@A@k@      ",
"              ,@X+; -+g.$ % N.S+A.t.X+O+R.%+J+`+d+l@]@    B@C@D@D@D@D@D@D@D@D@E@                ",
"                  x+;@{@2+f+^@(+m+F@'+[+J+{@A.D.L+)@                                            ",
"                                    K.)@    A+<@`.                                              ",
"                                                                                                ",
"                                                                                                ",
"                                                                                                ",
"                                                                                                "};
