/* XPM */
static char * amidiplug_xpm_midiicon[] = {
"48 52 257 2",
"  	c None",
". 	c #000000",
"+ 	c #232323",
"@ 	c #1F1F1F",
"# 	c #DADADA",
"$ 	c #FFFFFF",
"% 	c #F6F6F6",
"& 	c #CFCFCF",
"* 	c #707070",
"= 	c #FEFEFE",
"- 	c #FBFBFB",
"; 	c #EDEDED",
"> 	c #C0C0C0",
", 	c #F7F7F7",
"' 	c #D7D7D7",
") 	c #F1F1F1",
"! 	c #B7B7B7",
"~ 	c #D2D2D2",
"{ 	c #AEAEAE",
"] 	c #070707",
"^ 	c #646464",
"/ 	c #FDFDFD",
"( 	c #B8B8B8",
"_ 	c #DCDCDC",
": 	c #A4A4A3",
"< 	c #0E0E0E",
"[ 	c #3A3A3A",
"} 	c #454545",
"| 	c #4E4E4E",
"1 	c #BFBFBF",
"2 	c #F5F5F4",
"3 	c #B5B5B5",
"4 	c #F9F9F9",
"5 	c #FCFCFC",
"6 	c #CBCBCB",
"7 	c #A5A5A5",
"8 	c #505050",
"9 	c #424242",
"0 	c #434343",
"a 	c #959595",
"b 	c #F4F4F4",
"c 	c #ACACAC",
"d 	c #ECECEC",
"e 	c #C3C3C3",
"f 	c #C2C2C2",
"g 	c #C9C9C8",
"h 	c #A8A8A8",
"i 	c #787878",
"j 	c #464646",
"k 	c #FCFCFB",
"l 	c #F4F4F3",
"m 	c #ABABAB",
"n 	c #515151",
"o 	c #474747",
"p 	c #464645",
"q 	c #5D5D5C",
"r 	c #A9A9A9",
"s 	c #777777",
"t 	c #FDFDFC",
"u 	c #FAFAFA",
"v 	c #F2F2F2",
"w 	c #F3F3F3",
"x 	c #AAAAAA",
"y 	c #A0A09F",
"z 	c #8A8A8A",
"A 	c #7A7A7A",
"B 	c #6C6C6C",
"C 	c #5A5A5A",
"D 	c #A4A4A4",
"E 	c #A2A2A2",
"F 	c #9F9F9F",
"G 	c #949494",
"H 	c #484848",
"I 	c #818181",
"J 	c #A3A3A3",
"K 	c #A1A1A1",
"L 	c #B2B2B2",
"M 	c #393939",
"N 	c #9C9C9C",
"O 	c #767676",
"P 	c #E7E7E7",
"Q 	c #C6C6C5",
"R 	c #BABAB9",
"S 	c #6B6B6B",
"T 	c #FAFAF9",
"U 	c #F8F8F7",
"V 	c #686867",
"W 	c #F6F6F5",
"X 	c #F5F5F5",
"Y 	c #EDEDEB",
"Z 	c #9D9D9D",
"` 	c #A3A3A2",
" .	c #535353",
"..	c #393938",
"+.	c #9B9B9A",
"@.	c #9E9E9E",
"#.	c #676767",
"$.	c #B1B1B1",
"%.	c #6A6A6A",
"&.	c #FBFBFA",
"*.	c #F9F9F8",
"=.	c #383838",
"-.	c #676766",
";.	c #F3F3F2",
">.	c #B3B3B3",
",.	c #A1A1A0",
"'.	c #A2A2A1",
").	c #747474",
"!.	c #AFAFAE",
"~.	c #666666",
"{.	c #F2F2F1",
"].	c #696969",
"^.	c #F8F8F8",
"/.	c #F1F1F0",
"(.	c #939392",
"_.	c #9C9C9B",
":.	c #9E9E9D",
"<.	c #777776",
"[.	c #F2F2F0",
"}.	c #F0F0F0",
"|.	c #F7F7F6",
"1.	c #F0F0EF",
"2.	c #EFEFEE",
"3.	c #EFEFED",
"4.	c #F3F3F1",
"5.	c #F1F1EF",
"6.	c #EEEEED",
"7.	c #EEEEEC",
"8.	c #383837",
"9.	c #373737",
"0.	c #EEEEEE",
"a.	c #EDEDEC",
"b.	c #EFEFEF",
"c.	c #ECECEB",
"d.	c #373736",
"e.	c #F0F0EE",
"f.	c #363636",
"g.	c #EBEBEA",
"h.	c #606060",
"i.	c #B0B0AF",
"j.	c #8F8F8F",
"k.	c #B6B6B6",
"l.	c #999998",
"m.	c #9D9D9C",
"n.	c #9B9B99",
"o.	c #999999",
"p.	c #9A9A99",
"q.	c #B1B1B0",
"r.	c #8A8A89",
"s.	c #616160",
"t.	c #EAEAE9",
"u.	c #EAEAE8",
"v.	c #ECECEA",
"w.	c #555555",
"x.	c #E9E9E8",
"y.	c #E9E9E7",
"z.	c #9F9F9E",
"A.	c #737373",
"B.	c #B5B5B4",
"C.	c #737372",
"D.	c #B4B4B3",
"E.	c #8C8C8B",
"F.	c #AAAAA9",
"G.	c #959594",
"H.	c #979797",
"I.	c #A7A7A7",
"J.	c #989898",
"K.	c #898988",
"L.	c #626261",
"M.	c #363635",
"N.	c #EBEBE9",
"O.	c #E8E8E7",
"P.	c #E8E8E6",
"Q.	c #9B9B9B",
"R.	c #8D8D8C",
"S.	c #717170",
"T.	c #979796",
"U.	c #B3B3B2",
"V.	c #898989",
"W.	c #70706E",
"X.	c #929291",
"Y.	c #949493",
"Z.	c #616161",
"`.	c #E7E7E6",
" +	c #E6E6E4",
".+	c #6D6D6C",
"++	c #9A9A9A",
"@+	c #969696",
"#+	c #989897",
"$+	c #969695",
"%+	c #6C6C6B",
"&+	c #E5E5E4",
"*+	c #E7E7E5",
"=+	c #E5E5E3",
"-+	c #E4E4E2",
";+	c #B1B1AF",
">+	c #353535",
",+	c #BAB8B4",
"'+	c #6E6B62",
")+	c #565248",
"!+	c #23211D",
"~+	c #4F4F4F",
"{+	c #949492",
"]+	c #A7A7A5",
"^+	c #989896",
"/+	c #A5A5A3",
"(+	c #E6E5E4",
"_+	c #625E55",
":+	c #9C9A94",
"<+	c #D8D7D5",
"[+	c #89867F",
"}+	c #626262",
"|+	c #E6E6E5",
"1+	c #D7D6D3",
"2+	c #5A564D",
"3+	c #656259",
"4+	c #F5F4F4",
"5+	c #69655C",
"6+	c #D5D4D1",
"7+	c #8F8D86",
"8+	c #A7A7A6",
"9+	c #888887",
"0+	c #868685",
"a+	c #353534",
"b+	c #959593",
"c+	c #CCCBC8",
"d+	c #C4C2BF",
"e+	c #C4C3BF",
"f+	c #716D65",
"g+	c #E3E2E0",
"h+	c #67635A",
"i+	c #67645B",
"j+	c #59564C",
"k+	c #6E6E6D",
"l+	c #919190",
"m+	c #ACACAB",
"n+	c #6D6D6D",
"o+	c #90908F",
"p+	c #8B8881",
"q+	c #C0BEBA",
"r+	c #8C8982",
"s+	c #706D64",
"t+	c #E0DFDD",
"u+	c #E4E4E3",
"v+	c #DDDDDB",
"w+	c #68645C",
"x+	c #D3D2D0",
"y+	c #8B8882",
"z+	c #F7F6F6",
"A+	c #85827B",
"B+	c #E3E3E1",
"C+	c #A3A3A1",
"D+	c #8D8D8D",
"E+	c #E3E3E2",
"F+	c #E2E2E0",
"G+	c #E1E1DF",
"H+	c #8C8C8C",
"  . . . . . . . . . . . . . . . . . . . . . . . . . . . . . . . . . . + @                       ",
". # $ $ $ $ $ $ $ $ $ $ $ $ $ $ $ $ $ $ $ $ $ $ $ $ $ $ $ $ $ $ $ $ $ % & * .                   ",
". $ $ $ $ $ $ $ $ $ $ $ $ $ $ $ $ $ $ $ $ $ $ = = = = = = = = = = = = - % ; > .                 ",
". $ $ $ $ $ $ $ $ $ $ $ $ $ $ $ $ $ $ $ $ = = = = = = = = = = = = = = , ' $ ) ! .               ",
". $ $ $ $ $ $ $ $ $ $ $ $ $ $ $ $ $ $ = = = = = = = = = = = = = = = = , ~ $ $ ; { ]             ",
". $ $ $ $ $ $ $ $ $ $ $ $ $ $ $ $ ^ > = = = = = = = = = = = = = = / / % ( $ / $ _ : <           ",
". $ $ $ $ $ $ $ $ $ $ $ $ $ $ = = [ } | 1 = = = = = = = [ [ [ [ [ [ / 2 3 $ 4 5 $ 6 7 .         ",
". $ $ $ $ $ $ $ $ $ $ $ $ = = = = [ > 8 9 0 a = = = / / [ [ [ [ [ [ 5 b c d e 6 ( f g h .       ",
". $ $ $ $ $ $ $ $ $ $ [ = = = = = [ = = 1 i j / / / / / [ 5 5 5 5 [ k l m n o p j j q r .       ",
". $ $ $ $ $ $ $ $ = = [ = = = = = [ = / / / s / t 5 5 5 [ 5 5 k - [ u v w > x y z A B } .       ",
". $ $ $ $ $ C D D D E [ F D D D E [ D G G G H G I J J K [ J J J L M N E J O , P Q g R A .       ",
". $ $ $ $ = S = = = = [ / / / / / [ 5 5 5 5 [ 5 k - - - [ - T 4 4 M 4 , U V W X X X Y r .       ",
". $ $ = = = S E D D F [ D D J s [ [ J J J K [ Z J J `  .M N E F M ..+.F @.#.X 2 2 w w $..       ",
". $ = = / / %./ / / t [ 5 5 5 [ [ [ - - - - [ &.u u M M M *.*.=.=.=.% 2 2 -.b l w ;.;.3 .       ",
". $ / / / / %.K J @.[ [ >.J J s [ K J ` ,.M M N E '.O M @.F F ).=.!.@.@.@.~.;.;.;.{.{.3 .       ",
". $ / t 5 5 ].5 5 [ [ [ - - - &.&.u u u M M M *.^.^.^., W W W 2 b b l l ;.~.v v {././.3 .       ",
". $ 5 5 5 5 (.J J s [ s ` ` E E E E E E _.M @.K K y F F F F @.:.:.:.Z Z Z <.[././.}.}.3 .       ",
". $ k k - - - - &.&.u u u u u T T 4 ^.^.^.U U |.X X X 2 l l l w ;.{.{.{.{.[.}.}.1.2.3.3 .       ",
". $ - - - &.&.u u u u T T T 4 4 ^.^.U U , % X X 2 2 l w w w 4.{.{.{.) /.5.1.1.2.6.6.7.3 .       ",
". $ &.u u u u u T T 4 M M M M M M , , % 2 2 2 b l w ;.;.8.9.9.9.9.9.5.1.1.0.0.6.7.a.a.3 .       ",
". $ u u T T 4 4 4 4 4 M M M M M ..W W 2 b b b ;.;.;.;.{.9.9.9.9.9.9.b.6.6.6.7.a.a.d c.3 .       ",
". $ T 4 4 4 4 *.*.^., M , |.|.W =.b b l l ;.;.9.v {././.9./.1.1.2.d.6.6.7.a.Y Y c.c.c.3 .       ",
". $ 4 *.*.*.^.^., |.|...|.X X b =.l l ;.v v {.9.[./.}.}.9.e.2.6.6.f.a.a.Y Y c.c.g.g.g.3 .       ",
". $ ^.^.^.^.h.i.y F j.=.k.:.:.:.=.l.Z m.m.m.n.9.o._._.l.9.p.o.o.q.f.r.l.l.s.g.g.g.t.u.3 .       ",
". $ U |.|.|.#.% % 2 2 =.l w w ;.9.{.{.) /.5.1.9.1.1.2.7.f.a.a.a.Y f.v.v.g.w.g.t.x.x.y.3 .       ",
". $ % % % W #.).z.A.=.=.B.Z C.9.9.D.N _._._.E.9.F.p.G.f.f.H.l.G f.f.I.J.K.L.x.x.y.y.y.3 .       ",
". $ W W W 2 ~.b ;.8.8.8.{.) 9.9.9.5.1.b.2.2.2.d.7.a.f.f.f.c.v.f.f.M.N.x.x.L.x.y.O.O.P.3 .       ",
". $ X b l l ~.l.Z Q.9.R.N N m 9.E.+.+.+.+.S.f.f.T.U.V.f.l.J.J.W.M.X.T.T.Y.Z.O.O.P.P.P.3 .       ",
". $ l l ;.v ~.{.{./././.}.1.1.2.2.2.0.a.a.f.f.f.c.c.g.g.g.N.N.x.y.y.O.O.O.^ P.`.`.`. +3 .       ",
". $ v {.{.{..+N N N _._._.+.+.++p.o.o.l.l.V.f.@+J.J.J.#+#+T.T.T.T.@+$+$+$+%+`.`. + +&+3 .       ",
". $ {.{.{./.1.1.1.1.1.2.3.6.6.a.a.Y c.v.v.g.g.g.g.t.t.x.y.y.y.P.P.P.P.`.`.*+ +&+&+&+&+3 .       ",
". $ ) /.1.1.1.1.2.2.3.6.6.a.a.c.c.v.v.g.g.N.t.t.t.x.y.y.O.P.P.P.P.`.*+*+ + +&+&+=+=+=+3 .       ",
". $ 1.1.b.2.2.2.3.6.6.f.c.c.c.v.v.f.N.N.t.t.t.x.y.O.O.P.P.P.P.*+*+*+ + +&+=+=+=+=+=+-+3 .       ",
". $ 2.2.2.2.3.6.7.c.c.f.f.c.v.N.N.M.M.t.u.O.O.O.O.P.P.P.`.*+*+*+ + +=+=+=+=+=+=+=+-+-+3 .       ",
". $ 2.2.6.6.7.c.c.c.c.f.$.f.N.N.t.M.;+>+O.O.O.,+,+,+,+,+,+,+,+,+,+,+,+,+,+,+,+,+,+,+,+,+,+,+,+'+",
". $ 6.6.Y c.c.v.g.g.g.f.N.N.u.u.u.>+O.P.P.`.`.,+)+)+)+)+)+)+)+)+)+)+)+)+)+)+)+)+)+)+)+)+)+)+)+!+",
". $ Y c.v.g.~+I.J.#+{+M.]+^+^+@+$+>+/+$+$+$+$+,+)+$ (+_+)+)+:+$ $ )+$ $ $ $ )+$ $ = W <+[+)+)+!+",
". $ v.g.g.g.}+t.t.t.t.M.u.P.P.P.P.>+`.*+*+*+|+,+)+$ $ 1+2+3+4+$ $ )+)+$ $ )+)+$ $ )+5+6+$ 7+)+!+",
". $ N.N.t.t.}+8+#+9+M.>+/+/+$+0+a+a+: $+a G.b+,+)+$ c+$ d+e+c+$ $ )+)+$ $ )+)+$ $ )+)+f+$ g+)+!+",
". $ t.t.t.u.L.x.x.>+>+>+P.*+*+a+a+a+ + +=+=+=+,+)+$ h+l $ 4+i+$ $ )+)+$ $ )+)+$ $ )+)+j+$ 4 )+!+",
". $ u.x.x.x.L.Y.Y.k+>+l+$+$+m+n+a+o+b+b+b+b+X.,+)+$ )+p+q+r+)+$ $ )+)+$ $ )+)+$ $ )+)+s+$ t+)+!+",
". $ x.x.x.P.Z.`.`.`.*+*+*+|+|+ +=+=+=+=+u+u+v+,+)+$ )+)+)+)+)+$ $ )+)+$ $ )+)+$ $ )+w+x+= y+)+!+",
". $ y.`.`.`.%+$+$+$+a a a G.b+b+b+Y.Y.{+{+{+$+,+)+$ )+)+)+)+)+$ $ )+$ $ $ $ )+$ $ = z+1+A+)+)+!+",
". $ `.*+*+*+|+|+|+|+ + +=+u+u+u+-+-+-+-+-+-+-+,+)+)+)+)+)+)+)+)+)+)+)+)+)+)+)+)+)+)+)+)+)+)+)+!+",
". $ *+|+|+|+ + + + +u+u+-+-+-+-+-+-+-+-+-+B+B+'+!+!+!+!+!+!+!+!+!+!+!+!+!+!+!+!+!+!+!+!+!+!+!+!+",
". $ |+ + + + +&+u+-+-+-+-+-+-+-+-+-+-+B+B+B+B+B+: : : ` ` ` ` C+C+C+C+C+C+C+C+C+C+C+C+D+.       ",
". #  + + +=+-+-+-+-+-+-+-+-+-+-+E+B+B+B+B+B+B+B+B+F+F+F+F+G+G+G+G+G+G+G+G+G+G+G+G+G+G+++.       ",
". f 3 3 3 3 3 3 3 3 3 3 3 3 3 3 3 3 3 3 3 3 3 3 3 3 3 3 3 3 3 3 3 3 3 3 3 3 3 3 3 3 ++H+.       ",
"  . . . . . . . . . . . . . . . . . . . . . . . . . . . . . . . . . . . . . . . . . . . .       ",
"                                                                                                ",
"                                                                                                ",
"                                                                                                "};
