/* XPM */
static char * gnome_mime_audio_ogg_xpm[] = {
"48 52 521 2",
"  	c None",
". 	c #000000",
"+ 	c #232323",
"@ 	c #1F1F1F",
"# 	c #DADADA",
"$ 	c #FFFFFF",
"% 	c #F6F6F6",
"& 	c #CFCFCF",
"* 	c #707070",
"= 	c #FEFEFE",
"- 	c #FBFBFB",
"; 	c #EDEDED",
"> 	c #C0C0C0",
", 	c #F7F7F7",
"' 	c #D7D7D7",
") 	c #F1F1F1",
"! 	c #B7B7B7",
"~ 	c #E2E2E2",
"{ 	c #D2D2D2",
"] 	c #AEAEAE",
"^ 	c #070707",
"/ 	c #ABABAB",
"( 	c #FDFDFD",
"_ 	c #FCFCFC",
": 	c #B8B8B8",
"< 	c #FAFAFA",
"[ 	c #DCDCDC",
"} 	c #A4A4A3",
"| 	c #0E0E0E",
"1 	c #B1B1B1",
"2 	c #BEBEBE",
"3 	c #F5F5F5",
"4 	c #E5E5E5",
"5 	c #C3C3C3",
"6 	c #6F6F6F",
"7 	c #2A2A2A",
"8 	c #2C2C2C",
"9 	c #2E2E2E",
"0 	c #5B5B5B",
"a 	c #F9F9F9",
"b 	c #F5F5F4",
"c 	c #B5B5B5",
"d 	c #CBCBCB",
"e 	c #A5A5A5",
"f 	c #A9A9A9",
"g 	c #CDCDCD",
"h 	c #E9E9E9",
"i 	c #525253",
"j 	c #FBFCFD",
"k 	c #F3F6F9",
"l 	c #B7CADC",
"m 	c #90A5B9",
"n 	c #7E92A5",
"o 	c #7E90A3",
"p 	c #667684",
"q 	c #657583",
"r 	c #53606D",
"s 	c #292A2A",
"t 	c #FAFAF9",
"u 	c #F4F4F4",
"v 	c #ACACAC",
"w 	c #ECECEC",
"x 	c #C2C2C2",
"y 	c #C9C9C8",
"z 	c #A8A8A8",
"A 	c #D5D5D5",
"B 	c #BCBCBC",
"C 	c #BDBDBD",
"D 	c #F0F0F0",
"E 	c #90969B",
"F 	c #181818",
"G 	c #212121",
"H 	c #363636",
"I 	c #292929",
"J 	c #293036",
"K 	c #4D5964",
"L 	c #444445",
"M 	c #FCFCFB",
"N 	c #F4F4F3",
"O 	c #515151",
"P 	c #474747",
"Q 	c #464645",
"R 	c #464646",
"S 	c #5D5D5C",
"T 	c #E1E1E1",
"U 	c #D1D1D1",
"V 	c #959BA2",
"W 	c #282828",
"X 	c #858585",
"Y 	c #595959",
"Z 	c #2D2D2D",
"` 	c #555F68",
" .	c #F8F8F8",
"..	c #F2F2F2",
"+.	c #F3F3F3",
"@.	c #AAAAAA",
"#.	c #A0A09F",
"$.	c #8A8A8A",
"%.	c #7A7A7A",
"&.	c #6C6C6C",
"*.	c #454545",
"=.	c #B0B0B0",
"-.	c #939393",
";.	c #F7F9FB",
">.	c #1B1C1C",
",.	c #333333",
"'.	c #7F7F7F",
").	c #BABABA",
"!.	c #636363",
"~.	c #5A6976",
"{.	c #202020",
"].	c #EFEFEF",
"^.	c #F8F8F7",
"/.	c #E7E7E7",
"(.	c #C6C6C5",
"_.	c #BABAB9",
":.	c #6E6E6E",
"<.	c #A5BACE",
"[.	c #C1C1C1",
"}.	c #373737",
"|.	c #718498",
"1.	c #F7F7F6",
"2.	c #F6F6F5",
"3.	c #EDEDEB",
"4.	c #D3D3D3",
"5.	c #989898",
"6.	c #6D6D6D",
"7.	c #94A9C0",
"8.	c #353535",
"9.	c #8195A8",
"0.	c #505050",
"a.	c #DADAD9",
"b.	c #DDDDDC",
"c.	c #F1F1F0",
"d.	c #EDEDEC",
"e.	c #E3E3E3",
"f.	c #C9C9C9",
"g.	c #979797",
"h.	c #9B9B9B",
"i.	c #FDFDFC",
"j.	c #9C9EA0",
"k.	c #A5B4C2",
"l.	c #94A6B9",
"m.	c #5A5D5F",
"n.	c #C4D1DE",
"o.	c #A5B5C3",
"p.	c #8291A2",
"q.	c #1A1D21",
"r.	c #DEDEDE",
"s.	c #F2F2F1",
"t.	c #DDDDDD",
"u.	c #F3F3F2",
"v.	c #A1A1A1",
"w.	c #676869",
"x.	c #FBFCFC",
"y.	c #CFD7DF",
"z.	c #B2BFCC",
"A.	c #C6C6C6",
"B.	c #D9D9D9",
"C.	c #BBBBBB",
"D.	c #808589",
"E.	c #F5F7FA",
"F.	c #F3F5F8",
"G.	c #AFBBC6",
"H.	c #8F9DAB",
"I.	c #4B535C",
"J.	c #E0E0DF",
"K.	c #E0E0E0",
"L.	c #808283",
"M.	c #FAFBFC",
"N.	c #FBFBFC",
"O.	c #9C9C9C",
"P.	c #888888",
"Q.	c #EAEAEA",
"R.	c #8D9399",
"S.	c #F6F7FA",
"T.	c #F7F8FA",
"U.	c #D1DAE3",
"V.	c #B6C3CE",
"W.	c #494F55",
"X.	c #E6E6E5",
"Y.	c #EFEFEE",
"Z.	c #DEDEDD",
"`.	c #DBDBDA",
" +	c #E7E7E6",
".+	c #AFAFAF",
"++	c #656769",
"@+	c #DAE1E8",
"#+	c #DEE4E9",
"$+	c #F5F7F8",
"%+	c #EBEBEB",
"&+	c #262626",
"*+	c #929292",
"=+	c #999999",
"-+	c #828282",
";+	c #82898F",
">+	c #C2CCD5",
",+	c #F3F5F7",
"'+	c #B7C1CB",
")+	c #404548",
"!+	c #E4E4E3",
"~+	c #F2F2F0",
"{+	c #E4E4E4",
"]+	c #E6E6E6",
"^+	c #ADADAD",
"/+	c #FBFBFA",
"(+	c #54585C",
"_+	c #C2CEDA",
":+	c #C4CCD5",
"<+	c #C4CBD2",
"[+	c #DCAF00",
"}+	c #FFDC00",
"|+	c #878787",
"1+	c #6E747B",
"2+	c #99A5AF",
"3+	c #9DA9B4",
"4+	c #98A4AF",
"5+	c #88939E",
"6+	c #232426",
"7+	c #E2E2E1",
"8+	c #ECECEB",
"9+	c #F0F0EF",
"0+	c #DCDCDB",
"a+	c #EFEFED",
"b+	c #B2B2B2",
"c+	c #D8D8D8",
"d+	c #60666D",
"e+	c #A6B2BD",
"f+	c #A3ADB5",
"g+	c #FFF793",
"h+	c #FFF148",
"i+	c #FFE957",
"j+	c #EFE3A3",
"k+	c #482D00",
"l+	c #26282B",
"m+	c #626F7B",
"n+	c #616C78",
"o+	c #4F5A63",
"p+	c #1C2022",
"q+	c #CFCFCE",
"r+	c #DFDFDF",
"s+	c #EAEAE9",
"t+	c #EEEEED",
"u+	c #EEEEEC",
"v+	c #E9E9E8",
"w+	c #5F6871",
"x+	c #666D75",
"y+	c #151616",
"z+	c #995A00",
"A+	c #FFF461",
"B+	c #FFF1C1",
"C+	c #FFF1B5",
"D+	c #FFE600",
"E+	c #E1B500",
"F+	c #593800",
"G+	c #30383F",
"H+	c #CBC7C0",
"I+	c #0B0D0E",
"J+	c #B9B9B9",
"K+	c #CCCCCB",
"L+	c #DEDEDC",
"M+	c #EEEEEE",
"N+	c #DADAD8",
"O+	c #E8E8E8",
"P+	c #A6A6A5",
"Q+	c #EBC200",
"R+	c #FFEB84",
"S+	c #FFE71C",
"T+	c #AF6800",
"U+	c #C99300",
"V+	c #610000",
"W+	c #E3E1DC",
"X+	c #ADADAC",
"Y+	c #E3E3E2",
"Z+	c #D7D7D6",
"`+	c #D3D3D2",
" @	c #F9F9F8",
".@	c #D0D0D0",
"+@	c #DBDBDB",
"@@	c #D4D4D3",
"#@	c #C4C4C4",
"$@	c #C8C8C8",
"%@	c #DBC975",
"&@	c #D8AA00",
"*@	c #D9AB00",
"=@	c #B57300",
"-@	c #C08500",
";@	c #E3B800",
">@	c #2D0000",
",@	c #E7E4E1",
"'@	c #AFAFAE",
")@	c #C2C2C1",
"!@	c #D2D2D0",
"~@	c #E5E5E4",
"{@	c #E0E0DE",
"]@	c #D2D2D1",
"^@	c #D6D6D5",
"/@	c #E8E8E7",
"(@	c #A7A7A7",
"_@	c #E9D677",
":@	c #CC9A00",
"<@	c #DFB300",
"[@	c #E7BE00",
"}@	c #EDD700",
"|@	c #EEE3AD",
"1@	c #666666",
"2@	c #8D8D8D",
"3@	c #E6E4E0",
"4@	c #BAB5AB",
"5@	c #76736D",
"6@	c #CDCDCC",
"7@	c #CECECC",
"8@	c #D1D1D0",
"9@	c #EBEBEA",
"0@	c #B6B6B5",
"a@	c #3F3F3F",
"b@	c #818181",
"c@	c #E4E3E3",
"d@	c #B2B2B1",
"e@	c #C5C5C3",
"f@	c #D5D5D4",
"g@	c #EAEAE8",
"h@	c #D4D4D4",
"i@	c #757575",
"j@	c #676767",
"k@	c #CACACA",
"l@	c #DBD8D3",
"m@	c #CDC9C2",
"n@	c #454544",
"o@	c #BABAB8",
"p@	c #CBCBC9",
"q@	c #D8D8D7",
"r@	c #E1E1E0",
"s@	c #E9E9E7",
"t@	c #969696",
"u@	c #646464",
"v@	c #7D7C79",
"w@	c #F7F6F6",
"x@	c #79776F",
"y@	c #252525",
"z@	c #B3B3B2",
"A@	c #C5C5C5",
"B@	c #C7C7C7",
"C@	c #2F2F2F",
"D@	c #AFACA6",
"E@	c #161615",
"F@	c #A5A5A4",
"G@	c #B7B7B6",
"H@	c #E6E6E4",
"I@	c #E8E8E6",
"J@	c #B0B0AF",
"K@	c #B4B4B3",
"L@	c #BFBFBE",
"M@	c #656564",
"N@	c #898989",
"O@	c #8E8E8E",
"P@	c #191919",
"Q@	c #E4E2DF",
"R@	c #87847C",
"S@	c #3A3A3A",
"T@	c #B1B1B0",
"U@	c #C3C3C2",
"V@	c #E7E7E5",
"W@	c #CECECD",
"X@	c #D9D9D8",
"Y@	c #B6B6B6",
"Z@	c #F3F3F0",
"`@	c #ABABAA",
" #	c #BFBFBF",
".#	c #DDDDDB",
"+#	c #BCBCBB",
"@#	c #C8C8C7",
"##	c #B3B3B3",
"$#	c #EFEDEB",
"%#	c #706E67",
"&#	c #242424",
"*#	c #A8A8A6",
"=#	c #E5E5E3",
"-#	c #B9B9B8",
";#	c #B3B3B1",
">#	c #6B6B6B",
",#	c #F5F4F3",
"'#	c #999998",
")#	c #CCCCCA",
"!#	c #D9D9D7",
"~#	c #DFDFDE",
"{#	c #151515",
"]#	c #9F9F9F",
"^#	c #7D7A73",
"/#	c #A3A3A2",
"(#	c #B8B8B6",
"_#	c #CACAC8",
":#	c #E3E3E1",
"<#	c #414141",
"[#	c #E1E0DF",
"}#	c #F0EFED",
"|#	c #9A9791",
"1#	c #1B1B1A",
"2#	c #A1A1A0",
"3#	c #C6C6C4",
"4#	c #D4D4D2",
"5#	c #E2E2E0",
"6#	c #E4E4E2",
"7#	c #EBEBE9",
"8#	c #565656",
"9#	c #959595",
"0#	c #FCF8E8",
"a#	c #F9F3DB",
"b#	c #1C0000",
"c#	c #F7EFC6",
"d#	c #A49F8F",
"e#	c #F2F1F0",
"f#	c #E5E3E0",
"g#	c #AFAFAD",
"h#	c #C1C1C0",
"i#	c #D1D1CF",
"j#	c #DBDBD9",
"k#	c #D9D2BB",
"l#	c #FFEA66",
"m#	c #D8B400",
"n#	c #B4B4B4",
"o#	c #BAB8B4",
"p#	c #6E6B62",
"q#	c #CCC9C2",
"r#	c #FAF3D8",
"s#	c #FFED92",
"t#	c #FBD700",
"u#	c #F7D300",
"v#	c #D7B300",
"w#	c #616161",
"x#	c #565248",
"y#	c #23211D",
"z#	c #ECECEA",
"A#	c #D4CDA8",
"B#	c #FFE400",
"C#	c #F2CF00",
"D#	c #EECB00",
"E#	c #D7B400",
"F#	c #7B7870",
"G#	c #D5D4D1",
"H#	c #D4D3D1",
"I#	c #7A776F",
"J#	c #827F78",
"K#	c #DBDAD8",
"L#	c #E1E1DF",
"M#	c #DFDFDD",
"N#	c #A7A5A0",
"O#	c #7C7C7C",
"P#	c #DED086",
"Q#	c #EAC700",
"R#	c #C9A700",
"S#	c #D9D9D6",
"T#	c #8D8A84",
"U#	c #5C584F",
"V#	c #8E8B85",
"W#	c #D8D7D5",
"X#	c #DDDCDA",
"Y#	c #908E87",
"Z#	c #605C53",
"`#	c #6B685F",
" $	c #CBCAC7",
".$	c #E7DDAA",
"+$	c #FBE100",
"@$	c #DCB900",
"#$	c #947300",
"$$	c #666259",
"%$	c #67635A",
"&$	c #69665D",
"*$	c #141414",
"=$	c #A99500",
"-$	c #DCB800",
";$	c #D3B000",
">$	c #CFAC00",
",$	c #AF8A00",
"'$	c #836300",
")$	c #333332",
"!$	c #575349",
"~$	c #57544A",
"{$	c #8D8D8C",
"]$	c #50504F",
"^$	c #7C7C7B",
"/$	c #787877",
"($	c #7B7B79",
"_$	c #6D6D6C",
":$	c #5C5C5B",
"<$	c #656158",
"[$	c #59564C",
"}$	c #C4C4C2",
"|$	c #A9A9A8",
"1$	c #A7A7A6",
"2$	c #A7A7A5",
"3$	c #AAAAA9",
"4$	c #AEAEAC",
"5$	c #D9D8D6",
"6$	c #8D8A83",
"7$	c #8E8C85",
"8$	c #6D6A61",
"9$	c #C7C7C6",
"0$	c #C1C1BF",
"a$	c #BCBCBA",
"b$	c #BBBBBA",
"c$	c #BDBDBC",
"d$	c #7B7770",
"e$	c #D5D4D2",
"f$	c #EDECEB",
"g$	c #7C7971",
"h$	c #D7D6D3",
"i$	c #F3F2F2",
"j$	c #FDFCFC",
"k$	c #BFBDBA",
"l$	c #CBCBCA",
"m$	c #CDCDCB",
"n$	c #CFCFCD",
"o$	c #D0D0CE",
"p$	c #D8D8D6",
"q$	c #A2A2A1",
"r$	c #A1A19F",
"s$	c #A0A09E",
"t$	c #A3A3A1",
"u$	c #9A9A9A",
"v$	c #8C8C8C",
"  . . . . . . . . . . . . . . . . . . . . . . . . . . . . . . . . . . + @                       ",
". # $ $ $ $ $ $ $ $ $ $ $ $ $ $ $ $ $ $ $ $ $ $ $ $ $ $ $ $ $ $ $ $ $ % & * .                   ",
". $ $ $ $ $ $ $ $ $ $ $ $ $ $ $ $ $ $ $ $ $ $ = = = = = = = = = = = = - % ; > .                 ",
". $ $ $ $ $ $ $ $ $ $ $ $ $ $ $ $ $ $ $ $ = = = = = = = = = = = = = = , ' $ ) ! .               ",
". $ $ $ $ $ $ $ ~ $ $ $ $ $ $ $ $ $ $ = = = = = = = = = = = = = = = = , { $ $ ; ] ^             ",
". $ $ $ $ $ $ $ / $ $ $ $ $ $ $ $ = = = = ( ( _ _ _ _ _ ( ( = = = ( ( % : < ( $ [ } |           ",
". $ $ $ $ $ $ $ 1 2 $ $ $ $ $ = 3 4 5 6 . . . + 7 8 9 8 0 a < _ ( ( ( b c < a _ $ d e .         ",
". $ $ $ $ $ $ $ 1 f 2 g $ = = , h i j k l m n n o p q r r s , t _ _ _ u v w 5 d : x y z .       ",
". $ $ $ $ $ $ $ 1 A B C C = = D i j E . . . . F G 9 H I J K L u _ _ M N / O P Q R R S f .       ",
". $ $ $ $ $ $ $ 1 = = T C = = U j V . W . . . . . . X Y Z J ` 0 u  .a ..+.> @.#.$.%.&.*..       ",
". $ $ $ $ $ $ = =.= = = T = = -.;.>.Z . . . . ,.'.).'.. !.. ~.{.].b ^.a - , , /.(.y _.%..       ",
". $ $ $ $ = = = =.= = ( ( ( ( :.<.. . . . . . . . : [.. . }.|.9 /.D % % ^.1.2.3 3 3 3.f .       ",
". $ $ = 4./ 5./ f ( ( ( ( a % 6.7.. . . . . . . . . Z . . 8.9.0.a.b.c.u , 3 3 b d.+.+.1 .       ",
". $ = = z e.f.g.h.( i._ <  .j.k.l.. . . . . . . . . . . m.n.o.p.q.r.; s.b b u N t.u.u.c .       ",
". $ ( ( z v g.g.v._ _ _ - w.x.y.z.. . A.B.$.. . C.f.. . D.E.F.G.H.I./.D +.N u.u.r.J.s.c .       ",
". $ ( i.{ f g.f K._ M - % L.M.N.y.. O.; ; ' P.r.h Q.x . R.S.T.U.V.W.X.Y.s.u.....Z.`. +.+.       ",
". $ _ _ _ _ M - - - - - ^.++@+#+$+. %+2 &+*+=+A.. -++.. ;+>+,+,+'+)+!+; D s.~+c.b.{+]+^+.       ",
". $ M M - - - - /+/+< < 3 (+_+:+<+. t./ . [+}+-.. |+... 1+2+3+4+5+6+7+8+9+~+D D 0+Y.a+b+.       ",
". $ - - - /+/+< < < < t ^.c+d+e+f+. 8 [+g+h+i+}+}+j+k+. l+m+n+o+p+q+r+s+a+9+9+Y.a.t+u+c .       ",
". $ /+< < < < < 1.J.Q.a ) % v+w+x+y+z+A+B+C+D+}+}+}+E+F+. G+H+I+J+K+L+ +d.; M+t+N+d.d.c .       ",
". $ < < t t a a +.f.{ b.Z.O+) {+P+. . [+Q+R+S+}+[+T+U+V+. . W+G X+y B.Y+7+Z+`+Z+Z+w 8+c .       ",
". $ t a a a a  @.@r., O++@@@c+#@$@. . %@&@*@T+=@-@;@>@. =+. ,@{.'@)@`+J.!@~@{@]@`+8+8+c .       ",
". $ a  @ @ @ . .f.^@b./@1.u T : (@. v.M+_@:@<@[@}@|@1@. 2@u 3@4@5@).6@`.7@0+8@]@4.9@9@c .       ",
". $  . . . .1./@6@% /.[ `.7+@@0@Y a@U ) ) O+# M+w h r+b@. . I c@4@d@e@@@Z+!@q+f@Y+s+g@c .       ",
". $ ^.1.1.1.% h@A b b N s.r.B i@. j@4.D { O+{ O+k@B.x #@. . b l@m@n@o@p@q@r@ +v+v+v+s@c .       ",
". $ % % % 2.2.6@X.+.+...Y.b.t@. u@c+3 ,  .g %++.].{+4.' X . . v@w@x@y@)@!@0+Y+ +s@s@s@c .       ",
". $ 2.2.y z@! A@t+u.u.c.8+f . . f.{+, <  ./., 3 ) M+T [ B@. C@w@D@E@F@G@f.q@r@H@ +/@I@c .       ",
". $ 3 u J@& K@L@t+..c.t+v+M@. N@) 3  .- - a t.3 ) M+%+/.{+O@. P@Q@R@S@T@U@4.t.!+V@I@I@c .       ",
". $ N N W@C.C.X@s.c.Z+C Y@. . A ) 3 , < a r+w 3 ) M+%+/.e..+I Z@R@. g.`@ #8@.#7+X. +H@c .       ",
". $ ..s.s.s.s.c.c.D +#@###. . k@D +.3 , , B.3 +.D ; Q.]+e..@. N@$#%#&#*#+#W@`.7+=#H@~@c .       ",
". $ s.s.s.c.9+9+9+Y.@@-#;#. . X M+) +.3 3 B.+.) M+%+O+4 T [.>#,#R@. '#e _.)#!#~#Y+~@~@c .       ",
". $ ) c.9+9+9+9+Y.d.g@Y+_.. . . : ' 4 ) ) [ D ].w h ]+e.K.O@{#]#Q@^#&#/#(#_#^@Z.:#=#=#c .       ",
". $ 9+9+].Y.Y.Y.u+s+~@8@. . . . . . <#[.M+K.].%+h /.{+[#. . I }#|#1#y@2#z@3#4#.#5#6#6#c .       ",
". $ Y.Y.Y.Y.a+d.7#!+^+8#9#0#a#. . . . . k@e.{+O+]+{+~ b#c#d#. . e#f#4@{.g#h#i#j#{@5#6#c .       ",
". $ Y.Y.t+t+u+s+X.J.. . k#l#}+m#. . . . n#/.c+o#o#o#o#o#o#o#o#o#o#o#o#o#o#o#o#o#o#o#o#o#o#o#o#p#",
". $ t+t+3.8+9@s@Y+. q#r#s#}+t#u#v#. w#x e.e.r.o#x#x#x#x#x#x#x#x#x#x#x#x#x#x#x#x#x#x#x#x#x#x#x#y#",
". $ 3.8+z#9@s+/@r@7 A#B#}+t#u#C#D#E#. U K.K.r+o#x#F#G#9@( z#H#I#x#J#K#L#_ M#N#x#J#K#L#_ M#N#x#y#",
". $ z#9@9@9@g@X.~#O#. P#t#u#C#D#Q#R#. g. #g 2 o#x#S#$ T#U#V#$ W#x#X#$ Y#Z#`# $x#X#$ Y#Z#`# $x#y#",
". $ 7#7#s+s+v+X.~#. .$+$u#C#D#Q#@$#$. . . . . o#x#, $ $$x#%$$ w@x#^.$ &$x#x#x#x#^.$ &$x#x#x#x#y#",
". $ s+s+s+g@s@~@~#*$=$-$E#;$>$,$'$. )$. . . . o#x#$ $ !$x#~$$ = x#$ $ x#$ $ $ x#$ $ x#$ $ $ x#y#",
". $ g@v+v+v+/@~@{@{$. . . . . . . ]$^$/$($_$:$o#x#, $ <$x#%$$ w@x#, $ [$x#$ $ x#, $ [$x#$ $ x#y#",
". $ v+v+v+I@ +~@r@`.i#}$-#.+|$1$2$1$3$4$J@1 d@o#x#5$$ 6$U#7$$ W#x#S#$ 8$x#$ $ x#S#$ 8$x#$ $ x#y#",
". $ s@ + + + +H@:#L+Z+q+9$0$a$_._.b$c$0$U@}$e@o#x#d$e$f$= d.G#I#x#g$h$i$j$z#k$x#g$h$i$j$z#k$x#y#",
". $  +V@V@V@X.X.!+r@.#!#`+q+K+l$l$m$n$o$!@`+`+o#x#x#x#x#x#x#x#x#x#x#x#x#x#x#x#x#x#x#x#x#x#x#x#y#",
". $ V@X.X.X.H@H@=#6#J.b.`.N+!#p$p$!#N+j#`.j#j#p#y#y#y#y#y#y#y#y#y#y#y#y#y#y#y#y#y#y#y#y#y#y#y#y#",
". $ X.H@H@H@H@~@!+6#:#5#L#{@{@M#M#{@{@{@{@{@L#{@P+q$q$2#2#2#r$s$s$r$r$2#q$t$t$t$t$t$t$2@.       ",
". # H@H@H@=#6#6#6#6#6#6#6#6#6#6#Y+:#:#:#:#:#:#:#:#5#5#5#5#L#L#L#L#L#L#L#L#L#L#L#L#L#L#u$.       ",
". x c c c c c c c c c c c c c c c c c c c c c c c c c c c c c c c c c c c c c c c c u$v$.       ",
"  . . . . . . . . . . . . . . . . . . . . . . . . . . . . . . . . . . . . . . . . . . . .       ",
"                                                                                                ",
"                                                                                                ",
"                                                                                                "};
