/* XPM */
static char * na_xpm[] = {
"137 58 176 2",
"  	c None",
". 	c #FFFFFF",
"+ 	c #EDEDED",
"@ 	c #F5F5F5",
"# 	c #FDFDFD",
"$ 	c #F0F0F0",
"% 	c #F7F7F7",
"& 	c #EFEFEF",
"* 	c #D8D8D8",
"= 	c #F8F8F8",
"- 	c #DDDDDD",
"; 	c #DADADA",
"> 	c #FBFBFB",
", 	c #F9F9F9",
"' 	c #D9D9D9",
") 	c #FEFEFE",
"! 	c #DBDBDB",
"~ 	c #F6F6F6",
"{ 	c #E1E1E1",
"] 	c #E5E5E5",
"^ 	c #E2E2E2",
"/ 	c #FCFCFC",
"( 	c #FAFAFA",
"_ 	c #F4F4F4",
": 	c #EEEEEE",
"< 	c #F1F1F1",
"[ 	c #E7E7E7",
"} 	c #F2F2F2",
"| 	c #E9E9E9",
"1 	c #DEDEDE",
"2 	c #E6E6E6",
"3 	c #ECECEC",
"4 	c #F3F3F3",
"5 	c #E0E0E0",
"6 	c #E8E8E8",
"7 	c #DCDCDC",
"8 	c #E3E3E3",
"9 	c #E4E4E4",
"0 	c #DFDFDF",
"a 	c #EAEAEA",
"b 	c #CFCFCF",
"c 	c #D5D5D5",
"d 	c #D3D3D3",
"e 	c #D6D6D6",
"f 	c #EBEBEB",
"g 	c #D1D1D1",
"h 	c #D2D2D2",
"i 	c #D4D4D4",
"j 	c #CACACA",
"k 	c #CECECE",
"l 	c #CBCBCB",
"m 	c #D0D0D0",
"n 	c #000000",
"o 	c #737373",
"p 	c #191919",
"q 	c #8B8B8B",
"r 	c #080808",
"s 	c #CCCCCC",
"t 	c #A5A5A5",
"u 	c #707070",
"v 	c #797979",
"w 	c #5F5F5F",
"x 	c #6C6C6C",
"y 	c #262626",
"z 	c #161616",
"A 	c #1C1C1C",
"B 	c #020202",
"C 	c #2B2B2B",
"D 	c #636363",
"E 	c #B1B1B1",
"F 	c #BABABA",
"G 	c #4B4B4B",
"H 	c #B2B2B2",
"I 	c #A1A1A1",
"J 	c #525252",
"K 	c #5B5B5B",
"L 	c #C1C1C1",
"M 	c #060606",
"N 	c #0A0A0A",
"O 	c #383838",
"P 	c #333333",
"Q 	c #555555",
"R 	c #939393",
"S 	c #090909",
"T 	c #9C9C9C",
"U 	c #ADADAD",
"V 	c #BCBCBC",
"W 	c #949494",
"X 	c #343434",
"Y 	c #959595",
"Z 	c #3D3D3D",
"` 	c #272727",
" .	c #101010",
"..	c #292929",
"+.	c #202020",
"@.	c #010101",
"#.	c #363636",
"$.	c #999999",
"%.	c #4C4C4C",
"&.	c #5A5A5A",
"*.	c #757575",
"=.	c #838383",
"-.	c #7E7E7E",
";.	c #BEBEBE",
">.	c #1A1A1A",
",.	c #0B0B0B",
"'.	c #AAAAAA",
").	c #484848",
"!.	c #858585",
"~.	c #070707",
"{.	c #B7B7B7",
"].	c #2D2D2D",
"^.	c #C0C0C0",
"/.	c #0F0F0F",
"(.	c #626262",
"_.	c #4A4A4A",
":.	c #575757",
"<.	c #878787",
"[.	c #606060",
"}.	c #5C5C5C",
"|.	c #717171",
"1.	c #151515",
"2.	c #9A9A9A",
"3.	c #040404",
"4.	c #0C0C0C",
"5.	c #C2C2C2",
"6.	c #474747",
"7.	c #3B3B3B",
"8.	c #A2A2A2",
"9.	c #5D5D5D",
"0.	c #727272",
"a.	c #3A3A3A",
"b.	c #434343",
"c.	c #0E0E0E",
"d.	c #232323",
"e.	c #8A8A8A",
"f.	c #848484",
"g.	c #494949",
"h.	c #7B7B7B",
"i.	c #565656",
"j.	c #1E1E1E",
"k.	c #989898",
"l.	c #C5C5C5",
"m.	c #C9C9C9",
"n.	c #666666",
"o.	c #ACACAC",
"p.	c #1B1B1B",
"q.	c #373737",
"r.	c #444444",
"s.	c #646464",
"t.	c #979797",
"u.	c #A7A7A7",
"v.	c #050505",
"w.	c #B0B0B0",
"x.	c #3C3C3C",
"y.	c #808080",
"z.	c #030303",
"A.	c #545454",
"B.	c #7A7A7A",
"C.	c #2A2A2A",
"D.	c #898989",
"E.	c #5E5E5E",
"F.	c #0D0D0D",
"G.	c #A0A0A0",
"H.	c #6B6B6B",
"I.	c #B5B5B5",
"J.	c #454545",
"K.	c #111111",
"L.	c #181818",
"M.	c #919191",
"N.	c #C6C6C6",
"O.	c #767676",
"P.	c #888888",
"Q.	c #C3C3C3",
"R.	c #D7D7D7",
"S.	c #C4C4C4",
". + + + + + . . . . . . @ + + # . . . . . @ + + + $ . % + + + & . . . . . . . . . . . . . . . . . . . . . * * = - ; > * * , . # ' $ . . = * ; # ) ! * ~ . . . . . . . . . . . . . . . . . . . . . . . . . . . . . . . . . . . . . . . . . . . . . . { { , ] ^ / { { ( . # ^ _ . . ",
". + + + + + . . . . . . & + $ . . . . . . : + + + % . # + + + + ( . . . . . . . . . . . . . . . . . . . . * * , < * [ * * , . } * / . . | * ' 1 1 ; * 2 . . . . . . . . . . . . . . . . . . . . . . . . . . . . . . . . . . . . . . . . . . . . . . { { ( _ { 3 { { ( . @ { # . . ",
". + + + + + . . . . . / + + ~ . . . . . , + + + + # . . } + + + 4 . . . . . . . . . . . . . . . . . . . . * * , . 5 * * * , . 2 { . . ) ! * * * * * * ' # . . . . . . . . . . . . . . . . . . . . . . . . . . . . . . . . . . . . . . . . . . . . . { { ( . [ { { { ( . 3 6 . . ) ",
". + + + + + . . . . . ~ + + > . . . . . 4 + + + } . . . = + + + : ) . . . . . . . . . . . . . . . . . . . * * , . ~ * * * , . ! + . . < * ; ) . . . 7 * & . . . . . . . . . . . . . . . . . . . . . . . . . . . . . . . . . . . . . . . . . . . . . { { ( . = { { { ( . 8 < . . _ ",
"# + + + + + . . . . . < + & . . . . . ) + + + + , . . . ) : + + + = . . . . . . . . . . . . . . . . . . . * * , . . 9 * * , ~ * , . . ^ * ] . . . . [ * 0 . . . . . . . . . . . . . . . . . . . . . . . . . . . . . . . . . . . . . . . . . . . . . { { ( . . a { { ( = { ( . . | ",
"@ + + + + + . . . . # + + _ . . . . . % + + + + + + + + + + + + + < . . . . . . . . . . . . . . . . . . . . . . . . . . . . a 1 . . . . . . . . . . . . . . . . . . . . . . . . . . . . . . . . . . . . . . . . . . . . . . . . . . . . . . . . . . . . . . . . . . . & ] . . . . ",
"+ + + + + + . . . . = + + ( . . . . . $ + + + + + + + + + + + + + + / . . . . . . . . . . . . . . . . . . . . . . . . . . . 1 | . . . . . . . . . . . . . . . . . . . . . . . . . . . . . . . . . . . . . . . . . . . . . . . . . . . . . . . . . . . . . . . . . . . ] : . . . . ",
"+ + + + + + . . . . } + : ) . . . . / + + + + + + + + + + + + + + + @ . . . . . . . . . . . . . . . . . . . . . . . . . . . . . . . . . . . . . . . . . . . . . . . . . . . . . . . . . . . . . . . . . . . . . . . . . . . . . . . . . . . . . . . . . . . . . . . . . . . . . . ",
"+ + + + + + . . . ) : + 4 . . . . . @ + + + $ . . . . . . . ~ + + + & . . . . . . . . . . . . . . . . . . . . . . . . . . . . . . . . . . . . . . . . . . . . . . . . . . . . . . . . . . . b b * . . % b b . . . > b _ . . c b b % . . . . . . . . . . . . . . . . . . . . . . . ",
"+ + + + + + . . . , + + = . . . . . : + + + @ . . . . . . . > + + + + ( . . . . . . . . . . . . . . . . . . . . . . . . . . . . . . . . . . . . . . . . . . . . . . . . . . . . . . . . . . b b b : . % b b . . . + d . . 4 b b b 2 . . . . . . . . . . . . . . . . . . . . . . . ",
"+ + + + + + . . . _ + + # . . . . , + + + + ( . . . . . . . . : + + + 4 . . . . . . . . . . . . . . . . . . . . . . . . . . . . . . . . . . . . . . . . . . . . . . . . . . . . . . . . . . b b b e ) % b b . . . 1 { . . ^ b * b c . . . . . . . . . . . . . . . . . . . . . . . ",
": + + + + + . . . : + < . . . . . 4 + + + : . . . . . . . . . 4 + + + : ) . . . . . . . . . . . . . . . . . . . . . . . . . . . . . . . . . . . . . . . . . . . . . . . . . . . . . . . . . b b 5 b f % b b . . # g $ . ) h b 4 h b 4 . . . . . . . . . . . . . . . . . . . . . . ",
". . . . . . . . > + + % . . . . . . . . . . . . . . . . . . . . . . . . . . . . . . . . . . . . . . . . . . . . . . . . . . . . . . . . . . . . . . . . . . . . . . . . . . . . . . . . . . b b @ d i ~ b b . . $ g # . $ b d . { b ^ . . . . . . . . . . . . . . . . . . . . . . ",
". . . . . . . . @ + + / . . . . . . . . . . . . . . . . . . . . . . . . . . . . . . . . . . . . j j j * . . . . j j k . . . . > l ! . . . . e j j j ~ . . . . . . . . . . . . . . . . . . . b b % f b 5 b b . . { 1 . . 1 b ^ . $ b h ) . . . . . . . . . . . . . . . . . . . . . ",
". . . . . . . . $ + $ . . . . . . . . . . . . . . . . . . . . . . . . . . . . . . . . . . . . . j j j j $ . . . j j k . . . . 3 j f . . . = j j j j 8 . . . . . . . . . . . . . . . . . . . b b % ) e b b b . . d + . / m b b b b b b & . . . . . . . . . . . . . . . . . . . . . ",
". . . . . . . . . . . . . . . . . . . . . . . . . . . . . . . . n n n n n n n n o . . . . . . . j j j n n n n n n n k . . . . ! l > . . . ] j j p n n n q . . . . . . . . . . b n n n n n n n n n * : b b b . _ m > . 3 b m e e e h b 1 . . . . . . . . . . . . . . . . . . . . . ",
". . . . . . . . . . . . . . . . . . . . . . . . . . . . . . . . n n n n n n n n r ^ . . . . . . j j l n n n n n n n k . . . # s * . . . . h j t n n n n ! . . . . . . . . . . u n n n n n n n n n v . * b b . ] ; . . ; b 9 . . . } b m > . . . . . . . . . . . . . . . . . . . . ",
". . . . . . . . . . . . . . . . . . . . . . . . . . . . . . . . n n n n n n n n n w . . . . . . j j k n n n n n n n k . . . : j | . . . 4 j j x n n n y . . . . . . . . . . > z n n n n n n n n n A # . . . . e | . . . . . . . . . . . . . . . . . . . . . . . . . . . . . . . . ",
". . . . . . . . . . . . . . . . . . . . . . . . . . . . . . . . n n n n n n n n n B d . . . . . j j k n n n n n n n k . . . 1 j , . . . 5 j j C n n n D ) . . . . . . . . . E n n n n n n n n n n n F . . . . . . . . . . . . . . . . . . . . . . . . . . . . . . . . . . . . . . ",
". . . . . . . . . . . . . . . . . . . . . . . . . . . . . . . . n n n n n n n n n n G . . . . . j j k n n n n n n n k . . ) k c . . . ) k j H n n n n I : . . . . . . . . . J n n n n n n n n n n n K . . . . . . . . . . . . . . . . . . . . . . . . . . . . . . . . . . . . . . ",
". . . . . . . . . . . . . . . . . . . . . . . . . . . . . . . . n n n n n n n n n n n L . . . . j j k n n n n n n n k . . < j 2 . . . & j j v n n n z j ; . . . . . . . . + M n n n n n n n n n n n N } . . . . . . . . . . . . . . . . . . . . . . . . . . . . . . . . . . . . . ",
". . . . . . . . . . . . . . . . . . . . . . . . . . . . . . . . n n n n n n n n n n n O . . . . j j k n n n n n n n k . . 5 j % . . . 7 j j P n n n Q j l > . . . . . . . R n n n n n n S n n n n n n T . . . . . . . . . . . . . . . . . . . . . . . . . . . . . . . . . . . . . ",
". . . . . . . . . . . . . . . . . . . . . . . . . . . . . . . . n n n n n n n n n n n n U . . . j j k n n n n n n n k . . m d . . . / s j V B n n n W j j | . . . . . . . X n n n n n n Y n n n n n n Z . . . . . . . . . . . . . - - - { # . . . . - - - . . . . . . + - < . . . ",
". . . . . . . . . . . . . . . . . . . . . . . . . . . . . . . . n n n n n n n n n n n n ` / . . j j k n n n n n n n k . _ j 8 . . . f j j q n n n  .+ j j e . . . . . . c n n n n n n ... +.n n n n n @.- . . . . . . . . . . . . - - - - + . . . . - - - . . . . . . ^ - > . . . ",
". . . . . . . . . . . . . . . . . . . . . . . . . . . . . . . . n n n n n n n #.n n n n n $.. . j j k n n n n n n n k . 8 j _ . . . * j j %.n n n &.. m j j = . . . . . *.n n n n n n =.. v n n n n n n -.. . . . . . . . . . . . - - - - 1 ( . . . - - - . . . . . ( - 9 . . . . ",
". . . . : : & . . . . ) : 4 . . . . } : : : / . . . . . . . . . n n n n n n n ;.n n n n n >.@ . . . . n n n n n n n . . h m . . . . . . % ,.n n n '.. . . . . . . . . / p n n n n n n - . d n n n n n n +.) . . . . . . . . . . . - - - - - 2 . . . - - - . . . . . $ - : . . . . ",
"( . . . : : & . . . . , : , . . . # : : : : ~ . . . . . . . . . n n n n n n n . ).n n n n n !.. . . . n n n n n n n . . . . . . . . . . E n n n ~.4 . . . . . . . . . {.n n n n n n O . . . ].n n n n n n ^.. . . . . . . . . . . - - - 2 - - 4 . . - - - . . . . . ] - , . . . . ",
"< . . . : : & . . . . 4 : ) . . . % : : : : $ . . . . . . . . . n n n n n n n . m B n n n n /.3 . . . n n n n n n n . . . . . . . . . . (.n n n _.. . . . . . . . . . :.n n n n n n R . . . <.n n n n n n [.. . . . . . . . . . . - - - , 1 - { # . - - - . . . . / - { . . . . > ",
": = . . : : & . . . ) & } . . . . $ : : 4 : : > . . . . . . . . n n n n n n n . . }.n n n n n |.. . . n n n n n n n . . . . . . . . . # 1.n n n 2.. . . . . . . . . $ r n n n n n 3.| . . . 5 @.n n n n n 4._ . . . . . . . . . . - - - . 3 - - 3 . - - - . . . . } - 3 . . . . & ",
": $ ) . : : & . . . ( : = . . . > : : 4 ( : : @ . . . . . . . . n n n n n n n . . 0 M n n n n ~.5 . . n n n n n n n . . . . . . . . . 5.n n n B 6 . . . . . . . . . $.n n n n n n 6.. . . . . 7.n n n n n n 8.. . . . . . . . . . - - - . # 5 - 1 , - - - . . . . 6 - ~ . . . . ^ ",
": : % . : : & . . . _ : # . . . @ : : = ) & : & . . . . . . . . n n n n n n n . . . u n n n n n 9.. . n n n n n n n . . . . . . . . . 0.n n n a.. . . . . . . . . . a.n n n n n n 8.. . . . . Y n n n n n n b.. . . . . . . . . . - - - . . 4 - - 2 - - - . . . ) 1 0 ) . . . % - ",
"@ : & # : : & . . . & } . . . . & : : ) . 4 : : , . . . . . . . n n n n n n n . . . 3 c.n n n n B g . n n n n n n n . . . . . . . . . d.n n n e.. . . . . . . . . ; n n n n n n S 4 . . . . . f 3.n n n n n B ^ . . . . . . . . . - - - . . . 2 - - - - - . . . @ - | . . . . f - ",
") & : @ : : & . . > : % . . . ( : : } . . , : : 4 . . . . . . . n n n n n n n . . . . f.n n n n n g.. n n n n n n n . . . . . . . . d n n n n ' . . . . . . . . . h.n n n n n n i.. . . . . . . _.n n n n n n f.. . . . . . . . . - - - . . . , 1 - - - - . . . a - _ . . . ) 0 - ",
". % : : : : & . . @ : / . . . _ : : : : : : : : : ) . . . . . . n n n n n n n . . . . @ p n n n n n ^.n n n n n n n . . . . . . . . =.n n n ... . . . . . . . . ) j.n n n n n n n n n n n n n n n n n n n n n y . . . . . . . . . - - - . . . . 3 - - - - . . . 5 1 # . . . 4 - - ",
". ) $ : : : & . . $ < . . . ) & : : : : : : : : : = . . . . . . n n n n n n n . . . . . k.n n n n n #.n n n n n n n . . . . . . . . P n n n v . . . . . . . . . V n n n n n n n n n n n n n n n n n n n n n n n l.. . . . . . . . - - - . . . . # { - - - . . % - [ . . . . 2 - - ",
". . , : : : & . > : ~ . . . = : : _ . . . . ( : : } . . . . . . n n n n n n n . . . . . > y n n n n n n n n n n n n . . . . . . . 8 n n n n m.. . . . . . . . . 9.n n n n n n n n n n n n n n n n n n n n n n n n.. . . . . . . . . . . . . . . . . . . . . . + - < . . . . . . . ",
". . . < : : & . ~ : / . . . } : : ( . . . . . $ : : # . . . . . n n n n n n n . . . . . . o.n n n n n n n n n n n n . . . . . . . W n n n p.) . . . . . . . . 4 ,.n n n n n n n n n n n n n n n n n n n n n n n  .% . . . . . . . . . . . . . . . . . . . . . ^ - / . . . . . . . ",
". . . . . . . . < $ . . . . . . . . . . . . . . . . . . . . . . n n n n n n n . . . . . . . q.n n n n n n n n n n n . . . . . . . r.n n n s.4 _ ) . . . . . 4 t.n n n n n n n n n n n n n n n n n n n n n n n n n u.. . . . . . . . . . . . . . . . . . . . . . . . . . . . . . . ",
". . . . . . . . . . . . . . . . . . . . . . . . . . . . . . . . n n n n n n n . . . . . . . ^.n n n n n n n n n n n . . . . . . & v.n n n w.4 4 = . . . . . 4 x.n n n n n n q . . = 4 _ . . . . . / y.n n n n n n ).. . . . . . . . . . . . . . . . . . . . . . . . . . . . . . . ",
". . . . . . . . . . . . . . . . . . . . . . . . . . . . . . . . n n n n n n n . . . . . . . . _.n n n n n n n n n n . . . . . . t n n n c.: 4 4 4 ) . . . . c @.n n n n n n ! . . @ 4 % . . . . . = j n n n n n n z.2 . . . . . . . . . . . . . . . . . . . . . . . . . . . . . . ",
". . . . . . . . . . . . . . . . . . . . . . . . . . . . . . . . n n n n n n n . . . . . . . . h B n n n n n n n n n . . . . . . Q n n n A.4 4 4 4 % . . . . B.n n n n n n C.. . # 4 4 > . . . . . _ 4 +.n n n n n n D.. . . . . . . . . . . . . . . . . . . . . . . . . . . . . . ",
". . . . . . . . . . . . . . . . . . . . . . . . . . . . . . . . n n n n n n n . . . . . . . . . E.n n n n n n n n n . . . . . = F.n n n G.4 4 4 4 4 # . . ) +.n n n n n n v . . , 4 4 . . . . . > 4 4 H.n n n n n n C.. . . . . . . . . . . . . . . . . . . . . . . . . . . . . . ",
". . . . . . . . . . . . . . . . . . . . . . . . . . . . . . . . n n n n n n n . . . . . . . . . { ~.n n n n n n n n . . . . . I.n n n M [ 4 4 _ 4 4 % . . 5.n n n n n n n m.. . @ 4 % . . . . . % 4 4 I.n n n n n n n l . . . . . . . . . . . . . . . . . . . . . . . . . . . . . ",
". . . . . . . . . . . . . . . . . . . . . . . . . . . . . . . . n n n n n n n . . . . . . . . . . 0.n n n n n n n n . . . . . n.n n n J.4 4 4 ( 4 4 4 / . D n n n n n n p ) . ) 4 4 ( . . . . ) 4 4 4 & K.n n n n n n H.. . . . . . . . . . . . . . . . . . . . . . . . . . . . . ",
". . . . . . . . . . . . . . . . . . . . . . . . . . . . . . . . . . . . . . . . . . . . . . . . . . . . . . . . . . . . . . ) L.n n n M.4 4 4 . @ 4 4 ~ . . 4 4 4 4 . . . . . ( 4 4 ) . . . . ( 4 4 4 ~ . . _ 4 4 4 / . . . . . . . . . . . . . . . . . . . . . . . . . . . . . . ",
". . . . . . . . . . . . . . . . . . . . . . . . . . . . . . . . . . . . . . . . . . . . . . . . . . . . . . . . . . . . . . N.n n n @.7 4 4 4 . > 4 4 4 > . 4 4 4 4 . . . . . ~ 4 ~ . . . . . ~ 4 4 4 ( . . % 4 4 4 = . . . . . . . . . . . . . . . . . . . . . . . . . . . . . . ",
". . . . . . . . . . . . . . [ [ [ [ + . . . . [ [ [ [ . . . . . . ) 6 [ > . . . . & [ [ [ [ > . . . . . . . . . . . . . . . O.n n n O 4 4 4 4 . . ~ 4 4 @ . 4 4 4 4 . . . . ) 4 4 ( . . . . # 4 4 4 4 ) . . > 4 4 4 _ . . . . . . . . . . . . . . . . . . . . . . . . . . . . . . ",
". . . . . . . . . . . . . . [ [ [ [ [ > . . . [ [ [ [ . . . . . . % [ f . . . . # 6 [ [ [ [ } . . . . . . . . . . . . . . . ` n n n P.4 4 4 4 . . / 4 4 4 ( 4 4 4 4 . . . . > 4 4 # . . . . , 4 4 4 ~ . . . . _ 4 4 4 > . . . . . . . . . . . . . . . . . . . . . . . . . . . . . ",
". . . . . . . . . . . . . . [ [ [ [ [ $ . . . [ [ [ [ . . . . . . & [ 4 . . . . @ [ [ [ [ [ a . . . . . . . . . . . . . . . . . . . . 4 4 4 4 . . . % 4 4 _ 4 4 4 4 . . . . % 4 @ . . . . . _ 4 4 4 4 4 4 4 4 4 4 4 4 % . . . . . . . . . . . . . . . . . . . . . . . . . . . . . ",
". . . . . . . . . . . . . . [ [ [ [ [ 6 # . . [ [ [ [ . . . . . ) 6 [ > . . . . + [ [ a [ [ [ , . . . . . . . . . . . . . . . . . . . 4 4 4 4 . . . # 4 4 4 4 4 4 4 . . . . _ 4 , . . . . / 4 4 4 4 4 4 4 4 4 4 4 4 4 4 ) . . . . . . . . . . . . . . . . . . . . . . . . . . . . ",
"Q.R.. . . . . . . . . . . . [ [ [ [ [ [ 4 . . [ [ [ [ . . . . . = [ a . . . . / [ [ [ ~ a [ [ < . . . . . . . . . . . . . . . . . . . 4 4 4 4 . . . . % 4 4 4 4 4 4 . . . > 4 4 # . . . . = 4 4 4 _ _ _ _ _ _ _ 4 4 4 4 ( . . . . . . . . . f f : . . . f f / . . . & 4 . . . 4 f ",
"Q.l.> . . . . . . . . . . . [ [ [ [ & [ | . . [ [ [ [ . . . . . $ [ } . . . . 4 [ [ 6 ) } [ [ | ) . . . . . . . . . . . . . . . . . . 4 4 4 4 . . . . ) 4 4 4 4 4 4 . . . = 4 _ . . . . . _ 4 4 4 > . . . . . . , 4 4 4 ~ . . . . . . . . . f f f % . . f f / . . # f , . . ) 3 f ",
"7 Q.2 . . . . . . . . . . . [ [ [ [ ( [ [ % . [ [ [ [ . . . . . | [ ( . . . . f [ [ & . > [ [ [ % . . . . . . . . . . . . . . . . . . 4 4 4 4 . . . . . = 4 4 4 4 4 . . . _ 4 = . . . . > 4 4 4 _ . . . . . . . # 4 4 4 4 # . . . . . . . . f f f + ) . f f / . . % 3 ) . . % f & ",
"@ Q.m . . . . . . . . . . . [ [ [ [ . 3 [ 3 . [ [ [ [ . . . . , [ a . . . . ( [ [ [ % . . f [ [ & . . . . . . . . . . . . . . . . . . 4 4 4 4 . . . . . ) _ 4 4 4 4 . . / 4 4 / . . . . ~ 4 4 4 % . . . . . . . . @ 4 4 4 , . . . . . . . . f f } f @ . f f / . . $ < . . . & f % ",
". k Q.~ . . . . . . . . . . [ [ [ [ . ~ [ [ ( [ [ [ [ . . . . < [ < . . . . < [ [ 6 ) . . 4 [ [ 6 # . . . . . . . . . . . . . . . . . . . . . . . . . . . . . . . . . . , 4 _ . . . . . . . . . . . . . . . . . . . . . . . . . . . . . . . f f > + 3 # f f / . ) f % . . > f 3 ) ",
"Q.Q.Q.0 . . . . . . . . . . [ [ [ [ . . | [ & [ [ [ [ . . . . | [ , . . . . | [ [ 6 f f f a [ [ [ @ . . . . . . . . . . . . . . . . . . . . . . . . . . . . . . . . . . @ 4 % . . . . . . . . . . . . . . . . . . . . . . . . . . . . . . . f f / = f 4 f f / . = f # . . _ f 3 : ",
"~ _ S.j . . . . . . . . . . [ [ [ [ . . 4 [ [ [ [ [ [ . . . , [ | . . . . = [ [ [ [ [ [ [ [ [ [ [ + . . . . . . . . . . . . . . . . . . . . . . . . . . . . . . . . . . . . . . . . . . . . . . . . . . . . . . . . . . . . . . . . . . . . f f / . & f f f / . } & . . ) 3 f f f ",
". . g Q.& . . . . . . . . . [ [ [ [ . . # 6 [ [ [ [ [ . . . } [ $ . . . . & [ [ [ [ [ [ [ [ [ [ [ [ / . . . . . . . . . . . . . . . . . . . . . . . . . . . . . . . . . . . . . . . . . . . . . . . . . . . . . . . . . . . . . . . . . . . f f / . ( f f f / . 3 ~ . . = f 3 . . "};
