/* XPM */
static char * lirc_mini_xpm[] = {
"16 16 50 1",
" 	c None",
".	c #000080",
"+	c #4748A2",
"@	c #7072B7",
"#	c #060683",
"$	c #4648A3",
"%	c #303096",
"&	c #5E5FAD",
"*	c #F8FCF8",
"=	c #C1C4DE",
"-	c #34359A",
";	c #5D5FAF",
">	c #F0F4F4",
",	c #8588C1",
"'	c #0C0C86",
")	c #D5D8E7",
"!	c #020281",
"~	c #F5F9F7",
"{	c #9DA0CD",
"]	c #19198C",
"^	c #E0E4ED",
"/	c #5B5DAD",
"(	c #010180",
"_	c #F7FBF8",
":	c #B7BAD9",
"<	c #252592",
"[	c #9293C6",
"}	c #ECF0F3",
"|	c #B7BADA",
"1	c #DCE0EB",
"2	c #A9ACD3",
"3	c #F4F8F6",
"4	c #9598C9",
"5	c #141489",
"6	c #D1D4E6",
"7	c #4143A0",
"8	c #F1F5F5",
"9	c #8689C2",
"0	c #0F0F87",
"a	c #CACDE2",
"b	c #35379A",
"c	c #EDF0F3",
"d	c #7678BA",
"e	c #030381",
"f	c #B7B9D9",
"g	c #2A2B94",
"h	c #292A94",
"i	c #6365B0",
"j	c #050582",
"k	c #242592",
".+@#.........$%.",
".&*=-........;*.",
".&**>,'......;*.",
".&****)+!....;*.",
".&*****~{]...;*.",
".&*******^/(.;*.",
".&********_:<;*.",
"[[**********}|*[",
"[[**********12*[",
".&********345;*.",
".&*******67..;*.",
".&*****890...;*.",
".&***_ab(....;*.",
".&**cde......;*.",
".&_fg........;*.",
".hij.........k]."};
