<svg xmlns="http://www.w3.org/2000/svg" width="16" height="16" enable-background="new"><defs><filter id="a" color-interpolation-filters="sRGB"><feBlend mode="darken" in2="BackgroundImage"/></filter></defs><path style="line-height:normal;text-indent:0;text-align:start;text-decoration-line:none;text-decoration-style:solid;text-decoration-color:#000;text-transform:none;block-progression:tb;isolation:auto;mix-blend-mode:normal" d="M7.984 0a1 1 0 0 0-0.691 0.293l-7 7a1 1 0 0 0 0 1.414l7 7a1 1 0 0 0 1.414 0l7-7a1 1 0 0 0 0-1.414l-7-7A1 1 0 0 0 7.984 0zM8 4a2 2 0 1 1 0 4v1H7V7h1a1 1 0 1 0-1-1H6a2 2 0 0 1 2-2zm-0.5 5.75a0.75 0.75 0 1 1 0 1.5 0.75 0.75 0 0 1 0-1.5z" color="#000" font-weight="400" font-family="sans-serif" white-space="normal" overflow="visible" fill="#ccc" fill-rule="evenodd" enable-background="accumulate"/></svg>