<svg xmlns="http://www.w3.org/2000/svg" width="16" height="16" enable-background="new"><defs><filter id="a" color-interpolation-filters="sRGB"><feBlend mode="darken" in2="BackgroundImage"/></filter></defs><g fill="#ccc"><path d="M8 1.003a7 7 0 0 0-7 7 7 7 0 0 0 7 7 7 7 0 0 0 7-7 7 7 0 0 0-7-7zm0 2a5 5 0 0 1 5 5 5 5 0 0 1-5 5 5 5 0 0 1-5-5 5 5 0 0 1 5-5z"/><path style="marker:none" d="M10.406 5.187a0.504 0.504 0 0 0-0.25 0.157L8 7.5 6.344 5.844c-0.157-0.257-0.568-0.307-0.782-0.094-0.213 0.213-0.163 0.624 0.094 0.781l2 2a0.519 0.519 0 0 0 0.688 0l2.5-2.5c0.293-0.298-0.025-0.91-0.438-0.843z" color="#bebebe" overflow="visible" enable-background="accumulate"/></g></svg>