<svg xmlns="http://www.w3.org/2000/svg" width="16" height="16" enable-background="new"><defs><filter id="a" color-interpolation-filters="sRGB"><feBlend mode="darken" in2="BackgroundImage"/></filter></defs><path d="M5 2.003l-5 6 5 6h11v-12zm2 3h1c0.277 0 0.526 0.113 0.707 0.293L10 6.59l1.293-1.293c0.18-0.18 0.43-0.293 0.707-0.293h1v1a0.996 0.996 0 0 1-0.293 0.707l-1.293 1.293 1.293 1.293c0.18 0.181 0.293 0.43 0.293 0.707v1h-1a0.996 0.996 0 0 1-0.707-0.293L10 9.417 8.707 10.71a0.996 0.996 0 0 1-0.707 0.293H7v-1c0-0.277 0.112-0.526 0.293-0.707l1.293-1.293L7.293 6.71A0.996 0.996 0 0 1 7 6.003z" fill="#ccc"/></svg>