<svg xmlns="http://www.w3.org/2000/svg" width="16" height="16" enable-background="new"><defs><filter id="a" color-interpolation-filters="sRGB"><feBlend mode="darken" in2="BackgroundImage"/></filter></defs><g fill="#ccc"><path d="M4.3 2l-2.858 8H2.87l0.607-1.714h2.785L6.871 10H8.46L5.442 2zm0.57 2.286l1 2.857h-2z"/><path style="line-height:normal;-inkscape-font-specification:Sans;text-indent:0;text-align:start;text-decoration-line:none;text-transform:none;block-progression:tb;marker:none" d="M10 5v1h2.5c0.214 0 0.5 0.307 0.5 0.5V7h-2.5c-0.46 0-0.868 0.192-1.125 0.484A1.509 1.509 0 0 0 9 8.5c0.003 0.36 0.134 0.726 0.39 1.016 0.257 0.289 0.656 0.484 1.11 0.484H14v-0.422c0.008-0.047 0-0.078 0-0.078v-3A1.5 1.5 0 0 0 12.5 5H10zm0.5 3H13v1h-2.5c-0.199 0-0.283-0.055-0.36-0.14A0.572 0.572 0 0 1 10 8.5a0.56 0.56 0 0 1 0.125-0.36c0.073-0.082 0.164-0.14 0.375-0.14z" color="#000" font-weight="400" font-family="Sans" overflow="visible" enable-background="accumulate"/><path d="M5 11.997l3 4 3-4z"/></g></svg>