<svg xmlns="http://www.w3.org/2000/svg" width="16" height="16" enable-background="new"><defs><filter id="a" color-interpolation-filters="sRGB"><feBlend mode="darken" in2="BackgroundImage"/></filter></defs><path style="line-height:normal;-inkscape-font-specification:Sans;text-indent:0;text-align:start;text-decoration-line:none;text-transform:none;block-progression:tb;marker:none" d="M5.218 1l-0.312 0.281L1.28 4.906 1 5.22V10.78l0.28 0.313 3.626 3.625 0.312 0.281h5.563l0.312-0.281 3.625-3.625 0.282-0.313V5.22l-0.282-0.313-3.625-3.625L10.781 1H5.218zm-0.25 3.938h1c0.276 0 0.538 0.1 0.72 0.28l1.28 1.278L9.25 5.22c0.18-0.181 0.442-0.281 0.718-0.281h1v1c0 0.276-0.1 0.537-0.28 0.718L9.405 7.934l1.281 1.285c0.181 0.18 0.283 0.442 0.281 0.719v1h-1c-0.276 0-0.537-0.1-0.718-0.282L7.968 9.371l-1.28 1.285a1.015 1.015 0 0 1-0.72 0.282h-1v-1c0-0.277 0.1-0.538 0.282-0.72l1.28-1.284-1.28-1.278a1.015 1.015 0 0 1-0.282-0.718v-1z" color="#000" font-weight="400" font-family="Sans" overflow="visible" fill="#ccc" enable-background="accumulate"/></svg>