<svg xmlns="http://www.w3.org/2000/svg" width="16" height="16" enable-background="new"><defs><filter id="a" color-interpolation-filters="sRGB"><feBlend mode="darken" in2="BackgroundImage"/></filter></defs><g color="#000" fill="#ccc"><path style="marker:none" d="M2.5 13c-0.822 0-1.5-0.678-1.5-1.5S1.678 10 2.5 10s1.5 0.678 1.5 1.5S3.322 13 2.5 13zm0-4C1.678 9 1 8.322 1 7.5S1.678 6 2.5 6 4 6.678 4 7.5 3.322 9 2.5 9zm0-4C1.678 5 1 4.322 1 3.5S1.678 2 2.5 2 4 2.678 4 3.5 3.322 5 2.5 5zM8 3v4H4.937L10 14l5.188-7H12V3z" overflow="visible" enable-background="new"/></g></svg>