<svg xmlns="http://www.w3.org/2000/svg" width="16" height="16" enable-background="new"><defs><filter id="a" color-interpolation-filters="sRGB"><feBlend mode="darken" in2="BackgroundImage"/></filter></defs><path d="M5 4.003a1 1 0 0 0-1 1 1 1 0 0 0 0.293 0.707l2.293 2.293-2.293 2.293a1 1 0 0 0-0.293 0.707 1 1 0 0 0 1 1 1 1 0 0 0 0.707-0.293L8 9.417l2.283 2.284a1 1 0 0 0 0.717 0.302 1 1 0 0 0 1-1 1 1 0 0 0-0.293-0.707L9.414 8.003l2.283-2.283A1 1 0 0 0 12 5.003a1 1 0 0 0-1-1 1 1 0 0 0-0.707 0.293L8 6.59 5.717 4.306a1 1 0 0 0-0.01-0.01A1 1 0 0 0 5 4.003z" fill="#ccc" enable-background="new"/></svg>